<svg width="80" height="80" viewBox="0 0 80 80" fill="none" xmlns="http://www.w3.org/2000/svg">
<g clip-path="url(#clip0_290_122)">
<path d="M14.4095 10.2477C14.4095 10.8507 13.9206 11.3396 13.3177 11.3396H13.2691C12.6659 11.3396 12.1772 10.8507 12.1772 10.2477C12.1772 9.64473 12.6661 9.15582 13.2691 9.15582H13.3177C13.9206 9.15582 14.4095 9.64473 14.4095 10.2477ZM59.5166 9.15582H29.625C29.0219 9.15582 28.5331 9.64473 28.5331 10.2477C28.5331 10.8507 29.022 11.3396 29.625 11.3396H59.5167C60.1198 11.3396 60.6086 10.8507 60.6086 10.2477C60.6086 9.64473 60.1197 9.15582 59.5166 9.15582ZM16.7214 9.15582H16.6728C16.0697 9.15582 15.5809 9.64473 15.5809 10.2477C15.5809 10.8507 16.0698 11.3396 16.6728 11.3396H16.7214C17.3245 11.3396 17.8133 10.8507 17.8133 10.2477C17.8133 9.64473 17.3245 9.15582 16.7214 9.15582ZM20.1252 9.15582H20.0766C19.4734 9.15582 18.9847 9.64473 18.9847 10.2477C18.9847 10.8507 19.4736 11.3396 20.0766 11.3396H20.1252C20.7283 11.3396 21.217 10.8507 21.217 10.2477C21.217 9.64473 20.7283 9.15582 20.1252 9.15582ZM79.9219 53.3303C79.9219 62.6538 72.3347 70.2389 63.0088 70.2389C58.353 70.2389 54.1306 68.3472 51.0698 65.2924H46.1267V73.183H52.0105C52.6136 73.183 53.1023 73.6719 53.1023 74.2749C53.1023 74.8779 52.6134 75.3668 52.0105 75.3668H20.7792C20.1761 75.3668 19.6873 74.8779 19.6873 74.2749C19.6873 73.6719 20.1762 73.183 20.7792 73.183H26.6586V65.2924H1.17C0.566875 65.2924 0.078125 64.8035 0.078125 64.2005V18.3021C0.078125 17.6991 0.567031 17.2102 1.17 17.2102H5.82922V14.77V5.72566C5.82922 5.1227 6.31812 4.63379 6.92109 4.63379H65.8687C66.4719 4.63379 66.9606 5.1227 66.9606 5.72566V14.77V17.2102H71.6198C72.223 17.2102 72.7117 17.6991 72.7117 18.3021V39.4857C77.0688 42.5482 79.9219 47.6121 79.9219 53.3303ZM66.9608 19.3938V36.8847C68.2092 37.1847 69.4039 37.6235 70.5281 38.1838V19.3938H66.9608ZM63.0088 36.4174C63.6058 36.4174 64.1956 36.4489 64.7769 36.5096V15.8618H8.01313V50.731H46.2998C47.5536 42.6347 54.5689 36.4174 63.0088 36.4174ZM8.01313 13.6782H64.7769V6.81738H8.01313V13.6782ZM2.26203 19.3938V57.4149H46.6002C46.2742 56.1063 46.1002 54.7383 46.1002 53.3302C46.1002 53.1913 46.102 53.0529 46.1055 52.9147H6.92125C6.31813 52.9147 5.82937 52.4258 5.82937 51.8229V19.3938H2.26203ZM2.26203 63.1085H49.2216C48.4514 62.0258 47.8063 60.8486 47.3055 59.5985H2.26203V63.1085ZM43.943 65.2922H28.8427V73.1828H43.943V65.2922ZM77.738 53.3303C77.738 45.2086 71.1305 38.6011 63.0088 38.6011C54.8895 38.6011 48.2839 45.2086 48.2839 53.3303C48.2839 61.4496 54.8894 68.0552 63.0088 68.0552C71.1305 68.0552 77.738 61.4496 77.738 53.3303ZM58.1272 48.0405C57.7008 47.6141 57.0094 47.6141 56.583 48.0405L52.0653 52.5582C51.8605 52.763 51.7455 53.0408 51.7455 53.3305C51.7456 53.6202 51.8608 53.898 52.0658 54.1027L56.5834 58.6161C56.7967 58.8291 57.0758 58.9355 57.3552 58.9355C57.6347 58.9355 57.9144 58.8288 58.1277 58.6154C58.5539 58.1888 58.5534 57.4974 58.1269 57.0713L54.382 53.3299L58.1273 49.5846C58.5536 49.1583 58.5536 48.4669 58.1272 48.0405ZM73.957 52.5582L69.4392 48.0405C69.0128 47.6143 68.3214 47.6141 67.895 48.0405C67.4686 48.4669 67.4686 49.1583 67.895 49.5847L71.6405 53.3299L67.8955 57.0713C67.4689 57.4975 67.4684 58.1888 67.8947 58.6154C68.108 58.8288 68.3875 58.9355 68.6672 58.9355C68.9466 58.9355 69.2258 58.8291 69.4389 58.6161L73.9567 54.1027C74.1617 53.898 74.2769 53.6202 74.277 53.3305C74.2769 53.0408 74.1619 52.763 73.957 52.5582ZM65.6453 47.4083C65.0947 47.163 64.4489 47.4111 64.2039 47.9619L59.8233 57.8064C59.5781 58.3574 59.8261 59.0027 60.3769 59.248C60.5211 59.3122 60.6719 59.3425 60.8202 59.3425C61.2383 59.3425 61.6373 59.101 61.8183 58.6943L66.1989 48.8497C66.4441 48.2988 66.1961 47.6535 65.6453 47.4083ZM50.0258 28.3858L46.1577 30.3538L50.0261 32.3235C50.3922 32.5099 50.6227 32.8858 50.6227 33.2968C50.6225 33.7075 50.3919 34.0835 50.0258 34.2697L46.1547 36.2391L50.0255 38.2071C50.3917 38.3933 50.6225 38.7693 50.6227 39.1802C50.6227 39.5911 50.392 39.9672 50.0258 40.1535L36.8878 46.8374C36.7323 46.9166 36.5625 46.9561 36.3927 46.9561C36.2228 46.9561 36.0531 46.9166 35.8975 46.8374L22.7595 40.1535C22.3933 39.9671 22.1627 39.591 22.1627 39.18C22.1628 38.7691 22.3937 38.393 22.7602 38.2069L26.632 36.2399L22.7595 34.2697C22.3934 34.0835 22.1627 33.7075 22.1627 33.2966C22.1627 32.8858 22.3934 32.5097 22.7595 32.3235L26.6292 30.3547L22.7595 28.386C22.3934 28.1997 22.1627 27.8236 22.1627 27.4129C22.1627 27.0021 22.3934 26.626 22.7595 26.4397L35.8975 19.7558C36.2084 19.5974 36.5767 19.5974 36.8877 19.7558L50.0256 26.4397C50.3917 26.626 50.6225 27.0021 50.6225 27.4129C50.6227 27.8235 50.3919 28.1996 50.0258 28.3858ZM43.7464 37.4643L36.8878 40.9535C36.7323 41.0327 36.5625 41.0722 36.3927 41.0722C36.2228 41.0722 36.0531 41.0327 35.8975 40.9535L29.0411 37.4654L25.6642 39.181L36.3927 44.6391L47.1219 39.1807L43.7464 37.4643ZM43.7503 31.5785L36.888 35.0697C36.7325 35.1489 36.5627 35.1885 36.3928 35.1885C36.223 35.1885 36.0533 35.1489 35.8977 35.0697L29.0373 31.5796L25.6628 33.2964L36.3928 38.7554L47.1236 33.2961L43.7503 31.5785ZM47.1227 27.4127L36.3928 21.9539L25.663 27.4127L29.4616 29.3452C29.5105 29.3655 29.5577 29.3899 29.6031 29.4172L36.3928 32.8714L43.2064 29.405C43.2381 29.3869 43.2703 29.3704 43.3036 29.3557L47.1227 27.4127Z" fill="white"/>
</g>
<defs>
<clipPath id="clip0_290_122">
<rect width="80" height="80" fill="white"/>
</clipPath>
</defs>
</svg>
