<svg width="80" height="80" viewBox="0 0 80 80" fill="none" xmlns="http://www.w3.org/2000/svg">
<g clip-path="url(#clip0_290_113)">
<path d="M70.2578 17.8738H57.5328C57.3016 17.366 57.05 16.8691 56.775 16.3832L59.3109 13.691C59.7984 13.1738 59.7859 12.3754 59.2828 11.8723L53.9609 6.55977C53.4594 6.0582 52.6609 6.0457 52.1437 6.53164L49.4422 9.06289C48.0984 8.30664 46.6703 7.71602 45.1844 7.30195L45.0703 3.60977C45.0484 2.90039 44.475 2.3457 43.7641 2.3457H36.2359C35.5266 2.3457 34.9531 2.90195 34.9297 3.61133L34.8156 7.30352C33.3297 7.71758 31.9 8.30977 30.5547 9.06758L27.8609 6.53164C27.3438 6.0457 26.5453 6.05664 26.0438 6.5582L20.7219 11.8707C20.2187 12.3738 20.2063 13.1723 20.6953 13.6895L23.2312 16.377C22.9562 16.8645 22.7031 17.3629 22.4719 17.8723H9.74531C7.39062 17.8723 5.47656 19.7879 5.47656 22.1426V62.5316C5.47656 64.8863 7.39219 66.802 9.74531 66.802H32.2422L31.2281 70.5816H26.9766C26.4594 70.5816 26.0391 71.002 26.0391 71.5191V76.7191C26.0391 77.2363 26.4594 77.6566 26.9766 77.6566H53.0281C53.5453 77.6566 53.9656 77.2363 53.9656 76.7191V71.5191C53.9656 71.002 53.5453 70.5816 53.0281 70.5816H48.8359L48.1266 66.802H70.2594C72.6141 66.802 74.5281 64.8863 74.5281 62.5316V22.1426C74.5281 19.7879 72.6125 17.8738 70.2578 17.8738ZM25.0578 16.9645C25.3594 16.4582 25.2906 15.8301 24.8859 15.4004L22.4375 12.8066L26.9781 8.27539L29.5797 10.7207C30.0078 11.1238 30.6359 11.1926 31.1422 10.8926C32.5641 10.0488 34.0969 9.41602 35.6953 9.0082C36.2656 8.86289 36.6609 8.3707 36.6781 7.7832L36.7891 4.21914H43.2141L43.325 7.7832C43.3437 8.3707 43.7391 8.86289 44.3078 9.0082C45.9078 9.41602 47.4375 10.0488 48.8578 10.891C49.3625 11.191 49.9906 11.1207 50.4172 10.7191L53.0234 8.27383L57.5656 12.8066L55.1187 15.4051C54.7156 15.8332 54.6453 16.4613 54.9469 16.9676C55.7906 18.3863 56.425 19.9129 56.8328 21.5082C56.9781 22.077 57.4703 22.4723 58.0578 22.4895L61.6312 22.6004V29.0082L58.0594 29.1191C57.4719 29.1379 56.9797 29.5316 56.8344 30.1004C56.4266 31.6957 55.7922 33.2223 54.9484 34.641C54.6469 35.1473 54.7172 35.7754 55.1203 36.2035L57.5672 38.802L53.025 43.3348L50.4188 40.8895C49.9906 40.4879 49.3641 40.4191 48.8594 40.7191C47.4375 41.5613 45.9047 42.1957 44.3047 42.602C43.7344 42.7473 43.3391 43.2395 43.3219 43.8285L43.2156 47.3895H36.7922L36.6859 43.827C36.6687 43.2395 36.2734 42.7457 35.7031 42.602C34.1016 42.1941 32.5672 41.5598 31.1453 40.716C30.6391 40.416 30.0125 40.4848 29.5844 40.8879L26.9828 43.3332L22.4422 38.802L24.8906 36.2082C25.2953 35.7801 25.3641 35.152 25.0625 34.6457C24.2172 33.2254 23.5813 31.6941 23.1734 30.0973C23.0281 29.527 22.5344 29.1332 21.9469 29.1145L18.3766 29.0082V22.602L21.9469 22.4957C22.5344 22.4785 23.0281 22.0832 23.1734 21.5129C23.5781 19.9129 24.2125 18.3832 25.0578 16.9645ZM9.74531 19.7488H21.7375C21.6406 20.041 21.5484 20.3363 21.4656 20.6332L17.7672 20.7441C17.0562 20.766 16.5 21.3379 16.5 22.0488V29.5613C16.5 30.2723 17.0562 30.8441 17.7672 30.866L21.4656 30.977C21.8797 32.4598 22.4734 33.8879 23.2328 35.2316L20.6969 37.9191C20.2078 38.4363 20.2203 39.2363 20.7234 39.7395L26.0453 45.0519C26.5484 45.5535 27.3469 45.5645 27.8625 45.0785L30.5578 42.5457C31.9031 43.3035 33.3344 43.8957 34.8234 44.3098L34.9344 48.0004C34.9562 48.7098 35.5297 49.266 36.2406 49.266H43.7672C44.4781 49.266 45.0516 48.7098 45.0734 48.0004L45.1844 44.3098C46.6703 43.8957 48.1 43.3051 49.4453 42.5473L52.1437 45.0801C52.6609 45.566 53.4594 45.5535 53.9609 45.0519L59.2844 39.7395C59.7875 39.2363 59.8 38.4379 59.3125 37.9207L56.7766 35.2285C57.5344 33.8879 58.125 32.4629 58.5391 30.9816L62.2406 30.8676C62.95 30.8457 63.5062 30.2723 63.5062 29.5629V22.0473C63.5062 21.3379 62.95 20.7645 62.2406 20.7426L58.5391 20.6285C58.4563 20.3332 58.3641 20.0395 58.2672 19.7488H70.2594C71.5797 19.7488 72.6531 20.8238 72.6531 22.1441V58.1629H7.35V22.1426C7.35 20.8223 8.425 19.7488 9.74531 19.7488ZM52.0891 75.7816H27.9141V72.4566H31.9453H31.9469H31.9484H48.0547H48.0562H48.0578H52.0891V75.7816ZM46.9266 70.5816H33.1672L34.1812 66.802H46.2156L46.9266 70.5816ZM70.2578 64.927H47.0109H9.74531C8.425 64.927 7.35156 63.852 7.35156 62.5316V60.0363H72.6531V62.5316C72.6531 63.852 71.5781 64.927 70.2578 64.927ZM42.7469 62.4816C42.7469 62.9988 42.3266 63.4191 41.8094 63.4191H38.1922C37.675 63.4191 37.2547 62.9988 37.2547 62.4816C37.2547 61.9645 37.675 61.5441 38.1922 61.5441H41.8094C42.3281 61.5441 42.7469 61.9645 42.7469 62.4816ZM36.3625 39.3629C37.5766 39.6879 38.7969 39.8426 39.9984 39.8426C46.2063 39.8426 51.9031 35.7004 53.5859 29.4379C54.5578 25.816 54.0594 22.0332 52.1813 18.7848C50.3031 15.5379 47.2703 13.216 43.6422 12.2457C36.1531 10.2426 28.4266 14.6957 26.4203 22.1707C25.4484 25.7926 25.9469 29.5754 27.825 32.8238C29.7016 36.0707 32.7344 38.3926 36.3625 39.3629ZM28.2297 22.6566C29.6875 17.2285 34.6234 13.641 40.0047 13.641C41.0453 13.641 42.1047 13.7754 43.1562 14.0566C46.3 14.8973 48.9297 16.9098 50.5562 19.7238C52.1828 22.5363 52.6156 25.8145 51.7734 28.952C50.3156 34.3801 45.3797 37.9691 39.9984 37.9676C38.9578 37.9676 37.8984 37.8332 36.8469 37.552C33.7031 36.7113 31.0734 34.6988 29.4469 31.8848C27.8188 29.0707 27.3875 25.7941 28.2297 22.6566ZM29.9125 28.6551V23.0066C29.9125 22.627 30.1406 22.2863 30.4906 22.141C30.8406 21.9957 31.2438 22.0754 31.5125 22.3441L33.5531 24.3801L35.5797 22.3566C35.8484 22.0895 36.2516 22.0082 36.6016 22.1535C36.9516 22.2988 37.1797 22.641 37.1797 23.0191V28.6535C37.1797 29.1707 36.7594 29.591 36.2422 29.591C35.725 29.591 35.3047 29.1707 35.3047 28.6535V25.2785L34.2156 26.366C33.85 26.7316 33.2563 26.7316 32.8906 26.366L31.7875 25.266V28.6535C31.7875 29.1707 31.3672 29.591 30.85 29.591C30.3328 29.591 29.9125 29.1723 29.9125 28.6551ZM37.9719 23.3145C37.7719 22.8363 37.9984 22.2879 38.475 22.0879C38.9531 21.8879 39.5016 22.1145 39.7016 22.591L41.2188 26.2207L42.7359 22.591C42.9359 22.1129 43.4844 21.8879 43.9625 22.0879C44.4406 22.2879 44.6656 22.8363 44.4656 23.3145L42.0844 29.016C41.9391 29.3645 41.5969 29.5926 41.2188 29.5926C40.8406 29.5926 40.5 29.366 40.3531 29.016L37.9719 23.3145ZM46.1297 29.5926C46.6469 29.5926 47.0672 29.1723 47.0672 28.6551V26.9629H47.6844C49.0109 26.9629 50.0906 25.8832 50.0906 24.5566C50.0906 23.2301 49.0109 22.1504 47.6844 22.1504H46.1297C45.6125 22.1504 45.1922 22.5707 45.1922 23.0879V25.8723V26.0254V28.6551C45.1922 29.1723 45.6125 29.5926 46.1297 29.5926ZM47.0672 24.0238H47.6844C47.9719 24.0238 48.2156 24.2676 48.2156 24.5551C48.2156 24.8426 47.9719 25.0863 47.6844 25.0863H47.0672V24.0238ZM61.3297 48.9098C61.3297 48.3926 61.75 47.9723 62.2672 47.9723H69.8047C70.3219 47.9723 70.7422 48.3926 70.7422 48.9098C70.7422 49.4269 70.3219 49.8473 69.8047 49.8473H62.2672C61.75 49.8473 61.3297 49.4269 61.3297 48.9098ZM58.75 52.116C58.75 51.5988 59.1703 51.1785 59.6875 51.1785H69.8047C70.3219 51.1785 70.7422 51.5988 70.7422 52.116C70.7422 52.6332 70.3219 53.0535 69.8047 53.0535H59.6875C59.1703 53.0535 58.75 52.6332 58.75 52.116ZM58.75 55.3223C58.75 54.8051 59.1703 54.3848 59.6875 54.3848H69.8047C70.3219 54.3848 70.7422 54.8051 70.7422 55.3223C70.7422 55.8395 70.3219 56.2598 69.8047 56.2598H59.6875C59.1703 56.2598 58.75 55.8395 58.75 55.3223ZM9.26094 48.9098C9.26094 48.3926 9.68125 47.9723 10.1984 47.9723H17.7359C18.2531 47.9723 18.6734 48.3926 18.6734 48.9098C18.6734 49.4269 18.2531 49.8473 17.7359 49.8473H10.1984C9.67969 49.8473 9.26094 49.4269 9.26094 48.9098ZM9.26094 52.116C9.26094 51.5988 9.68125 51.1785 10.1984 51.1785H20.3156C20.8328 51.1785 21.2531 51.5988 21.2531 52.116C21.2531 52.6332 20.8328 53.0535 20.3156 53.0535H10.1984C9.67969 53.0535 9.26094 52.6332 9.26094 52.116ZM9.26094 55.3223C9.26094 54.8051 9.68125 54.3848 10.1984 54.3848H20.3156C20.8328 54.3848 21.2531 54.8051 21.2531 55.3223C21.2531 55.8395 20.8328 56.2598 20.3156 56.2598H10.1984C9.67969 56.2598 9.26094 55.8395 9.26094 55.3223Z" fill="white"/>
</g>
<defs>
<clipPath id="clip0_290_113">
<rect width="80" height="80" fill="white"/>
</clipPath>
</defs>
</svg>
