<svg width="80" height="80" viewBox="0 0 80 80" fill="none" xmlns="http://www.w3.org/2000/svg">
<g clip-path="url(#clip0_290_116)">
<path d="M72.8412 4.83008H7.15875C4.59 4.83008 2.5 6.93008 2.5 9.51258V56.4713C2.5 59.0401 4.59 61.1301 7.15875 61.1301H33.315V66.2813H31.9688C27.7563 66.2813 24.33 69.7076 24.33 73.9201C24.33 74.6113 24.8888 75.1701 25.58 75.1701H54.4063C55.0975 75.1701 55.6563 74.6113 55.6563 73.9201C55.6563 69.7076 52.23 66.2813 48.0175 66.2813H46.6638V61.1301H72.8425C75.4112 61.1301 77.5012 59.0401 77.5012 56.4713V9.51258C77.5012 6.93133 75.41 4.83008 72.8412 4.83008ZM53.0013 72.6688H26.9837C27.5437 70.4376 29.5663 68.7801 31.9688 68.7801H48.0162C50.4187 68.7801 52.4413 70.4376 53.0013 72.6688ZM44.1625 66.2751H35.815V61.1288H44.1625V66.2751ZM75 56.4701C75 57.6601 74.0325 58.6288 72.8412 58.6288H7.15875C5.96875 58.6288 5 57.6613 5 56.4701V9.51258C5 8.31008 5.9675 7.33008 7.15875 7.33008H72.8412C74.0312 7.33008 75 8.30883 75 9.51258V56.4701Z" fill="white"/>
<path d="M33.295 13.8008H10.6562C9.965 13.8008 9.40625 14.3608 9.40625 15.0508V36.3133C9.40625 37.0033 9.965 37.5633 10.6562 37.5633H33.295C33.9863 37.5633 34.545 37.0033 34.545 36.3133V15.0508C34.545 14.3608 33.9863 13.8008 33.295 13.8008ZM23.8888 16.3008V21.8345H20.0638V16.3008H23.8888ZM32.045 35.0633H11.9062V16.3008H17.5625V23.0845C17.5625 23.7745 18.1213 24.3345 18.8125 24.3345H25.1375C25.8288 24.3345 26.3875 23.7745 26.3875 23.0845V16.3008H32.0438L32.045 35.0633Z" fill="white"/>
<path d="M24.5938 28.3057C23.9025 28.3057 23.3438 28.8657 23.3438 29.5557C23.3438 30.2457 23.9025 30.8057 24.5938 30.8057H29.29C29.9812 30.8057 30.54 30.2457 30.54 29.5557C30.54 28.8657 29.9812 28.3057 29.29 28.3057H24.5938Z" fill="white"/>
<path d="M29.29 31.4072H24.5938C23.9025 31.4072 23.3438 31.9672 23.3438 32.6572C23.3438 33.3472 23.9025 33.9072 24.5938 33.9072H29.29C29.9812 33.9072 30.54 33.3472 30.54 32.6572C30.54 31.9672 29.9812 31.4072 29.29 31.4072Z" fill="white"/>
<path d="M47.3375 17.2172C47.3375 14.7722 45.3475 12.7822 42.9025 12.7822C40.4575 12.7822 38.4688 14.7722 38.4688 17.2172C38.4688 19.2247 39.8175 20.9047 41.65 21.4497V28.751C39.8213 29.2947 38.475 30.971 38.475 32.9747C38.475 34.9785 39.8213 36.6647 41.65 37.2097V44.5097C39.8175 45.0547 38.4688 46.7347 38.4688 48.7422C38.4688 51.1872 40.4575 53.1772 42.9025 53.1772C45.3475 53.1772 47.3375 51.1872 47.3375 48.7422C47.3375 46.7335 45.9863 45.051 44.15 44.5085V37.211C45.985 36.6672 47.3375 34.9847 47.3375 32.9747C47.3375 30.9647 45.9863 29.2922 44.15 28.751V21.4522C45.985 20.9097 47.3375 19.226 47.3375 17.2172ZM40.9688 17.2172C40.9688 16.1497 41.8362 15.2822 42.9025 15.2822C43.9687 15.2822 44.8375 16.1497 44.8375 17.2172C44.8375 18.2847 43.9725 19.1472 42.9088 19.151C42.905 19.151 42.9025 19.1497 42.9 19.1497C42.8975 19.1497 42.895 19.151 42.8925 19.151C41.8312 19.146 40.9688 18.281 40.9688 17.2172ZM44.8375 48.7422C44.8375 49.8097 43.97 50.6772 42.9025 50.6772C41.835 50.6772 40.9688 49.8097 40.9688 48.7422C40.9688 47.681 41.8275 46.8185 42.885 46.8097C42.89 46.8097 42.895 46.8122 42.9 46.8122C42.9063 46.8122 42.9113 46.8085 42.9175 46.8085C43.9775 46.816 44.8375 47.6797 44.8375 48.7422ZM44.8375 32.9747C44.8375 34.0435 43.9688 34.9122 42.9 34.9122C41.8375 34.9122 40.975 34.0435 40.975 32.9747C40.975 31.9135 41.8375 31.0497 42.9 31.0497C43.9675 31.0497 44.8375 31.9135 44.8375 32.9747Z" fill="white"/>
<path d="M67.9352 13.9492H58.5977C57.9064 13.9492 57.3477 14.5092 57.3477 15.1992C57.3477 15.8892 57.9064 16.4492 58.5977 16.4492H67.9352C68.6264 16.4492 69.1852 15.8892 69.1852 15.1992C69.1852 14.5092 68.6264 13.9492 67.9352 13.9492Z" fill="white"/>
<path d="M52.1016 16.4492H54.7641C55.4553 16.4492 56.0141 15.8892 56.0141 15.1992C56.0141 14.5092 55.4553 13.9492 54.7641 13.9492H52.1016C51.4103 13.9492 50.8516 14.5092 50.8516 15.1992C50.8516 15.8892 51.4103 16.4492 52.1016 16.4492Z" fill="white"/>
<path d="M52.1016 20.4863H65.1003C65.7916 20.4863 66.3503 19.9263 66.3503 19.2363C66.3503 18.5463 65.7916 17.9863 65.1003 17.9863H52.1016C51.4103 17.9863 50.8516 18.5463 50.8516 19.2363C50.8516 19.9263 51.4103 20.4863 52.1016 20.4863Z" fill="white"/>
<path d="M67.9352 29.7119H58.5977C57.9064 29.7119 57.3477 30.2719 57.3477 30.9619C57.3477 31.6519 57.9064 32.2119 58.5977 32.2119H67.9352C68.6264 32.2119 69.1852 31.6519 69.1852 30.9619C69.1852 30.2719 68.6264 29.7119 67.9352 29.7119Z" fill="white"/>
<path d="M52.1016 29.7119C51.4103 29.7119 50.8516 30.2719 50.8516 30.9619C50.8516 31.6519 51.4103 32.2119 52.1016 32.2119H54.7641C55.4553 32.2119 56.0141 31.6519 56.0141 30.9619C56.0141 30.2719 55.4553 29.7119 54.7641 29.7119H52.1016Z" fill="white"/>
<path d="M52.1016 36.25H65.1003C65.7916 36.25 66.3503 35.69 66.3503 35C66.3503 34.31 65.7916 33.75 65.1003 33.75H52.1016C51.4103 33.75 50.8516 34.31 50.8516 35C50.8516 35.69 51.4103 36.25 52.1016 36.25Z" fill="white"/>
<path d="M67.9352 45.7695H58.5977C57.9064 45.7695 57.3477 46.3283 57.3477 47.0195C57.3477 47.7108 57.9064 48.2695 58.5977 48.2695H67.9352C68.6264 48.2695 69.1852 47.7108 69.1852 47.0195C69.1852 46.3283 68.6264 45.7695 67.9352 45.7695Z" fill="white"/>
<path d="M52.1016 45.7695C51.4103 45.7695 50.8516 46.3283 50.8516 47.0195C50.8516 47.7108 51.4103 48.2695 52.1016 48.2695H54.7641C55.4553 48.2695 56.0141 47.7108 56.0141 47.0195C56.0141 46.3283 55.4553 45.7695 54.7641 45.7695H52.1016Z" fill="white"/>
<path d="M65.1003 49.8057H52.1016C51.4103 49.8057 50.8516 50.3644 50.8516 51.0557C50.8516 51.7469 51.4103 52.3057 52.1016 52.3057H65.1003C65.7916 52.3057 66.3503 51.7469 66.3503 51.0557C66.3503 50.3644 65.7916 49.8057 65.1003 49.8057Z" fill="white"/>
</g>
<defs>
<clipPath id="clip0_290_116">
<rect width="80" height="80" fill="white"/>
</clipPath>
</defs>
</svg>
