<svg width="80" height="80" viewBox="0 0 80 80" fill="none" xmlns="http://www.w3.org/2000/svg">
<g clip-path="url(#clip0_290_125)">
<path d="M73.321 9.39531C73.1972 9.28751 73.0534 9.20513 72.8978 9.15289C72.7423 9.10065 72.5779 9.07957 72.4142 9.09085C72.2504 9.10213 72.0905 9.14555 71.9435 9.21863C71.7966 9.29171 71.6655 9.39302 71.5577 9.51677C71.4498 9.64053 71.3675 9.78431 71.3152 9.9399C71.263 10.0955 71.2419 10.2598 71.2532 10.4236C71.2645 10.5873 71.3079 10.7472 71.381 10.8942C71.4541 11.0412 71.5554 11.1723 71.6791 11.2801C71.9398 11.5111 72.148 11.7954 72.2896 12.1136C72.4312 12.4319 72.503 12.7768 72.5 13.1252V48.611H7.50004V13.1252C7.49712 12.7768 7.56889 12.4319 7.71049 12.1136C7.8521 11.7954 8.06027 11.5111 8.32097 11.2801C8.57091 11.0624 8.72412 10.7543 8.74689 10.4236C8.76967 10.0929 8.66015 9.76671 8.44243 9.51677C8.22471 9.26684 7.91662 9.11363 7.58593 9.09085C7.25525 9.06807 6.92906 9.17759 6.67912 9.39531C6.1489 9.86087 5.72467 10.4347 5.43503 11.0781C5.14538 11.7215 4.99705 12.4196 5.00004 13.1252V52.3622C5.00146 53.6879 5.52869 54.9588 6.46607 55.8962C7.40345 56.8336 8.6744 57.3608 10 57.3622H33.0628V65.0002H27.5C27.1686 65.0003 26.8507 65.132 26.6163 65.3664L22.8663 69.1164C22.7502 69.2324 22.6581 69.3702 22.5952 69.5219C22.5324 69.6735 22.5 69.836 22.5 70.0002V73.7502C22.5 73.9143 22.5323 74.0769 22.5951 74.2286C22.6579 74.3803 22.75 74.5181 22.8661 74.6342C22.9821 74.7502 23.12 74.8423 23.2716 74.9051C23.4233 74.9679 23.5859 75.0002 23.75 75.0002H56.25C56.4142 75.0002 56.5768 74.9679 56.7284 74.9051C56.8801 74.8423 57.0179 74.7502 57.134 74.6342C57.2501 74.5181 57.3422 74.3803 57.405 74.2286C57.4678 74.0769 57.5001 73.9143 57.5 73.7502V70.0002C57.5001 69.836 57.4677 69.6735 57.4049 69.5219C57.342 69.3702 57.2499 69.2324 57.1338 69.1164L53.3838 65.3664C53.1494 65.132 52.8315 65.0003 52.5 65.0002H46.25V57.3622H70C71.3257 57.3608 72.5966 56.8336 73.534 55.8962C74.4714 54.9588 74.9986 53.6879 75 52.3622V13.1252C75.003 12.4196 74.8547 11.7215 74.5651 11.0781C74.2754 10.4347 73.8512 9.86087 73.321 9.39531ZM46.25 67.5002H51.9825L55 70.5177V72.5002H25V70.5177L28.0176 67.5002H33.0628C33.7256 67.4994 34.361 67.2358 34.8297 66.7671C35.2984 66.2984 35.562 65.663 35.5628 65.0002V57.3622H43.75V65.0002C43.7508 65.663 44.0144 66.2984 44.4831 66.7671C44.9518 67.2358 45.5872 67.4994 46.25 67.5002ZM70 54.8622H10C9.33724 54.8615 8.70179 54.5978 8.23311 54.1292C7.76444 53.6605 7.5008 53.025 7.50004 52.3622V51.111H72.5V52.3622C72.4993 53.025 72.2356 53.6605 71.767 54.1292C71.2983 54.5978 70.6629 54.8615 70 54.8622Z" fill="white"/>
<path d="M15 38.125H34.4232L39.0436 43.6169C39.1608 43.7565 39.3072 43.8687 39.4724 43.9456C39.6377 44.0226 39.8177 44.0625 40 44.0625C40.1823 44.0625 40.3623 44.0226 40.5276 43.9456C40.6928 43.8687 40.8392 43.7565 40.9564 43.6169L45.5768 38.125H65C65.9942 38.1239 66.9474 37.7285 67.6505 37.0255C68.3535 36.3224 68.7489 35.3692 68.75 34.375V8.75C68.7489 7.75577 68.3535 6.80257 67.6505 6.09955C66.9474 5.39652 65.9942 5.00109 65 5H15C14.0058 5.00109 13.0526 5.39652 12.3495 6.09955C11.6465 6.80257 11.2511 7.75577 11.25 8.75V34.375C11.2511 35.3692 11.6465 36.3224 12.3495 37.0255C13.0526 37.7285 14.0058 38.1239 15 38.125ZM13.75 8.75C13.7504 8.41861 13.8823 8.10092 14.1166 7.86659C14.3509 7.63226 14.6686 7.50043 15 7.5H65C65.3314 7.50043 65.6491 7.63226 65.8834 7.86659C66.1177 8.10092 66.2496 8.41861 66.25 8.75V34.375C66.2496 34.7064 66.1177 35.0241 65.8834 35.2584C65.6491 35.4927 65.3314 35.6246 65 35.625H44.9951C44.8128 35.625 44.6328 35.6649 44.4676 35.7419C44.3023 35.8188 44.156 35.931 44.0387 36.0706L40 40.871L35.9612 36.0706C35.844 35.931 35.6976 35.8188 35.5324 35.7419C35.3672 35.6649 35.1871 35.625 35.0049 35.625H15C14.6686 35.6246 14.3509 35.4927 14.1166 35.2584C13.8823 35.0241 13.7504 34.7064 13.75 34.375V8.75Z" fill="white"/>
<path d="M26.4063 31.5644C28.6254 31.5641 30.7805 30.8212 32.5283 29.454L34.2726 31.1982C34.5074 31.4306 34.8247 31.5606 35.1551 31.5598C35.4855 31.559 35.8021 31.4273 36.0357 31.1937C36.2693 30.9601 36.4009 30.6434 36.4017 30.3131C36.4026 29.9827 36.2725 29.6654 36.0401 29.4306L34.2959 27.6864C35.6765 25.901 36.4118 23.7008 36.3819 21.4441C36.3521 19.1874 35.5589 17.0074 34.1315 15.2592C32.7042 13.511 30.7269 12.2977 28.5218 11.817C26.3167 11.3364 24.0138 11.6167 21.9884 12.6123C19.9629 13.6079 18.3344 15.2601 17.3681 17.2996C16.4018 19.3391 16.1547 21.6458 16.6671 23.8438C17.1794 26.0417 18.4211 28.0014 20.1896 29.4034C21.9582 30.8054 24.1495 31.5671 26.4063 31.5644ZM26.4063 14.0644C27.783 14.0623 29.1336 14.4396 30.3098 15.1551C31.4859 15.8706 32.4421 16.8964 33.0732 18.1199C33.7043 19.3434 33.9858 20.7172 33.887 22.0903C33.7881 23.4634 33.3126 24.7827 32.5128 25.9032L27.2901 20.6806C27.0557 20.4462 26.7378 20.3145 26.4063 20.3145C26.0749 20.3145 25.7569 20.4462 25.5226 20.6806C25.2882 20.915 25.1565 21.2329 25.1565 21.5644C25.1565 21.8959 25.2882 22.2138 25.5226 22.4482L30.7452 27.6708C29.7835 28.3543 28.6741 28.8012 27.5071 28.9751C26.3401 29.149 25.1486 29.0449 24.0294 28.6714C22.9102 28.2979 21.895 27.6656 21.0663 26.8257C20.2377 25.9858 19.6189 24.9622 19.2605 23.8381C18.902 22.7141 18.814 21.5212 19.0035 20.3567C19.193 19.1922 19.6547 18.0888 20.351 17.1364C21.0474 16.1839 21.9587 15.4093 23.0109 14.8755C24.0631 14.3417 25.2265 14.0638 26.4063 14.0644Z" fill="white"/>
<path d="M51.4062 31.5645C51.7378 31.5645 52.0557 31.4328 52.2901 31.1983C52.5246 30.9639 52.6562 30.646 52.6562 30.3145V22.8145H61.0938V30.3145C61.0938 30.646 61.2254 30.9639 61.4599 31.1983C61.6943 31.4328 62.0122 31.5645 62.3438 31.5645C62.6753 31.5645 62.9932 31.4328 63.2276 31.1983C63.4621 30.9639 63.5938 30.646 63.5938 30.3145V15.3145C63.5927 14.3202 63.1972 13.367 62.4942 12.664C61.7912 11.961 60.838 11.5655 59.8438 11.5645H53.9062C52.912 11.5655 51.9588 11.961 51.2558 12.664C50.5528 13.367 50.1573 14.3202 50.1562 15.3145V30.3145C50.1562 30.646 50.2879 30.9639 50.5224 31.1983C50.7568 31.4328 51.0747 31.5645 51.4062 31.5645ZM53.9062 14.0645H59.8438C60.1751 14.0649 60.4928 14.1967 60.7272 14.431C60.9615 14.6654 61.0933 14.9831 61.0938 15.3145V20.3145H52.6562V15.3145C52.6567 14.9831 52.7885 14.6654 53.0228 14.431C53.2572 14.1967 53.5749 14.0649 53.9062 14.0645Z" fill="white"/>
<path d="M40.2813 31.5172C40.4391 31.5627 40.6044 31.5766 40.7676 31.5581C40.9308 31.5396 41.0887 31.489 41.2323 31.4092C41.3759 31.3295 41.5023 31.2222 41.6043 31.0935C41.7064 30.9647 41.7819 30.8171 41.8267 30.6591L46.8267 13.1591C46.9145 12.8414 46.8733 12.5019 46.712 12.2145C46.5507 11.927 46.2824 11.7149 45.9655 11.6243C45.6486 11.5337 45.3088 11.5719 45.0199 11.7307C44.7311 11.8894 44.5166 12.1558 44.4232 12.4718L39.4232 29.9718C39.332 30.2906 39.3713 30.6324 39.5322 30.9223C39.6931 31.2121 39.9626 31.4261 40.2813 31.5172Z" fill="white"/>
</g>
<defs>
<clipPath id="clip0_290_125">
<rect width="80" height="80" fill="white"/>
</clipPath>
</defs>
</svg>
