<svg width="80" height="80" viewBox="0 0 80 80" fill="none" xmlns="http://www.w3.org/2000/svg">
<g clip-path="url(#clip0_290_119)">
<path d="M67.6795 58.5596H47.9995V56.9596H67.6795C69.4395 56.9596 70.8795 55.5196 70.8795 53.7596V6.39961C70.8795 4.63961 69.4395 3.19961 67.6795 3.19961H12.3195C10.5595 3.19961 9.11953 4.63961 9.11953 6.39961V53.9196C9.11953 55.6796 10.5595 57.1196 12.3195 57.1196H31.8395V58.7196H12.3195C9.75953 58.7196 7.51953 56.6396 7.51953 53.9196V6.39961C7.51953 3.83961 9.59953 1.59961 12.3195 1.59961H67.6795C70.2395 1.59961 72.4795 3.67961 72.4795 6.39961V53.9196C72.4795 56.4796 70.3995 58.5596 67.6795 58.5596Z" fill="white"/>
<path d="M13.5991 10.4001C12.9591 10.4001 12.3191 10.0801 11.6791 9.60008C11.1991 9.12008 11.0391 8.48008 11.0391 7.68008C11.0391 6.88008 11.1991 6.40008 11.6791 5.92008C12.7991 4.80008 14.3991 4.80008 15.5191 5.92008C15.9991 6.40008 16.3191 7.04008 16.3191 7.68008C16.3191 8.32008 15.9991 9.12008 15.5191 9.60008C14.8791 10.0801 14.2391 10.4001 13.5991 10.4001ZM13.5991 6.72008C13.2791 6.72008 13.1191 6.72008 12.7991 6.88008C12.6391 7.20008 12.4791 7.36008 12.4791 7.68008C12.4791 8.00008 12.6391 8.32008 12.7991 8.48008C13.2791 8.96008 13.9191 8.96008 14.2391 8.48008C14.5591 8.32008 14.7191 8.00008 14.7191 7.68008C14.7191 7.36008 14.5591 7.20008 14.3991 6.88008C14.0791 6.72008 13.9191 6.72008 13.5991 6.72008Z" fill="white"/>
<path d="M20.1595 10.4001C19.5195 10.4001 18.8795 10.0801 18.2395 9.60008C17.2795 8.64008 17.2795 6.88008 18.2395 5.92008C19.1995 4.80008 20.9595 4.80008 21.9195 5.92008C22.8795 6.88008 22.8795 8.64008 21.9195 9.60008C21.4395 10.0801 20.7995 10.4001 20.1595 10.4001ZM20.1595 6.56008C19.8395 6.56008 19.6795 6.72008 19.3595 6.88008C18.8795 7.36008 18.8795 8.00008 19.3595 8.32008C19.8395 8.80008 20.4795 8.80008 20.7995 8.32008C21.2795 7.84008 21.2795 7.20008 20.7995 6.88008C20.6395 6.72008 20.3195 6.56008 20.1595 6.56008Z" fill="white"/>
<path d="M26.5619 10.4002C25.9219 10.4002 25.1219 10.0802 24.6419 9.6002C23.6819 8.6402 23.6819 6.8802 24.6419 5.9202C25.6019 4.9602 27.3619 4.9602 28.3219 5.9202C29.2819 6.8802 29.2819 8.6402 28.3219 9.6002C28.0019 10.0802 27.2019 10.4002 26.5619 10.4002ZM26.5619 6.5602C26.2419 6.5602 26.0819 6.7202 25.7619 6.8802C25.2819 7.3602 25.2819 8.00019 25.7619 8.32019C26.2419 8.80019 26.8819 8.80019 27.2019 8.32019C27.6819 7.84019 27.6819 7.2002 27.2019 6.8802C27.0419 6.7202 26.8819 6.5602 26.5619 6.5602Z" fill="white"/>
<path d="M65.1198 10.4003H34.3998C32.9598 10.4003 31.8398 9.28027 31.8398 7.84027C31.8398 6.40027 32.9598 5.28027 34.3998 5.28027H65.1198C66.5598 5.28027 67.6798 6.40027 67.6798 7.84027C67.8398 9.12027 66.5598 10.4003 65.1198 10.4003ZM34.3998 6.56027C33.7598 6.56027 33.2798 7.04027 33.2798 7.68027C33.2798 8.32027 33.7598 8.80027 34.3998 8.80027H65.1198C65.7598 8.80027 66.2398 8.32027 66.2398 7.68027C66.2398 7.04027 65.7598 6.56027 65.1198 6.56027H34.3998Z" fill="white"/>
<path d="M24.1614 27.0395H14.2414C13.7614 27.0395 13.4414 26.7195 13.4414 26.2395V16.3195C13.4414 15.8395 13.7614 15.5195 14.2414 15.5195H24.1614C24.6414 15.5195 24.9614 15.8395 24.9614 16.3195V26.2395C24.9614 26.7195 24.6414 27.0395 24.1614 27.0395ZM15.0414 25.5995H23.3614V17.2795H15.0414V25.5995Z" fill="white"/>
<path d="M38.0794 27.0395H28.1594C27.6794 27.0395 27.3594 26.7195 27.3594 26.2395V16.3195C27.3594 15.8395 27.6794 15.5195 28.1594 15.5195H38.0794C38.5594 15.5195 38.8794 15.8395 38.8794 16.3195V26.2395C38.8794 26.7195 38.3994 27.0395 38.0794 27.0395ZM28.7994 25.5995H37.1194V17.2795H28.7994V25.5995Z" fill="white"/>
<path d="M51.8411 27.0395H41.9211C41.4411 27.0395 41.1211 26.7195 41.1211 26.2395V16.3195C41.1211 15.8395 41.4411 15.5195 41.9211 15.5195H51.8411C52.3211 15.5195 52.6411 15.8395 52.6411 16.3195V26.2395C52.6411 26.7195 52.3211 27.0395 51.8411 27.0395ZM42.7211 25.5995H51.0411V17.2795H42.7211V25.5995Z" fill="white"/>
<path d="M65.7591 27.0395H55.8391C55.3591 27.0395 55.0391 26.7195 55.0391 26.2395V16.3195C55.0391 15.8395 55.3591 15.5195 55.8391 15.5195H65.7591C66.2391 15.5195 66.5591 15.8395 66.5591 16.3195V26.2395C66.5591 26.7195 66.2391 27.0395 65.7591 27.0395ZM56.6391 25.5995H64.9591V17.2795H56.6391V25.5995Z" fill="white"/>
<path d="M42.7215 67.36H37.1215C36.8015 67.36 36.6415 67.2 36.4815 67.04C34.4015 64.48 32.3215 62.24 30.0815 60.48C29.7615 60.16 29.7615 59.68 29.9215 59.36C33.1215 54.88 35.6815 50.08 37.7615 44.48C37.9215 44.16 38.2415 44 38.5615 44H41.1215C41.4415 44 41.7615 44.16 41.9215 44.48C44.0015 50.08 46.7215 55.04 49.7615 59.36C50.0815 59.68 49.9215 60.16 49.6015 60.48C47.3615 62.24 45.2815 64.48 43.2015 67.04C43.2015 67.2 43.0415 67.36 42.7215 67.36ZM37.6015 65.76H42.4015C44.3215 63.36 46.2415 61.44 48.3215 59.68C45.4415 55.52 42.8815 50.72 40.8015 45.44H39.2015C37.1215 50.72 34.7215 55.36 31.6815 59.68C33.7615 61.28 35.6815 63.36 37.6015 65.76Z" fill="white"/>
<path d="M40.0013 60.0005C39.3613 60.0005 38.5613 59.6805 38.0813 59.2005C37.6013 58.7205 37.2812 58.0805 37.2812 57.2805C37.2812 56.4805 37.6013 55.8405 38.0813 55.3605C38.5613 54.8805 39.2013 54.5605 40.0013 54.5605C40.6413 54.5605 41.4413 54.8805 41.9213 55.3605C43.0413 56.4805 43.0413 58.0805 41.9213 59.2005C41.4413 59.6805 40.6413 60.0005 40.0013 60.0005ZM40.0013 56.1605C39.6813 56.1605 39.3613 56.3205 39.2013 56.4805C39.0413 56.6405 38.8813 56.9605 38.8813 57.2805C38.8813 57.6005 39.0413 57.9205 39.2013 58.0805C39.6813 58.5605 40.3213 58.5605 40.8013 58.0805C41.2813 57.6005 41.2813 56.9605 40.8013 56.4805C40.6413 56.3205 40.3213 56.1605 40.0013 56.1605Z" fill="white"/>
<path d="M39.9992 56.1598C39.5192 56.1598 39.1992 55.8398 39.1992 55.3598V44.6398C39.1992 44.1598 39.5192 43.8398 39.9992 43.8398C40.4792 43.8398 40.7992 44.1598 40.7992 44.6398V55.3598C40.7992 55.8398 40.4792 56.1598 39.9992 56.1598Z" fill="white"/>
<path d="M43.8413 71.1998H36.0013C34.4013 71.1998 33.2812 69.9198 33.2812 68.4798C33.2812 66.8798 34.5613 65.7598 36.0013 65.7598H43.8413C45.2813 65.7598 46.5613 67.0398 46.5613 68.4798C46.7213 70.0798 45.4413 71.1998 43.8413 71.1998ZM36.1613 67.3598C35.5213 67.3598 34.8813 67.8398 34.8813 68.6398C34.8813 69.2798 35.3613 69.9198 36.1613 69.9198H44.0013C44.6413 69.9198 45.2813 69.4398 45.2813 68.6398C45.2813 67.9998 44.8013 67.3598 44.0013 67.3598H36.1613Z" fill="white"/>
<path d="M43.5197 78.3996H36.4797C35.9997 78.3996 35.6797 78.0796 35.6797 77.5996V70.3996C35.6797 69.9196 35.9997 69.5996 36.4797 69.5996H43.5197C43.9997 69.5996 44.3197 69.9196 44.3197 70.3996V77.5996C44.3197 78.0796 43.9997 78.3996 43.5197 78.3996ZM37.2797 76.7996H42.7197V71.1996H37.2797V76.7996Z" fill="white"/>
<path d="M51.3612 45.2795C51.0412 45.2795 50.7213 44.9595 50.5613 44.6395C49.7613 40.6395 46.2413 37.4395 42.2413 37.1195C41.4413 37.1195 41.2812 36.6395 41.2812 36.3195C41.2812 35.8395 41.6012 35.5195 42.0812 35.5195H56.3213C56.8013 35.5195 57.1213 35.8395 57.1213 36.3195C57.1213 36.7995 56.8013 37.1195 56.3213 37.1195H46.8812C49.4412 38.7195 51.3613 41.2795 52.0013 44.3195C52.3213 44.7995 52.0012 45.1195 51.3612 45.2795C51.5212 45.2795 51.5212 45.2795 51.3612 45.2795Z" fill="white"/>
<path d="M58.2397 38.8798C56.7997 38.8798 55.6797 37.7598 55.6797 36.3198C55.6797 34.8798 56.7997 33.7598 58.2397 33.7598C59.6797 33.7598 60.7997 34.8798 60.7997 36.3198C60.7997 37.7598 59.6797 38.8798 58.2397 38.8798ZM58.2397 35.1998C57.5997 35.1998 57.1197 35.6798 57.1197 36.3198C57.1197 36.9598 57.5997 37.2798 58.2397 37.2798C58.8797 37.2798 59.1997 36.7998 59.1997 36.3198C59.1997 35.6798 58.7197 35.1998 58.2397 35.1998Z" fill="white"/>
<path d="M53.4409 49.1198H49.7609C49.2809 49.1198 48.9609 48.7998 48.9609 48.3198V44.6398C48.9609 44.1598 49.2809 43.8398 49.7609 43.8398H53.4409C53.9209 43.8398 54.2409 44.1598 54.2409 44.6398V48.3198C54.2409 48.7998 53.9209 49.1198 53.4409 49.1198ZM50.5609 47.5198H52.6409V45.4398H50.5609V47.5198Z" fill="white"/>
<path d="M28.6389 45.4404C28.4789 45.4404 28.4789 45.4404 28.6389 45.4404C27.9989 45.2804 27.8389 44.9603 27.8389 44.4803C28.4789 41.2803 30.3989 38.5604 32.9589 36.9604H23.6789C23.1989 36.9604 22.8789 36.6404 22.8789 36.1604C22.8789 35.6804 23.1989 35.3604 23.6789 35.3604H37.7589C38.2389 35.3604 38.5589 35.6804 38.5589 36.1604C38.5589 36.6404 38.0789 36.9604 37.5989 36.9604C33.4389 37.4404 30.0789 40.4804 29.2789 44.6404C29.2789 45.1204 28.9589 45.4404 28.6389 45.4404Z" fill="white"/>
<path d="M21.7592 38.8798C20.3192 38.8798 19.1992 37.7598 19.1992 36.3198C19.1992 34.8798 20.3192 33.7598 21.7592 33.7598C23.1992 33.7598 24.3192 34.8798 24.3192 36.3198C24.3192 37.7598 23.1992 38.8798 21.7592 38.8798ZM21.7592 35.1998C21.1192 35.1998 20.6392 35.6798 20.6392 36.3198C20.6392 36.9598 21.1192 37.2798 21.7592 37.2798C22.3992 37.2798 22.7192 36.7998 22.7192 36.3198C22.8792 35.6798 22.3992 35.1998 21.7592 35.1998Z" fill="white"/>
<path d="M30.2417 49.1198H26.5617C26.0817 49.1198 25.7617 48.7998 25.7617 48.3198V44.6398C25.7617 44.1598 26.0817 43.8398 26.5617 43.8398H30.2417C30.7217 43.8398 31.0417 44.1598 31.0417 44.6398V48.3198C31.0417 48.7998 30.7217 49.1198 30.2417 49.1198ZM27.3617 47.5198H29.4417V45.4398H27.3617V47.5198Z" fill="white"/>
<path d="M41.9214 38.8796H38.2414C37.7614 38.8796 37.4414 38.5596 37.4414 38.0796V34.3996C37.4414 33.9196 37.7614 33.5996 38.2414 33.5996H41.9214C42.4014 33.5996 42.7214 33.9196 42.7214 34.3996V38.0796C42.5614 38.5596 42.2414 38.8796 41.9214 38.8796ZM38.8814 37.2796H40.9614V35.1996H38.8814V37.2796Z" fill="white"/>
<path d="M24.1595 27.0396C23.9995 27.0396 23.6795 27.0396 23.6795 26.8796L13.7595 16.9596C13.4395 16.6396 13.4395 16.1596 13.7595 15.8396C14.0795 15.5196 14.5595 15.5196 14.8795 15.8396L24.7995 25.7596C25.1195 26.0796 25.1195 26.5596 24.7995 26.8796C24.6395 27.0396 24.3195 27.0396 24.1595 27.0396Z" fill="white"/>
<path d="M14.2395 27.0396C14.0795 27.0396 13.7595 27.0396 13.7595 26.8796C13.4395 26.5596 13.4395 26.0796 13.7595 25.7596L23.6795 15.8396C23.9995 15.5196 24.4795 15.5196 24.7995 15.8396C25.1195 16.1596 25.1195 16.6396 24.7995 16.9596L14.8795 26.8796C14.7195 27.0396 14.3995 27.0396 14.2395 27.0396Z" fill="white"/>
<path d="M38.0814 27.0396C37.9214 27.0396 37.6014 27.0396 37.6014 26.8796L27.6814 16.9596C27.3614 16.6396 27.3614 16.1596 27.6814 15.8396C28.0014 15.5196 28.4814 15.5196 28.8014 15.8396L38.7214 25.7596C39.0414 26.0796 39.0414 26.5596 38.7214 26.8796C38.4014 27.0396 38.2414 27.0396 38.0814 27.0396Z" fill="white"/>
<path d="M28.1614 27.0396C28.0014 27.0396 27.6814 27.0396 27.6814 26.8796C27.3614 26.5596 27.3614 26.0796 27.6814 25.7596L37.6014 15.8396C37.9214 15.5196 38.4014 15.5196 38.7214 15.8396C39.0414 16.1596 39.0414 16.6396 38.7214 16.9596L28.8014 26.8796C28.4814 27.0396 28.3214 27.0396 28.1614 27.0396Z" fill="white"/>
<path d="M51.8392 27.0396C51.6792 27.0396 51.5192 27.0396 51.3592 26.8796L41.4392 16.9596C41.1192 16.6396 41.1192 16.1596 41.4392 15.8396C41.7592 15.5196 42.2392 15.5196 42.5592 15.8396L52.4792 25.7596C52.7992 26.0796 52.7992 26.5596 52.4792 26.8796C52.3192 27.0396 52.1592 27.0396 51.8392 27.0396Z" fill="white"/>
<path d="M41.9192 27.0396C41.7592 27.0396 41.4392 27.0396 41.4392 26.8796C41.1192 26.5596 41.1192 26.0796 41.4392 25.7596L51.3592 15.8396C51.6792 15.5196 52.1592 15.5196 52.4792 15.8396C52.7992 16.1596 52.7992 16.6396 52.4792 16.9596L42.5592 26.8796C42.3992 27.0396 42.0792 27.0396 41.9192 27.0396Z" fill="white"/>
<path d="M65.7611 27.0396C65.6011 27.0396 65.4411 27.0396 65.2811 26.8796L55.3611 16.9596C55.0411 16.6396 55.0411 16.1596 55.3611 15.8396C55.6811 15.5196 56.1611 15.5196 56.4811 15.8396L66.4011 25.7596C66.7211 26.0796 66.7211 26.5596 66.4011 26.8796C66.2411 27.0396 65.9211 27.0396 65.7611 27.0396Z" fill="white"/>
<path d="M55.8411 27.0396C55.6811 27.0396 55.3611 27.0396 55.3611 26.8796C55.0411 26.5596 55.0411 26.0796 55.3611 25.7596L65.2811 15.8396C65.6011 15.5196 66.0811 15.5196 66.4011 15.8396C66.7211 16.1596 66.7211 16.6396 66.4011 16.9596L56.4811 26.8796C56.1611 27.0396 56.0011 27.0396 55.8411 27.0396Z" fill="white"/>
</g>
<defs>
<clipPath id="clip0_290_119">
<rect width="80" height="80" fill="white"/>
</clipPath>
</defs>
</svg>
