<svg width="80" height="80" viewBox="0 0 80 80" fill="none" xmlns="http://www.w3.org/2000/svg">
<g clip-path="url(#clip0_292_154)">
<path d="M67.5 3.74976C62.6937 3.74976 58.4638 6.78851 56.89 11.2498H45.9025C47.6662 9.57351 48.775 7.19476 48.775 4.52476C48.7762 3.65101 48.4363 2.82851 47.8175 2.20976C46.845 1.23601 45.2837 0.976012 44.0387 1.59601L41.1263 3.05351C40.2138 3.50851 39.1925 3.74976 38.1712 3.74976H33.0363C31.695 3.74976 30.3487 4.06476 29.145 4.66226L23.6413 7.39476L7.5 2.01601V35.4835L23.5063 30.1485L25.9737 31.9998C27.4775 33.1285 29.3425 33.7498 31.2238 33.7498H44.9738C47.0412 33.7498 48.7238 32.0673 48.7238 29.9998C48.7238 29.506 48.6225 29.0373 48.4487 28.6048C50.0425 28.1723 51.2238 26.7285 51.2238 24.9998C51.2238 24.036 50.8475 23.1648 50.2488 22.4998C50.8488 21.8348 51.2238 20.9635 51.2238 19.9998C51.2238 19.5598 51.1337 19.1423 50.9937 18.7498H56.89C57.8563 21.491 59.83 23.6898 62.3212 24.9823L56.94 38.9735C56.315 38.8323 55.6675 38.7498 55 38.7498C51.2675 38.7498 48.0813 41.1048 46.8275 44.4023L38.74 42.6048C38.74 42.5685 38.75 42.536 38.75 42.4998C38.75 39.0535 35.9463 36.2498 32.5 36.2498C29.0537 36.2498 26.25 39.0535 26.25 42.4998C26.25 42.7535 26.295 42.9948 26.325 43.241L17.8112 46.0785C16.37 43.2198 13.4137 41.2498 10 41.2498C5.17625 41.2498 1.25 45.176 1.25 49.9998C1.25 54.8235 5.17625 58.7498 10 58.7498C14.8237 58.7498 18.75 54.8235 18.75 49.9998C18.75 49.4698 18.695 48.9535 18.6038 48.4485L27.1125 45.6123C28.1963 47.4785 30.1925 48.7498 32.5 48.7498C35.0375 48.7498 37.2175 47.2235 38.195 45.046L46.2838 46.8435C46.2675 47.061 46.25 47.2785 46.25 47.4998C46.25 52.3235 50.1763 56.2498 55 56.2498C59.8237 56.2498 63.75 52.3235 63.75 47.4998C63.75 44.2273 61.9412 41.3735 59.2738 39.8723L64.6537 25.8835C65.5675 26.1223 66.5212 26.2498 67.5 26.2498C73.7038 26.2498 78.75 21.2023 78.75 14.9998C78.75 8.79726 73.7038 3.74976 67.5 3.74976ZM10 56.2498C6.55375 56.2498 3.75 53.446 3.75 49.9998C3.75 46.5535 6.55375 43.7498 10 43.7498C13.4462 43.7498 16.25 46.5535 16.25 49.9998C16.25 53.446 13.4462 56.2498 10 56.2498ZM32.5 46.2498C30.4325 46.2498 28.75 44.5673 28.75 42.4998C28.75 40.4323 30.4325 38.7498 32.5 38.7498C34.5675 38.7498 36.25 40.4323 36.25 42.4998C36.25 44.5673 34.5675 46.2498 32.5 46.2498ZM61.25 47.4998C61.25 50.946 58.4463 53.7498 55 53.7498C51.5537 53.7498 48.75 50.946 48.75 47.4998C48.75 44.0535 51.5537 41.2498 55 41.2498C58.4463 41.2498 61.25 44.0535 61.25 47.4998ZM22.5 27.8485L10 32.016V5.48351L22.5 9.64976V27.8485ZM48.7238 19.9998C48.7238 20.6885 48.1637 21.2498 47.4738 21.2498H41.25V23.7498H47.4738C48.1637 23.7498 48.7238 24.311 48.7238 24.9998C48.7238 25.6885 48.1637 26.2498 47.4738 26.2498H44.9738H41.25V28.7498H44.9738C45.6637 28.7498 46.2238 29.311 46.2238 29.9998C46.2238 30.6885 45.6637 31.2498 44.9738 31.2498H31.2238C29.88 31.2498 28.5475 30.806 27.4725 29.9998L25 28.1448V9.51101L30.255 6.90226C31.1163 6.47601 32.0775 6.24976 33.0363 6.24976H38.1712C39.5788 6.24976 40.9863 5.91726 42.245 5.28851L45.155 3.83226C45.4575 3.68476 45.8213 3.74601 46.05 3.97601C46.1963 4.12226 46.2762 4.31476 46.2762 4.64226C46.2762 8.28601 43.3112 11.2498 39.6675 11.2498H37.525H35.025V13.7498H37.525H39.6675H62.4738C63.1637 13.7498 63.7238 14.311 63.7238 14.9998C63.7238 15.6885 63.1637 16.2498 62.4738 16.2498H47.4738H41.25V18.7498H47.4738C48.1637 18.7498 48.7238 19.311 48.7238 19.9998ZM64.9937 12.241C65.675 11.6248 66.555 11.2498 67.5 11.2498C69.5675 11.2498 71.25 12.9323 71.25 14.9998C71.25 17.0673 69.5675 18.7498 67.5 18.7498C66.5537 18.7498 65.6738 18.3748 64.9937 17.7585C65.745 17.0723 66.2237 16.0948 66.2237 14.9998C66.2237 13.9048 65.745 12.9273 64.9937 12.241ZM67.5 23.7498C64.0725 23.7498 61.0312 21.7548 59.605 18.7498H62.4738C62.4825 18.7498 62.49 18.7473 62.4987 18.7473C63.67 20.3085 65.5175 21.2498 67.5 21.2498C70.9463 21.2498 73.75 18.446 73.75 14.9998C73.75 11.5535 70.9463 8.74976 67.5 8.74976C65.5175 8.74976 63.6712 9.69101 62.5 11.2523C62.4912 11.2523 62.4825 11.2498 62.4738 11.2498H59.605C61.0312 8.24476 64.0725 6.24976 67.5 6.24976C72.3238 6.24976 76.25 10.1748 76.25 14.9998C76.25 19.8248 72.3238 23.7498 67.5 23.7498Z" fill="white"/>
<path d="M10 46.25C7.9325 46.25 6.25 47.9325 6.25 50C6.25 52.0675 7.9325 53.75 10 53.75C12.0675 53.75 13.75 52.0675 13.75 50C13.75 47.9325 12.0675 46.25 10 46.25ZM10 51.25C9.31 51.25 8.75 50.69 8.75 50C8.75 49.31 9.31 48.75 10 48.75C10.69 48.75 11.25 49.31 11.25 50C11.25 50.69 10.69 51.25 10 51.25Z" fill="white"/>
<path d="M51.25 47.5C51.25 49.5675 52.9325 51.25 55 51.25C57.0675 51.25 58.75 49.5675 58.75 47.5C58.75 45.4325 57.0675 43.75 55 43.75C52.9325 43.75 51.25 45.4325 51.25 47.5ZM56.25 47.5C56.25 48.19 55.69 48.75 55 48.75C54.31 48.75 53.75 48.19 53.75 47.5C53.75 46.81 54.31 46.25 55 46.25C55.69 46.25 56.25 46.81 56.25 47.5Z" fill="white"/>
<path d="M65 76.25H60V58.75H50V76.25H45V51.25H35V76.25H30V51.25H20V76.25H15V61.25H5V78.75H75V28.75H65V76.25ZM12.5 76.25H7.5V63.75H12.5V76.25ZM52.5 61.25H57.5V76.25H52.5V61.25ZM37.5 53.75H42.5V76.25H37.5V53.75ZM22.5 53.75H27.5V76.25H22.5V53.75ZM67.5 31.25H72.5V76.25H67.5V31.25Z" fill="white"/>
</g>
<defs>
<clipPath id="clip0_292_154">
<rect width="80" height="80" fill="white"/>
</clipPath>
</defs>
</svg>
