<svg width="80" height="80" viewBox="0 0 80 80" fill="none" xmlns="http://www.w3.org/2000/svg">
<g clip-path="url(#clip0_292_160)">
<g clip-path="url(#clip1_292_160)">
<path d="M62.5 20H60V16.25C60 14.1875 58.3125 12.5 56.25 12.5H52.5V10H56.25C59.7 10 62.5 12.8 62.5 16.25V20Z" fill="white"/>
<path d="M56.25 80H16.25C12.8 80 10 77.2 10 73.75V16.25C10 12.8 12.8 10 16.25 10H20V12.5H16.25C14.1875 12.5 12.5 14.1875 12.5 16.25V73.75C12.5 75.8125 14.1875 77.5 16.25 77.5H56.25C58.3125 77.5 60 75.8125 60 73.75V47.5H62.5V73.75C62.5 77.2 59.7 80 56.25 80Z" fill="white"/>
<path d="M48.75 16.25H23.75C23.0625 16.25 22.5 15.6875 22.5 15V10C22.5 7.9375 24.1875 6.25 26.25 6.25H31.4125C31.3 5.85 31.25 5.425 31.25 5C31.25 2.2375 33.4875 0 36.25 0C39.0125 0 41.25 2.2375 41.25 5C41.25 5.425 41.2 5.85 41.0875 6.25H46.25C48.3125 6.25 50 7.9375 50 10V15C50 15.6875 49.4375 16.25 48.75 16.25ZM25 13.75H47.5V10C47.5 9.3125 46.9375 8.75 46.25 8.75H39.025C38.5375 8.75 38.0875 8.4625 37.8875 8.0125C37.6875 7.5625 37.775 7.0375 38.1 6.6625C38.525 6.2 38.75 5.6 38.75 5C38.75 3.625 37.625 2.5 36.25 2.5C34.875 2.5 33.75 3.625 33.75 5C33.75 5.6125 33.9875 6.2 34.4 6.6625C34.725 7.025 34.8125 7.55 34.6125 8.0125C34.4125 8.4625 33.9625 8.75 33.475 8.75H26.25C25.5625 8.75 25 9.3125 25 10V13.75Z" fill="white"/>
<path d="M56.25 75H16.25C15.5625 75 15 74.4375 15 73.75V20C15 19.3125 15.5625 18.75 16.25 18.75H56.25C56.9375 18.75 57.5 19.3125 57.5 20V22.5H55V21.25H17.5V72.5H55V52.5H57.5V73.75C57.5 74.4375 56.9375 75 56.25 75Z" fill="white"/>
<path d="M44.3845 65.7878C44.172 65.7878 43.9595 65.7378 43.772 65.6253C43.2845 65.3503 43.0345 64.7753 43.172 64.2378C43.1845 64.1878 44.4345 59.0503 43.0845 55.1253C42.8845 54.5503 43.1345 53.9253 43.647 53.6378C46.8095 51.8503 49.9095 49.8878 52.6095 47.9503C52.9345 47.7128 53.3595 47.6503 53.747 47.7878C54.1345 47.9253 54.422 48.2253 54.5345 48.6253C55.047 50.3753 55.1595 55.5253 45.2595 65.4253C45.022 65.6628 44.697 65.7878 44.372 65.7878H44.3845ZM45.747 55.3128C46.222 57.2003 46.272 59.1753 46.172 60.8378C50.222 56.2878 51.6095 53.2253 52.047 51.4003C50.0595 52.7378 47.947 54.0503 45.747 55.3253V55.3128Z" fill="white"/>
<path d="M39.0884 58.7127C38.7634 58.7127 38.4384 58.5877 38.2009 58.3502L32.9009 53.0502C32.5259 52.6752 32.4259 52.1002 32.6634 51.6252C32.7009 51.5377 33.7134 49.4502 35.4509 46.3627C37.3134 43.0752 39.2634 39.9877 41.2759 37.1752C43.4884 34.0752 45.7259 31.3877 47.9259 29.1877C56.7759 20.3377 68.7009 20.8502 69.2009 20.8627C69.8384 20.9002 70.3509 21.4127 70.3884 22.0502C70.4134 22.5502 70.9259 34.4752 62.0634 43.3252C59.8634 45.5252 57.1759 47.7627 54.0759 49.9752C51.2634 51.9877 48.1759 53.9377 44.8884 55.8002C41.8009 57.5377 39.7134 58.5502 39.6259 58.5877C39.4509 58.6752 39.2634 58.7127 39.0884 58.7127ZM35.3009 51.9127L39.3384 55.9502C40.2134 55.5127 41.7509 54.7127 43.6634 53.6252C46.8259 51.8377 49.9259 49.8752 52.6259 47.9377C55.6134 45.8002 58.2009 43.6502 60.3009 41.5502C66.8009 35.0502 67.7509 26.4752 67.8759 23.3627C64.7634 23.4877 56.1884 24.4377 49.6884 30.9377C47.5884 33.0377 45.4384 35.6252 43.3009 38.6127C41.3759 41.3127 39.4009 44.4127 37.6134 47.5752C36.5384 49.4877 35.7384 51.0252 35.3009 51.9002V51.9127Z" fill="white"/>
<path d="M36.5366 48.2247C36.3991 48.2247 36.2616 48.1997 36.1366 48.1622C32.1991 46.8122 27.0741 48.0622 27.0241 48.0747C26.4741 48.2122 25.9116 47.9622 25.6366 47.4747C25.3616 46.9872 25.4491 46.3747 25.8366 45.9747C35.7366 36.0622 40.8991 36.1872 42.6366 36.6997C43.0241 36.8122 43.3366 37.1122 43.4741 37.4872C43.6116 37.8747 43.5491 38.2997 43.3116 38.6247C41.3866 41.3247 39.4116 44.4247 37.6241 47.5872C37.3991 47.9872 36.9741 48.2247 36.5366 48.2247ZM31.8116 45.0372C33.1241 45.0372 34.5616 45.1622 35.9366 45.4997C37.2116 43.2997 38.5241 41.1997 39.8616 39.1997C38.0366 39.6372 34.9741 41.0247 30.4241 45.0747C30.8741 45.0497 31.3366 45.0247 31.8241 45.0247L31.8116 45.0372Z" fill="white"/>
<path d="M21.3632 71.037C21.0382 71.037 20.7257 70.912 20.4757 70.6745C20.0757 70.2745 19.9882 69.637 20.2882 69.1495C21.4257 67.237 21.8757 64.887 22.3132 62.612C22.8257 59.8995 23.3132 57.3495 24.9632 55.6995C28.1007 52.562 31.4007 53.5745 31.5382 53.6245C32.2007 53.837 32.5507 54.537 32.3382 55.1995C32.1257 55.8495 31.4382 56.212 30.7757 56.012C30.6757 55.9745 28.7257 55.462 26.7257 57.4745C25.6257 58.5745 25.2132 60.762 24.7757 63.087C24.5132 64.4745 24.2257 65.962 23.7757 67.412C25.2507 66.9495 26.7757 66.687 28.1882 66.437C30.5257 66.0245 32.7257 65.637 33.8132 64.5495C35.8257 62.537 35.2882 60.5745 35.2757 60.4995C35.0882 59.837 35.4507 59.1495 36.1132 58.9495C36.7632 58.7495 37.4507 59.0995 37.6632 59.7495C37.7132 59.887 38.7257 63.187 35.5882 66.3245C33.9382 67.9745 31.3632 68.4245 28.6382 68.912C26.3382 69.3245 23.9507 69.737 22.0382 70.887C21.8382 70.9995 21.6132 71.062 21.4007 71.062L21.3632 71.037Z" fill="white"/>
<path d="M34.6562 49.5059L36.4237 47.7384L43.4937 54.8084L41.7262 56.5759L34.6562 49.5059Z" fill="white"/>
<path d="M57.6367 24.7666L59.4042 22.9991L68.2417 31.8366L66.4742 33.6041L57.6367 24.7666Z" fill="white"/>
<path d="M55 42.5C53.325 42.5 51.7625 41.85 50.575 40.675C49.4 39.5 48.75 37.925 48.75 36.25C48.75 34.575 49.4 33.0125 50.575 31.825C51.75 30.65 53.325 30 55 30C56.675 30 58.2375 30.65 59.425 31.825C60.6 33 61.25 34.575 61.25 36.25C61.25 37.925 60.6 39.4875 59.425 40.675C58.25 41.85 56.675 42.5 55 42.5ZM55 32.5C54 32.5 53.0625 32.8875 52.35 33.6C51.6375 34.3125 51.25 35.25 51.25 36.25C51.25 37.25 51.6375 38.1875 52.35 38.9C53.7625 40.3125 56.2375 40.3125 57.65 38.9C58.3625 38.1875 58.75 37.25 58.75 36.25C58.75 35.25 58.3625 34.3125 57.65 33.6C56.9375 32.8875 56 32.5 55 32.5Z" fill="white"/>
<path d="M36.25 6.25C36.9404 6.25 37.5 5.69036 37.5 5C37.5 4.30964 36.9404 3.75 36.25 3.75C35.5596 3.75 35 4.30964 35 5C35 5.69036 35.5596 6.25 36.25 6.25Z" fill="white"/>
</g>
</g>
<defs>
<clipPath id="clip0_292_160">
<rect width="80" height="80" fill="white"/>
</clipPath>
<clipPath id="clip1_292_160">
<rect width="80" height="80" fill="white"/>
</clipPath>
</defs>
</svg>
