<svg width="80" height="80" viewBox="0 0 80 80" fill="none" xmlns="http://www.w3.org/2000/svg">
<g clip-path="url(#clip0_292_151)">
<path d="M40.8406 39.1621C41.5306 39.1621 42.0906 38.6021 42.0906 37.9121C42.0906 37.2221 41.5306 36.6621 40.8406 36.6621H14.3906C13.2181 36.6621 12.1106 37.1259 11.2894 37.9459C10.4406 38.7584 9.95312 39.9071 9.95312 41.0984V73.0734C9.95312 74.2709 10.4194 75.3871 11.2556 76.2059C12.0881 77.0396 13.2006 77.4984 14.3894 77.4984H65.6156C66.7831 77.4984 67.8731 77.0509 68.7006 76.2471C68.7206 76.2296 68.7456 76.2234 68.7644 76.2046C68.7806 76.1884 68.7856 76.1659 68.8019 76.1484C68.8181 76.1296 68.8356 76.1121 68.8506 76.0921C69.6281 75.2771 70.0531 74.2109 70.0531 73.0734V47.2984C70.0531 46.6084 69.4931 46.0484 68.8031 46.0484C68.1131 46.0484 67.5531 46.6084 67.5531 47.2984V73.0734C67.5531 73.1259 67.5419 73.1771 67.5381 73.2296L51.2419 57.0809L60.2219 48.1871C60.7119 47.7009 60.7156 46.9096 60.2294 46.4184C59.7431 45.9284 58.9531 45.9259 58.4606 46.4109L41.3656 63.3434C40.6106 64.0821 39.3831 64.0821 38.6331 63.3496L31.4719 56.2484C31.4594 56.2346 31.4544 56.2159 31.4406 56.2021C31.4256 56.1871 31.4056 56.1821 31.3894 56.1684L14.2569 39.1784C14.3019 39.1746 14.3406 39.1634 14.3881 39.1634H40.8381L40.8406 39.1621ZM12.4694 73.2421C12.4644 73.1859 12.4531 73.1309 12.4531 73.0746V41.0996C12.4531 41.0396 12.4644 40.9834 12.4706 40.9246L28.7706 57.0896L12.4694 73.2421ZM39.9956 66.3921C41.1256 66.3921 42.2581 65.9696 43.1206 65.1246L49.4656 58.8409L65.7481 74.9759C65.7031 74.9784 65.6631 74.9996 65.6169 74.9996H14.3906C14.3469 74.9996 14.3044 74.9896 14.2619 74.9871L30.5469 58.8496L36.8794 65.1296C37.7381 65.9709 38.8669 66.3921 39.9956 66.3921Z" fill="white"/>
<path d="M73.4334 20.3105H47.4047C45.1609 20.3105 43.3359 22.1355 43.3359 24.3793V40.7293C43.3359 42.973 45.1609 44.798 47.4047 44.798H48.6472V48.3405C48.6472 48.8243 48.9259 49.263 49.3622 49.4705C49.5322 49.5505 49.7147 49.5905 49.8972 49.5905C50.1809 49.5905 50.4622 49.4943 50.6897 49.3068L56.1897 44.798H73.4334C75.6772 44.798 77.5022 42.973 77.5022 40.7293V24.3793C77.5022 22.1355 75.6772 20.3105 73.4334 20.3105ZM75.0022 40.7293C75.0022 41.5943 74.2984 42.298 73.4334 42.298H55.7434C55.4547 42.298 55.1747 42.398 54.9509 42.5818L51.1484 45.7006V43.5493C51.1484 42.8593 50.5884 42.2993 49.8984 42.2993H47.4059C46.5409 42.2993 45.8372 41.5955 45.8372 40.7305V24.3805C45.8372 23.5155 46.5409 22.8118 47.4059 22.8118H73.4347C74.2997 22.8118 75.0034 23.5155 75.0034 24.3805V40.7305L75.0022 40.7293Z" fill="white"/>
<path d="M55.0898 31.3037H54.6523C53.9623 31.3037 53.4023 31.8637 53.4023 32.5537C53.4023 33.2437 53.9623 33.8037 54.6523 33.8037H55.0898C55.7798 33.8037 56.3398 33.2437 56.3398 32.5537C56.3398 31.8637 55.7798 31.3037 55.0898 31.3037Z" fill="white"/>
<path d="M60.6355 31.3037H60.1992C59.5092 31.3037 58.9492 31.8637 58.9492 32.5537C58.9492 33.2437 59.5092 33.8037 60.1992 33.8037H60.6355C61.3255 33.8037 61.8855 33.2437 61.8855 32.5537C61.8855 31.8637 61.3255 31.3037 60.6355 31.3037Z" fill="white"/>
<path d="M66.1784 31.3037H65.7422C65.0522 31.3037 64.4922 31.8637 64.4922 32.5537C64.4922 33.2437 65.0522 33.8037 65.7422 33.8037H66.1784C66.8684 33.8037 67.4284 33.2437 67.4284 32.5537C67.4284 31.8637 66.8684 31.3037 66.1784 31.3037Z" fill="white"/>
<path d="M6.67625 29.8614H24.5938L30.3162 34.5527C30.5438 34.7389 30.825 34.8364 31.1087 34.8364C31.2912 34.8364 31.4738 34.7964 31.6438 34.7164C32.0813 34.5089 32.3587 34.0702 32.3587 33.5864V29.8614H33.6963C35.9988 29.8614 37.8725 27.9877 37.8725 25.6852V8.71141C37.8725 6.40891 35.9988 4.53516 33.6963 4.53516H6.67625C4.37375 4.53516 2.5 6.40891 2.5 8.71141V25.6852C2.5 27.9877 4.37375 29.8614 6.67625 29.8614ZM5 8.71141C5 7.78766 5.7525 7.03516 6.67625 7.03516H33.6975C34.6213 7.03516 35.3737 7.78766 35.3737 8.71141V25.6852C35.3737 26.6089 34.6213 27.3614 33.6975 27.3614H31.11C30.42 27.3614 29.86 27.9214 29.86 28.6114V30.9452L25.8337 27.6439C25.61 27.4614 25.33 27.3602 25.0413 27.3602H6.67625C5.75125 27.3602 5 26.6077 5 25.6839V8.71141Z" fill="white"/>
<path d="M25.7188 18.4482H26.1725C26.8625 18.4482 27.4225 17.8882 27.4225 17.1982C27.4225 16.5082 26.8625 15.9482 26.1725 15.9482H25.7188C25.0288 15.9482 24.4688 16.5082 24.4688 17.1982C24.4688 17.8882 25.0288 18.4482 25.7188 18.4482Z" fill="white"/>
<path d="M19.9609 18.4482H20.4147C21.1047 18.4482 21.6647 17.8882 21.6647 17.1982C21.6647 16.5082 21.1047 15.9482 20.4147 15.9482H19.9609C19.2709 15.9482 18.7109 16.5082 18.7109 17.1982C18.7109 17.8882 19.2709 18.4482 19.9609 18.4482Z" fill="white"/>
<path d="M14.2031 18.4482H14.6556C15.3456 18.4482 15.9056 17.8882 15.9056 17.1982C15.9056 16.5082 15.3456 15.9482 14.6556 15.9482H14.2031C13.5131 15.9482 12.9531 16.5082 12.9531 17.1982C12.9531 17.8882 13.5131 18.4482 14.2031 18.4482Z" fill="white"/>
</g>
<defs>
<clipPath id="clip0_292_151">
<rect width="80" height="80" fill="white"/>
</clipPath>
</defs>
</svg>
