<svg width="80" height="80" viewBox="0 0 80 80" fill="none" xmlns="http://www.w3.org/2000/svg">
<g clip-path="url(#clip0_292_148)">
<g clip-path="url(#clip1_292_148)">
<path d="M78.75 38.75H71.7927C71.1497 22.197 57.803 8.85031 41.25 8.20734V1.25C41.25 0.559687 40.6903 0 40 0C39.3097 0 38.75 0.559687 38.75 1.25V8.20734C22.197 8.85031 8.85031 22.197 8.20734 38.75H1.25C0.559687 38.75 0 39.3097 0 40C0 40.6903 0.559687 41.25 1.25 41.25H8.20734C8.85031 57.803 22.197 71.1497 38.75 71.7927V78.75C38.75 79.4403 39.3097 80 40 80C40.6903 80 41.25 79.4403 41.25 78.75V71.7927C57.803 71.1497 71.1497 57.803 71.7927 41.25H78.75C79.4403 41.25 80 40.6903 80 40C80 39.3097 79.4403 38.75 78.75 38.75ZM40 69.3195C23.8341 69.3195 10.6819 56.1683 10.6805 40.0025C10.6805 40.0017 10.6806 40.0009 10.6806 40.0002C10.6806 39.9994 10.6805 39.9986 10.6805 39.9978C10.6819 23.8319 23.8341 10.6805 40 10.6805C56.1669 10.6805 69.3195 23.8331 69.3195 40C69.3195 56.1669 56.1669 69.3195 40 69.3195ZM40 13.3203C25.2887 13.3203 13.3203 25.2887 13.3203 40C13.3203 54.7113 25.2887 66.6797 40 66.6797C54.7113 66.6797 66.6797 54.7113 66.6797 40C66.6797 25.2887 54.7113 13.3203 40 13.3203ZM40 64.1797C26.6673 64.1797 15.8203 53.3327 15.8203 40C15.8203 26.6673 26.6673 15.8203 40 15.8203C53.3327 15.8203 64.1797 26.6673 64.1797 40C64.1797 53.3327 53.3327 64.1797 40 64.1797ZM51.7189 27.0312H28.2812C27.5909 27.0312 27.0312 27.5909 27.0312 28.2812V50.1562C27.0312 51.707 28.293 52.9688 29.8438 52.9688H50.1564C51.7072 52.9688 52.9689 51.707 52.9689 50.1562V28.2812C52.9689 27.5909 52.4092 27.0312 51.7189 27.0312ZM37.3264 29.5312H42.6739V36.5936H37.3264V29.5312ZM50.4689 50.1562C50.4689 50.3256 50.3258 50.4688 50.1564 50.4688H29.8438C29.6744 50.4688 29.5312 50.3256 29.5312 50.1562V29.5312H34.8264V37.8436C34.8264 38.5339 35.3861 39.0936 36.0764 39.0936H43.9239C44.6142 39.0936 45.1739 38.5339 45.1739 37.8436V29.5312H50.4691V50.1562H50.4689Z" fill="white"/>
</g>
</g>
<defs>
<clipPath id="clip0_292_148">
<rect width="80" height="80" fill="white"/>
</clipPath>
<clipPath id="clip1_292_148">
<rect width="80" height="80" fill="white"/>
</clipPath>
</defs>
</svg>
