<svg width="80" height="80" viewBox="0 0 80 80" fill="none" xmlns="http://www.w3.org/2000/svg">
<g clip-path="url(#clip0_292_256)">
<path d="M42.1925 25.306C42.196 22.094 41.4607 18.9243 40.0433 16.042L41.295 14.7907C41.6781 14.9605 42.0925 15.0482 42.5115 15.0482C42.9305 15.0482 43.3449 14.9605 43.728 14.7907L46.8241 17.8835C46.6197 18.344 46.5335 18.8482 46.5734 19.3504C46.6133 19.8526 46.778 20.3368 47.0525 20.7592C47.3271 21.1816 47.7027 21.5288 48.1454 21.7692C48.5881 22.0096 49.0839 22.1357 49.5876 22.1359C50.0914 22.1362 50.5873 22.0106 51.0302 21.7706C51.4732 21.5306 51.8491 21.1838 52.1241 20.7617C52.399 20.3395 52.5641 19.8554 52.6045 19.3533C52.6449 18.8511 52.5592 18.3468 52.3553 17.8862L61.1177 9.12398L61.1314 11.1977C61.1332 11.4866 61.2493 11.7631 61.4542 11.9667C61.6591 12.1703 61.9363 12.2846 62.2252 12.2846H62.2325C62.3762 12.2837 62.5182 12.2545 62.6506 12.1986C62.783 12.1428 62.903 12.0614 63.004 11.9592C63.1049 11.8569 63.1847 11.7358 63.2387 11.6027C63.2928 11.4696 63.3202 11.3272 63.3192 11.1835L63.288 6.49289C63.2861 6.20578 63.1715 5.9309 62.9688 5.72759C62.766 5.52428 62.4915 5.40883 62.2044 5.40617L57.5139 5.36195H57.5034C57.2134 5.36059 56.9346 5.47451 56.7285 5.67866C56.5224 5.88281 56.4059 6.16047 56.4045 6.45055C56.4032 6.74063 56.5171 7.01937 56.7212 7.22545C56.9254 7.43154 57.203 7.54809 57.4931 7.54945L59.5775 7.56914L50.8077 16.3388C50.4243 16.1684 50.0094 16.0803 49.5899 16.0801C49.1703 16.0799 48.7554 16.1677 48.3719 16.3377L45.2766 13.2448C45.481 12.7842 45.5672 12.2798 45.5272 11.7775C45.4872 11.2751 45.3224 10.7907 45.0477 10.3683C44.773 9.94578 44.3971 9.59862 43.9542 9.35829C43.5113 9.11797 43.0153 8.99209 42.5114 8.99209C42.0075 8.99209 41.5115 9.11797 41.0686 9.35829C40.6257 9.59862 40.2498 9.94578 39.9751 10.3683C39.7004 10.7907 39.5356 11.2751 39.4956 11.7775C39.4557 12.2798 39.5418 12.7842 39.7463 13.2448L38.9319 14.0588C37.0333 11.0519 34.4047 8.57432 31.2908 6.85686C28.1769 5.13939 24.679 4.2379 21.1228 4.23633C9.50734 4.23633 0.0575 13.688 0.0575 25.306C0.0575 35.6148 7.50125 44.2168 17.2959 46.0219V47.3721H15.9806C13.2038 47.3721 10.2288 49.4245 7.83844 51.0735C7.39234 51.3812 6.96641 51.6751 6.56672 51.9387H1.09375C0.803669 51.9387 0.52547 52.0539 0.320352 52.259C0.115234 52.4641 0 52.7423 0 53.0324L0 66.2668C0 66.5569 0.115234 66.8351 0.320352 67.0402C0.52547 67.2453 0.803669 67.3605 1.09375 67.3605H6.58656C6.98344 67.6037 7.40875 67.8762 7.85422 68.1616C10.1948 69.6616 13.1077 71.5285 15.728 71.5285H17.2959V71.9315C17.2959 72.947 17.6994 73.9209 18.4174 74.639C19.1355 75.3571 20.1095 75.7605 21.125 75.7605C22.1405 75.7605 23.1145 75.3571 23.8326 74.639C24.5506 73.9209 24.9541 72.947 24.9541 71.9315V71.5285H25.2686C25.9492 71.5288 26.6176 71.3481 27.2053 71.0051C27.7931 70.662 28.279 70.1688 28.6134 69.5761C28.9478 68.9833 29.1186 68.3123 29.1083 67.6319C29.098 66.9514 28.907 66.2859 28.5548 65.7035C29.0636 65.477 29.5169 65.1425 29.8834 64.7233C30.2499 64.304 30.5208 63.81 30.6772 63.2755C30.8336 62.7411 30.8719 62.179 30.7893 61.6282C30.7067 61.0775 30.5052 60.5514 30.1989 60.0863C30.6722 59.8324 31.087 59.482 31.4163 59.0577C31.7456 58.6334 31.9822 58.1447 32.1107 57.6232C32.2393 57.1017 32.2569 56.5591 32.1625 56.0303C32.068 55.5016 31.8636 54.9986 31.5625 54.5538C32.3007 54.1362 32.8799 53.486 33.2096 52.7045C33.5394 51.9231 33.6011 51.0545 33.3852 50.2343C33.1692 49.4141 32.6878 48.6884 32.0161 48.1707C31.3443 47.6529 30.52 47.3721 29.6719 47.3721H24.9547V46.0213C34.7491 44.2148 42.1925 35.6135 42.1925 25.306ZM49.5892 18.268C49.7548 18.2681 49.9166 18.3172 50.0542 18.4092C50.1918 18.5012 50.2991 18.6319 50.3624 18.7848C50.4257 18.9378 50.4423 19.1061 50.41 19.2684C50.3777 19.4308 50.298 19.5799 50.1809 19.6969C50.0639 19.814 49.9148 19.8937 49.7524 19.926C49.59 19.9583 49.4218 19.9418 49.2688 19.8784C49.1159 19.8151 48.9851 19.7078 48.8932 19.5702C48.8012 19.4326 48.7521 19.2708 48.752 19.1052C48.7523 18.8833 48.8406 18.6705 48.9975 18.5135C49.1545 18.3566 49.3673 18.2683 49.5892 18.268ZM42.5111 11.1859C42.6766 11.1859 42.8385 11.235 42.9761 11.327C43.1137 11.419 43.221 11.5497 43.2843 11.7027C43.3476 11.8556 43.3642 12.0239 43.3319 12.1863C43.2996 12.3486 43.2198 12.4978 43.1028 12.6148C42.9857 12.7319 42.8365 12.8116 42.6742 12.8439C42.5118 12.8761 42.3435 12.8595 42.1906 12.7962C42.0376 12.7328 41.9069 12.6256 41.815 12.4879C41.723 12.3503 41.6739 12.1884 41.6739 12.0229C41.6742 11.8009 41.7625 11.5881 41.9195 11.4311C42.0765 11.2742 42.2894 11.186 42.5114 11.1859H42.5111ZM5.79781 65.173H2.1875V54.1262H5.79687L5.79781 65.173ZM22.7666 71.9321C22.7666 72.3672 22.5937 72.7845 22.286 73.0922C21.9784 73.3999 21.5611 73.5727 21.1259 73.5727C20.6908 73.5727 20.2735 73.3999 19.9658 73.0922C19.6582 72.7845 19.4853 72.3672 19.4853 71.9321V71.5291H22.7666V71.9321ZM29.6719 49.5602C30.11 49.5602 30.5302 49.7343 30.84 50.0441C31.1499 50.3539 31.3239 50.7741 31.3239 51.2123C31.3239 51.6504 31.1499 52.0706 30.84 52.3804C30.5302 52.6902 30.11 52.8643 29.6719 52.8643H28.3828C28.3798 52.8643 28.377 52.8643 28.3741 52.8643H28.3652H22.0928C21.8027 52.8643 21.5245 52.9795 21.3194 53.1846C21.1143 53.3898 20.9991 53.668 20.9991 53.958C20.9991 54.2481 21.1143 54.5263 21.3194 54.7314C21.5245 54.9366 21.8027 55.0518 22.0928 55.0518H28.3645H28.3734H28.3822C28.8203 55.0518 29.2405 55.2258 29.5503 55.5357C29.8602 55.8455 30.0342 56.2657 30.0342 56.7038C30.0342 57.142 29.8602 57.5622 29.5503 57.872C29.2405 58.1818 28.8203 58.3559 28.3822 58.3559H22.0928C21.8027 58.3559 21.5245 58.4711 21.3194 58.6762C21.1143 58.8813 20.9991 59.1595 20.9991 59.4496C20.9991 59.7397 21.1143 60.0179 21.3194 60.223C21.5245 60.4281 21.8027 60.5434 22.0928 60.5434H26.9914C27.4268 60.5476 27.8429 60.7235 28.1493 61.0329C28.4557 61.3423 28.6275 61.7601 28.6275 62.1955C28.6275 62.6309 28.4557 63.0487 28.1493 63.358C27.8429 63.6674 27.4268 63.8433 26.9914 63.8476H22.0928C21.8027 63.8476 21.5245 63.9628 21.3194 64.1679C21.1143 64.373 20.9991 64.6512 20.9991 64.9413C20.9991 65.2314 21.1143 65.5096 21.3194 65.7147C21.5245 65.9198 21.8027 66.0351 22.0928 66.0351H25.2686C25.4869 66.033 25.7034 66.0741 25.9057 66.1562C26.108 66.2382 26.292 66.3596 26.4471 66.5132C26.6022 66.6668 26.7254 66.8496 26.8094 67.0511C26.8934 67.2526 26.9367 67.4687 26.9367 67.687C26.9367 67.9053 26.8934 68.1215 26.8094 68.3229C26.7254 68.5244 26.6022 68.7072 26.4471 68.8609C26.292 69.0145 26.108 69.1358 25.9057 69.2179C25.7034 69.2999 25.4869 69.3411 25.2686 69.339H15.728C13.7486 69.339 11.1342 67.664 9.03484 66.3182C8.67188 66.0855 8.32328 65.8629 7.98594 65.6526V53.622C8.33813 53.3862 8.70188 53.1359 9.08078 52.8745C11.2214 51.3979 13.8852 49.5602 15.9806 49.5602H29.6719ZM19.4844 47.3727V46.3085C20.0252 46.3502 20.5715 46.3713 21.1231 46.372C21.6748 46.3726 22.2225 46.3513 22.7662 46.3082V47.3727H19.4844ZM21.1231 44.1838C17.8195 44.1847 14.5734 43.3187 11.7093 41.6722C8.84514 40.0258 6.46317 37.6566 4.80133 34.8014C3.13949 31.9461 2.25597 28.7048 2.23904 25.4012C2.22211 22.0976 3.07235 18.8474 4.70484 15.9753C6.33732 13.1032 8.69489 10.7097 11.542 9.03399C14.3891 7.35828 17.6261 6.45902 20.9296 6.42602C24.2331 6.39302 27.4874 7.22746 30.3674 8.84596C33.2474 10.4645 35.6523 12.8104 37.3419 15.6493L35.8052 17.1855C33.7042 13.4035 30.217 10.5849 26.0785 9.32375C21.94 8.06264 17.4735 8.45757 13.6204 10.4253C9.76742 12.393 6.82887 15.7798 5.42418 19.8719C4.0195 23.9639 4.2584 28.4414 6.09055 32.3607C7.9227 36.28 11.205 39.3349 15.2455 40.8815C19.286 42.428 23.7692 42.3454 27.75 40.6511C31.7308 38.9568 34.8983 35.7831 36.5849 31.7989C38.2714 27.8148 38.3452 23.3315 36.7908 19.294L38.3973 17.6873C39.6656 20.561 40.1966 23.7058 39.9423 26.8367C39.6879 29.9675 38.6562 32.9854 36.9406 35.6167C35.2251 38.2481 32.88 40.4096 30.1179 41.9055C27.3558 43.4014 24.264 44.1843 21.1228 44.1832L21.1231 44.1838ZM27.9883 23.5216C27.5692 23.5217 27.1548 23.6094 26.7717 23.7791L24.2516 21.2621C24.4559 20.8015 24.542 20.2972 24.502 19.7949C24.462 19.2927 24.2972 18.8083 24.0225 18.3859C23.7478 17.9635 23.3719 17.6164 22.9291 17.3761C22.4862 17.1358 21.9903 17.01 21.4864 17.01C20.9825 17.01 20.4866 17.1358 20.0438 17.3761C19.6009 17.6164 19.225 17.9635 18.9503 18.3859C18.6756 18.8083 18.5108 19.2927 18.4708 19.7949C18.4308 20.2972 18.5169 20.8015 18.7213 21.2621L13.2931 26.6896C12.6461 26.4036 11.9194 26.3529 11.2389 26.5463C10.5585 26.7396 9.96706 27.1649 9.56715 27.7485C9.16723 28.332 8.98401 29.037 9.04921 29.7414C9.1144 30.4458 9.42392 31.1053 9.92414 31.6055C10.4244 32.1057 11.0838 32.4152 11.7882 32.4804C12.4926 32.5456 13.1976 32.3624 13.7812 31.9625C14.3647 31.5626 14.79 30.9711 14.9834 30.2907C15.1767 29.6102 15.126 28.8835 14.84 28.2365L20.2694 22.8071C20.6524 22.9768 21.0668 23.0645 21.4858 23.0645C21.9048 23.0645 22.3191 22.9768 22.7022 22.8071L25.2223 25.3243C25.0178 25.7852 24.9316 26.2899 24.9717 26.7926C25.0117 27.2953 25.1766 27.78 25.4515 28.2028C25.7264 28.6255 26.1026 28.9729 26.5458 29.2134C26.9891 29.4538 27.4853 29.5798 27.9896 29.5798C28.4939 29.5798 28.9902 29.4538 29.4334 29.2134C29.8766 28.9729 30.2528 28.6255 30.5277 28.2028C30.8026 27.78 30.9675 27.2953 31.0076 26.7926C31.0476 26.2899 30.9614 25.7852 30.7569 25.3243L35.0714 21.0118C36.1882 24.6186 35.8668 28.5175 34.1744 31.8927C32.4821 35.268 29.55 37.8579 25.9916 39.1205C22.4333 40.3832 18.5245 40.2208 15.0832 38.6672C11.6419 37.1137 8.93477 34.2894 7.52831 30.7854C6.12186 27.2814 6.12506 23.3692 7.53725 19.8675C8.94945 16.3659 11.6612 13.546 15.105 11.9981C18.5489 10.4502 22.4579 10.2941 26.0142 11.5626C29.5705 12.8311 32.4983 15.4258 34.1852 18.8038L29.2075 23.7796C28.8235 23.6093 28.4081 23.5212 27.988 23.521L27.9883 23.5216ZM28.8298 26.5468C28.8303 26.7128 28.7815 26.8751 28.6896 27.0134C28.5978 27.1516 28.467 27.2595 28.3138 27.3235C28.1607 27.3874 27.992 27.4045 27.8291 27.3725C27.6662 27.3406 27.5165 27.261 27.3988 27.144C27.2811 27.027 27.2008 26.8776 27.168 26.7149C27.1352 26.5522 27.1513 26.3835 27.2144 26.23C27.2775 26.0764 27.3847 25.9451 27.5224 25.8525C27.6602 25.7599 27.8223 25.7102 27.9883 25.7098C28.2107 25.7095 28.4242 25.7974 28.5819 25.9543C28.7396 26.1112 28.8287 26.3242 28.8295 26.5466L28.8298 26.5468ZM22.3234 20.0402C22.3235 20.2058 22.2745 20.3677 22.1825 20.5054C22.0905 20.6432 21.9598 20.7505 21.8068 20.8139C21.6539 20.8773 21.4855 20.894 21.3231 20.8617C21.1607 20.8294 21.0115 20.7497 20.8944 20.6326C20.7773 20.5156 20.6975 20.3664 20.6652 20.204C20.6328 20.0416 20.6494 19.8732 20.7128 19.7202C20.7761 19.5672 20.8834 19.4365 21.0211 19.3445C21.1588 19.2525 21.3207 19.2034 21.4862 19.2034C21.708 19.2037 21.9205 19.2919 22.0774 19.4487C22.2342 19.6054 22.3226 19.8179 22.3231 20.0396L22.3234 20.0402ZM12.9111 29.4562C12.9118 29.6502 12.8453 29.8386 12.723 29.9892C12.6006 30.1398 12.4298 30.2434 12.2397 30.2825C12.0496 30.3215 11.8518 30.2935 11.68 30.2032C11.5082 30.113 11.3729 29.966 11.2972 29.7874C11.2214 29.6087 11.2098 29.4093 11.2644 29.2231C11.3189 29.0368 11.4363 28.8752 11.5965 28.7656C11.7567 28.6561 11.9499 28.6054 12.1432 28.6221C12.3366 28.6388 12.5182 28.722 12.6572 28.8574C12.6597 28.8601 12.6619 28.863 12.6645 28.8655C12.6672 28.868 12.67 28.8704 12.6725 28.8729C12.8253 29.0286 12.911 29.238 12.9111 29.4562ZM79.1319 62.8699C79.1319 63.16 79.0166 63.4382 78.8115 63.6433C78.6064 63.8484 78.3282 63.9637 78.0381 63.9637H73.7636C73.4735 63.9637 73.1953 63.8484 72.9902 63.6433C72.7851 63.4382 72.6698 63.16 72.6698 62.8699C72.6698 62.5798 72.7851 62.3016 72.9902 62.0965C73.1953 61.8914 73.4735 61.7762 73.7636 61.7762H78.0378C78.1815 61.7761 78.3237 61.8044 78.4565 61.8593C78.5892 61.9143 78.7098 61.9948 78.8114 62.0964C78.913 62.198 78.9936 62.3186 79.0486 62.4513C79.1036 62.584 79.1319 62.7263 79.1319 62.8699ZM55.0148 62.8699C55.0148 62.5798 55.1301 62.3016 55.3352 62.0965C55.5403 61.8914 55.8185 61.7762 56.1086 61.7762H70.9155C71.2056 61.7762 71.4837 61.8914 71.6889 62.0965C71.894 62.3016 72.0092 62.5798 72.0092 62.8699C72.0092 63.16 71.894 63.4382 71.6889 63.6433C71.4837 63.8484 71.2056 63.9637 70.9155 63.9637H56.1094C55.8193 63.9637 55.5411 63.8484 55.336 63.6433C55.1309 63.4382 55.0156 63.16 55.0156 62.8699H55.0148ZM63.9133 67.5073C63.9133 67.7973 63.798 68.0755 63.5929 68.2807C63.3878 68.4858 63.1096 68.601 62.8195 68.601H56.1094C55.8193 68.601 55.5411 68.4858 55.336 68.2807C55.1309 68.0755 55.0156 67.7973 55.0156 67.5073C55.0156 67.2172 55.1309 66.939 55.336 66.7339C55.5411 66.5287 55.8193 66.4135 56.1094 66.4135H62.8195C63.1096 66.4135 63.3878 66.5287 63.5929 66.7339C63.798 66.939 63.9133 67.2172 63.9133 67.5073ZM51.9375 57.134H40.9656C40.6755 57.134 40.3973 57.2492 40.1922 57.4543C39.9871 57.6595 39.8719 57.9377 39.8719 58.2277V67.5068C39.8719 67.7969 39.9871 68.0751 40.1922 68.2802C40.3973 68.4853 40.6755 68.6005 40.9656 68.6005H51.9375C52.2276 68.6005 52.5058 68.4853 52.7109 68.2802C52.916 68.0751 53.0312 67.7969 53.0312 67.5068V58.2282C53.0313 58.0845 53.0031 57.9423 52.9481 57.8095C52.8932 57.6767 52.8126 57.5561 52.7111 57.4545C52.6095 57.3529 52.4889 57.2723 52.3562 57.2173C52.2234 57.1623 52.0812 57.134 51.9375 57.134ZM50.8437 66.4132H42.0609V59.3223H50.8437V66.4132ZM55.0156 58.2282C55.0156 57.9381 55.1309 57.6599 55.336 57.4548C55.5411 57.2497 55.8193 57.1344 56.1094 57.1344H58.9042C59.1943 57.1344 59.4725 57.2497 59.6776 57.4548C59.8827 57.6599 59.998 57.9381 59.998 58.2282C59.998 58.5183 59.8827 58.7965 59.6776 59.0016C59.4725 59.2067 59.1943 59.3219 58.9042 59.3219H56.1094C55.8193 59.3219 55.5411 59.2067 55.336 59.0016C55.1309 58.7965 55.0156 58.5183 55.0156 58.2282ZM79.1327 58.2282C79.1327 58.5183 79.0174 58.7965 78.8123 59.0016C78.6072 59.2067 78.329 59.3219 78.0389 59.3219H61.7516C61.4615 59.3219 61.1833 59.2067 60.9782 59.0016C60.773 58.7965 60.6578 58.5183 60.6578 58.2282C60.6578 57.9381 60.773 57.6599 60.9782 57.4548C61.1833 57.2497 61.4615 57.1344 61.7516 57.1344H78.0378C78.1815 57.1344 78.3237 57.1627 78.4565 57.2176C78.5892 57.2726 78.7098 57.3531 78.8114 57.4547C78.913 57.5563 78.9936 57.6768 79.0486 57.8096C79.1036 57.9423 79.1319 58.0845 79.1319 58.2282H79.1327ZM79.1327 67.5073C79.1327 67.7973 79.0174 68.0755 78.8123 68.2807C78.6072 68.4858 78.329 68.601 78.0389 68.601H65.6672C65.3771 68.601 65.0989 68.4858 64.8938 68.2807C64.6887 68.0755 64.5734 67.7973 64.5734 67.5073C64.5734 67.2172 64.6887 66.939 64.8938 66.7339C65.0989 66.5287 65.3771 66.4135 65.6672 66.4135H78.0378C78.1815 66.4135 78.3237 66.4417 78.4565 66.4967C78.5892 66.5516 78.7098 66.6322 78.8114 66.7338C78.913 66.8353 78.9936 66.9559 79.0486 67.0886C79.1036 67.2213 79.1319 67.3636 79.1319 67.5073H79.1327ZM78.9062 52.6518H76.9705V33.2077C76.9705 32.9177 76.8552 32.6395 76.6501 32.4343C76.445 32.2292 76.1668 32.114 75.8767 32.114H70.4197V20.6774C70.4197 20.5338 70.3914 20.3916 70.3364 20.2589C70.2815 20.1262 70.2009 20.0056 70.0993 19.904C69.9978 19.8025 69.8772 19.7219 69.7445 19.6669C69.6118 19.612 69.4696 19.5837 69.3259 19.5837H62.7748C62.4848 19.5837 62.2066 19.6989 62.0014 19.904C61.7963 20.1091 61.6811 20.3873 61.6811 20.6774V29.2568H57.3181V25.8951C57.3181 25.605 57.2029 25.3268 56.9978 25.1217C56.7927 24.9166 56.5145 24.8013 56.2244 24.8013H49.6775C49.3874 24.8013 49.1092 24.9166 48.9041 25.1217C48.699 25.3268 48.5838 25.605 48.5838 25.8951V37.3932H43.127C42.837 37.3932 42.5588 37.5084 42.3536 37.7136C42.1485 37.9187 42.0333 38.1969 42.0333 38.487V52.6515H40.0975C39.8074 52.6515 39.5292 52.7667 39.3241 52.9718C39.119 53.177 39.0037 53.4552 39.0037 53.7452C39.0037 54.0353 39.119 54.3135 39.3241 54.5186C39.5292 54.7237 39.8074 54.839 40.0975 54.839H78.9062C79.1963 54.839 79.4745 54.7237 79.6796 54.5186C79.8848 54.3135 80 54.0353 80 53.7452C80 53.4552 79.8848 53.177 79.6796 52.9718C79.4745 52.7667 79.1963 52.6515 78.9062 52.6515V52.6518ZM48.5839 52.6518H44.2214V39.5813H48.5839V52.6518ZM55.1308 52.6518H50.7717V26.9891H55.13L55.1308 52.6518ZM61.6816 52.6518H57.3181V31.4449H61.6808L61.6816 52.6518ZM68.2323 52.6518H63.8698V21.7715H68.2323V52.6518ZM74.7831 52.6518H70.4197V34.3018H74.7823L74.7831 52.6518Z" fill="white"/>
</g>
<defs>
<clipPath id="clip0_292_256">
<rect width="80" height="80" fill="white"/>
</clipPath>
</defs>
</svg>
