<svg width="80" height="80" viewBox="0 0 80 80" fill="none" xmlns="http://www.w3.org/2000/svg">
<g clip-path="url(#clip0_292_250)">
<g clip-path="url(#clip1_292_250)">
<path d="M43.0566 44.5717H36.9468C36.3855 44.5715 35.9075 44.1637 35.8188 43.6093L34.9926 38.4516C33.8976 38.1303 32.8368 37.7019 31.8258 37.1728L27.4703 40.2711C27.0201 40.5904 26.4059 40.5423 26.011 40.1568L21.6909 35.9498C21.2804 35.5484 21.2316 34.9047 21.5766 34.4459L24.732 30.2401C24.2006 29.271 23.768 28.251 23.4406 27.1955L18.1206 26.3898C17.5591 26.3069 17.1435 25.8247 17.1445 25.2571V19.3145C17.1444 18.7489 17.558 18.2684 18.1171 18.1842L23.4372 17.3785C23.7644 16.3226 24.1975 15.3027 24.7297 14.3339L21.5731 10.1281C21.2274 9.66907 21.2763 9.02454 21.6874 8.62299L26.0075 4.41721C26.4026 4.03168 27.0168 3.98362 27.4669 4.30291L31.8223 7.40116C32.8335 6.87193 33.8941 6.44313 34.9891 6.12119L35.8153 0.964646C35.9032 0.408159 36.3834 -0.00115381 36.9468 2.44352e-06H43.0566C43.6179 0.000167622 44.0959 0.407994 44.1846 0.962333L45.0108 6.12004C46.1058 6.44131 47.1666 6.86978 48.1776 7.39885L52.5331 4.30059C52.9834 3.9813 53.5975 4.02937 53.9924 4.4149L58.3125 8.62068C58.7236 9.02223 58.7725 9.66675 58.4268 10.1258L55.2702 14.3316C55.8034 15.2987 56.2375 16.3172 56.5662 17.3715L61.8863 18.1773C62.4481 18.2618 62.8624 18.7463 62.8589 19.3143V25.2571C62.8591 25.8227 62.4454 26.3032 61.8863 26.3875L56.5662 27.1932C56.2389 28.2487 55.8063 29.2688 55.2749 30.2378L58.4303 34.4436C58.7753 34.9024 58.7264 35.5461 58.316 35.9475L53.9959 40.1544C53.601 40.5393 52.9876 40.5874 52.5375 40.2687L48.1809 37.1705C47.1696 37.6992 46.1089 38.128 45.0141 38.4505L44.1879 43.607C44.1002 44.1635 43.62 44.573 43.0566 44.5717ZM37.9219 42.2859H42.0819L42.8704 37.3613C42.9431 36.9087 43.2793 36.5435 43.7241 36.4333C45.1126 36.0892 46.4454 35.5506 47.6829 34.8334C48.0701 34.6092 48.5524 34.6315 48.9171 34.8905L53.0806 37.8528L56.0018 35.0151L52.9949 31.0082C52.7136 30.6337 52.689 30.1256 52.9331 29.7259C53.6634 28.534 54.2138 27.2408 54.5663 25.8881C54.6819 25.4458 55.0501 25.1149 55.5023 25.047L60.5731 24.278V20.294L55.5 19.5249C55.0479 19.4571 54.6797 19.1262 54.5639 18.6839C54.2115 17.3312 53.6611 16.038 52.9308 14.8461C52.6867 14.4464 52.7111 13.9383 52.9926 13.5638L56.0017 9.55691L53.0816 6.71584L48.9162 9.67782C48.5511 9.93732 48.0681 9.95962 47.6808 9.73497C46.4428 9.0176 45.1096 8.47895 43.7208 8.13505C43.2755 8.02471 42.9393 7.65884 42.8671 7.20592L42.0821 2.28591H37.9219L37.1333 7.21055C37.0606 7.66314 36.7245 8.02835 36.2797 8.13852C34.891 8.48308 33.5578 9.02173 32.3197 9.73844C31.9322 9.96308 31.4493 9.94079 31.0843 9.68129L26.922 6.71551L24.0019 9.55658L27.0088 13.5635C27.2901 13.9379 27.3148 14.446 27.0706 14.8458C26.3404 16.0377 25.79 17.3309 25.4375 18.6835C25.3219 19.1259 24.9537 19.4567 24.5014 19.5246L19.4306 20.2937V24.2776L24.5037 25.0467C24.9558 25.1146 25.324 25.4454 25.4398 25.8878C25.7923 27.2404 26.3427 28.5336 27.0729 29.7256C27.3171 30.1253 27.2926 30.6334 27.0112 31.0078L24.0019 35.0147L26.9196 37.8558L31.0876 34.8935C31.4526 34.634 31.9356 34.6117 32.323 34.8363C33.561 35.5537 34.8941 36.0924 36.283 36.4363C36.7283 36.5466 37.0644 36.9125 37.1366 37.3654L37.9219 42.2859Z" fill="white"/>
<path d="M40.0013 31.9597C34.6589 31.9597 30.3281 27.6289 30.3281 22.2865C30.3281 16.9441 34.6589 12.6133 40.0013 12.6133C45.3437 12.6133 49.6745 16.9441 49.6745 22.2865C49.6682 27.6262 45.341 31.9534 40.0013 31.9597ZM40.0013 14.899C35.9214 14.899 32.6139 18.2066 32.6139 22.2865C32.6139 26.3664 35.9214 29.6739 40.0013 29.6739C44.0812 29.6739 47.3888 26.3664 47.3888 22.2865C47.3838 18.2085 44.0793 14.9041 40.0013 14.899Z" fill="white"/>
<path d="M17.1429 79.9991H3.42861C1.53501 79.9991 0 78.4641 0 76.5706V62.8563C0 60.9627 1.53501 59.4277 3.42861 59.4277H17.1429C19.0365 59.4277 20.5715 60.9627 20.5715 62.8563V76.5706C20.5715 78.4641 19.0363 79.9991 17.1429 79.9991ZM3.42861 61.7135C2.79747 61.7135 2.28574 62.2252 2.28574 62.8563V76.5706C2.28574 77.2018 2.79747 77.7135 3.42861 77.7135H17.1429C17.7741 77.7135 18.2858 77.2018 18.2858 76.5706V62.8563C18.2858 62.2252 17.7741 61.7135 17.1429 61.7135H3.42861Z" fill="white"/>
<path d="M46.8577 79.9993H33.1435C31.2498 79.9993 29.7148 78.4642 29.7148 76.5706V62.8564C29.7148 60.9627 31.2498 59.4277 33.1435 59.4277H46.8577C48.7514 59.4277 50.2864 60.9627 50.2864 62.8564V76.5706C50.2862 78.4642 48.7512 79.9993 46.8577 79.9993ZM33.1435 61.7136C32.5123 61.7136 32.0006 62.2254 32.0006 62.8565V76.5708C32.0006 77.202 32.5123 77.7137 33.1435 77.7137H46.8577C47.4889 77.7137 48.0006 77.202 48.0006 76.5708V62.8565C48.0006 62.2254 47.4889 61.7136 46.8577 61.7136H33.1435Z" fill="white"/>
<path d="M76.5726 79.9993H62.8583C60.9647 79.9993 59.4297 78.4642 59.4297 76.5706V62.8564C59.4297 60.9627 60.9647 59.4277 62.8583 59.4277H76.5726C78.4662 59.4277 80.0012 60.9627 80.0012 62.8564V76.5706C80.001 78.4642 78.466 79.9993 76.5726 79.9993ZM62.8583 61.7136C62.2272 61.7136 61.7154 62.2254 61.7154 62.8565V76.5708C61.7154 77.202 62.2272 77.7137 62.8583 77.7137H76.5726C77.2037 77.7137 77.7155 77.202 77.7155 76.5708V62.8565C77.7155 62.2254 77.2037 61.7136 76.5726 61.7136H62.8583Z" fill="white"/>
<path d="M70.8589 61.7139C70.2278 61.7139 69.716 61.2021 69.716 60.571V52.5709H11.4303V60.5708C11.4303 61.202 10.9186 61.7137 10.2874 61.7137C9.65625 61.7137 9.14453 61.202 9.14453 60.5708V51.428C9.14453 50.7969 9.65625 50.2852 10.2874 50.2852H70.8589C71.4901 50.2852 72.0018 50.7969 72.0018 51.428V60.5708C72.0018 61.2021 71.4901 61.7139 70.8589 61.7139Z" fill="white"/>
<path d="M40.0022 61.7138C39.3711 61.7138 38.8594 61.2021 38.8594 60.5709V43.428C38.8594 42.7969 39.3711 42.2852 40.0022 42.2852C40.6334 42.2852 41.1451 42.7969 41.1451 43.428V60.5709C41.1451 61.2021 40.6334 61.7138 40.0022 61.7138Z" fill="white"/>
</g>
</g>
<defs>
<clipPath id="clip0_292_250">
<rect width="80" height="80" fill="white"/>
</clipPath>
<clipPath id="clip1_292_250">
<rect width="80" height="80" fill="white"/>
</clipPath>
</defs>
</svg>
