<svg width="80" height="80" viewBox="0 0 80 80" fill="none" xmlns="http://www.w3.org/2000/svg">
<g clip-path="url(#clip0_292_262)">
<path d="M30.466 44.0467C29.9306 42.7957 29.6488 41.4509 29.6371 40.0903C29.6254 38.7296 29.8839 37.3801 30.3976 36.1201C31.2954 33.8987 32.9357 32.0573 35.039 30.9098C37.1422 29.7622 39.5783 29.3793 41.9322 29.8265C44.2861 30.2737 46.4121 31.5232 47.948 33.3622C49.4839 35.2011 50.3346 37.5157 50.3553 39.9116C50.3759 42.3075 49.5652 44.6364 48.0613 46.5015C46.5573 48.3667 44.4532 49.6527 42.1074 50.1404C39.7616 50.6281 37.3193 50.2874 35.1965 49.1762C33.0738 48.0651 31.402 46.2523 30.466 44.0467ZM32.7145 37.0563C32.2304 38.2544 32.0492 39.5534 32.1869 40.8382C32.3247 42.123 32.7773 43.354 33.5045 44.4222C34.2317 45.4903 35.2111 46.3626 36.3559 46.9618C37.5008 47.561 38.7757 47.8686 40.0679 47.8574C41.36 47.8462 42.6294 47.5164 43.7637 46.8974C44.898 46.2784 45.862 45.3892 46.5706 44.3085C47.2791 43.2279 47.7101 41.9892 47.8256 40.7022C47.941 39.4152 47.7372 38.1195 47.2323 36.9301C46.6442 35.4793 45.6334 34.2389 44.3313 33.3699C43.0292 32.501 41.4959 32.0436 39.9305 32.0572C38.3651 32.0708 36.84 32.5548 35.5532 33.4463C34.2663 34.3378 33.2773 35.5956 32.7145 37.0563Z" fill="white"/>
<path d="M34.2714 59.496L30.4433 57.95C30.0273 57.7825 29.6796 57.4803 29.4556 57.0918C29.2317 56.7033 29.1445 56.251 29.208 55.8071L29.6547 52.5984C28.8634 51.9479 28.1351 51.2243 27.4794 50.4372L24.3251 50.9347C23.8822 51.0065 23.4279 50.9271 23.0355 50.7094C22.6431 50.4916 22.3354 50.1481 22.1621 49.7341L20.5496 45.9359C20.3736 45.5233 20.3412 45.0637 20.4574 44.6305C20.5736 44.1973 20.8317 43.8155 21.1904 43.5464L23.7771 41.5945C23.676 40.5746 23.6719 39.5475 23.7649 38.5268L21.1831 36.6482C20.8202 36.3851 20.556 36.0079 20.4327 35.5769C20.3095 35.1459 20.3343 34.6861 20.5032 34.2709L22.0474 30.4446C22.2153 30.029 22.5174 29.6815 22.9056 29.4575C23.2938 29.2334 23.7458 29.1456 24.1897 29.208L27.4001 29.656C28.0501 28.8642 28.7736 28.1357 29.5608 27.4801L29.0639 24.3251C28.9937 23.8821 29.074 23.4282 29.2919 23.0362C29.5099 22.6441 29.8529 22.3363 30.2663 22.1621L34.0627 20.5501C34.4748 20.3744 34.9338 20.3418 35.3666 20.4575C35.7994 20.5732 36.181 20.8306 36.4504 21.1885L38.4047 23.7776C39.4242 23.6768 40.4509 23.6728 41.4711 23.7654L43.3498 21.1836C43.6137 20.8218 43.9907 20.5584 44.4212 20.4351C44.8518 20.3119 45.3111 20.3358 45.7265 20.5031L49.5546 22.0491C49.9706 22.2166 50.3184 22.5188 50.5423 22.9073C50.7663 23.2958 50.8535 23.7482 50.79 24.1921L50.3432 27.4001C51.1348 28.0505 51.8632 28.7744 52.5185 29.5619L55.6728 29.0645C56.1151 28.9952 56.5678 29.0753 56.9595 29.2921C57.3513 29.5088 57.6596 29.8499 57.8359 30.2614L59.4496 34.0633C59.625 34.4759 59.6572 34.9354 59.541 35.3685C59.4249 35.8016 59.1671 36.1833 58.8087 36.4528L56.2209 38.4053C56.322 39.425 56.326 40.4519 56.2331 41.4723L58.8148 43.351C59.1778 43.6141 59.442 43.9913 59.5653 44.4222C59.6885 44.8532 59.6637 45.3131 59.4948 45.7283L57.9507 49.5546C57.7836 49.9708 57.4816 50.3189 57.0932 50.5431C56.7048 50.7673 56.2523 50.8547 55.8083 50.7911L52.5979 50.3431C51.9479 51.1349 51.2244 51.8635 50.4372 52.519L50.9341 55.6739C51.0043 56.117 50.924 56.5709 50.706 56.963C50.4881 57.3551 50.145 57.6628 49.7316 57.8371L45.9352 59.449C45.523 59.6244 45.0641 59.6569 44.6313 59.5412C44.1986 59.4255 43.8171 59.1683 43.5475 58.8106L41.5931 56.2215C40.5737 56.3229 39.5469 56.327 38.5267 56.2337L36.6481 58.8155C36.3848 59.178 36.0078 59.442 35.577 59.5653C35.1463 59.6886 34.6867 59.6643 34.2714 59.496ZM31.736 55.7759L34.8525 57.0345L36.9337 54.1738C37.0671 53.991 37.2475 53.8477 37.4558 53.7591C37.6641 53.6706 37.8924 53.6401 38.1166 53.6708C39.3974 53.8494 40.6971 53.8444 41.9765 53.6562C42.1981 53.6243 42.4243 53.6524 42.6315 53.7375C42.8386 53.8226 43.0192 53.9617 43.1544 54.1402L45.3114 56.9978L48.4047 55.6844L47.8542 52.1889C47.8188 51.9655 47.8447 51.7366 47.9292 51.5268C48.0137 51.317 48.1536 51.134 48.3339 50.9975C49.3655 50.2175 50.2816 49.2955 51.0548 48.2588C51.1875 48.0781 51.367 47.9369 51.5739 47.8504C51.7808 47.7639 52.0073 47.7355 52.2292 47.7681L55.7753 48.2625L57.0338 45.1473L54.1725 43.0648C53.9897 42.9314 53.8465 42.751 53.7582 42.5427C53.6698 42.3344 53.6396 42.106 53.6708 41.8819C53.8478 40.601 53.8429 39.3015 53.6562 38.022C53.6239 37.8003 53.6517 37.574 53.7367 37.3666C53.8217 37.1593 53.9609 36.9786 54.1395 36.8434L56.9984 34.6865L55.685 31.5938L52.1889 32.145C51.9651 32.1806 51.7359 32.1547 51.5258 32.07C51.3157 31.9852 51.1326 31.8449 50.9962 31.664C50.2161 30.6324 49.2943 29.716 48.2582 28.9418C48.0785 28.8082 47.9381 28.6286 47.8517 28.422C47.7654 28.2154 47.7363 27.9893 47.7675 27.7675L48.2619 24.2232L45.1454 22.9647L43.0642 25.8254C42.9306 26.008 42.7501 26.1511 42.5419 26.2396C42.3337 26.3281 42.1055 26.3588 41.8813 26.3283C40.6005 26.1501 39.3009 26.155 38.0214 26.343C37.7997 26.3755 37.5733 26.3478 37.366 26.2626C37.1588 26.1774 36.9782 26.038 36.8435 25.8589L34.6864 23.0013L31.5932 24.3148L32.1437 27.8102C32.1791 28.0337 32.1531 28.2625 32.0686 28.4723C31.9842 28.6821 31.8443 28.8651 31.664 29.0016C30.6323 29.7816 29.7162 30.7036 28.943 31.7403C28.8092 31.9198 28.6296 32.06 28.423 32.1463C28.2164 32.2326 27.9905 32.2619 27.7687 32.231L24.2226 31.7366L22.964 34.8519L25.8253 36.9344C26.0082 37.0677 26.1514 37.2481 26.2397 37.4564C26.3281 37.6647 26.3582 37.8931 26.327 38.1172C26.15 39.3981 26.155 40.6976 26.3417 41.9771C26.374 42.1988 26.3462 42.4252 26.2612 42.6325C26.1761 42.8398 26.037 43.0205 25.8583 43.1557L23.0006 45.3121L24.3141 48.4053L27.809 47.8542C28.0324 47.8184 28.2614 47.8441 28.4713 47.9286C28.6812 48.0132 28.8641 48.1533 29.0004 48.3339C29.781 49.3657 30.7032 50.2823 31.7397 51.0567C31.9194 51.1903 32.0598 51.3699 32.1461 51.5765C32.2325 51.7832 32.2616 52.0092 32.2304 52.231L31.736 55.7759Z" fill="white"/>
<path d="M73.5363 5.21289H68.2324C67.9009 5.21289 67.5829 5.34459 67.3485 5.57901C67.1141 5.81343 66.9824 6.13137 66.9824 6.46289C66.9824 6.79441 67.1141 7.11235 67.3485 7.34677C67.5829 7.58119 67.9009 7.71289 68.2324 7.71289H70.5187L58.0797 20.1519C57.851 20.3874 57.7242 20.7035 57.7266 21.0318C57.729 21.3601 57.8605 21.6743 58.0927 21.9065C58.3248 22.1387 58.639 22.2702 58.9674 22.2726C59.2957 22.275 59.6118 22.1481 59.8473 21.9194L72.2863 9.48052V11.7662C72.2863 12.0977 72.418 12.4157 72.6525 12.6501C72.8869 12.8845 73.2048 13.0162 73.5363 13.0162C73.8679 13.0162 74.1858 12.8845 74.4202 12.6501C74.6546 12.4157 74.7863 12.0977 74.7863 11.7662V6.46289C74.7864 6.29873 74.7541 6.13616 74.6913 5.98448C74.6285 5.83281 74.5364 5.69499 74.4203 5.57891C74.3042 5.46283 74.1664 5.37075 74.0147 5.30795C73.8631 5.24515 73.7005 5.21285 73.5363 5.21289Z" fill="white"/>
<path d="M21.9214 20.1519L9.48247 7.71289H11.7688C12.1004 7.71289 12.4183 7.58119 12.6527 7.34677C12.8871 7.11235 13.0188 6.79441 13.0188 6.46289C13.0188 6.13137 12.8871 5.81343 12.6527 5.57901C12.4183 5.34459 12.1004 5.21289 11.7688 5.21289H6.46484C6.30068 5.21285 6.13811 5.24515 5.98644 5.30795C5.83476 5.37075 5.69694 5.46283 5.58086 5.57891C5.46478 5.69499 5.37271 5.83281 5.3099 5.98448C5.2471 6.13616 5.2148 6.29873 5.21484 6.46289V11.7662C5.21484 12.0977 5.34654 12.4157 5.58096 12.6501C5.81538 12.8845 6.13332 13.0162 6.46484 13.0162C6.79636 13.0162 7.11431 12.8845 7.34873 12.6501C7.58315 12.4157 7.71484 12.0977 7.71484 11.7662V9.48052L20.1538 21.9195C20.3885 22.1527 20.706 22.2834 21.0368 22.2829C21.3677 22.2824 21.6848 22.1508 21.9188 21.9168C22.1527 21.6829 22.2844 21.3657 22.2848 21.0349C22.2853 20.704 22.1546 20.3865 21.9214 20.1519Z" fill="white"/>
<path d="M72.2847 68.2334V70.5191L59.8458 58.0801C59.6108 57.8487 59.2938 57.7195 58.9639 57.7207C58.6341 57.722 58.3181 57.8535 58.0848 58.0868C57.8516 58.32 57.72 58.636 57.7188 58.9659C57.7175 59.2957 57.8467 59.6127 58.0782 59.8477L70.5171 72.2867H68.2307C67.8992 72.2867 67.5813 72.4184 67.3468 72.6528C67.1124 72.8873 66.9807 73.2052 66.9807 73.5367C66.9807 73.8682 67.1124 74.1862 67.3468 74.4206C67.5813 74.655 67.8992 74.7867 68.2307 74.7867H73.5347C73.6989 74.7868 73.8614 74.7545 74.0131 74.6917C74.1648 74.6289 74.3026 74.5368 74.4187 74.4207C74.5348 74.3046 74.6269 74.1668 74.6897 74.0151C74.7525 73.8635 74.7848 73.7009 74.7847 73.5367V68.2334C74.7847 67.9019 74.653 67.5839 74.4186 67.3495C74.1842 67.1151 73.8662 66.9834 73.5347 66.9834C73.2032 66.9834 72.8853 67.1151 72.6508 67.3495C72.4164 67.5839 72.2847 67.9019 72.2847 68.2334Z" fill="white"/>
<path d="M20.1538 58.0801L7.71484 70.519V68.2333C7.71484 67.9018 7.58315 67.5838 7.34873 67.3494C7.11431 67.115 6.79636 66.9833 6.46484 66.9833C6.13332 66.9833 5.81538 67.115 5.58096 67.3494C5.34654 67.5838 5.21484 67.9018 5.21484 68.2333V73.5366C5.2148 73.7008 5.2471 73.8634 5.3099 74.0151C5.37271 74.1667 5.46478 74.3045 5.58086 74.4206C5.69694 74.5367 5.83476 74.6288 5.98644 74.6916C6.13811 74.7544 6.30068 74.7867 6.46484 74.7866H11.7688C12.1003 74.7866 12.4183 74.6549 12.6527 74.4205C12.8871 74.1861 13.0188 73.8682 13.0188 73.5366C13.0188 73.2051 12.8871 72.8872 12.6527 72.6528C12.4183 72.4183 12.1003 72.2866 11.7688 72.2866H9.48247L21.9214 59.8477C22.1537 59.6129 22.2837 59.2956 22.2828 58.9653C22.2819 58.6349 22.1503 58.3184 21.9167 58.0848C21.6831 57.8512 21.3665 57.7196 21.0362 57.7188C20.7059 57.7179 20.3886 57.8478 20.1538 58.0801Z" fill="white"/>
<path d="M17.0312 38.7508H10.9863L12.6025 37.1346C12.8331 36.8994 12.9615 36.5827 12.9598 36.2534C12.9582 35.9241 12.8266 35.6087 12.5937 35.3758C12.3609 35.143 12.0455 35.0114 11.7161 35.0098C11.3868 35.0081 11.0701 35.1366 10.835 35.3671L7.08497 39.1171C6.96887 39.2331 6.87677 39.3709 6.81393 39.5226C6.75109 39.6742 6.71875 39.8367 6.71875 40.0009C6.71875 40.165 6.75109 40.3276 6.81393 40.4792C6.87677 40.6309 6.96887 40.7686 7.08497 40.8847L10.835 44.6347C11.0701 44.8656 11.3869 44.9943 11.7164 44.9929C12.046 44.9914 12.3616 44.8598 12.5947 44.6268C12.8277 44.3937 12.9592 44.0781 12.9607 43.7485C12.9622 43.419 12.8334 43.1022 12.6025 42.8671L10.9863 41.2508H17.0312C17.3627 41.2508 17.6807 41.1192 17.9151 40.8847C18.1495 40.6503 18.2812 40.3324 18.2812 40.0008C18.2812 39.6693 18.1495 39.3514 17.9151 39.117C17.6807 38.8825 17.3627 38.7508 17.0312 38.7508Z" fill="white"/>
<path d="M72.915 39.1154L69.165 35.3654C68.9297 35.1356 68.6132 35.0078 68.2843 35.0098C67.9554 35.0117 67.6405 35.1433 67.408 35.3759C67.1754 35.6084 67.0439 35.9233 67.0419 36.2522C67.0399 36.5811 67.1677 36.8976 67.3975 37.1329L69.0137 38.7491H62.9688C62.6372 38.7491 62.3193 38.8808 62.0849 39.1152C61.8504 39.3497 61.7188 39.6676 61.7188 39.9991C61.7188 40.3307 61.8504 40.6486 62.0849 40.883C62.3193 41.1174 62.6372 41.2491 62.9688 41.2491H69.0137L67.3974 42.8654C67.1692 43.101 67.0428 43.417 67.0455 43.745C67.0481 44.073 67.1796 44.3868 67.4116 44.6188C67.6435 44.8507 67.9574 44.9822 68.2854 44.9849C68.6134 44.9875 68.9293 44.8611 69.165 44.6329L72.915 40.8829C73.0311 40.7668 73.1232 40.6291 73.186 40.4774C73.2488 40.3258 73.2812 40.1633 73.2812 39.9991C73.2812 39.835 73.2488 39.6725 73.186 39.5208C73.1232 39.3692 73.0311 39.2314 72.915 39.1154Z" fill="white"/>
<path d="M42.8651 67.3975L41.2489 69.0137V62.9688C41.2489 62.6372 41.1172 62.3193 40.8828 62.0849C40.6484 61.8504 40.3304 61.7188 39.9989 61.7188C39.6674 61.7188 39.3494 61.8504 39.115 62.0849C38.8806 62.3193 38.7489 62.6372 38.7489 62.9688V69.0137L37.1326 67.3974C36.8975 67.1669 36.5808 67.0385 36.2515 67.0401C35.9221 67.0418 35.6068 67.1734 35.3739 67.4062C35.141 67.6391 35.0095 67.9545 35.0078 68.2838C35.0062 68.6131 35.1346 68.9298 35.3651 69.165L39.1151 72.915C39.2312 73.0311 39.369 73.1232 39.5206 73.186C39.6722 73.2489 39.8348 73.2812 39.9989 73.2812C40.1631 73.2812 40.3256 73.2489 40.4773 73.186C40.6289 73.1232 40.7667 73.0311 40.8827 72.915L44.6327 69.165C44.8633 68.9298 44.9916 68.6131 44.99 68.2838C44.9883 67.9545 44.8568 67.6391 44.6239 67.4062C44.391 67.1734 44.0757 67.0418 43.7463 67.0402C43.417 67.0385 43.1003 67.167 42.8651 67.3975Z" fill="white"/>
<path d="M44.6327 10.835L40.8827 7.08497C40.7666 6.96887 40.6289 6.87677 40.4772 6.81393C40.3256 6.75109 40.163 6.71875 39.9989 6.71875C39.8347 6.71875 39.6722 6.75109 39.5206 6.81393C39.3689 6.87677 39.2311 6.96887 39.1151 7.08497L35.3651 10.835C35.1346 11.0702 35.0062 11.3868 35.0078 11.7162C35.0095 12.0455 35.141 12.3609 35.3739 12.5937C35.6068 12.8266 35.9222 12.9581 36.2515 12.9598C36.5808 12.9614 36.8975 12.833 37.1327 12.6025L38.7489 10.9863V17.0312C38.7489 17.3627 38.8806 17.6807 39.115 17.9151C39.3495 18.1495 39.6674 18.2812 39.9989 18.2812C40.3305 18.2812 40.6484 18.1495 40.8828 17.9151C41.1172 17.6807 41.2489 17.3627 41.2489 17.0312V10.9863L42.8652 12.6025C43.1003 12.8335 43.4171 12.9622 43.7466 12.9607C44.0762 12.9593 44.3918 12.8277 44.6249 12.5947C44.8579 12.3616 44.9895 12.046 44.9909 11.7164C44.9924 11.3869 44.8636 11.0701 44.6327 10.835Z" fill="white"/>
</g>
<defs>
<clipPath id="clip0_292_262">
<rect width="80" height="80" fill="white"/>
</clipPath>
</defs>
</svg>
