<svg width="80" height="80" viewBox="0 0 80 80" fill="none" xmlns="http://www.w3.org/2000/svg">
<g clip-path="url(#clip0_292_259)">
<path d="M64.225 57.075C65.4625 55.9375 66.25 54.3125 66.25 52.5C66.25 49.05 63.45 46.25 60 46.25C56.55 46.25 53.75 49.05 53.75 52.5C53.75 54.3125 54.5375 55.925 55.775 57.075C54.4 57.625 53.125 58.4625 52.0375 59.5375C52 59.5875 51.9625 59.6375 51.9125 59.675C50.175 57.3875 47.8 55.625 45.0375 54.6375C47.275 53.05 48.75 50.45 48.75 47.5C48.75 43.1 45.4875 39.4625 41.25 38.8499V36.25H52.5C53.1875 36.25 53.75 35.6875 53.75 35V23.75H58.75V42.5C58.75 43.1875 59.3125 43.75 60 43.75C60.6875 43.75 61.25 43.1875 61.25 42.5V22.5C61.25 21.8125 60.6875 21.25 60 21.25H53.75V10C53.75 9.31251 53.1875 8.75 52.5 8.75H27.5C26.8125 8.75 26.25 9.31251 26.25 10V21.25H20C19.3125 21.25 18.75 21.8125 18.75 22.5V42.5C18.75 43.1875 19.3125 43.75 20 43.75C20.6875 43.75 21.25 43.1875 21.25 42.5V23.75H26.25V35C26.25 35.6875 26.8125 36.25 27.5 36.25H38.75V38.8499C34.5125 39.4625 31.25 43.1 31.25 47.5C31.25 50.45 32.725 53.05 34.9625 54.6375C32.2 55.625 29.825 57.3875 28.0875 59.675C28.0375 59.6375 28 59.5875 27.95 59.5375C26.875 58.4624 25.6 57.625 24.225 57.075C25.4625 55.925 26.25 54.3125 26.25 52.5C26.25 49.05 23.45 46.25 20 46.25C16.55 46.25 13.75 49.05 13.75 52.5C13.75 54.3125 14.5375 55.9375 15.775 57.075C11.6625 58.75 8.75 62.7875 8.75 67.5V70C8.75 70.6875 9.31251 71.25 10 71.25H32.5C33.1875 71.25 33.75 70.6875 33.75 70C33.75 69.3125 33.1875 68.75 32.5 68.75H27.5C27.5 61.8625 33.1125 56.25 40 56.25C46.8875 56.25 52.5 61.8625 52.5 68.75H37.5C36.8125 68.75 36.25 69.3125 36.25 70C36.25 70.6875 36.8125 71.25 37.5 71.25H70C70.6875 71.25 71.25 70.6875 71.25 70V67.5C71.25 62.7875 68.3375 58.75 64.225 57.075ZM20 48.75C22.0625 48.75 23.75 50.4375 23.75 52.5C23.75 54.5625 22.0625 56.25 20 56.25C17.9375 56.25 16.25 54.5625 16.25 52.5C16.25 50.4375 17.9375 48.75 20 48.75ZM25 68.75H11.25V67.5C11.25 62.675 15.175 58.75 20 58.75C22.325 58.75 24.525 59.6625 26.1875 61.3125C26.3625 61.4875 26.5125 61.7 26.675 61.8875C25.6125 63.95 25 66.275 25 68.75ZM51.25 33.75H41.25V31.25C41.25 30.5625 40.6875 30 40 30H38.75C38.0625 30 37.5 29.4375 37.5 28.75C37.5 28.0625 38.0625 27.5 38.75 27.5H40C40.6875 27.5 41.25 26.9375 41.25 26.25V23.75H42.5C42.5 25.8125 44.1875 27.5 46.25 27.5C48.3125 27.5 50 25.8125 50 23.75H51.25V33.75ZM41.25 11.25H51.25V21.25H48.75C48.0625 21.25 47.5 21.8125 47.5 22.5V23.75C47.5 24.4375 46.9375 25 46.25 25C45.5625 25 45 24.4375 45 23.75V22.5C45 21.8125 44.4375 21.25 43.75 21.25H41.25V20C43.3125 20 45 18.3125 45 16.25C45 14.1875 43.3125 12.5 41.25 12.5V11.25ZM28.75 11.25H38.75V13.75C38.75 14.4375 39.3125 15 40 15H41.25C41.9375 15 42.5 15.5625 42.5 16.25C42.5 16.9375 41.9375 17.5 41.25 17.5H40C39.3125 17.5 38.75 18.0625 38.75 18.75V21.25H37.5C37.5 19.1875 35.8125 17.5 33.75 17.5C31.6875 17.5 30 19.1875 30 21.25H28.75V11.25ZM28.75 33.75V23.75H31.25C31.9375 23.75 32.5 23.1875 32.5 22.5V21.25C32.5 20.5625 33.0625 20 33.75 20C34.4375 20 35 20.5625 35 21.25V22.5C35 23.1875 35.5625 23.75 36.25 23.75H38.75V25C36.675 25 35 26.6875 35 28.75C35 30.8125 36.675 32.5 38.75 32.5V33.75H28.75ZM40 53.75C36.55 53.75 33.75 50.95 33.75 47.5C33.75 44.05 36.55 41.25 40 41.25C43.45 41.25 46.25 44.05 46.25 47.5C46.25 50.95 43.45 53.75 40 53.75ZM60 48.75C62.0625 48.75 63.75 50.4375 63.75 52.5C63.75 54.5625 62.0625 56.25 60 56.25C57.9375 56.25 56.25 54.5625 56.25 52.5C56.25 50.4375 57.9375 48.75 60 48.75ZM68.75 68.75H55C55 66.275 54.3875 63.95 53.325 61.8875C53.4875 61.7 53.6375 61.4875 53.8 61.3125C55.475 59.6625 57.675 58.75 60 58.75C64.825 58.75 68.75 62.675 68.75 67.5V68.75Z" fill="white"/>
</g>
<defs>
<clipPath id="clip0_292_259">
<rect width="80" height="80" fill="white"/>
</clipPath>
</defs>
</svg>
