<svg width="80" height="80" viewBox="0 0 80 80" fill="none" xmlns="http://www.w3.org/2000/svg">
<g clip-path="url(#clip0_292_253)">
<path d="M17.5813 9.27839H40.8614V12.3067C40.8614 12.7006 41.0731 13.064 41.4158 13.2582C41.5831 13.3531 41.7692 13.4004 41.9552 13.4004C42.1497 13.4004 42.3441 13.3485 42.5169 13.2453L48.9795 9.37776C49.3003 9.18573 49.5008 8.84339 49.5111 8.46979C49.5216 8.09604 49.3405 7.74307 49.0311 7.53354L42.5684 3.15698C42.2333 2.92995 41.8005 2.90651 41.4427 3.09635C41.085 3.28604 40.8614 3.65776 40.8614 4.0626V7.09088H17.5813C16.9772 7.09088 16.4875 7.58057 16.4875 8.18464C16.4875 8.7887 16.977 9.27839 17.5813 9.27839ZM43.0489 6.12432L46.3831 8.38229L43.0489 10.3776V6.12432ZM68.602 33.7828C71.9233 33.7828 74.6253 31.0807 74.6253 27.7595V13.5974C74.6253 10.2762 71.9233 7.57417 68.602 7.57417H65.6442C62.323 7.57417 59.6209 10.2762 59.6209 13.5974V15.6057H15.1988C11.8775 15.6057 9.17547 18.3078 9.17547 21.629V49.1137L7.71578 50.5734C7.28875 51.0006 7.28875 51.6931 7.71578 52.1203L9.63313 54.0376C9.46703 54.3953 9.31578 54.7604 9.18016 55.1309H6.46875C5.86469 55.1309 5.375 55.6206 5.375 56.2246V63.7314C5.375 64.3354 5.86469 64.8251 6.46875 64.8251H9.18C9.31563 65.1956 9.46688 65.5607 9.63297 65.9184L7.71578 67.8356C7.28875 68.2628 7.28875 68.9553 7.71578 69.3824L13.0241 74.6907C13.4513 75.1176 14.1438 75.1176 14.5709 74.6907L16.4883 72.7734C16.8459 72.9395 17.2111 73.0907 17.5816 73.2264V75.9376C17.5816 76.5417 18.0713 77.0314 18.6753 77.0314H26.1822C26.7863 77.0314 27.2759 76.5417 27.2759 75.9376V73.2264C27.6464 73.0907 28.0114 72.9395 28.3692 72.7734L30.2864 74.6907C30.7136 75.1176 31.4061 75.1176 31.8333 74.6907L37.1416 69.3824C37.5686 68.9553 37.5686 68.2628 37.1416 67.8356L35.2242 65.9182C35.3903 65.5606 35.5416 65.1954 35.6772 64.8249H38.3884C38.9925 64.8249 39.4822 64.3353 39.4822 63.7312V62.0767H59.6211V64.0849C59.6211 67.4062 62.3231 70.1082 65.6444 70.1082H68.6022C71.9234 70.1082 74.6255 67.4062 74.6255 64.0849V49.9226C74.6255 46.6014 71.9234 43.8993 68.6022 43.8993H68.217V33.7828H68.602ZM61.8084 13.5974C61.8084 11.4824 63.5292 9.76167 65.6442 9.76167H68.602C70.717 9.76167 72.4378 11.4824 72.4378 13.5974V27.7596C72.4378 29.8746 70.717 31.5954 68.602 31.5954H65.6442C63.5292 31.5954 61.8084 29.8746 61.8084 27.7596V13.5974ZM15.1988 17.7931H59.6211V26.4899H11.363V21.6289C11.363 19.5139 13.0836 17.7931 15.1988 17.7931ZM37.2947 62.6374H34.8892C34.4066 62.6374 33.9809 62.9539 33.8419 63.416C33.6131 64.1765 33.3063 64.9167 32.9302 65.616C32.7013 66.0414 32.7784 66.5662 33.1198 66.9078L34.8213 68.609L31.0598 72.3704L29.3586 70.669C29.0169 70.3276 28.4923 70.2507 28.0667 70.4793C27.3677 70.8554 26.6277 71.1621 25.8672 71.3909C25.4048 71.5299 25.0884 71.9554 25.0884 72.4382V74.8439H19.7691V72.4382C19.7691 71.9554 19.4527 71.5298 18.9903 71.3909C18.2302 71.1623 17.4898 70.8556 16.7905 70.4793C16.3652 70.2503 15.8405 70.3274 15.4988 70.669L13.7975 72.3704L10.0361 68.609L11.7375 66.9078C12.0789 66.5662 12.1561 66.0414 11.9272 65.616C11.5509 64.9165 11.2442 64.1764 11.0156 63.4162C10.8767 62.9539 10.4511 62.6374 9.96828 62.6374H7.5625V57.3182H9.96813C10.4509 57.3182 10.8766 57.0018 11.0155 56.5395C11.2441 55.7793 11.5508 55.039 11.927 54.3396C12.1559 53.9143 12.0788 53.3895 11.7373 53.0479L10.0359 51.3467L11.042 50.3406L11.0428 50.3398L13.7973 47.5853L15.4986 49.2867C15.8405 49.6282 16.3655 49.7053 16.7903 49.4764C17.4898 49.1001 18.23 48.7934 18.9902 48.5648C19.4525 48.4259 19.7689 48.0003 19.7689 47.5174V45.1118H25.0883V47.5174C25.0883 48.0003 25.4047 48.4257 25.867 48.5648C26.6275 48.7935 27.3677 49.1003 28.0666 49.4764C28.492 49.705 29.0166 49.6281 29.3584 49.2867L31.0597 47.5853L34.8211 51.3467L33.1197 53.0479C32.7783 53.3895 32.7011 53.9143 32.93 54.3396C33.3061 55.039 33.613 55.7792 33.8417 56.5396C33.9808 57.0018 34.4064 57.3182 34.8891 57.3182H37.2945L37.2947 62.6374ZM72.4378 49.9226V64.0849C72.4378 66.1999 70.717 67.9207 68.602 67.9207H65.6442C63.5292 67.9207 61.8084 66.1999 61.8084 64.0849V49.9226C61.8084 47.8076 63.5292 46.0868 65.6442 46.0868H68.602C70.717 46.0868 72.4378 47.8076 72.4378 49.9226ZM66.0294 43.8993H65.6442C62.323 43.8993 59.6209 46.6014 59.6209 49.9226V59.8892H39.4822V56.2245C39.4822 55.6204 38.9925 55.1307 38.3884 55.1307H35.6772C35.5416 54.7603 35.3903 54.3951 35.2242 54.0374L37.1416 52.1201C37.5686 51.6929 37.5686 51.0004 37.1416 50.5732L31.8333 45.2649C31.4061 44.8381 30.7136 44.8381 30.2864 45.2649L28.3692 47.1823C28.0114 47.0162 27.6464 46.8649 27.2759 46.7293V44.0181C27.2759 43.414 26.7863 42.9243 26.1822 42.9243H18.6753C18.0713 42.9243 17.5816 43.414 17.5816 44.0181V46.7293C17.2111 46.8649 16.8459 47.0162 16.4883 47.1823L14.5709 45.2649C14.1438 44.8381 13.4513 44.8381 13.0241 45.2649L11.363 46.926V28.6774H59.6909C60.1342 31.5646 62.6352 33.7828 65.6444 33.7828H66.0295V43.8993H66.0294ZM17.0625 22.1415C17.0625 21.5374 17.5522 21.0478 18.1563 21.0478H22.4286C23.0327 21.0478 23.5223 21.5374 23.5223 22.1415C23.5223 22.7456 23.0327 23.2353 22.4286 23.2353H18.1563C17.5522 23.2353 17.0625 22.7456 17.0625 22.1415ZM26.1548 22.1415C26.1548 21.5374 26.6445 21.0478 27.2486 21.0478H31.5209C32.125 21.0478 32.6147 21.5374 32.6147 22.1415C32.6147 22.7456 32.125 23.2353 31.5209 23.2353H27.2486C26.6444 23.2353 26.1548 22.7456 26.1548 22.1415ZM35.247 22.1415C35.247 21.5374 35.7367 21.0478 36.3408 21.0478H40.6131C41.2172 21.0478 41.7069 21.5374 41.7069 22.1415C41.7069 22.7456 41.2172 23.2353 40.6131 23.2353H36.3408C35.7367 23.2353 35.247 22.7456 35.247 22.1415ZM28.3989 31.9304H17.1705C16.5664 31.9304 16.0767 32.4201 16.0767 33.0242V39.8159C16.0767 40.4199 16.5664 40.9096 17.1705 40.9096H28.3989C29.003 40.9096 29.4927 40.4199 29.4927 39.8159V33.0242C29.4927 32.4199 29.003 31.9304 28.3989 31.9304ZM27.3052 38.722H18.2642V34.1178H27.3052V38.722ZM47.6772 39.8157V33.024C47.6772 32.4199 47.1875 31.9303 46.5834 31.9303H35.355C34.7509 31.9303 34.2613 32.4199 34.2613 33.024V39.8157C34.2613 40.4198 34.7509 40.9095 35.355 40.9095H46.5834C47.1875 40.9095 47.6772 40.4199 47.6772 39.8157ZM45.4897 38.722H36.4488V34.1178H45.4897V38.722ZM22.4286 52.3279C18.2103 52.3279 14.7786 55.7596 14.7786 59.9779C14.7786 64.1962 18.2103 67.6279 22.4286 67.6279C26.6469 67.6279 30.0786 64.1962 30.0786 59.9779C30.0786 55.7596 26.6469 52.3279 22.4286 52.3279ZM22.4286 65.4404C19.4166 65.4404 16.9661 62.9899 16.9661 59.9779C16.9661 56.9659 19.4166 54.5154 22.4286 54.5154C25.4406 54.5154 27.8911 56.9659 27.8911 59.9779C27.8911 62.9899 25.4406 65.4404 22.4286 65.4404ZM54.825 45.786C54.825 46.3901 54.3353 46.8798 53.7313 46.8798H43.297C42.693 46.8798 42.2033 46.3901 42.2033 45.786C42.2033 45.182 42.693 44.6923 43.297 44.6923H53.7313C54.3353 44.6923 54.825 45.182 54.825 45.786ZM54.825 50.2774C54.825 50.8815 54.3353 51.3712 53.7313 51.3712H43.297C42.693 51.3712 42.2033 50.8815 42.2033 50.2774C42.2033 49.6734 42.693 49.1837 43.297 49.1837H53.7313C54.3353 49.1837 54.825 49.6732 54.825 50.2774ZM54.825 54.7689C54.825 55.3729 54.3353 55.8626 53.7313 55.8626H43.297C42.693 55.8626 42.2033 55.3729 42.2033 54.7689C42.2033 54.1648 42.693 53.6751 43.297 53.6751H53.7313C54.3353 53.6751 54.825 54.1648 54.825 54.7689Z" fill="white"/>
</g>
<defs>
<clipPath id="clip0_292_253">
<rect width="80" height="80" fill="white"/>
</clipPath>
</defs>
</svg>
