<svg width="80" height="80" viewBox="0 0 80 80" fill="none" xmlns="http://www.w3.org/2000/svg">
<g clip-path="url(#clip0_292_191)">
<path d="M62.5591 24.2832C60.8367 24.2832 59.2663 23.6432 58.3559 22.5688C58.1765 22.3411 58.0924 22.0526 58.1213 21.7642C58.1502 21.4757 58.2899 21.2097 58.5109 21.022C58.7319 20.8344 59.017 20.7398 59.3064 20.758C59.5957 20.7763 59.8667 20.9061 60.0623 21.12C60.5375 21.68 61.5167 22.0424 62.5567 22.0424C64.1279 22.0424 65.3023 21.2424 65.3023 20.5224C65.3023 19.8024 64.1279 19.0024 62.5567 19.0024C59.7567 19.0024 57.5703 17.352 57.5703 15.2424C57.5703 13.1328 59.7607 11.4824 62.5567 11.4824C64.2775 11.4824 65.8487 12.1224 66.7591 13.196C66.8542 13.3082 66.9263 13.4381 66.9713 13.5781C67.0162 13.7182 67.0332 13.8657 67.0211 14.0123C67.009 14.159 66.9682 14.3017 66.9009 14.4326C66.8337 14.5634 66.7413 14.6797 66.6291 14.7748C66.5169 14.87 66.3871 14.942 66.247 14.987C66.1069 15.032 65.9594 15.0489 65.8128 15.0368C65.6662 15.0247 65.5234 14.9839 65.3926 14.9166C65.2617 14.8494 65.1454 14.757 65.0503 14.6448C64.5751 14.0848 63.5959 13.7224 62.5567 13.7224C60.9847 13.7224 59.8103 14.5224 59.8103 15.2424C59.8103 15.9624 60.9847 16.7624 62.5567 16.7624C65.3519 16.7624 67.5423 18.4136 67.5423 20.5224C67.5423 22.6312 65.3519 24.2832 62.5591 24.2832Z" fill="white"/>
<path d="M62.5614 26.042C62.2644 26.042 61.9795 25.924 61.7694 25.714C61.5594 25.5039 61.4414 25.219 61.4414 24.922V23.162C61.4414 22.8649 61.5594 22.5801 61.7694 22.37C61.9795 22.16 62.2644 22.042 62.5614 22.042C62.8584 22.042 63.1433 22.16 63.3534 22.37C63.5634 22.5801 63.6814 22.8649 63.6814 23.162V24.922C63.6814 25.219 63.5634 25.5039 63.3534 25.714C63.1433 25.924 62.8584 26.042 62.5614 26.042Z" fill="white"/>
<path d="M62.5614 13.7324C62.2644 13.7324 61.9795 13.6144 61.7694 13.4044C61.5594 13.1943 61.4414 12.9095 61.4414 12.6124V10.8524C61.4414 10.5554 61.5594 10.2705 61.7694 10.0605C61.9795 9.85042 62.2644 9.73242 62.5614 9.73242C62.8584 9.73242 63.1433 9.85042 63.3534 10.0605C63.5634 10.2705 63.6814 10.5554 63.6814 10.8524V12.6124C63.6814 12.9095 63.5634 13.1943 63.3534 13.4044C63.1433 13.6144 62.8584 13.7324 62.5614 13.7324Z" fill="white"/>
<path d="M62.56 30.4501C55.6328 30.4501 50 24.8141 50 17.8901C50 10.9661 55.636 5.33008 62.56 5.33008C69.484 5.33008 75.12 10.9661 75.12 17.8901C75.12 24.8141 69.484 30.4501 62.56 30.4501ZM62.56 7.56448C56.868 7.56448 52.24 12.1957 52.24 17.8845C52.244 20.6203 53.3326 23.2429 55.2671 25.1774C57.2016 27.1119 59.8242 28.2005 62.56 28.2045C68.252 28.2045 72.88 23.5733 72.88 17.8845C72.8762 15.1486 71.7877 12.5259 69.8531 10.5913C67.9186 8.65679 65.2959 7.56829 62.56 7.56448Z" fill="white"/>
<path d="M73.9989 74.6753H6.01571C5.71866 74.6753 5.43379 74.5573 5.22375 74.3473C5.01371 74.1372 4.89571 73.8524 4.89571 73.5553L4.87891 66.5233C4.87891 66.2263 4.99691 65.9414 5.20695 65.7314C5.41699 65.5213 5.70186 65.4033 5.99891 65.4033H73.9989C74.2959 65.4033 74.5808 65.5213 74.7909 65.7314C75.0009 65.9414 75.1189 66.2263 75.1189 66.5233V73.5577C75.1183 73.8543 75 74.1386 74.79 74.3481C74.58 74.5577 74.2955 74.6753 73.9989 74.6753ZM7.13331 72.4353H72.8789V67.6409H7.11891L7.13331 72.4353Z" fill="white"/>
<path d="M20.7994 67.641H14.1786C13.8816 67.641 13.5967 67.523 13.3866 67.3129C13.1766 67.1029 13.0586 66.818 13.0586 66.521V53.2802C13.0586 52.9831 13.1766 52.6982 13.3866 52.4882C13.5967 52.2782 13.8816 52.1602 14.1786 52.1602H20.7994C21.0964 52.1602 21.3813 52.2782 21.5914 52.4882C21.8014 52.6982 21.9194 52.9831 21.9194 53.2802V66.521C21.9194 66.818 21.8014 67.1029 21.5914 67.3129C21.3813 67.523 21.0964 67.641 20.7994 67.641ZM15.2986 65.401H19.6794V54.4002H15.2986V65.401Z" fill="white"/>
<path d="M35.8072 67.6408H29.1864C28.8894 67.6408 28.6045 67.5228 28.3944 67.3128C28.1844 67.1027 28.0664 66.8179 28.0664 66.5208V44.452C28.0664 44.155 28.1844 43.8701 28.3944 43.6601C28.6045 43.45 28.8894 43.332 29.1864 43.332H35.8072C36.1042 43.332 36.3891 43.45 36.5992 43.6601C36.8092 43.8701 36.9272 44.155 36.9272 44.452V66.5208C36.9272 66.8179 36.8092 67.1027 36.5992 67.3128C36.3891 67.5228 36.1042 67.6408 35.8072 67.6408ZM30.3064 65.4008H34.6872V45.572H30.3064V65.4008Z" fill="white"/>
<path d="M50.815 67.6407H44.1942C43.8972 67.6407 43.6123 67.5227 43.4023 67.3127C43.1922 67.1026 43.0742 66.8178 43.0742 66.5207V35.6239C43.0742 35.3269 43.1922 35.042 43.4023 34.8319C43.6123 34.6219 43.8972 34.5039 44.1942 34.5039H50.815C51.1121 34.5039 51.3969 34.6219 51.607 34.8319C51.817 35.042 51.935 35.3269 51.935 35.6239V66.5207C51.935 66.8178 51.817 67.1026 51.607 67.3127C51.3969 67.5227 51.1121 67.6407 50.815 67.6407ZM45.3142 65.4007H49.695V36.7439H45.3142V65.4007Z" fill="white"/>
<path d="M65.8658 67.6407H59.245C58.948 67.6407 58.6631 67.5227 58.453 67.3127C58.243 67.1026 58.125 66.8177 58.125 66.5207V28.8407C58.125 28.5437 58.243 28.2588 58.453 28.0487C58.6631 27.8387 58.948 27.7207 59.245 27.7207C59.542 27.7207 59.8269 27.8387 60.037 28.0487C60.247 28.2588 60.365 28.5437 60.365 28.8407V65.4007H64.7458V28.8407C64.7458 28.5437 64.8638 28.2588 65.0738 28.0487C65.2839 27.8387 65.5688 27.7207 65.8658 27.7207C66.1628 27.7207 66.4477 27.8387 66.6578 28.0487C66.8678 28.2588 66.9858 28.5437 66.9858 28.8407V66.5207C66.9858 66.8177 66.8678 67.1026 66.6578 67.3127C66.4477 67.5227 66.1628 67.6407 65.8658 67.6407Z" fill="white"/>
</g>
<defs>
<clipPath id="clip0_292_191">
<rect width="80" height="80" fill="white"/>
</clipPath>
</defs>
</svg>
