<svg width="80" height="80" viewBox="0 0 80 80" fill="none" xmlns="http://www.w3.org/2000/svg">
<g clip-path="url(#clip0_292_188)">
<path d="M29.3738 56.8637C36.9027 55.7173 43.8462 51.2332 47.8311 44.0802C51.0092 38.3715 51.75 31.9544 50.3991 26.0348L55.6191 24.6085L60.8391 27.5209C61.0034 27.6126 61.1864 27.6591 61.3708 27.6591C61.4884 27.6591 61.6066 27.6401 61.7203 27.6016L69.725 24.8966C70.1341 24.7585 70.4231 24.3923 70.4627 23.9624C70.5022 23.5326 70.2847 23.1196 69.9078 22.9091L65.1652 20.258L67.3272 15.2755C67.4991 14.8796 67.4214 14.4196 67.1292 14.1019C66.837 13.7843 66.3853 13.6679 65.9762 13.8066L57.9712 16.5116C57.6789 16.6104 57.4422 16.8282 57.3194 17.1113L54.9688 22.5227L49.823 23.9287C47.9198 17.9732 43.8425 12.6984 37.9628 9.42288C37.9628 9.42273 37.9627 9.42273 37.9627 9.42273C32.0172 6.11273 25.1381 5.31601 18.5925 7.18054C12.047 9.04476 6.61937 13.3455 3.30953 19.2909C-0.00265747 25.2362 -0.800314 32.1152 1.06328 38.6613C2.92672 45.2066 7.22765 50.6343 13.1733 53.9446C15.9156 55.4716 18.8214 56.4346 21.7569 56.8755L11.2889 72.0944C10.9472 72.5912 11.073 73.271 11.5697 73.6126C11.7586 73.7426 11.9741 73.8049 12.1873 73.8049C12.5347 73.8049 12.8761 73.6396 13.0878 73.3318L24.2366 57.1232C24.3164 57.1273 24.3962 57.131 24.4761 57.1343V72.713C24.4761 73.316 24.9648 73.8049 25.5678 73.8049C26.1708 73.8049 26.6595 73.3162 26.6595 72.713V57.1302C26.7394 57.1266 26.8191 57.1227 26.8989 57.1184L38.0478 73.3315C38.2595 73.6394 38.6009 73.8048 38.9484 73.8048C39.1616 73.8048 39.377 73.7424 39.5661 73.6126C40.063 73.2709 40.1888 72.5912 39.847 72.0944L29.3738 56.8637ZM59.1295 18.4251L64.3452 16.6624L62.7694 20.294C62.5462 20.808 62.7486 21.4074 63.2375 21.6812L66.6945 23.6157L61.4797 25.3782L57.157 22.9668L59.1295 18.4251ZM3.16344 38.0634C1.45953 32.0787 2.1889 25.7891 5.21719 20.3534C8.24359 14.9174 13.2059 10.9851 19.1905 9.2807C21.308 8.67773 23.4634 8.37914 25.6059 8.37914C29.5188 8.37914 33.388 9.37507 36.9005 11.3305L36.9003 11.3304C42.247 14.3091 45.9636 19.0959 47.7158 24.5046L43.3569 25.6957C41.9189 21.419 38.9487 17.643 34.7055 15.2794H34.7053C25.6584 10.243 14.1997 13.5041 9.16172 22.5491C4.12484 31.5968 7.38797 43.0555 16.4356 48.0926C19.2667 49.6694 22.3852 50.4724 25.5395 50.4724C27.2663 50.4724 29.0036 50.2318 30.7102 49.7457C35.5344 48.3716 39.535 45.2013 41.9748 40.8188C44.2678 36.7023 44.8408 32.0859 43.932 27.8021L48.2919 26.6109C49.4987 31.9979 48.8133 37.8282 45.9239 43.0182C39.6722 54.2401 25.457 58.2854 14.2359 52.0369C8.79937 49.0104 4.86719 44.0477 3.16344 38.0634ZM31.9141 29.9537C32.0466 30.439 32.4866 30.7579 32.9666 30.7579C33.0619 30.7579 33.1586 30.7454 33.2548 30.719L35.8708 30.0041C35.9598 30.5519 36.0081 31.1132 36.0081 31.6857C36.0081 37.4426 31.3247 42.1259 25.568 42.1259C19.8111 42.1259 15.1277 37.4424 15.1277 31.6857C15.1277 25.929 19.8111 21.2455 25.568 21.2455C29.9889 21.2455 33.7742 24.009 35.2941 27.8982L32.6794 28.6126C32.0978 28.7718 31.7552 29.3719 31.9141 29.9537ZM25.5681 19.0619C18.6073 19.0619 12.9444 24.7249 12.9444 31.6859C12.9444 38.6468 18.6073 44.3098 25.5681 44.3098C32.5289 44.3098 38.1919 38.6468 38.1919 31.6859C38.1919 30.9144 38.1186 30.1602 37.9853 29.4266L41.8222 28.3784C42.5878 32.1285 42.0708 36.1585 40.0667 39.7565C37.9106 43.6296 34.3752 46.4313 30.1117 47.6455C25.8486 48.8594 21.3687 48.341 17.4975 46.1848C9.50172 41.7334 6.61797 31.6069 11.0691 23.6113C14.1017 18.1668 19.7658 15.0941 25.5969 15.0941C28.3264 15.0941 31.0936 15.7679 33.6425 17.1869C37.3527 19.2534 39.9606 22.5421 41.2464 26.2719L37.4125 27.3194C35.6319 22.5041 30.9947 19.0619 25.5681 19.0619ZM30.5097 33.9998C30.5097 35.6921 29.3512 37.4054 27.1372 37.4054H26.6598V38.9171C26.6598 39.5201 26.1711 40.009 25.5681 40.009C24.9652 40.009 24.4764 39.5202 24.4764 38.9171V37.4054H21.7183C21.1153 37.4054 20.6266 36.9166 20.6266 36.3135C20.6266 35.7105 21.1153 35.2216 21.7183 35.2216H27.1373C28.2691 35.2216 28.3264 34.2037 28.3264 33.9996C28.3264 33.7954 28.2691 32.7774 27.1373 32.7774H26.7086H24.4278H24.0034C21.7872 32.7774 20.6277 31.0641 20.6277 29.3716C20.6277 27.6793 21.7872 25.966 24.0034 25.966H24.4764V24.4543C24.4764 23.8513 24.9652 23.3624 25.5681 23.3624C26.1711 23.3624 26.6598 23.8512 26.6598 24.4543V25.966H29.418C30.0209 25.966 30.5097 26.4548 30.5097 27.0579C30.5097 27.6609 30.0209 28.1498 29.418 28.1498H24.0034C22.8686 28.1498 22.8111 29.1677 22.8111 29.3718C22.8111 29.576 22.8686 30.594 24.0034 30.594H24.4278H26.7086H27.1373C29.3512 30.594 30.5097 32.3073 30.5097 33.9998ZM77.0206 49.9034C75.5053 47.4085 73.5861 45.2938 71.5181 43.8144C71.7833 43.3923 71.9392 42.8948 71.9392 42.3604C71.9392 41.3398 71.3781 40.4493 70.5495 39.9763L73.3022 34.4204C73.5184 33.9838 73.4192 33.4566 73.0591 33.1285C72.6989 32.8005 72.1645 32.7509 71.7502 33.0068C69.7712 34.2293 69.4239 33.9644 68.663 33.3846C67.9864 32.8691 67.0597 32.163 65.3491 32.163C63.6402 32.163 62.7145 32.8691 62.0387 33.3846C61.2783 33.9646 60.9314 34.2296 58.9523 33.0068C58.5377 32.7505 58.0037 32.8004 57.6434 33.1285C57.2831 33.4566 57.1839 33.9838 57.4003 34.4204L60.153 39.9763C59.3242 40.4493 58.7633 41.3398 58.7633 42.3604C58.7633 42.8943 58.9189 43.3916 59.1839 43.8137C58.7308 44.1382 58.2839 44.4959 57.8444 44.8823C56.5416 44.1369 55.0345 43.7084 53.4283 43.7084C48.5148 43.7084 44.5173 47.698 44.5173 52.6018C44.5173 55.2779 45.7094 57.6796 47.5895 59.3113H45.9937C44.568 59.3113 43.408 60.4713 43.408 61.8971V63.0154C43.408 63.5716 43.5862 64.0862 43.8864 64.5085C43.5864 64.9301 43.408 65.4437 43.408 65.999V67.1216C43.408 67.6769 43.5862 68.1905 43.8864 68.6121C43.5864 69.0343 43.408 69.549 43.408 70.1052V71.2234C43.408 72.6466 44.568 73.8048 45.9937 73.8048H60.863C61.3344 73.8048 61.7755 73.676 62.1564 73.4551C63.1953 73.6866 64.2669 73.8048 65.3494 73.8048C73.385 73.8048 79.9223 67.2693 79.9223 59.2362C79.9219 56.2982 78.8916 52.9837 77.0206 49.9034ZM61.5078 42.9216C61.1983 42.9216 60.9464 42.6699 60.9464 42.3604C60.9464 42.0509 61.1983 41.7991 61.5078 41.7991H68.9653C68.9662 41.7991 68.967 41.7993 68.968 41.7993C68.9688 41.7993 68.9694 41.7991 68.9702 41.7991H69.1942C69.5037 41.7991 69.7556 42.0509 69.7556 42.3604C69.7556 42.6699 69.5037 42.9216 69.1942 42.9216H61.5078ZM63.3628 35.1209C63.9298 34.6882 64.3778 34.3466 65.3489 34.3466C66.3223 34.3466 66.7712 34.6885 67.3394 35.1215C68.1333 35.7266 68.902 36.189 70.0628 36.0402L68.2914 39.6155H62.4108L60.6395 36.0402C61.7995 36.1901 62.5691 35.726 63.3628 35.1209ZM46.7005 52.6018C46.7005 48.9019 49.7183 45.8921 53.4278 45.8921C57.1373 45.8921 60.1552 48.9019 60.1552 52.6018C60.1552 56.3015 57.1373 59.3113 53.4278 59.3113C49.7183 59.3113 46.7005 56.3015 46.7005 52.6018ZM45.5911 61.8971C45.5911 61.679 45.7753 61.4949 45.9933 61.4949H60.8625C61.0806 61.4949 61.2647 61.679 61.2647 61.8971V63.0154C61.2647 63.2335 61.0805 63.4176 60.8625 63.4176H45.9933C45.7752 63.4176 45.5911 63.2335 45.5911 63.0154V61.8971ZM45.9933 67.5194C45.7752 67.5194 45.5911 67.3373 45.5911 67.1216V65.999C45.5911 65.7834 45.7753 65.6012 45.9933 65.6012H60.8625C61.0806 65.6012 61.2647 65.7834 61.2647 65.999V67.1216C61.2647 67.3373 61.0805 67.5194 60.8625 67.5194H45.9933ZM45.5911 71.2235V70.1054C45.5911 69.8873 45.7753 69.7032 45.9933 69.7032H60.8625C61.0806 69.7032 61.2647 69.8873 61.2647 70.1054V71.2235C61.2647 71.4427 61.0842 71.6213 60.8625 71.6213H45.9933C45.7714 71.6212 45.5911 71.4427 45.5911 71.2235ZM65.3489 71.6212C64.7038 71.6212 64.0639 71.5715 63.4355 71.4751C63.4436 71.3921 63.4483 71.3083 63.4483 71.2235V70.1054C63.4483 69.5491 63.27 69.0346 62.9698 68.6123C63.2698 68.1907 63.4483 67.6771 63.4483 67.1218V65.9991C63.4483 65.4438 63.27 64.9302 62.9698 64.5087C63.2698 64.0865 63.4483 63.5718 63.4483 63.0155V61.8973C63.4483 60.4715 62.2883 59.3115 60.8625 59.3115H59.2667C61.1469 57.6798 62.3389 55.2779 62.3389 52.6019C62.3389 50.1034 61.2995 47.8435 59.6316 46.2265C60.1494 45.7966 60.6758 45.4152 61.2067 45.0882C61.3058 45.0991 61.4061 45.1057 61.508 45.1057H69.1945C69.2959 45.1057 69.3956 45.0993 69.4941 45.0885C74.0702 47.8969 77.7386 54.1501 77.7386 59.2366C77.7384 66.0654 72.1805 71.6212 65.3489 71.6212ZM57.1286 54.1687C57.1286 54.8444 56.8948 55.4829 56.4702 55.9663C55.9891 56.5143 55.297 56.818 54.5197 56.8259V57.4946C54.5197 58.0976 54.0309 58.5865 53.428 58.5865C52.825 58.5865 52.3363 58.0977 52.3363 57.4946V56.8273H50.8202C50.2172 56.8273 49.7284 56.3385 49.7284 55.7354C49.7284 55.1324 50.2172 54.6435 50.8202 54.6435H54.4888C54.7256 54.6435 54.8011 54.5576 54.8295 54.5252C54.9019 54.4429 54.9452 54.3094 54.9452 54.1685C54.9452 53.8532 54.7916 53.6934 54.4888 53.6934H54.2014H52.6544H52.367C50.862 53.6934 49.7272 52.5513 49.7272 51.0368C49.7272 50.3615 49.9611 49.7232 50.3861 49.2401C50.8672 48.6929 51.5589 48.3898 52.3361 48.3818V47.7084C52.3361 47.1054 52.8248 46.6165 53.4278 46.6165C54.0308 46.6165 54.5195 47.1052 54.5195 47.7084V48.3802H56.0356C56.6386 48.3802 57.1273 48.869 57.1273 49.4721C57.1273 50.0752 56.6386 50.564 56.0356 50.564H52.3669C52.0641 50.564 51.9105 50.723 51.9105 51.0368C51.9105 51.3507 52.0641 51.5098 52.3669 51.5098H52.6542H54.2012H54.4886C55.9937 51.5099 57.1286 52.6529 57.1286 54.1687Z" fill="white"/>
</g>
<defs>
<clipPath id="clip0_292_188">
<rect width="80" height="80" fill="white"/>
</clipPath>
</defs>
</svg>
