<svg width="80" height="80" viewBox="0 0 80 80" fill="none" xmlns="http://www.w3.org/2000/svg">
<g clip-path="url(#clip0_292_194)">
<path d="M3.75 77.5H23.75C24.44 77.5 25 76.94 25 76.25V62.0275C24.9075 58.3925 22.7087 55.6737 19.6588 55.185C21.4 53.585 22.5 51.2963 22.5 48.75C22.5 43.925 18.575 40 13.75 40C8.925 40 5 43.925 5 48.75C5 51.2463 6.05625 53.4963 7.73875 55.0925C6.44875 55.2938 5.28375 55.8737 4.34375 56.8062C3.155 57.985 2.5 59.5575 2.5 61.2337V76.25C2.5 76.94 3.06 77.5 3.75 77.5ZM13.75 42.5C16.755 42.5 19.2687 44.6338 19.8638 47.4638C19.685 47.48 19.5075 47.5 19.325 47.5C17.58 47.5 15.885 46.7375 14.6737 45.4087C14.2 44.8887 13.2987 44.8887 12.825 45.4087C11.615 46.7375 9.92 47.5 8.175 47.5C7.9925 47.5 7.815 47.48 7.63625 47.4638C8.23125 44.6338 10.745 42.5 13.75 42.5ZM7.6225 49.9625C9.77625 50.0888 12.0337 49.39 13.75 47.9725C15.325 49.2725 17.2975 50 19.325 50C19.5112 50 19.6925 49.975 19.8775 49.9625C19.3113 52.83 16.7812 55 13.75 55C10.7188 55 8.18875 52.83 7.6225 49.9625ZM14.965 64.8462L13.75 67.885L12.535 64.8462L13.5787 57.54L13.9225 57.5425L14.965 64.8462ZM5 61.2337C5 60.23 5.3925 59.2875 6.105 58.58C6.81625 57.875 7.7925 57.53 8.7575 57.5L11.0563 57.5187L10.0125 64.8225C9.98125 65.0388 10.0075 65.2612 10.0887 65.4637L12.5887 71.7137C12.78 72.1887 13.2388 72.5 13.75 72.5C14.2612 72.5 14.72 72.1888 14.9113 71.715L17.4113 65.465C17.4925 65.2613 17.5188 65.04 17.4875 64.8238L16.45 57.5637L18.7137 57.5825C20.875 57.6 22.4325 59.4537 22.4988 62.06V75H5V61.2337Z" fill="white"/>
<path d="M60 28.75C60.6887 28.75 61.25 29.3113 61.25 30H63.75C63.75 28.3725 62.7013 26.9975 61.25 26.48V25H58.75V26.48C57.2987 26.9975 56.25 28.3725 56.25 30C56.25 32.0675 57.9325 33.75 60 33.75C60.6887 33.75 61.25 34.3112 61.25 35C61.25 35.6888 60.6887 36.25 60 36.25C59.3112 36.25 58.75 35.6888 58.75 35H56.25C56.25 36.6275 57.2987 38.0025 58.75 38.52V40H61.25V38.52C62.7013 38.0025 63.75 36.6275 63.75 35C63.75 32.9325 62.0675 31.25 60 31.25C59.3112 31.25 58.75 30.6887 58.75 30C58.75 29.3113 59.3112 28.75 60 28.75Z" fill="white"/>
<path d="M65.3387 21.215C65.2088 20.8988 65.0812 20.5762 64.94 20.2837L66.405 17.185C66.5975 16.7775 66.5562 16.2975 66.295 15.9288C64.995 14.095 63.4062 12.5063 61.5725 11.2063C61.205 10.945 60.7225 10.905 60.3162 11.0962L57.2162 12.5612C56.6387 12.2837 56.0563 12.0412 55.4762 11.8362L54.3237 8.3575C54.1537 7.845 53.6762 7.5 53.1375 7.5H46.8625C46.3238 7.5 45.8463 7.845 45.6763 8.3575L44.505 11.89L42.8325 12.5838L39.6825 11.095C39.275 10.9038 38.795 10.9437 38.4262 11.205C36.5925 12.505 35.0037 14.0937 33.7037 15.9275C33.4425 16.2962 33.4 16.7762 33.5938 17.1838L35.0825 20.3337L34.3887 22.0062L30.8562 23.1775C30.345 23.3462 30 23.8237 30 24.3625V30.6375C30 31.1763 30.345 31.6537 30.8575 31.8237L34.39 32.995L35.0837 34.6675L33.595 37.8175C33.4025 38.225 33.4438 38.705 33.705 39.0738C35.005 40.9075 36.5938 42.4963 38.4275 43.7962C38.7963 44.0588 39.2775 44.0988 39.6838 43.9062L42.8337 42.4175L44.5062 43.1112L45.6775 46.6437C45.8462 47.155 46.3238 47.5 46.8625 47.5H53.1375C53.6775 47.5 54.155 47.1538 54.325 46.6413L55.1862 44.0325C56.6687 44.655 58.2938 45 60 45C66.8925 45 72.5 39.3925 72.5 32.5C72.5 27.5187 69.565 23.2225 65.3387 21.215ZM52.2337 45H47.765L46.6988 41.7825C46.585 41.4375 46.3262 41.16 45.9912 41.0213L43.2788 39.8962C42.9513 39.7612 42.5838 39.77 42.265 39.9212L39.29 41.3275C38.12 40.4238 37.0762 39.38 36.1725 38.21L37.5787 35.235C37.73 34.9163 37.7375 34.5475 37.6038 34.2213L36.4788 31.5088C36.34 31.1738 36.0612 30.915 35.7175 30.8013L32.5 29.735V25.2662L35.7175 24.2C36.0612 24.0863 36.34 23.8275 36.4788 23.4925L37.6038 20.78C37.7388 20.4538 37.73 20.0862 37.5787 19.7662L36.1725 16.7912C37.0762 15.6212 38.12 14.5775 39.29 13.6737L42.265 15.08C42.5825 15.2288 42.9513 15.2387 43.2788 15.105L45.9912 13.98C46.3262 13.8412 46.585 13.5637 46.6988 13.2188L47.765 10H52.2337L53.3 13.2175C53.4275 13.6013 53.7325 13.9 54.1187 14.02C54.945 14.2737 55.7863 14.6225 56.62 15.0588C56.9675 15.24 57.3788 15.2475 57.7325 15.0812L60.7075 13.675C61.8775 14.5787 62.9213 15.6225 63.825 16.7925L62.4188 19.7675C62.35 19.9125 62.3312 20.07 62.3212 20.2262C61.5687 20.0825 60.7938 20 60 20C59.475 20 58.96 20.0425 58.4525 20.1062C56.3113 17.655 53.2787 16.25 50 16.25C43.7975 16.25 38.75 21.2975 38.75 27.5C38.75 33.4075 43.3588 38.2775 49.165 38.7062C50.1063 40.3438 51.4012 41.7525 52.955 42.8162L52.2337 45ZM48.0125 36.015C44.1462 35.1112 41.25 31.6313 41.25 27.5C41.25 22.675 45.175 18.75 50 18.75C52.095 18.75 54.065 19.485 55.6262 20.805C50.8875 22.5837 47.5 27.1475 47.5 32.5C47.5 33.7213 47.6838 34.8988 48.0125 36.015ZM60 42.5C54.4862 42.5 50 38.0138 50 32.5C50 26.9862 54.4862 22.5 60 22.5C65.5137 22.5 70 26.9862 70 32.5C70 38.0138 65.5137 42.5 60 42.5Z" fill="white"/>
<path d="M15 33.75C15 35.8175 16.6825 37.5 18.75 37.5C20.8175 37.5 22.5 35.8175 22.5 33.75C22.5 31.6825 20.8175 30 18.75 30C16.6825 30 15 31.6825 15 33.75ZM20 33.75C20 34.4387 19.4387 35 18.75 35C18.0612 35 17.5 34.4387 17.5 33.75C17.5 33.0612 18.0612 32.5 18.75 32.5C19.4387 32.5 20 33.0612 20 33.75Z" fill="white"/>
<path d="M71.25 2.5H31.25C27.8038 2.5 25 5.30375 25 8.75V46.25C25 49.6963 27.8038 52.5 31.25 52.5H71.25C74.6963 52.5 77.5 49.6963 77.5 46.25V8.75C77.5 5.30375 74.6963 2.5 71.25 2.5ZM75 46.25C75 48.3175 73.3175 50 71.25 50H31.25C29.1825 50 27.5 48.3175 27.5 46.25V8.75C27.5 6.6825 29.1825 5 31.25 5H71.25C73.3175 5 75 6.6825 75 8.75V46.25Z" fill="white"/>
</g>
<defs>
<clipPath id="clip0_292_194">
<rect width="80" height="80" fill="white"/>
</clipPath>
</defs>
</svg>
