<svg width="80" height="80" viewBox="0 0 80 80" fill="none" xmlns="http://www.w3.org/2000/svg">
<g clip-path="url(#clip0_292_185)">
<path d="M76.2799 22.0258H3.72092C3.23008 22.0258 2.83203 21.6278 2.83203 21.1369V17.3151C2.83203 14.7177 4.94528 12.6045 7.54261 12.6045H72.4582C75.0555 12.6045 77.1687 14.7176 77.1687 17.3151V21.1369C77.1687 21.628 76.7709 22.0258 76.2799 22.0258ZM4.60981 20.248H75.3911V17.3151C75.3911 15.698 74.0756 14.3823 72.4583 14.3823H7.54261C5.92536 14.3823 4.60981 15.6978 4.60981 17.3151V20.248Z" fill="white"/>
<path d="M69.4168 79.1181H10.5819C8.17821 79.1181 6.22266 77.1625 6.22266 74.7588V21.1369C6.22266 20.6461 6.6207 20.248 7.11155 20.248C7.60239 20.248 8.00043 20.6461 8.00043 21.1369V74.7586C8.00043 76.1821 9.15848 77.3401 10.5819 77.3401H69.4168C70.8404 77.3401 71.9985 76.1819 71.9985 74.7586V21.1369C71.9985 20.6461 72.3963 20.248 72.8874 20.248C73.3784 20.248 73.7763 20.6461 73.7763 21.1369V74.7586C73.7763 77.1625 71.8205 79.1181 69.4168 79.1181Z" fill="white"/>
<path d="M47.4607 45.7021H32.5412C32.0504 45.7021 31.6523 45.3043 31.6523 44.8132V29.8938C31.6523 29.4029 32.0504 29.0049 32.5412 29.0049H47.4607C47.9517 29.0049 48.3496 29.4029 48.3496 29.8938V44.8132C48.3496 45.3043 47.9517 45.7021 47.4607 45.7021ZM33.4301 43.9243H46.5718V30.7827H33.4301V43.9243Z" fill="white"/>
<path d="M20.1819 53.6595C19.691 53.6595 19.293 53.2616 19.293 52.7706V37.3537C19.293 36.8629 19.691 36.4648 20.1819 36.4648H32.5399C33.0307 36.4648 33.4288 36.8629 33.4288 37.3537C33.4288 37.8446 33.0307 38.2426 32.5399 38.2426H21.0707V52.7706C21.0707 53.2616 20.6729 53.6595 20.1819 53.6595Z" fill="white"/>
<path d="M59.8174 53.6595C59.3264 53.6595 58.9285 53.2616 58.9285 52.7706V38.2426H47.4592C46.9682 38.2426 46.5703 37.8446 46.5703 37.3537C46.5703 36.8629 46.9682 36.4648 47.4592 36.4648H59.8174C60.3084 36.4648 60.7063 36.8629 60.7063 37.3537V52.7706C60.7063 53.2616 60.3083 53.6595 59.8174 53.6595Z" fill="white"/>
<path d="M39.9983 59.3291C39.5074 59.3291 39.1094 58.9312 39.1094 58.4402V44.8137C39.1094 44.3227 39.5074 43.9248 39.9983 43.9248C40.4893 43.9248 40.8872 44.3227 40.8872 44.8137V58.4402C40.8872 58.931 40.4893 59.3291 39.9983 59.3291Z" fill="white"/>
<path d="M20.26 58.4701C19.7691 58.4701 19.3711 58.0723 19.3711 57.5812V56.3215C19.3711 55.8305 19.7691 55.4326 20.26 55.4326C20.7508 55.4326 21.1489 55.8305 21.1489 56.3215V57.5812C21.1489 58.0721 20.751 58.4701 20.26 58.4701Z" fill="white"/>
<path d="M20.1037 66.8111C19.6129 66.8111 19.2148 66.4133 19.2148 65.9222V64.6623C19.2148 64.1713 19.6129 63.7734 20.1037 63.7734C20.5946 63.7734 20.9926 64.1713 20.9926 64.6623V65.9222C20.9926 66.4131 20.5948 66.8111 20.1037 66.8111Z" fill="white"/>
<path d="M19.9994 65.5526C19.9519 65.5526 19.9048 65.5514 19.8577 65.5489C18.662 65.4888 17.4634 64.6294 17.4807 62.8447C17.4855 62.3569 17.8824 61.9645 18.3694 61.9645H18.3781C18.8691 61.9693 19.2631 62.3711 19.2584 62.8621C19.251 63.6389 19.6223 63.7571 19.947 63.7734C20.4922 63.8012 21.0136 63.4589 21.0399 63.1701C21.041 63.1585 21.0423 63.1468 21.0439 63.1352C21.1367 62.4257 19.9957 61.9727 19.766 61.889C17.5224 61.0735 17.3402 59.7944 17.5825 58.865C18.0298 57.1496 19.4815 56.5524 20.6412 56.7206C22.0099 56.9212 22.9304 58.0445 22.8798 59.4525C22.8622 59.9432 22.4462 60.3256 21.9596 60.3089C21.4689 60.2911 21.0855 59.8792 21.1032 59.3885C21.1244 58.7992 20.7452 58.5325 20.3834 58.4796C19.9813 58.4211 19.4865 58.609 19.3029 59.3132C19.2631 59.4659 19.18 59.7841 20.3736 60.218C21.6821 60.6943 23.0058 61.7661 22.8088 63.3489C22.6744 64.6979 21.2798 65.5524 19.9994 65.5526Z" fill="white"/>
<path d="M20.1811 70.3613C15.0863 70.3613 10.9414 66.2164 10.9414 61.1215C10.9414 56.0266 15.0863 51.8818 20.1811 51.8818C25.2758 51.8818 29.4207 56.0266 29.4207 61.1215C29.4207 66.2164 25.2758 70.3613 20.1811 70.3613ZM20.1811 53.6598C16.0666 53.6598 12.7192 57.0072 12.7192 61.1217C12.7192 65.2363 16.0666 68.5837 20.1811 68.5837C24.2955 68.5837 27.6429 65.2363 27.6429 61.1217C27.6429 57.0072 24.2955 53.6598 20.1811 53.6598Z" fill="white"/>
<path d="M59.8928 58.4701C59.4018 58.4701 59.0039 58.0723 59.0039 57.5812V56.3215C59.0039 55.8305 59.4018 55.4326 59.8928 55.4326C60.3838 55.4326 60.7817 55.8305 60.7817 56.3215V57.5812C60.7817 58.0721 60.3838 58.4701 59.8928 58.4701Z" fill="white"/>
<path d="M59.7405 66.8111C59.2494 66.8111 58.8516 66.4133 58.8516 65.9222V64.6623C58.8516 64.1713 59.2494 63.7734 59.7405 63.7734C60.2315 63.7734 60.6293 64.1713 60.6293 64.6623V65.9222C60.6293 66.4131 60.2315 66.8111 59.7405 66.8111Z" fill="white"/>
<path d="M59.6361 65.5528C59.5887 65.5528 59.5417 65.5515 59.4946 65.5492C58.2989 65.4891 57.1001 64.6297 57.1174 62.8449C57.122 62.357 57.5191 61.9647 58.0061 61.9647H58.015C58.5058 61.9695 58.8999 62.3713 58.8951 62.8623C58.8875 63.639 59.2592 63.7574 59.5839 63.7736C60.1323 63.8011 60.6503 63.4591 60.6765 63.1704C60.6775 63.1586 60.679 63.1469 60.6802 63.1353C60.7732 62.4258 59.632 61.9729 59.4023 61.8891C57.1588 61.0738 56.9766 59.7945 57.2191 58.8649C57.6662 57.1496 59.1193 56.5521 60.2774 56.7208C61.6461 56.9213 62.5668 58.0447 62.5163 59.4527C62.4987 59.9433 62.0903 60.3229 61.5959 60.309C61.1053 60.2913 60.722 59.8793 60.7396 59.3887C60.7607 58.7993 60.3817 58.5327 60.0198 58.4797C59.6173 58.421 59.1229 58.6091 58.9392 59.3131C58.8994 59.466 58.8166 59.7842 60.01 60.2182C61.3184 60.6945 62.6423 61.7663 62.445 63.349C62.3111 64.6978 60.9163 65.5528 59.6361 65.5528Z" fill="white"/>
<path d="M59.8178 70.3613C54.723 70.3613 50.5781 66.2164 50.5781 61.1215C50.5781 56.0266 54.7228 51.8818 59.8178 51.8818C64.9127 51.8818 69.0574 56.0266 69.0574 61.1215C69.0574 66.2164 64.9125 70.3613 59.8178 70.3613ZM59.8178 53.6598C55.7033 53.6598 52.3559 57.0072 52.3559 61.1217C52.3559 65.2363 55.7033 68.5837 59.8178 68.5837C63.9323 68.5837 67.2796 65.2363 67.2796 61.1217C67.2795 57.0072 63.9321 53.6598 59.8178 53.6598Z" fill="white"/>
<path d="M45.6444 70.3606H34.3537C33.8629 70.3606 33.4648 69.9627 33.4648 69.4717V58.4397C33.4648 57.9486 33.8629 57.5508 34.3537 57.5508H45.6444C46.1354 57.5508 46.5333 57.9486 46.5333 58.4397V69.4717C46.5333 69.9627 46.1354 70.3606 45.6444 70.3606ZM35.2426 68.5828H44.7555V59.3286H35.2426V68.5828Z" fill="white"/>
<path d="M40.5057 8.69019C38.353 8.69019 36.6016 6.93872 36.6016 4.78601C36.6016 2.6333 38.353 0.881836 40.5057 0.881836C42.6585 0.881836 44.4101 2.6333 44.4101 4.78601C44.4101 6.93872 42.6585 8.69019 40.5057 8.69019ZM40.5057 2.65944C39.3333 2.65944 38.3793 3.61339 38.3793 4.78584C38.3793 5.95828 39.3333 6.91224 40.5057 6.91224C41.6784 6.91224 42.6323 5.95828 42.6323 4.78584C42.6323 3.61339 41.6782 2.65944 40.5057 2.65944Z" fill="white"/>
<path d="M40.5061 14.3823C40.0152 14.3823 39.6172 13.9843 39.6172 13.4934V7.801C39.6172 7.31015 40.0152 6.91211 40.5061 6.91211C40.9971 6.91211 41.395 7.31015 41.395 7.801V13.4934C41.395 13.9845 40.9969 14.3823 40.5061 14.3823Z" fill="white"/>
</g>
<defs>
<clipPath id="clip0_292_185">
<rect width="80" height="80" fill="white"/>
</clipPath>
</defs>
</svg>
