<svg width="80" height="80" viewBox="0 0 80 80" fill="none" xmlns="http://www.w3.org/2000/svg">
<g clip-path="url(#clip0_292_182)">
<path d="M52.0247 51.4888C50.9528 50.417 49.4127 50.0933 48.0567 50.5156L43.9034 46.3622C46.5098 42.5984 48.0395 38.035 48.0395 33.1205C48.0395 20.2636 37.5798 9.80375 24.7228 9.80375C11.8658 9.80375 1.40625 20.2638 1.40625 33.1205C1.40625 45.9773 11.8659 56.4372 24.723 56.4372C29.6377 56.4372 34.2011 54.9075 37.9648 52.3009L42.1181 56.4542C41.6958 57.81 42.0195 59.3503 43.0912 60.4222L58.5125 75.8431C59.2552 76.5859 60.2456 76.995 61.3014 76.995C62.357 76.995 63.3475 76.5859 64.0903 75.8433L67.4463 72.4873C68.9839 70.9495 68.9839 68.4477 67.4463 66.9097L52.0247 51.4888ZM3.59375 33.1205C3.59375 21.4698 13.0722 11.9914 24.7228 11.9914C36.3734 11.9914 45.852 21.47 45.852 33.1206C45.852 44.7713 36.3736 54.2498 24.7228 54.2498C13.072 54.2498 3.59375 44.7713 3.59375 33.1205ZM42.5628 48.1156L46.1914 51.7442L43.3466 54.5891L39.718 50.9605C40.7456 50.0953 41.6977 49.1433 42.5628 48.1156ZM65.8989 70.9406L62.543 74.2966C62.2136 74.6261 61.7723 74.8077 61.3011 74.8077C60.8298 74.8077 60.3886 74.6261 60.0592 74.2966L44.638 58.8756C43.9531 58.1908 43.9531 57.0764 44.638 56.3916V56.3917L47.9938 53.0358C48.6789 52.3509 49.7933 52.3509 50.4777 53.0358L65.8989 68.4567C66.5837 69.1417 66.5837 70.2559 65.8989 70.9406ZM24.7228 14.2533C14.3194 14.2533 5.85547 22.717 5.85547 33.1205C5.85547 43.5239 14.3194 51.9878 24.7228 51.9878C35.1263 51.9878 43.5902 43.5239 43.5902 33.1205C43.5902 22.717 35.1263 14.2533 24.7228 14.2533ZM24.7228 49.8003C15.5256 49.8003 8.04297 42.3177 8.04297 33.1205C8.04297 23.9233 15.5256 16.4408 24.7228 16.4408C33.92 16.4408 41.4027 23.9233 41.4027 33.1205C41.4027 42.3177 33.92 49.8003 24.7228 49.8003ZM60.9002 6.81984V4.09766C60.9002 3.49359 61.3898 3.00391 61.9939 3.00391C62.598 3.00391 63.0877 3.49359 63.0877 4.09766V6.81984C63.0877 7.42391 62.598 7.91359 61.9939 7.91359C61.3898 7.91359 60.9002 7.42391 60.9002 6.81984ZM52.0944 7.04328C51.7923 6.52016 51.9716 5.85125 52.4947 5.54922C53.0175 5.24703 53.6867 5.42625 53.9888 5.94953L55.35 8.30703C55.652 8.83016 55.4728 9.49906 54.9497 9.80109C54.7775 9.90062 54.5894 9.94781 54.4039 9.94781C54.0258 9.94781 53.6583 9.75172 53.4556 9.40078L52.0944 7.04328ZM45.5408 12.5031C45.843 11.98 46.5119 11.8008 47.0348 12.1028L49.3923 13.4639C49.9155 13.7659 50.0947 14.4348 49.7927 14.958C49.59 15.3089 49.2223 15.505 48.8444 15.505C48.6588 15.505 48.4708 15.4578 48.2986 15.3583L45.9411 13.9972C45.4181 13.6953 45.2389 13.0262 45.5408 12.5031ZM71.8938 7.04328L70.5325 9.40078C70.3298 9.75172 69.9622 9.94781 69.5842 9.94781C69.3986 9.94781 69.2106 9.90062 69.0384 9.80109C68.5152 9.49906 68.3361 8.83016 68.6381 8.30703L69.9994 5.94953C70.3016 5.42641 70.9706 5.24703 71.4934 5.54922C72.0166 5.85125 72.1956 6.52016 71.8938 7.04328ZM78.0469 13.9972L75.6894 15.3583C75.517 15.4578 75.3291 15.505 75.1436 15.505C74.7655 15.505 74.398 15.3089 74.1953 14.958C73.8933 14.4348 74.0727 13.7659 74.5956 13.4639L76.9531 12.1028C77.4766 11.8005 78.1452 11.98 78.4472 12.5031C78.7492 13.0262 78.5698 13.6953 78.0469 13.9972ZM61.9939 10.7056C56.722 10.7056 52.433 14.9947 52.433 20.2667C52.433 22.9353 53.307 24.2881 54.1523 25.5963C54.9917 26.8955 55.857 28.2359 56.2198 31.2606C55.3933 31.6672 54.8217 32.5156 54.8217 33.4972V36.5184C54.8217 37.8933 55.9403 39.0119 57.3153 39.0119H57.6605V39.3216C57.6605 40.653 58.7436 41.7359 60.0747 41.7359H63.9133C65.2445 41.7359 66.3275 40.6528 66.3275 39.3216V39.0119H66.6727C68.0477 39.0119 69.1663 37.8933 69.1663 36.5184V33.4972C69.1663 32.5156 68.5947 31.6672 67.7681 31.2606C68.1308 28.2359 68.9961 26.8955 69.8356 25.5963C70.6809 24.288 71.555 22.9353 71.555 20.2667C71.5552 14.9947 67.2659 10.7056 61.9939 10.7056ZM66.9789 36.5183C66.9789 36.6842 66.8388 36.8242 66.6728 36.8242H65.2339C64.6298 36.8242 64.1402 37.3139 64.1402 37.918V39.3214C64.1402 39.4444 64.0364 39.5483 63.9134 39.5483H60.0748C59.9519 39.5483 59.8481 39.4444 59.8481 39.3214V37.918C59.8481 37.3139 59.3584 36.8242 58.7544 36.8242H57.3155C57.1495 36.8242 57.0094 36.6842 57.0094 36.5183V33.497C57.0094 33.3311 57.1495 33.1911 57.3155 33.1911H66.673C66.8389 33.1911 66.9791 33.3311 66.9791 33.497L66.9789 36.5183ZM67.9984 24.4091C67.1109 25.7825 66.025 27.4653 65.5969 31.0037H63.0877V22.4742L66.1719 20.6936C66.695 20.3916 66.8742 19.7227 66.5722 19.1995C66.27 18.6766 65.6014 18.4972 65.0781 18.7992L61.9939 20.5798L58.9098 18.7992C58.3869 18.4972 57.7178 18.6764 57.4158 19.1995C57.1138 19.7227 57.2931 20.3916 57.8161 20.6936L60.9002 22.4742V31.0039H58.3911C57.963 27.4656 56.877 25.7828 55.9895 24.4094C55.1947 23.1792 54.6203 22.2903 54.6203 20.267C54.6203 16.2013 57.928 12.8934 61.9938 12.8934C66.0595 12.8934 69.3673 16.2011 69.3673 20.267C69.3677 22.2902 68.7933 23.1789 67.9984 24.4091ZM36.5373 25.668L25.2698 19.1625C24.9317 18.9672 24.5148 18.9672 24.1761 19.1625L12.9083 25.668C12.5698 25.8633 12.3614 26.2244 12.3614 26.6152V39.6261C12.3614 40.0169 12.5698 40.378 12.9083 40.5733L24.1761 47.0788C24.3453 47.1764 24.5341 47.2253 24.723 47.2253C24.9119 47.2253 25.1006 47.1766 25.2698 47.0788L36.5373 40.5733C36.8758 40.378 37.0842 40.0169 37.0842 39.6261V26.6152C37.0842 26.2244 36.8758 25.8633 36.5373 25.668ZM24.723 21.3725L33.8031 26.615L31.9239 27.7L22.8438 22.4575L24.723 21.3725ZM24.7228 31.8575L15.6427 26.615L17.5217 25.53L26.602 30.7725L24.7228 31.8575ZM28.7895 29.5097L19.7092 24.2672L20.6562 23.7205L29.7364 28.963L28.7895 29.5097ZM29.8831 31.4042L30.8302 30.8575V33.7528L29.8831 34.2995V31.4042ZM14.5489 28.5095L23.6291 33.752L23.6292 44.2369L14.5489 38.9945V28.5095ZM25.8167 44.237L25.8166 33.7522L27.6956 32.6673V36.1941C27.6956 36.5848 27.9041 36.9459 28.2425 37.1413C28.4117 37.2389 28.6005 37.2878 28.7894 37.2878C28.9783 37.2878 29.167 37.2391 29.3363 37.1413L32.4708 35.3316C32.8092 35.1361 33.0177 34.775 33.0177 34.3844V29.5947L34.8967 28.5098V38.9948L25.8167 44.237Z" fill="white"/>
</g>
<defs>
<clipPath id="clip0_292_182">
<rect width="80" height="80" fill="white"/>
</clipPath>
</defs>
</svg>
