<svg width="120" height="120" viewBox="0 0 120 120" fill="none" xmlns="http://www.w3.org/2000/svg">
<rect x="0.5" y="0.5" width="119" height="119" rx="59.5" stroke="#666666"/>
<path d="M46.2212 68.7088L51.8812 69.1256V73.96C51.8812 73.96 41.3057 84.3758 25.8958 72.0436H31.147L31.7289 67.2931C31.7289 67.2931 37.7218 73.3753 46.2212 68.7088Z" fill="white"/>
<path d="M27.0542 46.3749C27.0542 46.3749 15.553 57.083 24.97 70.7931L30.2266 71.2938L30.7274 66.2104C30.7274 66.2104 25.8957 58.293 32.1376 52.043L26.5399 51.6099L27.0542 46.3749Z" fill="white"/>
<path d="M28.3047 45.6251C28.3047 45.6251 42.6509 36.3759 53.5566 47.5415L48.7223 47.2086L48.2215 52.6222C48.2215 52.6222 42.7213 45.958 33.556 51.1253L27.9718 50.8763L28.3047 45.6251Z" fill="white"/>
<path d="M49.4722 53.9593L49.8051 48.3751L54.8885 48.8759L70.2226 65.9586H64.9741L64.4734 70.7091L49.4722 53.9593Z" fill="white"/>
<path d="M47.6396 67.7939L67.0557 46.3749L72.223 46.8756L71.89 52.1269L52.807 73.3754L52.8882 67.8751L47.6396 67.7939Z" fill="#02D35F"/>
<path d="M67.8054 45.6034L73.1812 46.0419L72.8076 51.1687C72.8076 51.1687 80.744 46.1042 86.5583 51.4799L92.2426 51.729L92.7542 46.7376C92.7542 46.7376 83.8704 36.7224 67.8054 45.6034Z" fill="#02D35F"/>
<path d="M87.3703 52.292L93.0546 52.6249L93.4931 47.6038C93.4931 47.6038 105.931 61.46 92.4916 73.3754L86.994 72.9937L87.4948 67.3094C87.4948 67.3094 94.9331 58.9805 87.3703 52.292Z" fill="#02D35F"/>
<path d="M71.557 67.2931L65.8159 66.7924L65.4938 71.8568C65.4938 71.8568 75.6822 83.6071 91.057 74.2307L85.8057 73.8057L86.3065 68.3677C86.3065 68.3677 79.618 73.7299 71.557 67.2931Z" fill="#02D35F"/>
<path d="M78.8222 58.5394V60.4342C78.8058 60.5079 78.7976 60.5833 78.7978 60.6588C78.7976 60.7353 78.8058 60.8116 78.8222 60.8862V63.9395H77.4038V58.5259L78.8222 58.5394Z" fill="white"/>
<path d="M80.07 58.5394C79.6029 58.5999 79.1665 58.8053 78.8222 59.1268C78.5848 59.3109 78.3883 59.5425 78.2452 59.8067C78.1021 60.0709 78.0156 60.362 77.9912 60.6615C78.0121 60.9745 78.0966 61.2799 78.2395 61.5591C78.3823 61.8383 78.5806 62.0855 78.8222 62.2856C79.1238 62.5732 79.5141 62.7498 79.9293 62.7864C81.2475 62.8189 81.8971 61.6847 81.8971 60.6642C81.8971 59.6438 81.0905 58.4798 80.07 58.5394ZM79.6396 61.6008C79.4435 61.5921 79.2562 61.5169 79.1086 61.3874C78.961 61.258 78.8619 61.0822 78.8276 60.8889C78.8112 60.8142 78.803 60.738 78.8032 60.6615C78.803 60.586 78.8112 60.5106 78.8276 60.4369C78.8619 60.2436 78.961 60.0677 79.1086 59.9383C79.2562 59.8089 79.4435 59.7336 79.6396 59.725C79.8733 59.7467 80.0905 59.8549 80.2485 60.0284C80.4066 60.2019 80.4942 60.4282 80.4942 60.6629C80.4942 60.8976 80.4066 61.1238 80.2485 61.2973C80.0905 61.4708 79.8733 61.579 79.6396 61.6008ZM84.7176 60.1553C84.5119 60.0904 83.7513 59.9713 83.7513 59.6844C83.7513 59.5219 83.9841 59.503 84.0978 59.5084C84.4226 59.5084 84.9098 59.8955 85.1805 59.8224C85.4214 59.7601 85.6325 59.1376 85.7218 58.9264C85.0382 58.5362 84.2418 58.3911 83.4644 58.515C83.2723 58.5516 83.0904 58.6294 82.9313 58.743C82.7722 58.8567 82.6396 59.0034 82.5426 59.1732C82.4456 59.343 82.3866 59.5318 82.3695 59.7265C82.3525 59.9213 82.3779 60.1175 82.4439 60.3015C82.7877 61.1921 83.8433 60.8429 84.3766 61.3842C84.5958 61.6116 84.1438 61.7145 83.9949 61.7091C83.5371 61.6411 83.0994 61.4749 82.7119 61.2218C82.5792 61.4113 82.1705 61.8633 82.2192 62.0988C82.2679 62.3343 82.8066 62.5103 83.0313 62.5807C83.7838 62.8243 84.945 62.9163 85.5107 62.2315C86.2172 61.4086 85.6 60.4423 84.7176 60.1553ZM73.7036 57.0398C73.1147 57.0398 72.539 57.2144 72.0494 57.5416C71.5597 57.8688 71.1781 58.3338 70.9527 58.8779C70.7274 59.4219 70.6684 60.0206 70.7833 60.5982C70.8982 61.1758 71.1818 61.7063 71.5982 62.1227C72.0146 62.5391 72.5451 62.8227 73.1227 62.9376C73.7003 63.0525 74.2989 62.9935 74.843 62.7681C75.3871 62.5428 75.8521 62.1612 76.1793 61.6715C76.5064 61.1819 76.6811 60.6062 76.6811 60.0173C76.6811 59.2276 76.3674 58.4703 75.809 57.9119C75.2506 57.3535 74.4933 57.0398 73.7036 57.0398ZM73.7036 61.5358C73.4017 61.5353 73.1069 61.4453 72.8562 61.2772C72.6055 61.1091 72.4102 60.8705 72.2951 60.5915C72.1799 60.3125 72.1501 60.0056 72.2093 59.7097C72.2685 59.4137 72.4141 59.142 72.6277 58.9287C72.8413 58.7155 73.1134 58.5704 73.4094 58.5117C73.7055 58.453 74.0123 58.4834 74.2911 58.599C74.5699 58.7146 74.8082 58.9103 74.9758 59.1613C75.1435 59.4123 75.2329 59.7073 75.2329 60.0092C75.2329 60.2101 75.1933 60.4091 75.1162 60.5946C75.0391 60.7802 74.9262 60.9488 74.7839 61.0906C74.6415 61.2324 74.4726 61.3448 74.2868 61.4212C74.1009 61.4976 73.9018 61.5365 73.7009 61.5358H73.7036Z" fill="white"/>
<path d="M45.504 58.4717H43.8068L45.6014 63.1653H46.3756V61.165L45.504 58.4717ZM47.2499 58.4798H48.9471L47.1497 63.1734H46.3756V61.1731L47.2499 58.4798ZM37.2644 57.8112C36.6945 57.4154 36.033 57.1713 35.3426 57.102C34.4277 57.0154 33.4478 57.1264 32.6006 57.1264V63.1599H32.6412C32.8036 63.1788 32.966 63.1951 33.1311 63.2059C33.7817 63.2598 34.4358 63.2544 35.0854 63.1897C36.3279 63.0516 37.1264 62.6483 37.6163 62.1232C38.0504 61.6345 38.2953 61.0065 38.3066 60.3529V60.2095V60.1337C38.2957 59.2756 38.0494 58.4121 37.2644 57.8112ZM35.884 61.4979C35.3724 61.7848 34.7498 61.7144 34.1868 61.7144V58.5718C34.785 58.5718 35.459 58.4933 35.9841 58.8615C36.8557 59.4759 36.8232 60.9674 35.8758 61.4979H35.884ZM43.0624 61.9689C42.9244 61.8525 42.7484 61.6549 42.5617 61.6224C42.2639 61.5818 41.8931 61.9824 41.5629 62.0149C41.0486 62.0663 40.6777 61.7117 40.4801 61.2841H43.6092C43.6092 60.4179 43.5361 59.5057 42.7972 58.9102C41.4248 57.7896 39.1727 58.6178 38.921 60.3854C38.6503 62.2477 40.1147 63.4495 41.8985 63.2167C42.3408 63.1542 42.756 62.9664 43.0949 62.6754C43.2167 62.5671 43.3954 62.4182 43.306 62.2423C43.2422 62.137 43.1597 62.0444 43.0624 61.9689ZM42.0636 60.4341H40.4666C40.5011 60.2475 40.5999 60.0789 40.7457 59.9575C40.8916 59.8362 41.0754 59.7697 41.2651 59.7697C41.4549 59.7697 41.6386 59.8362 41.7845 59.9575C41.9304 60.0789 42.0291 60.2475 42.0636 60.4341Z" fill="#02D35F"/>
</svg>
