<svg width="120" height="120" viewBox="0 0 120 120" fill="none" xmlns="http://www.w3.org/2000/svg">
<rect x="0.5" y="0.5" width="119" height="119" rx="59.5" stroke="#666666"/>
<g clip-path="url(#clip0_2_85)">
<path d="M75.7548 54.3924H75.3286V55.717H75.1548V54.3924H74.7271V54.2347H75.7548V54.3924Z" fill="white"/>
<path d="M77.4998 55.7168H77.3268V54.7214C77.3268 54.6429 77.3329 54.5468 77.3409 54.4337C77.3231 54.5014 77.3083 54.5483 77.2948 54.5783L76.7902 55.7168H76.7055L76.1994 54.5868C76.1846 54.5554 76.1698 54.5045 76.1538 54.4337H76.1477C76.1538 54.4934 76.1558 54.5899 76.1558 54.7237V55.7168H75.9897V54.2345H76.2189L76.6735 55.2691C76.7079 55.3468 76.7295 55.4068 76.7404 55.4468H76.7472C76.7773 55.3653 76.8019 55.3045 76.8187 55.2645L77.2825 54.2345H77.501V55.7168H77.4998Z" fill="white"/>
<path d="M76.1506 61.2202C76.1506 61.1395 76.1285 61.0818 76.0829 61.044C76.0325 61.0034 75.9452 60.9818 75.8237 60.9818H75.6491V61.4618H75.8599C76.0545 61.4618 76.1506 61.381 76.1506 61.2202ZM76.4229 62.2211H76.1829L76.0299 61.8833C75.9521 61.7141 75.8691 61.6295 75.7783 61.6295H75.6491V62.2211H75.4514V60.8133H75.8475C76.0237 60.8133 76.156 60.8514 76.2468 60.931C76.3237 60.9994 76.3622 61.0872 76.3622 61.1964C76.3622 61.2934 76.3308 61.3749 76.2675 61.4425C76.206 61.511 76.1175 61.5572 76.0045 61.581V61.5871C76.0829 61.6056 76.1614 61.6918 76.2375 61.8472L76.4229 62.2218V62.2211ZM76.8614 61.531C76.8614 61.2541 76.7668 61.0202 76.5783 60.8348C76.3891 60.6495 76.1583 60.5564 75.886 60.5564C75.6052 60.5564 75.3714 60.6495 75.186 60.8364C75.0006 61.0241 74.9083 61.2564 74.9083 61.531C74.9083 61.8118 75.0044 62.0464 75.1952 62.2333C75.3837 62.4202 75.6145 62.5126 75.886 62.5126C76.156 62.5126 76.3867 62.4195 76.5768 62.2302C76.7668 62.0441 76.8614 61.8103 76.8614 61.531ZM76.9945 61.5249C76.9945 61.8357 76.8875 62.0965 76.673 62.3065C76.4583 62.518 76.1952 62.6234 75.8806 62.6234C75.5637 62.6234 75.3006 62.5196 75.0913 62.3157C74.8822 62.1088 74.7783 61.8488 74.7783 61.5334C74.7783 61.2249 74.8844 60.9657 75.0968 60.7527C75.3091 60.5403 75.5737 60.4342 75.8899 60.4342C76.1999 60.4342 76.4599 60.5357 76.6706 60.738C76.8867 60.9457 76.9945 61.2073 76.9945 61.5249Z" fill="white"/>
<path d="M46.9075 65.4503H46.2252V61.5456C46.2252 61.2372 46.2455 60.8618 46.2818 60.4187H46.2664C46.2025 60.6779 46.1441 60.8656 46.0926 60.9818L44.1095 65.4503H43.7772L41.7902 61.0141C41.7342 60.8902 41.6756 60.691 41.6163 60.4187H41.6016C41.6225 60.6518 41.6342 61.0295 41.6342 61.5533V65.4503H40.9765V59.6356H41.8765L43.6604 63.6903C43.7949 63.9957 43.8819 64.228 43.9242 64.3865H43.9525C44.0686 64.0687 44.1609 63.8303 44.231 63.6733L46.0533 59.6356H46.9071V65.4503H46.9075Z" fill="white"/>
<path d="M49.0063 65.45H48.3432V61.2977H49.0063V65.45ZM49.1209 59.8092C49.1209 59.9315 49.0779 60.0338 48.9924 60.1177C48.9086 60.2015 48.8048 60.2438 48.6832 60.2438C48.5647 60.2438 48.4616 60.2032 48.3771 60.1223C48.2925 60.0407 48.2509 59.9369 48.2509 59.8092C48.2509 59.6892 48.2927 59.5869 48.3771 59.5038C48.4616 59.4207 48.5647 59.3807 48.6832 59.3807C48.8047 59.3807 48.9086 59.4207 48.9924 59.5038C49.0779 59.5869 49.1209 59.6892 49.1209 59.8092Z" fill="white"/>
<path d="M53.1501 65.258C52.8316 65.4534 52.4516 65.5503 52.0123 65.5503C51.417 65.5503 50.9378 65.3527 50.5716 64.958C50.2162 64.5749 50.037 64.0803 50.037 63.4741C50.037 62.7941 50.2316 62.2434 50.6239 61.8249C51.0139 61.4056 51.5386 61.1964 52.1986 61.1964C52.5593 61.1964 52.8793 61.2672 53.1593 61.4072V62.0895C52.8493 61.8718 52.5216 61.7641 52.1701 61.7641C51.747 61.7641 51.4032 61.9118 51.1362 62.2065C50.8585 62.508 50.7177 62.9111 50.7177 63.4142C50.7177 63.8972 50.8462 64.2795 51.1016 64.5619C51.3578 64.8426 51.6986 64.9834 52.1285 64.9834C52.4916 64.9834 52.8316 64.8641 53.1501 64.6265V65.258Z" fill="white"/>
<path d="M56.3217 61.9714C56.2048 61.8814 56.0363 61.8375 55.814 61.8375C55.544 61.8375 55.3171 61.9583 55.1333 62.2022C54.9248 62.4745 54.8209 62.8514 54.8209 63.3329V65.4499H54.1563V61.2975H54.8209V62.1537H54.8369C54.9347 61.8506 55.0854 61.6175 55.287 61.4522C55.4754 61.3014 55.6885 61.2252 55.9231 61.2252C56.1 61.2252 56.2316 61.2443 56.3216 61.2818V61.9711L56.3217 61.9714Z" fill="white"/>
<path d="M60.0259 63.3814C60.0259 62.8499 59.9059 62.4437 59.6659 62.1652C59.4329 61.8975 59.1075 61.7637 58.6883 61.7637C58.2751 61.7637 57.9436 61.8991 57.6959 62.1699C57.4336 62.4591 57.3028 62.8675 57.3028 63.3976C57.3028 63.8945 57.4274 64.2845 57.679 64.5629C57.929 64.8429 58.2659 64.9829 58.6883 64.9829C59.1252 64.9829 59.4598 64.8407 59.689 64.5576C59.9136 64.2806 60.0259 63.8891 60.0259 63.3814ZM60.7075 63.358C60.7075 64.0195 60.5206 64.5511 60.1483 64.9496C59.7744 65.3496 59.2713 65.5496 58.639 65.5496C58.0159 65.5496 57.5197 65.3496 57.1559 64.9496C56.7997 64.5642 56.6205 64.0549 56.6205 63.4219C56.6205 62.6995 56.8228 62.1426 57.229 61.7472C57.6044 61.3803 58.1067 61.1957 58.736 61.1957C59.3552 61.1957 59.839 61.3887 60.1875 61.7711C60.5329 62.1557 60.7075 62.6849 60.7075 63.358Z" fill="white"/>
<path d="M64.0036 64.3392C64.0036 64.6792 63.8767 64.9607 63.622 65.1853C63.3444 65.4284 62.9628 65.55 62.4828 65.55C62.0897 65.55 61.7451 65.4677 61.4528 65.3V64.5853C61.7782 64.85 62.1374 64.9831 62.532 64.9831C63.0582 64.9831 63.322 64.7892 63.322 64.403C63.322 64.2407 63.2642 64.1061 63.1475 64.0022C63.0305 63.8961 62.8036 63.7692 62.4659 63.6207C62.1182 63.4684 61.8705 63.3123 61.7243 63.1499C61.549 62.9576 61.4605 62.7076 61.4605 62.3999C61.4605 62.0553 61.5982 61.7684 61.8705 61.5399C62.1435 61.3107 62.4943 61.196 62.9251 61.196C63.2552 61.196 63.5505 61.2607 63.8128 61.3907V62.0599C63.539 61.8622 63.2259 61.7638 62.8705 61.7638C62.6505 61.7638 62.4736 61.8185 62.342 61.9253C62.209 62.0345 62.142 62.1738 62.142 62.3438C62.142 62.5276 62.198 62.6707 62.309 62.773C62.4074 62.8676 62.6167 62.983 62.9321 63.1176C63.2867 63.2661 63.5428 63.42 63.699 63.5776C63.9013 63.7769 64.0036 64.0307 64.0036 64.3392Z" fill="white"/>
<path d="M68.0654 63.3814C68.0654 62.8499 67.9454 62.4437 67.7047 62.1652C67.4724 61.8975 67.1462 61.7637 66.7278 61.7637C66.3146 61.7637 65.9831 61.8991 65.7339 62.1699C65.4723 62.4591 65.3423 62.8675 65.3423 63.3976C65.3423 63.8945 65.4669 64.2845 65.7162 64.5629C65.9693 64.8429 66.3062 64.9829 66.7278 64.9829C67.1654 64.9829 67.4993 64.8407 67.7285 64.5576C67.9531 64.2806 68.0654 63.8891 68.0654 63.3814ZM68.7485 63.358C68.7485 64.0195 68.5601 64.5511 68.187 64.9496C67.8146 65.3496 67.3116 65.5496 66.6793 65.5496C66.0554 65.5496 65.5592 65.3496 65.1954 64.9496C64.8392 64.5642 64.66 64.0549 64.66 63.4219C64.66 62.6995 64.8638 62.1426 65.2677 61.7472C65.6431 61.3803 66.1462 61.1957 66.7762 61.1957C67.3954 61.1957 67.8785 61.3887 68.2262 61.7711C68.5724 62.1557 68.7485 62.6849 68.7485 63.358Z" fill="white"/>
<path d="M71.6772 59.8868C71.5465 59.8145 71.4011 59.7776 71.2357 59.7776C70.7703 59.7776 70.5395 60.0706 70.5395 60.6576V61.2976H71.5126V61.8607H70.5395V65.45H69.8741V61.8607H69.168V61.2976H69.8741V60.6245C69.8741 60.1675 70.0141 59.8091 70.2988 59.5506C70.5426 59.326 70.841 59.2145 71.1957 59.2145C71.4011 59.2145 71.5611 59.2391 71.6772 59.2868V59.8868Z" fill="white"/>
<path d="M74.3005 65.4083C74.1435 65.4983 73.9343 65.5429 73.6758 65.5429C72.9512 65.5429 72.5889 65.1344 72.5889 64.3175V61.8613H71.8766V61.2974H72.5889V60.2844C72.8012 60.2174 73.022 60.1444 73.2551 60.069V61.2974H74.3005V61.8613H73.2551V64.2044C73.2551 64.4829 73.3006 64.6821 73.3958 64.7975C73.492 64.9167 73.649 64.9752 73.8705 64.9752C74.0359 64.9752 74.1789 64.9309 74.3005 64.8413V65.4083Z" fill="white"/>
<path d="M38.3708 81.6562C38.3708 81.9816 38.2547 82.2632 38.02 82.5009C37.7862 82.7378 37.5023 82.8571 37.1693 82.8571C36.8438 82.8571 36.5669 82.7378 36.34 82.5009C36.1131 82.2632 36 81.9816 36 81.6562C36 81.3217 36.1131 81.0393 36.34 80.8055C36.5669 80.5708 36.8438 80.4547 37.1693 80.4547C37.5023 80.4547 37.7862 80.5724 38.02 80.8101C38.2547 81.0478 38.3708 81.3301 38.3708 81.6562Z" fill="white"/>
<path d="M53.2523 82.6125H51.0846L43.216 70.4608C43.0322 70.1685 42.8737 69.8508 42.7391 69.5039H42.6744C42.7304 69.8292 42.7591 70.5277 42.7591 71.5978V82.6125H40.9721V67.3669H43.2914L50.9246 79.3271C51.2285 79.8017 51.4361 80.1417 51.5415 80.3463H51.584C51.5132 79.9079 51.4763 79.1602 51.4763 78.1048V67.3669H53.2525V82.6125H53.2523Z" fill="white"/>
<path d="M64.7082 82.6125H56.6281V67.3669H64.3574V68.9823H58.4135V74.0539H63.9213V75.6701H58.4135V80.9964H64.7082V82.6125Z" fill="white"/>
<path d="M76.9643 68.9825H72.5727V82.6127H70.7866V68.9825H66.3865V67.3663H76.9643V68.9825Z" fill="white"/>
<path d="M52.6463 41.0344C54.3702 46.306 55.0233 55.71 60.0641 55.71C60.448 55.71 60.8357 55.6724 61.2249 55.5984C56.6425 54.53 56.0995 45.2282 53.3033 40.4113C53.084 40.6105 52.8663 40.8182 52.6463 41.0344Z" fill="url(#paint0_linear_2_85)"/>
<path d="M53.3033 40.4112C56.0995 45.2282 56.6425 54.5299 61.2249 55.5984C61.5849 55.5322 61.9457 55.4322 62.3072 55.3061C58.1941 53.2907 57.0572 44.2582 53.8817 39.9097C53.6894 40.0697 53.4964 40.2374 53.3033 40.4112Z" fill="url(#paint1_linear_2_85)"/>
<path d="M57.3321 37.5465C56.949 37.5465 56.5605 37.5841 56.1706 37.6581C55.1505 37.8504 54.1144 38.2896 53.0698 38.9542C53.3551 39.2358 53.6266 39.558 53.882 39.9096C54.9444 39.0281 55.9998 38.3765 57.0514 37.985C57.4459 37.8388 57.8391 37.7289 58.2337 37.6566C57.949 37.5842 57.649 37.5465 57.3321 37.5465Z" fill="#14559A"/>
<path d="M65.518 53.4482C65.9388 53.1137 66.3604 52.7436 66.7827 52.3398C65.0311 47.0928 64.4042 37.5542 59.328 37.5542C58.9649 37.5542 58.5987 37.5881 58.2333 37.6557C62.8572 38.8058 63.4495 48.8659 65.518 53.4482Z" fill="url(#paint2_linear_2_85)"/>
<path d="M58.2335 37.6561C57.9489 37.5838 57.6489 37.5461 57.3319 37.5461L59.3281 37.5535C58.965 37.5535 58.5989 37.5873 58.2335 37.6558" fill="#3092C4"/>
<path d="M65.4294 54.5629C65.2309 54.3737 65.0425 54.166 64.8571 53.9445C64.0032 54.5491 63.1524 55.0075 62.3071 55.306C62.6078 55.453 62.9232 55.5622 63.2578 55.6299C63.517 55.6828 63.7856 55.7099 64.0678 55.7099C65.0163 55.7099 65.7663 55.5976 66.4048 55.2914C66.0533 55.1014 65.7309 54.8552 65.4294 54.5629Z" fill="#1969BC"/>
<path d="M57.051 37.9858C61.1926 40.152 61.5526 49.9613 64.8573 53.9445C65.0788 53.7883 65.298 53.6229 65.5173 53.4483C63.4488 48.8659 62.8572 38.805 58.2341 37.6558C57.8395 37.7296 57.4456 37.8389 57.051 37.9858Z" fill="url(#paint3_linear_2_85)"/>
<path d="M53.8817 39.9097C57.0572 44.2582 58.1941 53.2907 62.3072 55.3061C63.1526 55.0076 64.0034 54.5491 64.8573 53.9445C61.5526 49.9614 61.1926 40.152 57.051 37.9858C55.9995 38.3766 54.9441 39.0281 53.8817 39.9097Z" fill="url(#paint4_linear_2_85)"/>
<path d="M50.6147 40.9074C50.117 42.0328 49.6085 43.512 48.9939 45.4428C50.2162 43.7205 51.4347 42.2366 52.6462 41.0344C52.4793 40.5212 52.3001 40.0482 52.107 39.6266C51.6116 40.0058 51.1124 40.4328 50.6147 40.9074Z" fill="url(#paint5_linear_2_85)"/>
<path d="M52.5484 39.3021C52.4022 39.4067 52.2553 39.5137 52.1076 39.6268C52.3007 40.0483 52.4791 40.5214 52.6461 41.0345C52.866 40.8191 53.0845 40.6106 53.3029 40.4114C53.0683 40.0083 52.8191 39.636 52.5484 39.3021Z" fill="#2B74B1"/>
<path d="M53.0698 38.9542C52.8959 39.0643 52.7229 39.1804 52.5482 39.3019C52.819 39.6358 53.0682 40.0081 53.3036 40.412C53.4967 40.2373 53.6898 40.0689 53.8821 39.9096C53.6267 39.5581 53.3552 39.2358 53.0698 38.9542Z" fill="#125A9E"/>
<path d="M81.319 37.1451C78.9767 46.1782 74.0843 53.4337 69.9827 55.263H69.9749C69.9003 55.2968 69.8265 55.3276 69.7534 55.3576C69.7434 55.3637 69.7342 55.3644 69.7265 55.3681C69.7049 55.3768 69.6849 55.3835 69.6634 55.3921C69.6533 55.3982 69.6442 55.4002 69.635 55.4038C69.6004 55.4162 69.5665 55.4266 69.5326 55.4401C69.518 55.4462 69.5042 55.45 69.4903 55.4549C69.4749 55.461 69.4572 55.4666 69.4395 55.4715C69.4242 55.4776 69.408 55.4821 69.3903 55.4888C69.3757 55.4949 69.3603 55.4974 69.3465 55.5035C69.3165 55.5122 69.2888 55.5195 69.2588 55.53C69.2464 55.53 69.235 55.5367 69.2219 55.5399C69.2034 55.546 69.1826 55.5504 69.1626 55.5559C69.1487 55.562 69.1372 55.564 69.1226 55.567C69.1018 55.5731 69.0787 55.5788 69.058 55.5836C69.0303 55.5897 69.0057 55.5954 68.9795 55.6009C69.1649 55.6693 69.358 55.7039 69.5665 55.7039C73.4557 55.7039 77.3773 48.7339 83.8658 37.1429H81.3181L81.319 37.1451Z" fill="url(#paint6_linear_2_85)"/>
<path d="M48.1493 37.913C48.1517 37.913 48.1548 37.9069 48.1563 37.9069C48.1593 37.9069 48.1641 37.9069 48.1656 37.9008C48.1656 37.9008 48.1686 37.9008 48.1705 37.9008C48.192 37.8935 48.212 37.8848 48.2335 37.8768C48.239 37.8768 48.2419 37.8769 48.2459 37.8708C48.2513 37.8708 48.2567 37.8647 48.262 37.8639C48.2851 37.8566 48.3082 37.8479 48.3298 37.8399C48.3298 37.8399 48.3322 37.8399 48.3334 37.8399C48.385 37.8245 48.4326 37.8054 48.4826 37.7876C48.4896 37.7876 48.4965 37.7815 48.5049 37.7815C48.5257 37.7748 48.5473 37.7673 48.5688 37.7624C48.5788 37.7563 48.5888 37.7563 48.598 37.7531C48.6203 37.7464 48.6419 37.739 48.6626 37.734C48.6719 37.734 48.6803 37.728 48.6872 37.7273C48.7588 37.7077 48.8295 37.6892 48.9011 37.672C48.9111 37.672 48.9195 37.6659 48.9303 37.6653C48.951 37.6592 48.9703 37.656 48.9926 37.6529C49.0019 37.6468 49.0126 37.6468 49.0234 37.6436C49.0441 37.6375 49.0641 37.6369 49.0865 37.6319C49.0919 37.6319 49.0948 37.6319 49.1011 37.6319C49.1442 37.6232 49.188 37.6159 49.2311 37.6079C49.2389 37.6079 49.2488 37.6079 49.2573 37.6079C49.278 37.6018 49.2965 37.6012 49.3173 37.5974C49.3287 37.5974 49.3403 37.5913 49.3511 37.5913C49.3703 37.5913 49.3896 37.5852 49.4088 37.5826C49.4188 37.5826 49.4287 37.5826 49.4403 37.5765C49.4857 37.5704 49.5326 37.568 49.5803 37.5641C49.4457 37.5512 49.3073 37.5426 49.1665 37.5426C44.7864 37.5426 38.7517 45.6696 36.0332 56.1944C36.0332 56.1944 36.2317 56.1944 36.5571 56.1944C37.4271 54.6428 38.2086 53.1751 38.9233 51.7974C40.8271 44.3427 44.7049 39.2587 48.1495 37.9118" fill="url(#paint7_linear_2_85)"/>
<path d="M50.6147 40.9074C51.1125 40.4328 51.6117 40.0059 52.1071 39.6267C51.994 39.379 51.8771 39.1497 51.7517 38.9397C51.3509 39.4259 50.9848 40.0674 50.6147 40.9074Z" fill="#0D82CA"/>
<path d="M50.9746 37.9747C51.2607 38.2147 51.5168 38.5448 51.7515 38.9402C51.8253 38.8494 51.9 38.7655 51.9776 38.687C51.6523 38.3832 51.3007 38.134 50.9192 37.9463C50.9345 37.9548 50.9499 37.9617 50.9659 37.9684C50.9659 37.9684 50.972 37.9745 50.9746 37.9745" fill="#0D82CA"/>
<path d="M38.9231 51.7983C42.917 44.102 44.8093 39.2312 48.1493 37.9127C44.7055 39.2605 40.8269 44.3444 38.9231 51.7983Z" fill="url(#paint8_linear_2_85)"/>
<path d="M51.9774 38.6868C51.8997 38.766 51.8259 38.8491 51.7512 38.9399C51.8766 39.1498 51.9935 39.3783 52.1074 39.6268C52.2551 39.5137 52.402 39.4068 52.5482 39.3022C52.3674 39.0791 52.1767 38.8722 51.9774 38.6868Z" fill="#127BCA"/>
<path d="M40.7362 56.1607C40.7116 56.1668 40.6869 56.1668 40.6639 56.1694C40.6562 56.1694 40.6546 56.1694 40.65 56.1694C40.6292 56.1694 40.6077 56.1755 40.5885 56.1755C40.5885 56.1755 40.5808 56.1755 40.5784 56.1755C40.5285 56.1816 40.4792 56.1816 40.4315 56.1854H40.4161C44.4585 56.0723 46.3062 54.0484 47.2231 51.1129C47.9201 48.8876 48.4924 47.0129 48.9939 45.4398C47.3008 47.8229 45.6 50.6637 43.89 53.8461C43.0654 55.38 41.8115 56.0207 40.7361 56.1577" fill="url(#paint9_linear_2_85)"/>
<path d="M40.7362 56.1592C41.8116 56.0222 43.0654 55.3822 43.8901 53.8476C45.6001 50.666 47.3016 47.8244 48.9932 45.4413C49.6086 43.5097 50.1163 42.0313 50.6148 40.9059C47.2432 44.1152 43.8585 49.4514 40.7362 56.1577" fill="url(#paint10_linear_2_85)"/>
<path d="M38.9229 51.7985C38.2083 53.1762 37.4267 54.6439 36.5567 56.1954C36.9329 56.1954 37.4775 56.1954 38.0806 56.1954C38.2821 54.6546 38.5683 53.1854 38.9229 51.7992" fill="#05A1E6"/>
<path d="M49.4401 37.5804C49.4278 37.5804 49.4186 37.5865 49.4078 37.5865C49.3894 37.5926 49.3701 37.5926 49.3509 37.5946C49.3395 37.5946 49.3286 37.5946 49.3171 37.6007C49.2963 37.6068 49.2771 37.6074 49.257 37.6112C49.2478 37.6112 49.2386 37.6112 49.2309 37.6173C49.187 37.6246 49.144 37.6327 49.1009 37.6401C49.0933 37.6401 49.0908 37.6401 49.0863 37.6401C49.064 37.6462 49.0439 37.6493 49.0232 37.6524C49.0124 37.6585 49.0016 37.6585 48.9916 37.6609C48.9709 37.667 48.9501 37.6696 48.9301 37.6733C48.9193 37.6794 48.9109 37.6794 48.9008 37.68C48.8293 37.6972 48.7585 37.7157 48.687 37.7354C48.6794 37.7354 48.6716 37.7415 48.6624 37.7427C48.6408 37.7488 48.6201 37.755 48.5978 37.7618C48.5885 37.7679 48.5778 37.7679 48.5685 37.7703C48.547 37.7764 48.5255 37.7826 48.5047 37.7894C48.4963 37.7894 48.4893 37.7955 48.4816 37.7955C48.4324 37.8139 48.3839 37.8324 48.3331 37.8478C48.3116 37.8545 48.2885 37.8632 48.2655 37.8712C48.2562 37.8773 48.2477 37.8786 48.237 37.8829C48.2155 37.8896 48.1939 37.8983 48.1739 37.9063C48.1663 37.9124 48.1586 37.913 48.1532 37.9162C44.8132 39.2347 42.9208 44.1055 38.9269 51.8018C38.5723 53.188 38.2854 54.6572 38.0846 56.198H38.2985C38.9008 56.198 39.0708 56.1919 39.7639 56.1919H39.7992H39.9023H39.9377H39.9477H39.9831H40.0031H40.017H40.0447H40.1308H40.217H40.2893H40.3085C40.35 56.1919 40.3923 56.1919 40.4354 56.1919C40.4831 56.1858 40.5323 56.1858 40.5823 56.182C40.5823 56.182 40.59 56.182 40.5916 56.182C40.6124 56.182 40.6331 56.1759 40.6531 56.1759C40.6608 56.1759 40.6615 56.1759 40.6677 56.1759C40.69 56.1759 40.7154 56.1698 40.74 56.1672C43.8624 49.461 47.247 44.1247 50.6186 40.9154C50.9894 40.0754 51.3548 39.4339 51.7548 38.9485C51.5209 38.5531 51.2648 38.2223 50.9786 37.9823C50.9786 37.9823 50.9708 37.9823 50.9702 37.9762C50.954 37.9695 50.9387 37.9614 50.9225 37.9534C50.9063 37.9448 50.8925 37.938 50.8756 37.9294C50.861 37.9233 50.8441 37.9153 50.8295 37.9073C50.8095 37.9012 50.7933 37.8925 50.7756 37.8845C50.761 37.8784 50.7479 37.8721 50.7333 37.866C50.7033 37.8543 50.6733 37.842 50.6448 37.8291C50.6317 37.823 50.6195 37.8198 50.6071 37.815C50.5864 37.8075 50.5625 37.7977 50.541 37.7885C50.5301 37.7824 50.5179 37.7812 50.5056 37.7767C50.4741 37.7662 50.4433 37.7552 50.414 37.7453C50.4064 37.7453 50.4064 37.7453 50.4064 37.7453C50.371 37.7336 50.3364 37.7251 50.3002 37.7152C50.2919 37.7091 50.2849 37.7091 50.2764 37.7079C50.2449 37.6992 50.2172 37.6906 50.1872 37.6826C50.1796 37.6826 50.1726 37.6766 50.1665 37.6766C50.0942 37.6575 50.0195 37.6421 49.9442 37.6279C49.9364 37.6279 49.9288 37.6219 49.9211 37.6219C49.8888 37.6158 49.8572 37.6101 49.8249 37.6064C49.8172 37.6004 49.8126 37.6004 49.8057 37.6004C49.7673 37.5943 49.7296 37.5898 49.6919 37.5856C49.6842 37.5856 49.6788 37.5856 49.6719 37.5856C49.6411 37.5795 49.6127 37.5789 49.5842 37.5757C49.5357 37.5818 49.4896 37.5844 49.4442 37.5886" fill="url(#paint11_linear_2_85)"/>
<path d="M72.1697 42.1458C71.4012 44.6074 70.7789 46.6382 70.2374 48.309C72.3458 45.4074 74.4228 41.7573 76.4005 37.545C74.0936 38.2696 72.8628 39.9282 72.1697 42.1458Z" fill="url(#paint12_linear_2_85)"/>
<path d="M70.3043 55.1091C70.1966 55.1639 70.0889 55.216 69.9827 55.2629C74.0843 53.4337 78.9767 46.1782 81.319 37.145H80.8444C75.4628 46.7582 73.732 53.1937 70.3043 55.1091Z" fill="url(#paint13_linear_2_85)"/>
<path d="M67.626 54.3015C68.5183 53.2122 69.2452 51.3607 70.2376 48.3091C69.0929 49.8814 67.9406 51.233 66.7875 52.3353C66.7875 52.3414 66.7875 52.3414 66.7814 52.3452C67.033 53.0991 67.3091 53.7644 67.6238 54.3013" fill="#079AE1"/>
<path d="M67.626 54.3015C67.3221 54.6723 67.0006 54.9546 66.6429 55.1639C66.5644 55.2094 66.4852 55.2523 66.4044 55.2916C66.7821 55.4954 67.1944 55.6316 67.6559 55.6862C67.7236 55.6929 67.7905 55.6991 67.8606 55.704H67.8729C67.9043 55.704 67.9375 55.704 67.9714 55.7101H67.985C68.0188 55.7101 68.0527 55.7101 68.0858 55.7101C68.1221 55.7101 68.1581 55.7101 68.1942 55.7101C68.206 55.7101 68.217 55.7101 68.2281 55.7101C68.2527 55.7101 68.2792 55.7101 68.305 55.7101C68.3174 55.7101 68.3302 55.7101 68.3426 55.704C68.3666 55.704 68.3918 55.704 68.4164 55.6979C68.4225 55.6979 68.4225 55.6979 68.4251 55.6979C68.435 55.6979 68.4435 55.6979 68.4528 55.6979C68.478 55.6979 68.5057 55.6918 68.5328 55.6892H68.5389C68.5469 55.6892 68.5555 55.6831 68.5635 55.6831C68.5918 55.677 68.6213 55.6744 68.6489 55.6702C68.6582 55.6702 68.6649 55.6702 68.6741 55.6702C68.7055 55.6641 68.738 55.6603 68.7703 55.6542H68.7764C68.7825 55.6542 68.7831 55.6542 68.7856 55.6542C68.8503 55.6418 68.9133 55.6296 68.9772 55.6136C68.4479 55.4197 68.0048 54.9628 67.6233 54.312" fill="#1969BC"/>
<path d="M60.0642 55.71C60.4481 55.71 60.8358 55.6725 61.225 55.5977C61.585 55.5324 61.9458 55.4323 62.3073 55.3062C62.6081 55.4531 62.9235 55.5623 63.2573 55.63C63.5166 55.683 63.7858 55.71 64.0681 55.71H60.0642Z" fill="#1E5CB3"/>
<path d="M64.0682 55.7101C65.0159 55.7101 65.7667 55.5978 66.4044 55.2916C66.7821 55.4955 67.1944 55.6316 67.6559 55.6863C67.7236 55.693 67.7906 55.6992 67.8606 55.7041H67.8729C67.9043 55.7041 67.9375 55.7041 67.9714 55.7102H67.9855C68.0194 55.7102 68.0532 55.7102 68.0863 55.7102H64.0655L64.0682 55.7101Z" fill="#1E5CB3"/>
<path d="M68.0887 55.71C68.1257 55.71 68.1619 55.71 68.198 55.71C68.2085 55.71 68.2207 55.71 68.2318 55.71C68.2564 55.71 68.2817 55.71 68.308 55.71C68.321 55.71 68.3332 55.71 68.3456 55.7039C68.3696 55.7039 68.3948 55.7039 68.4202 55.6978C68.4263 55.6978 68.4263 55.6978 68.4283 55.6978C68.4382 55.6978 68.4473 55.6978 68.4566 55.6978C68.4818 55.6978 68.5095 55.6917 68.5358 55.6893C68.5358 55.6893 68.5419 55.6893 68.5426 55.6893C68.5506 55.6893 68.5586 55.6832 68.5666 55.6832C68.5949 55.6771 68.6244 55.6747 68.6519 55.6703C68.6612 55.6703 68.6685 55.6703 68.6784 55.6642C68.7098 55.6581 68.7423 55.6549 68.7746 55.6488H68.7807C68.7867 55.6488 68.7874 55.6488 68.79 55.6488C68.8546 55.6364 68.9177 55.6242 68.9815 55.6082C69.1668 55.6766 69.3599 55.7112 69.5684 55.7112L68.0899 55.7173L68.0887 55.71Z" fill="#1D60B5"/>
<path d="M66.7839 52.3453V52.3392C66.3616 52.7431 65.94 53.1131 65.5192 53.4477C65.2992 53.6223 65.08 53.7877 64.8585 53.9439C65.0439 54.1654 65.2323 54.3731 65.4308 54.5624C65.7324 54.8546 66.0546 55.1008 66.4062 55.2908C66.4862 55.2514 66.5662 55.2084 66.6439 55.1631C67.0023 54.9539 67.3239 54.6716 67.6278 54.3008C67.3131 53.7639 67.037 53.0985 66.7854 52.3446" fill="#175FAB"/>
<path d="M79.3413 37.145H77.3459C77.2789 37.145 77.2128 37.145 77.1474 37.145C77.0836 37.145 77.022 37.145 76.9597 37.145H76.9524C76.8232 37.1511 76.6978 37.1555 76.574 37.1635C76.5155 37.2889 76.4555 37.4143 76.3978 37.5405C74.4201 41.7528 72.3431 45.4029 70.2347 48.3045C69.2431 51.356 68.5154 53.2076 67.6231 54.2968C68.0046 54.9476 68.4485 55.4053 68.9762 55.5991C68.9916 55.593 69.0039 55.5931 69.0177 55.5898C69.0177 55.5898 69.0253 55.5898 69.0262 55.5898C69.0355 55.5898 69.0454 55.5837 69.0555 55.5837C69.077 55.5777 69.1001 55.5738 69.1216 55.5671C69.1355 55.561 69.147 55.5604 69.1609 55.556C69.1809 55.5499 69.2016 55.5455 69.2201 55.5406C69.2324 55.5345 69.2447 55.5325 69.257 55.5301C69.2878 55.5202 69.3155 55.5129 69.3447 55.5036C69.3586 55.4975 69.3732 55.4925 69.3886 55.4889C69.4055 55.4828 69.4224 55.4783 69.4378 55.471C69.4555 55.4649 69.4732 55.4617 69.4886 55.455C69.5025 55.4489 69.517 55.4451 69.5301 55.4396C69.5647 55.4273 69.5986 55.4169 69.6332 55.4033C69.6425 55.4033 69.6517 55.3948 69.6617 55.3928C69.6824 55.3841 69.704 55.3774 69.7248 55.3682C69.7324 55.3621 69.7417 55.3615 69.7517 55.3583C69.824 55.3281 69.8986 55.2973 69.9732 55.2637H69.981C70.0871 55.2169 70.1948 55.1644 70.3018 55.1098C73.7303 53.1944 75.4611 46.7589 80.8427 37.1458H79.3396L79.3413 37.145Z" fill="url(#paint14_linear_2_85)"/>
<path d="M49.5803 37.5674C49.5888 37.5674 49.5965 37.5674 49.6049 37.5735C49.6256 37.5735 49.6464 37.5735 49.6672 37.5802C49.675 37.5802 49.6818 37.5802 49.688 37.5802C49.7257 37.5863 49.7634 37.5895 49.8019 37.595C49.8089 37.595 49.815 37.595 49.8211 37.6011C49.8526 37.6072 49.8849 37.6122 49.9172 37.6171C49.9242 37.6171 49.9334 37.6232 49.9411 37.6232C50.0149 37.638 50.0903 37.6534 50.1626 37.6724C50.1695 37.6724 50.1765 37.6785 50.1826 37.6785C50.2134 37.6859 50.2411 37.6952 50.2719 37.7038C50.2811 37.7038 50.288 37.7099 50.2965 37.7112C50.3327 37.7205 50.3665 37.7297 50.4019 37.7414C50.4034 37.7414 50.4055 37.7414 50.4096 37.7475C50.4396 37.7566 50.4704 37.7684 50.5019 37.7789C50.5143 37.785 50.5258 37.7876 50.5373 37.7906C50.5589 37.7999 50.5828 37.809 50.6035 37.8177C50.6158 37.8177 50.6281 37.8262 50.6411 37.8306C50.6696 37.8436 50.6996 37.8552 50.7288 37.8676C50.7442 37.8736 50.7573 37.8805 50.7719 37.886C50.7888 37.8947 50.8065 37.9026 50.825 37.9088C50.8404 37.9161 50.8573 37.9242 50.8719 37.9309C50.888 37.9396 50.9034 37.9463 50.9188 37.9549C51.3004 38.1426 51.6519 38.3926 51.9773 38.6957C52.0973 38.5696 52.2227 38.4565 52.3527 38.3549C51.6411 37.8503 50.835 37.5626 49.905 37.5626C49.7973 37.5626 49.6896 37.5687 49.5803 37.5768" fill="#7DCBEC"/>
<path d="M51.9774 38.6869C52.1766 38.8722 52.3674 39.0792 52.5482 39.3023C52.7228 39.1807 52.8959 39.0638 53.0697 38.9546C52.842 38.7269 52.602 38.5223 52.352 38.3461C52.222 38.4469 52.0974 38.5607 51.9774 38.6869Z" fill="#5EC5ED"/>
<path d="M49.5801 37.5674C49.6894 37.5581 49.7971 37.5543 49.9048 37.5543C50.8348 37.5543 51.6409 37.842 52.3525 38.3458C53.1033 37.7535 54.011 37.5466 55.2718 37.5466H49.1663C49.3071 37.5466 49.4448 37.555 49.5801 37.5674Z" fill="url(#paint15_linear_2_85)"/>
<path d="M55.2718 37.5466C54.011 37.5466 53.1033 37.7536 52.3525 38.3459C52.6017 38.522 52.8417 38.7267 53.0694 38.9543C54.1148 38.2897 55.1502 37.8497 56.171 37.6574C56.5602 37.5843 56.9487 37.5466 57.3318 37.5466H55.2718Z" fill="url(#paint16_linear_2_85)"/>
<path d="M70.2373 48.3106C70.7797 46.6382 71.4004 44.6083 72.1704 42.1459C72.8643 39.9274 74.0928 38.2689 76.3997 37.5451C76.4607 37.4212 76.5182 37.2935 76.5775 37.1681C72.8166 37.3935 71.0589 39.3066 70.1743 42.1397C68.6273 47.086 67.6904 50.2922 66.7881 52.3353C67.9404 51.2337 69.0927 49.8814 70.2373 48.3106Z" fill="url(#paint17_linear_2_85)"/>
</g>
<defs>
<linearGradient id="paint0_linear_2_85" x1="56.9354" y1="37.4255" x2="56.9354" y2="60.2423" gradientUnits="userSpaceOnUse">
<stop stop-color="#0994DC"/>
<stop offset="0.350006" stop-color="#66CEF5"/>
<stop offset="0.846161" stop-color="#127BCA"/>
<stop offset="1" stop-color="#127BCA"/>
</linearGradient>
<linearGradient id="paint1_linear_2_85" x1="57.8053" y1="36.8478" x2="57.8053" y2="60.246" gradientUnits="userSpaceOnUse">
<stop stop-color="#0E76BC"/>
<stop offset="0.360001" stop-color="#36AEE8"/>
<stop offset="0.846161" stop-color="#00ADEF"/>
<stop offset="1" stop-color="#00ADEF"/>
</linearGradient>
<linearGradient id="paint2_linear_2_85" x1="62.5079" y1="55.1842" x2="62.5079" y2="36.5666" gradientUnits="userSpaceOnUse">
<stop stop-color="#1C63B7"/>
<stop offset="0.5" stop-color="#33BDF2"/>
<stop offset="1" stop-color="#33BDF2" stop-opacity="0.419608"/>
</linearGradient>
<linearGradient id="paint3_linear_2_85" x1="61.2842" y1="34.477" x2="61.2842" y2="58.7704" gradientUnits="userSpaceOnUse">
<stop stop-color="#166AB8"/>
<stop offset="0.399994" stop-color="#36AEE8"/>
<stop offset="0.846161" stop-color="#0798DD"/>
<stop offset="1" stop-color="#0798DD"/>
</linearGradient>
<linearGradient id="paint4_linear_2_85" x1="59.3693" y1="34.6047" x2="59.3693" y2="60.4375" gradientUnits="userSpaceOnUse">
<stop stop-color="#124379"/>
<stop offset="0.389999" stop-color="#1487CB"/>
<stop offset="0.780228" stop-color="#165197"/>
<stop offset="1" stop-color="#165197"/>
</linearGradient>
<linearGradient id="paint5_linear_2_85" x1="48.9939" y1="42.5347" x2="52.6463" y2="42.5347" gradientUnits="userSpaceOnUse">
<stop stop-color="#33BDF2" stop-opacity="0.698039"/>
<stop offset="1" stop-color="#1DACD8"/>
</linearGradient>
<linearGradient id="paint6_linear_2_85" x1="76.4241" y1="54.7177" x2="76.4241" y2="36.5816" gradientUnits="userSpaceOnUse">
<stop stop-color="#136AB4"/>
<stop offset="0.6" stop-color="#59CAF5" stop-opacity="0.54902"/>
<stop offset="1" stop-color="#59CAF5" stop-opacity="0.235294"/>
</linearGradient>
<linearGradient id="paint7_linear_2_85" x1="36.0331" y1="46.8684" x2="49.5802" y2="46.8684" gradientUnits="userSpaceOnUse">
<stop stop-color="#05A1E6" stop-opacity="0.247059"/>
<stop offset="1" stop-color="#05A1E6"/>
</linearGradient>
<linearGradient id="paint8_linear_2_85" x1="43.5361" y1="55.1744" x2="43.5361" y2="36.6045" gradientUnits="userSpaceOnUse">
<stop stop-color="#318ED5"/>
<stop offset="1" stop-color="#38A7E4"/>
</linearGradient>
<linearGradient id="paint9_linear_2_85" x1="44.7049" y1="55.2398" x2="44.7049" y2="37.1888" gradientUnits="userSpaceOnUse">
<stop stop-color="#05A1E6"/>
<stop offset="1" stop-color="#05A1E6" stop-opacity="0.54902"/>
</linearGradient>
<linearGradient id="paint10_linear_2_85" x1="45.6755" y1="56.1608" x2="45.6755" y2="40.9074" gradientUnits="userSpaceOnUse">
<stop stop-color="#1959A6"/>
<stop offset="0.5" stop-color="#05A1E6"/>
<stop offset="0.917587" stop-color="#7EC5EA"/>
<stop offset="1" stop-color="#7EC5EA"/>
</linearGradient>
<linearGradient id="paint11_linear_2_85" x1="46.2599" y1="55.1864" x2="43.3437" y2="38.6474" gradientUnits="userSpaceOnUse">
<stop stop-color="#165096"/>
<stop offset="1" stop-color="#0D82CA"/>
</linearGradient>
<linearGradient id="paint12_linear_2_85" x1="73.3186" y1="45.8331" x2="73.3186" y2="37.1899" gradientUnits="userSpaceOnUse">
<stop stop-color="#05A1E6"/>
<stop offset="0.873627" stop-color="#0495D6"/>
<stop offset="1" stop-color="#0495D6"/>
</linearGradient>
<linearGradient id="paint13_linear_2_85" x1="77.3812" y1="36.3911" x2="73.8668" y2="56.3217" gradientUnits="userSpaceOnUse">
<stop stop-color="#38A7E4" stop-opacity="0.329412"/>
<stop offset="0.961533" stop-color="#0E88D3"/>
<stop offset="1" stop-color="#0E88D3"/>
</linearGradient>
<linearGradient id="paint14_linear_2_85" x1="74.2351" y1="37.0904" x2="74.2351" y2="55.9464" gradientUnits="userSpaceOnUse">
<stop stop-color="#168CD4"/>
<stop offset="0.5" stop-color="#1C87CC"/>
<stop offset="1" stop-color="#154B8D"/>
</linearGradient>
<linearGradient id="paint15_linear_2_85" x1="50.1843" y1="36.7029" x2="54.5277" y2="38.5044" gradientUnits="userSpaceOnUse">
<stop stop-color="#97D6EE"/>
<stop offset="0.703293" stop-color="#55C1EA"/>
<stop offset="1" stop-color="#55C1EA"/>
</linearGradient>
<linearGradient id="paint16_linear_2_85" x1="52.6956" y1="38.8657" x2="56.1259" y2="37.3105" gradientUnits="userSpaceOnUse">
<stop stop-color="#7ACCEC"/>
<stop offset="1" stop-color="#3FB7ED"/>
</linearGradient>
<linearGradient id="paint17_linear_2_85" x1="71.6824" y1="38.1332" x2="71.6824" y2="56.5762" gradientUnits="userSpaceOnUse">
<stop stop-color="#1DA7E7"/>
<stop offset="1" stop-color="#37ABE7" stop-opacity="0"/>
</linearGradient>
<clipPath id="clip0_2_85">
<rect width="48" height="45.7141" fill="white" transform="translate(36 37.1429)"/>
</clipPath>
</defs>
</svg>
