<svg width="120" height="120" viewBox="0 0 120 120" fill="none" xmlns="http://www.w3.org/2000/svg">
<rect x="0.5" y="0.5" width="119" height="119" rx="59.5" stroke="#666666"/>
<g clip-path="url(#clip0_2_177)">
<path d="M58.4282 36.0129C58.3249 36.0223 57.9965 36.0551 57.7009 36.0786C50.8833 36.6932 44.4974 40.3712 40.4528 46.0243C38.2006 49.1676 36.7601 52.733 36.2158 56.5096C36.0235 57.8279 36 58.2173 36 60.0047C36 61.7921 36.0235 62.1815 36.2158 63.4998C37.5202 72.512 43.9343 80.0839 52.6334 82.8893C54.1912 83.3913 55.8334 83.7338 57.7009 83.9402C58.4282 84.0199 61.5718 84.0199 62.2991 83.9402C65.5226 83.5836 68.2534 82.7861 70.9466 81.4115C71.3595 81.2004 71.4393 81.1441 71.383 81.0972C71.3455 81.0691 69.5859 78.7093 67.4745 75.8569L63.6364 70.6729L58.827 63.5561C56.1806 59.6435 54.0035 56.4439 53.9848 56.4439C53.966 56.4392 53.9472 59.6012 53.9378 63.4623C53.9238 70.2226 53.9191 70.4947 53.8346 70.6542C53.7126 70.884 53.6188 70.9779 53.4217 71.0811C53.2716 71.1561 53.1402 71.1702 52.4317 71.1702H51.6199L51.4041 71.0342C51.2633 70.945 51.1601 70.8277 51.0897 70.6917L50.9912 70.4806L51.0006 61.0743L51.0147 51.6634L51.1601 51.4804C51.2352 51.3819 51.3947 51.2553 51.5073 51.1943C51.6997 51.1004 51.7748 51.0911 52.5865 51.0911C53.5437 51.0911 53.7032 51.1286 53.9519 51.4007C54.0223 51.4757 56.6264 55.3978 59.7419 60.122C62.8575 64.8462 67.1179 71.2969 69.2106 74.4636L73.0111 80.2199L73.2035 80.0932C74.9067 78.9861 76.7085 77.4098 78.1349 75.7678C81.1707 72.2821 83.1273 68.0317 83.7842 63.4998C83.9765 62.1815 84 61.7921 84 60.0047C84 58.2173 83.9765 57.8279 83.7842 56.5096C82.4798 47.4974 76.0657 39.9255 67.3666 37.1201C65.8323 36.6228 64.1994 36.2803 62.3695 36.0739C61.9191 36.027 58.8176 35.9754 58.4282 36.0129ZM68.2534 50.5281C68.4786 50.6407 68.6616 50.8565 68.7273 51.0817C68.7648 51.2036 68.7742 53.8121 68.7648 59.6904L68.7507 68.1255L67.2633 65.8455L65.7713 63.5655V57.4338C65.7713 53.4696 65.79 51.2412 65.8182 51.1333C65.8933 50.8706 66.0575 50.6641 66.2827 50.5422C66.4751 50.4436 66.5455 50.4343 67.2821 50.4343C67.9765 50.4343 68.0985 50.4436 68.2534 50.5281Z" fill="white"/>
</g>
<defs>
<clipPath id="clip0_2_177">
<rect width="48" height="48" fill="white" transform="translate(36 36)"/>
</clipPath>
</defs>
</svg>
