<svg width="155" height="70" viewBox="0 0 155 70" fill="none" xmlns="http://www.w3.org/2000/svg">
<g clip-path="url(#clip0_2_15693)">
<path d="M23.9013 69.9999C22.8051 69.9999 21.7435 69.4029 21.2069 68.363L0.338107 28.066C-0.429275 26.5846 0.153482 24.7701 1.64207 24.0064C3.1306 23.2427 4.95384 23.8226 5.72122 25.3041L26.59 65.6074C27.3573 67.0888 26.7746 68.9028 25.2861 69.6667C24.8418 69.8963 24.3687 69.9999 23.9013 69.9999Z" fill="white"/>
<path d="M39.4326 70C38.1349 70 36.9635 69.1728 36.5539 67.9215L25.857 35.3412V36.9662C25.857 38.6314 24.5011 39.9808 22.8279 39.9808C21.1547 39.9808 19.7988 38.6314 19.7988 36.9662V16.4099C19.7988 14.9284 20.8835 13.6652 22.349 13.4355C23.8203 13.2001 25.2396 14.0671 25.7012 15.4739L37.8926 52.6075L43.1487 2.69801C43.3217 1.04431 44.816 -0.155794 46.4778 0.016448C48.1396 0.188757 49.3512 1.67593 49.1721 3.32963L42.4386 67.3009C42.2892 68.7137 41.1699 69.8331 39.7443 69.9825C39.6346 69.9939 39.5309 70 39.4212 70H39.4326Z" fill="url(#paint0_linear_2_15693)"/>
<path d="M39.4326 70C38.1349 70 36.9635 69.1728 36.5539 67.9215L25.857 35.3412V36.9662C25.857 38.6314 24.5011 39.9808 22.8279 39.9808C21.1547 39.9808 19.7988 38.6314 19.7988 36.9662V16.4099C19.7988 14.9284 20.8835 13.6652 22.349 13.4355C23.8203 13.2001 25.2396 14.0671 25.7012 15.4739L37.8926 52.6075L43.1487 2.69801C43.3217 1.04431 44.816 -0.155794 46.4778 0.016448C48.1396 0.188757 49.3512 1.67593 49.1721 3.32963L42.4386 67.3009C42.2892 68.7137 41.1699 69.8331 39.7443 69.9825C39.6346 69.9939 39.5309 70 39.4212 70H39.4326Z" fill="white"/>
<path d="M64.6933 54.1523H65.9277L63.1008 60.968H61.8663L59.0273 54.1523H60.2624L61.416 56.9833L62.4721 59.6413L64.6933 54.1523Z" fill="white"/>
<path d="M71.1249 59.9287H75.0887V60.968H69.9941V54.1523H75.0315V55.1855H71.131V57.0062H74.8699V58.0165H71.131V59.9227L71.1249 59.9287Z" fill="white"/>
<path d="M84.3207 54.1523H85.4636V60.968H84.4251L80.7265 56.0989L80.7379 58.2696V60.968H79.5957V54.1523H80.6343L84.3322 59.0214L84.3207 56.9887V54.1577V54.1523Z" fill="white"/>
<path d="M95.1907 54.1523V55.203H92.9689V60.968H91.8266V55.203H89.6055V54.1523H95.1907Z" fill="white"/>
<path d="M100.619 60.7438C100.175 60.5029 99.8346 60.1643 99.5983 59.716C99.3614 59.2738 99.2402 58.7461 99.2402 58.1431V54.1523H100.377V58.1256C100.377 58.7172 100.539 59.1877 100.868 59.5323C101.191 59.8769 101.629 60.0553 102.178 60.0553C102.725 60.0553 103.164 59.883 103.487 59.5323C103.81 59.1823 103.977 58.7172 103.977 58.1256V54.1523H105.114V58.1431C105.114 58.7461 104.993 59.2684 104.756 59.716C104.52 60.1583 104.179 60.5029 103.735 60.7438C103.291 60.9855 102.771 61.106 102.178 61.106C101.583 61.106 101.064 60.9855 100.619 60.7438Z" fill="white"/>
<path d="M112.367 58.6425H110.976V60.968H109.834V54.1523H113.042C113.527 54.1523 113.948 54.2439 114.317 54.4276C114.686 54.6114 114.969 54.8759 115.165 55.2145C115.361 55.553 115.465 55.9495 115.465 56.3971C115.465 56.9598 115.309 57.437 114.992 57.8159C114.675 58.2003 114.242 58.4473 113.693 58.5678L115.777 60.9619H114.352L112.367 58.6364V58.6425ZM113.988 55.5248C113.757 55.3121 113.44 55.203 113.036 55.203H110.97V57.5972H113.036C113.44 57.5972 113.757 57.4942 113.988 57.2815C114.218 57.0695 114.334 56.776 114.334 56.4031C114.334 56.0296 114.218 55.7428 113.988 55.5248Z" fill="white"/>
<path d="M121.148 59.9287H125.112V60.968H120.018V54.1523H125.054V55.1855H121.154V57.0062H124.893V58.0165H121.154V59.9227L121.148 59.9287Z" fill="white"/>
<path d="M130.542 60.8588C130.04 60.6919 129.59 60.4569 129.191 60.1527L129.786 59.2965C130.074 59.5382 130.42 59.7273 130.83 59.8592C131.24 59.9918 131.656 60.0666 132.076 60.0666C132.573 60.0666 132.971 59.9743 133.271 59.7906C133.571 59.6068 133.721 59.3598 133.721 59.0556C133.721 58.7742 133.583 58.5562 133.311 58.3953C133.04 58.2344 132.601 58.1139 132.013 58.0338C131.078 57.9012 130.404 57.6778 129.988 57.35C129.572 57.0229 129.365 56.5638 129.365 55.9668C129.365 55.5879 129.48 55.2547 129.7 54.9619C129.924 54.6691 130.236 54.4335 130.64 54.2727C131.044 54.1118 131.499 54.0256 132.013 54.0256C132.469 54.0256 132.919 54.1003 133.363 54.2498C133.807 54.3992 134.2 54.6058 134.546 54.8697L133.969 55.6794C133.686 55.4667 133.381 55.3005 133.04 55.1914C132.699 55.0824 132.359 55.0245 132.024 55.0245C131.575 55.0245 131.205 55.1167 130.916 55.2944C130.628 55.4728 130.484 55.7023 130.484 55.9836C130.484 56.265 130.617 56.4716 130.876 56.6385C131.136 56.8048 131.557 56.9253 132.129 57.006C133.098 57.1494 133.801 57.3789 134.234 57.6946C134.667 58.011 134.88 58.4586 134.88 59.0327C134.88 59.446 134.765 59.8135 134.534 60.1292C134.303 60.4455 133.975 60.6865 133.554 60.8588C133.127 61.0311 132.642 61.1172 132.088 61.1172C131.569 61.1172 131.055 61.0365 130.553 60.8702L130.542 60.8588Z" fill="white"/>
<path d="M64.4052 22.7894C64.4052 26.6193 58.5723 26.6193 58.5723 22.7894C58.5723 18.9595 64.4052 18.9595 64.4052 22.7894ZM59.0219 28.3132V48.2608H63.961V28.3074H59.0219V28.3132Z" fill="white"/>
<path d="M88.3429 20.0849V48.2551H83.7276L83.4045 45.5162C81.8638 47.8933 79.3943 48.6973 76.9651 48.6973C71.0918 48.6973 66.6777 44.8271 66.6777 38.2985C66.6777 31.4483 71.011 27.8997 76.844 27.8997C78.9501 27.8997 82.2273 29.0309 83.4045 31.0808V20.0791H88.3429V20.0849ZM71.6168 38.3042C71.6168 41.7724 74.1268 44.1496 77.2882 44.1496C80.4504 44.1496 83.0814 41.893 83.0814 38.3042C83.0814 34.7155 80.41 32.499 77.2882 32.499C74.1671 32.499 71.6168 34.7155 71.6168 38.3042Z" fill="white"/>
<path d="M96.479 40.0786C96.8021 42.5361 98.9485 44.3104 102.433 44.3104C104.257 44.3104 106.645 43.6271 107.776 42.4557L110.932 45.5564C108.826 47.7326 105.382 48.7834 102.347 48.7834C95.464 48.7834 91.373 44.5515 91.373 38.1837C91.373 31.8158 95.5044 27.7849 101.984 27.7849C108.463 27.7849 112.836 31.8962 112.069 40.0786H96.479ZM107.332 36.0075C107.009 33.4293 104.983 32.1373 102.15 32.1373C99.4796 32.1373 97.2927 33.4293 96.5597 36.0075H107.332Z" fill="white"/>
<path d="M130.901 28.3879H135.638V48.2552H130.981L130.739 45.3555C129.603 47.6925 126.487 48.8237 124.26 48.8639C118.346 48.9041 113.973 45.2751 113.973 38.3044C113.973 31.3336 118.548 27.8654 124.381 27.9056C127.053 27.9056 129.603 29.1574 130.739 31.1326L130.901 28.3937V28.3879ZM118.912 38.3044C118.912 42.0941 121.543 44.3507 124.825 44.3507C132.603 44.3507 132.603 32.2982 124.825 32.2982C121.543 32.2982 118.912 34.5146 118.912 38.3044Z" fill="white"/>
<path d="M154.058 28.3879V30.725L144.867 43.4204H154.139V48.2552H137.332V46.1996L146.886 32.8609H138.059V28.3879H154.053H154.058Z" fill="white"/>
</g>
<defs>
<linearGradient id="paint0_linear_2_15693" x1="34.4941" y1="70" x2="34.4941" y2="-0.000784406" gradientUnits="userSpaceOnUse">
<stop stop-color="#EC1C24"/>
<stop offset="1" stop-color="#2E3191"/>
</linearGradient>
<clipPath id="clip0_2_15693">
<rect width="155" height="70" fill="white"/>
</clipPath>
</defs>
</svg>
