<svg width="80" height="80" viewBox="0 0 80 80" fill="none" xmlns="http://www.w3.org/2000/svg">
<g clip-path="url(#clip0_276_33)">
<path d="M72.8121 63.2986C72.8123 60.3517 71.6892 57.5154 69.6714 55.3676C67.6536 53.2198 64.893 51.9219 61.9517 51.7384C59.0105 51.5549 56.1099 52.4995 53.8408 54.3798C51.5716 56.2602 50.1047 58.9348 49.7386 61.859C48.6153 61.3294 47.3892 61.0537 46.1474 61.0515C45.2512 61.0513 44.3608 61.1953 43.5103 61.478C42.5648 60.1362 41.3447 59.0108 39.9311 58.1765C40.2462 57.2361 40.4129 56.2525 40.4253 55.2608C40.4262 54.4596 40.2462 53.6685 39.8989 52.9465C40.3136 52.4599 40.5413 51.8415 40.5411 51.2022V47.7838H40.5567C40.7365 47.7832 40.9133 47.738 41.0713 47.6524C44.1161 47.3208 47.6466 47.9961 51.8328 49.7121C52.0118 49.7854 52.207 49.81 52.3985 49.7834C52.5901 49.7567 52.7712 49.6797 52.9233 49.5603C53.0754 49.4408 53.1931 49.2832 53.2644 49.1034C53.3357 48.9236 53.3581 48.7282 53.3292 48.5369C52.2728 41.5369 49.4808 35.9346 45.0278 31.8757C45.1178 30.6116 45.1632 29.341 45.1639 28.064C45.1639 18.9279 42.8306 10.0529 38.5939 3.07427C38.2276 2.46725 37.7107 1.96515 37.0933 1.61663C36.4758 1.2681 35.7789 1.08496 35.0699 1.08496C34.3609 1.08496 33.6639 1.2681 33.0465 1.61663C32.4291 1.96515 31.9121 2.46725 31.5458 3.07427C27.3091 10.0529 24.9757 18.9279 24.9757 28.064C24.9757 29.3394 25.021 30.6099 25.1117 31.8757C20.6586 35.9346 17.8669 41.5366 16.8103 48.5369C16.7815 48.7282 16.8039 48.9236 16.8752 49.1034C16.9465 49.2832 17.0642 49.4408 17.2163 49.5603C17.3684 49.6797 17.5495 49.7567 17.741 49.7834C17.9326 49.81 18.1278 49.7854 18.3067 49.7121C22.493 47.9958 26.0238 47.3207 29.0682 47.6524C29.2263 47.738 29.4032 47.7832 29.583 47.7838H29.5986V51.2022C29.5984 51.8421 29.8265 52.4611 30.2419 52.9479C29.894 53.6691 29.7137 54.4596 29.7144 55.2604C29.7225 56.2558 29.8791 57.2444 30.1789 58.1936C28.7776 59.026 27.5679 60.1451 26.6292 61.4776C25.7788 61.1949 24.8884 61.0509 23.9922 61.051C20.1953 61.051 16.8233 63.5813 15.1797 67.578C14.8934 67.5374 14.6046 67.517 14.3155 67.5169C11.8792 67.5169 9.32737 69.0038 7.96534 71.2168C7.47203 72.0419 7.20407 72.982 7.18824 73.9432C7.17242 74.9044 7.4093 75.8529 7.87518 76.6938C8.65253 78.0844 9.97503 78.9151 11.4133 78.9151H58.7258C59.2577 78.9109 59.7832 78.7977 60.2696 78.5824C60.7561 78.3671 61.1932 78.0543 61.5539 77.6633C62.2936 76.8587 62.7642 75.8436 62.9005 74.7591C65.6521 74.3543 68.1667 72.9744 69.986 70.8708C71.8053 68.7671 72.8083 66.0799 72.8121 63.2986ZM31.9016 55.2608C31.9011 54.7894 32.0067 54.3239 32.2105 53.8988C32.2402 53.8997 32.2692 53.9032 32.2991 53.9032H37.8396C37.8699 53.9032 37.8992 53.8997 37.9292 53.8986C38.1324 54.324 38.2377 54.7895 38.2372 55.2608C38.2372 58.0557 36.1997 60.9819 35.0497 62.4115C33.9024 61.0405 31.9016 58.224 31.9016 55.2608ZM50.8336 46.9872C47.6544 45.8576 44.8082 45.3286 42.2222 45.3861C43.4576 41.9189 44.3061 38.3257 44.7521 34.6721C47.7964 37.8908 49.8025 41.9485 50.8336 46.9872ZM33.4152 4.20943C33.5865 3.92367 33.8289 3.68717 34.1188 3.52297C34.4087 3.35877 34.7362 3.27246 35.0694 3.27246C35.4026 3.27246 35.7301 3.35877 36.02 3.52297C36.3099 3.68717 36.5523 3.92367 36.7236 4.20943C40.7556 10.8501 42.976 19.3224 42.976 28.064C42.976 34.1944 41.8841 40.2385 39.8133 45.5963H30.3255C28.2547 40.2385 27.1627 34.1944 27.1627 28.064C27.1627 19.3224 29.3832 10.8507 33.4152 4.20943ZM19.3058 46.9874C20.3371 41.9483 22.3425 37.8911 25.3874 34.6716C25.8333 38.3254 26.6818 41.9187 27.9172 45.3861C25.3307 45.3283 22.4839 45.8574 19.3052 46.9874H19.3058ZM38.3536 47.7843V51.2027C38.3535 51.3388 38.2993 51.4693 38.2031 51.5656C38.1068 51.6618 37.9763 51.716 37.8402 51.7161H32.2991C32.163 51.716 32.0325 51.6618 31.9363 51.5656C31.84 51.4693 31.7859 51.3388 31.7858 51.2027V47.7838L38.3536 47.7843ZM58.7253 76.728H11.4133C10.4986 76.728 9.96971 75.9582 9.78487 75.6272C9.50576 75.1271 9.36289 74.5624 9.37054 73.9897C9.37819 73.417 9.5361 72.8563 9.82846 72.3638C10.9525 70.5371 12.9425 69.7049 14.3155 69.7049C14.7314 69.7053 15.1448 69.7705 15.5407 69.8982C15.8161 69.9865 16.1153 69.9621 16.3729 69.8303C16.6304 69.6986 16.8252 69.4701 16.9147 69.1951C18.0925 65.5766 20.8707 63.2388 23.9919 63.2388C24.8918 63.2403 25.7807 63.4359 26.5982 63.8122C26.8406 63.9225 27.115 63.9405 27.3698 63.8628C27.6246 63.7851 27.8423 63.6171 27.9821 63.3904C28.7405 62.1287 29.7746 61.055 31.0069 60.2497C31.8657 61.9416 32.9788 63.4919 34.3072 64.8466C34.5113 65.0452 34.7847 65.1563 35.0694 65.1565H35.0877C35.2317 65.154 35.3738 65.1232 35.5059 65.0657C35.6379 65.0082 35.7573 64.9252 35.8572 64.8215C37.1345 63.4398 38.2193 61.892 39.0824 60.2201C40.3363 61.0282 41.388 62.1133 42.1566 63.3919C42.2963 63.6187 42.514 63.7867 42.7688 63.8644C43.0236 63.942 43.298 63.9241 43.5405 63.8138C44.3579 63.4375 45.2469 63.2419 46.1467 63.2404C47.411 63.249 48.6447 63.6299 49.6936 64.3357C49.9466 67.1163 51.194 69.7123 53.207 71.6472C55.22 73.5821 57.8633 74.7259 60.6517 74.8686C60.5353 75.3483 60.3003 75.7911 59.9683 76.1565C59.8113 76.3317 59.62 76.4729 59.4061 76.5712C59.1923 76.6696 58.9606 76.7229 58.7253 76.728ZM61.2285 72.6943C59.3702 72.6942 57.5537 72.1431 56.0087 71.1106C54.4636 70.0781 53.2594 68.6107 52.5484 66.8939C51.8373 65.177 51.6513 63.2879 52.0139 61.4654C52.3765 59.6428 53.2714 57.9687 54.5854 56.6548C55.8994 55.3408 57.5735 54.446 59.3961 54.0835C61.2187 53.721 63.1078 53.9071 64.8246 54.6183C66.5414 55.3294 68.0088 56.5337 69.0411 58.0788C70.0735 59.6239 70.6246 61.4404 70.6246 63.2986C70.6217 65.7897 69.6309 68.178 67.8694 69.9394C66.1079 71.7008 63.7196 72.6916 61.2285 72.6943ZM64.9796 64.9832C65.1001 65.6854 64.9947 66.4078 64.6785 67.0463C64.3623 67.6847 63.8516 68.2064 63.22 68.5361C62.9349 68.6882 62.6338 68.8082 62.3222 68.8938V69.8283C62.3222 70.1184 62.207 70.3966 62.0019 70.6017C61.7967 70.8069 61.5185 70.9221 61.2285 70.9221C60.9384 70.9221 60.6602 70.8069 60.4551 70.6017C60.2499 70.3966 60.1347 70.1184 60.1347 69.8283V68.9455C59.8922 68.8904 59.655 68.8143 59.4258 68.718C58.4435 68.303 57.7299 67.5397 57.4682 66.6243C57.3884 66.3454 57.4228 66.0462 57.5636 65.7926C57.7044 65.539 57.9403 65.3517 58.2192 65.272C58.4981 65.1923 58.7972 65.2266 59.0508 65.3674C59.3044 65.5083 59.4917 65.7441 59.5714 66.023C59.6496 66.299 59.9077 66.5468 60.2772 66.703C60.5828 66.8274 60.912 66.8835 61.2416 66.8673C61.5712 66.8511 61.8932 66.763 62.1852 66.6093C62.4077 66.4955 62.5891 66.315 62.7041 66.0931C62.8191 65.8713 62.862 65.619 62.8267 65.3716C62.7058 64.6997 61.9166 64.2019 60.716 64.0376C59.2674 63.8391 58.1988 63.0357 57.7841 61.8327C57.6005 61.2902 57.5696 60.7076 57.6947 60.1487C57.8198 59.5898 58.096 59.076 58.4933 58.6635C58.9477 58.2063 59.513 57.8749 60.1339 57.7016V56.7691C60.1339 56.479 60.2492 56.2008 60.4543 55.9957C60.6594 55.7906 60.9376 55.6754 61.2277 55.6754C61.5178 55.6754 61.796 55.7906 62.0011 55.9957C62.2062 56.2008 62.3214 56.479 62.3214 56.7691V57.6722C63.1562 57.8921 63.8983 58.3745 64.4382 59.0482C64.5292 59.1596 64.5974 59.288 64.6387 59.4258C64.6801 59.5636 64.6939 59.7083 64.6792 59.8515C64.6646 59.9946 64.6218 60.1335 64.5534 60.2601C64.485 60.3867 64.3922 60.4986 64.2805 60.5893C64.1688 60.68 64.0402 60.7478 63.9023 60.7887C63.7643 60.8297 63.6196 60.843 63.4765 60.8279C63.3334 60.8128 63.1946 60.7696 63.0682 60.7008C62.9418 60.632 62.8302 60.5389 62.7399 60.4269C62.5752 60.2176 62.3668 60.0467 62.1294 59.9261C61.8919 59.8056 61.631 59.7382 61.3649 59.7286C61.1278 59.7118 60.8897 59.7438 60.6655 59.8227C60.4413 59.9016 60.2356 60.0257 60.0613 60.1872C59.9441 60.3084 59.8625 60.4595 59.8253 60.6239C59.7881 60.7883 59.7969 60.9598 59.8505 61.1196C59.9886 61.5202 60.4008 61.7868 61.011 61.8696C63.1989 62.1691 64.6819 63.333 64.9796 64.9832ZM35.0694 24.8238C36.0278 24.8238 36.9647 24.5396 37.7616 24.0072C38.5584 23.4747 39.1795 22.7179 39.5463 21.8325C39.9131 20.947 40.009 19.9727 39.8221 19.0327C39.6351 18.0927 39.1736 17.2293 38.4959 16.5516C37.8183 15.8739 36.9548 15.4124 36.0149 15.2254C35.0749 15.0384 34.1006 15.1343 33.2151 15.5011C32.3297 15.8678 31.5728 16.4889 31.0404 17.2857C30.5079 18.0826 30.2237 19.0195 30.2236 19.9779C30.225 21.2626 30.736 22.4944 31.6445 23.4029C32.5529 24.3113 33.7846 24.8224 35.0694 24.8238ZM35.0694 17.3197C35.5952 17.3197 36.1091 17.4756 36.5463 17.7678C36.9834 18.0599 37.3242 18.475 37.5253 18.9608C37.7265 19.4465 37.7792 19.981 37.6766 20.4967C37.574 21.0123 37.3208 21.486 36.949 21.8578C36.5773 22.2295 36.1036 22.4827 35.5879 22.5852C35.0722 22.6878 34.5377 22.6351 34.052 22.4339C33.5663 22.2327 33.1511 21.8919 32.859 21.4548C32.567 21.0176 32.4111 20.5036 32.4111 19.9779C32.4119 19.2731 32.6923 18.5975 33.1906 18.0991C33.689 17.6008 34.3646 17.3205 35.0694 17.3197Z" fill="white"/>
</g>
<defs>
<clipPath id="clip0_276_33">
<rect width="80" height="80" fill="white"/>
</clipPath>
</defs>
</svg>
