<svg width="80" height="80" viewBox="0 0 80 80" fill="none" xmlns="http://www.w3.org/2000/svg">
<g clip-path="url(#clip0_276_36)">
<path d="M62.8928 34.9225C62.6582 34.6885 62.3404 34.5572 62.0091 34.5575H47.5728L38.7603 25.7588C39.1368 25.0305 39.4472 24.2699 39.6878 23.4862H41.9528C42.2843 23.4862 42.6023 23.3546 42.8367 23.1201C43.0711 22.8857 43.2028 22.5678 43.2028 22.2362V16.6112C43.2028 16.2797 43.0711 15.9618 42.8367 15.7274C42.6023 15.4929 42.2843 15.3612 41.9528 15.3612H39.6878C39.4211 14.4788 39.0664 13.6253 38.6291 12.8138L40.2328 11.2125C40.4672 10.9781 40.5988 10.6602 40.5988 10.3287C40.5988 9.99729 40.4672 9.67941 40.2328 9.445L36.2516 5.46875C36.0126 5.24319 35.6964 5.11754 35.3678 5.11754C35.0392 5.11754 34.723 5.24319 34.4841 5.46875L32.8866 7.0725C32.0745 6.63654 31.2211 6.28231 30.3391 6.015V3.75C30.3391 3.41848 30.2074 3.10054 29.9729 2.86612C29.7385 2.6317 29.4206 2.5 29.0891 2.5H23.4641C23.1325 2.5 22.8146 2.6317 22.5802 2.86612C22.3458 3.10054 22.2141 3.41848 22.2141 3.75V6.015C21.3318 6.28219 20.4783 6.63687 19.6666 7.07375L18.0641 5.46875C17.8252 5.24291 17.509 5.11707 17.1803 5.11707C16.8516 5.11707 16.5354 5.24291 16.2966 5.46875L12.3216 9.445C12.0872 9.67941 11.9556 9.99729 11.9556 10.3287C11.9556 10.6602 12.0872 10.9781 12.3216 11.2125L13.9253 12.8163C13.488 13.6278 13.1333 14.4813 12.8666 15.3638H10.6016C10.27 15.3638 9.9521 15.4954 9.71768 15.7299C9.48326 15.9643 9.35156 16.2822 9.35156 16.6138V22.2388C9.35156 22.5703 9.48326 22.8882 9.71768 23.1226C9.9521 23.3571 10.27 23.4888 10.6016 23.4888H12.8666C13.1333 24.3712 13.488 25.2247 13.9253 26.0363L12.3216 27.6375C12.0872 27.8719 11.9556 28.1898 11.9556 28.5212C11.9556 28.8527 12.0872 29.1706 12.3216 29.405L16.2966 33.3812C16.531 33.6156 16.8489 33.7472 17.1803 33.7472C17.5118 33.7472 17.8297 33.6156 18.0641 33.3812L19.6678 31.7762C20.4798 32.213 21.3332 32.5681 22.2153 32.8362V35.1C22.2153 35.4315 22.347 35.7495 22.5814 35.9839C22.8158 36.2183 23.1338 36.35 23.4653 36.35H29.0903C29.4218 36.35 29.7398 36.2183 29.9742 35.9839C30.2086 35.7495 30.3403 35.4315 30.3403 35.1V32.8362C30.9977 32.6303 31.639 32.3763 32.2591 32.0762L43.7791 43.595V74.9038C43.7797 75.5923 44.0536 76.2525 44.5407 76.7393C45.0277 77.2261 45.688 77.4997 46.3766 77.5H59.4578C60.1464 77.4993 60.8066 77.2257 61.2938 76.739C61.7809 76.2523 62.0552 75.5923 62.0566 74.9038V47.4475L65.4941 50.895C66.3944 51.7488 67.5884 52.2239 68.8292 52.222C70.07 52.2202 71.2626 51.7415 72.1603 50.885C72.6005 50.4458 72.9498 49.924 73.1881 49.3496C73.4264 48.7752 73.5491 48.1594 73.5491 47.5375C73.5491 46.9156 73.4264 46.2998 73.1881 45.7254C72.9498 45.151 72.6005 44.6292 72.1603 44.19L62.8928 34.9225ZM28.8141 30.6538C28.5372 30.7162 28.2898 30.871 28.1126 31.0927C27.9354 31.3145 27.8389 31.5899 27.8391 31.8738V33.85H24.7141V31.875C24.7142 31.5912 24.6177 31.3157 24.4405 31.094C24.2633 30.8723 24.0159 30.7174 23.7391 30.655C22.4598 30.3657 21.2399 29.8583 20.1328 29.155C19.8929 29.0032 19.6085 28.9375 19.3263 28.9689C19.0441 29.0002 18.781 29.1267 18.5803 29.3275L17.1791 30.7288L14.9728 28.5212L16.3766 27.125C16.5769 26.9242 16.7029 26.6613 16.734 26.3794C16.7651 26.0975 16.6995 25.8134 16.5478 25.5737C15.8447 24.4661 15.3374 23.2458 15.0478 21.9662C14.9854 21.6896 14.8308 21.4423 14.6093 21.2652C14.3878 21.088 14.1127 20.9914 13.8291 20.9912H11.8516V17.8663H13.8291C14.1127 17.8661 14.3878 17.7695 14.6093 17.5923C14.8308 17.4152 14.9854 17.1679 15.0478 16.8912C15.3374 15.6117 15.8447 14.3914 16.5478 13.2837C16.7001 13.0439 16.7661 12.7592 16.735 12.4768C16.7039 12.1944 16.5775 11.931 16.3766 11.73L14.9766 10.3287L17.1803 8.125L18.5816 9.52625C18.7823 9.72704 19.0454 9.85351 19.3275 9.88486C19.6097 9.91622 19.8942 9.85058 20.1341 9.69875C21.2411 8.99546 22.461 8.48805 23.7403 8.19875C24.017 8.13635 24.2642 7.98172 24.4414 7.76024C24.6186 7.53877 24.7152 7.26363 24.7153 6.98V5H27.8403V6.9775C27.8405 7.26112 27.937 7.53627 28.1142 7.75774C28.2914 7.97922 28.5386 8.13385 28.8153 8.19625C30.0946 8.48555 31.3145 8.99296 32.4216 9.69625C32.6615 9.84808 32.9459 9.91372 33.2281 9.88236C33.5102 9.85101 33.7733 9.72454 33.9741 9.52375L35.3766 8.125L37.5841 10.3325L36.1841 11.7338C35.9838 11.9345 35.8577 12.1975 35.8266 12.4794C35.7955 12.7613 35.8611 13.0454 36.0128 13.285C36.7117 14.3917 37.2152 15.6103 37.5016 16.8875C37.5638 17.1646 37.7185 17.4123 37.9402 17.5897C38.162 17.7672 38.4376 17.8638 38.7216 17.8638H40.6991V20.9888H38.7253C38.441 20.9877 38.1648 21.0836 37.9423 21.2606C37.7199 21.4376 37.5644 21.6852 37.5016 21.9625C37.2121 23.2417 36.7047 24.4616 36.0016 25.5687C35.8499 25.8084 35.7842 26.0925 35.8154 26.3744C35.8465 26.6563 35.9725 26.9192 36.1728 27.12L37.5728 28.5212L35.3766 30.7288L33.9766 29.3275C33.7758 29.1267 33.5127 29.0002 33.2306 28.9689C32.9484 28.9375 32.664 29.0032 32.4241 29.155C31.3158 29.8582 30.0946 30.3652 28.8141 30.6538ZM70.4028 49.1062C69.9788 49.5111 69.4157 49.738 68.8294 49.7401C68.2432 49.7422 67.6784 49.5194 67.2516 49.1175L61.6916 43.5413C61.5168 43.3661 61.294 43.2467 61.0513 43.1982C60.8087 43.1498 60.5571 43.1744 60.3285 43.2691C60.0999 43.3637 59.9045 43.5241 59.767 43.7298C59.6296 43.9356 59.5564 44.1776 59.5566 44.425V74.9038C59.5566 74.9166 59.554 74.9293 59.549 74.9412C59.544 74.953 59.5367 74.9637 59.5275 74.9727C59.5183 74.9817 59.5074 74.9887 59.4954 74.9934C59.4834 74.9981 59.4707 75.0003 59.4578 75H54.1266V60.105C54.1266 59.7735 53.9949 59.4555 53.7604 59.2211C53.526 58.9867 53.2081 58.855 52.8766 58.855C52.545 58.855 52.2271 58.9867 51.9927 59.2211C51.7583 59.4555 51.6266 59.7735 51.6266 60.105V75H46.3766C46.3639 75.0002 46.3513 74.9978 46.3395 74.993C46.3278 74.9882 46.3171 74.9812 46.3081 74.9722C46.2992 74.9632 46.2921 74.9525 46.2873 74.9408C46.2825 74.929 46.2801 74.9164 46.2803 74.9038V43.0775C46.2802 42.746 46.1485 42.4281 45.9141 42.1938L36.6716 32.9688L39.5566 30.0837L46.1741 36.6913C46.4084 36.9257 46.7263 37.0574 47.0578 37.0575H61.4916L70.3916 45.9575C70.8104 46.3737 71.0468 46.9391 71.0489 47.5295C71.051 48.12 70.8186 48.6871 70.4028 49.1062Z" fill="white"/>
<path d="M58.6034 26.375C58.6034 25.0876 58.2217 23.8292 57.5064 22.7588C56.7912 21.6884 55.7746 20.8541 54.5852 20.3615C53.3958 19.8689 52.087 19.7401 50.8244 19.9914C49.5618 20.2426 48.4021 20.8626 47.4919 21.773C46.5816 22.6834 45.9619 23.8433 45.7109 25.1059C45.4599 26.3686 45.5889 27.6773 46.0817 28.8666C46.5746 30.0559 47.409 31.0724 48.4795 31.7874C49.5501 32.5024 50.8086 32.884 52.0959 32.8837C53.8215 32.8821 55.476 32.1957 56.6961 30.9754C57.9161 29.7551 58.6021 28.1006 58.6034 26.375ZM48.0872 26.375C48.0872 25.5821 48.3223 24.8071 48.7628 24.1478C49.2033 23.4886 49.8294 22.9748 50.5619 22.6714C51.2944 22.3679 52.1004 22.2886 52.878 22.4432C53.6556 22.5979 54.3699 22.9797 54.9306 23.5403C55.4912 24.101 55.873 24.8153 56.0277 25.5929C56.1823 26.3705 56.103 27.1765 55.7995 27.909C55.4961 28.6416 54.9823 29.2676 54.3231 29.7081C53.6638 30.1486 52.8888 30.3837 52.0959 30.3837C51.0331 30.3827 50.014 29.9601 49.2624 29.2085C48.5109 28.4569 48.0882 27.4378 48.0872 26.375Z" fill="white"/>
<path d="M26.2773 11.1699C24.6457 11.1699 23.0506 11.6538 21.6939 12.5603C20.3372 13.4668 19.2798 14.7553 18.6553 16.2628C18.0309 17.7703 17.8675 19.4291 18.1859 21.0294C18.5042 22.6298 19.2899 24.0998 20.4437 25.2536C21.5975 26.4073 23.0675 27.1931 24.6679 27.5114C26.2682 27.8297 27.927 27.6664 29.4345 27.0419C30.942 26.4175 32.2305 25.3601 33.137 24.0034C34.0435 22.6467 34.5273 21.0516 34.5273 19.4199C34.5234 17.2331 33.6529 15.137 32.1066 13.5907C30.5603 12.0444 28.4642 11.1739 26.2773 11.1699ZM26.2773 25.1812C25.1404 25.1812 24.0289 24.8441 23.0835 24.2126C22.138 23.581 21.401 22.6834 20.9656 21.633C20.5303 20.5827 20.416 19.4269 20.6374 18.3117C20.8587 17.1965 21.4058 16.1719 22.2093 15.3675C23.0128 14.5631 24.0368 14.015 25.1518 13.7924C26.2667 13.5698 27.4227 13.6828 28.4734 14.1171C29.5242 14.5513 30.4227 15.2873 31.0553 16.2321C31.6878 17.1769 32.0261 18.2879 32.0273 19.4249C32.0257 20.95 31.4196 22.4122 30.3418 23.4912C29.264 24.5701 27.8024 25.1779 26.2773 25.1812Z" fill="white"/>
<path d="M37.9755 51.7975H30.7967V49.8962C30.7961 49.1783 30.5106 48.4899 30.0031 47.982C29.4955 47.4742 28.8072 47.1885 28.0892 47.1875H18.2655C17.5475 47.1885 16.8592 47.4742 16.3516 47.982C15.8441 48.4899 15.5586 49.1783 15.558 49.8962V51.7975H8.37172C7.86204 51.7982 7.37343 52.0009 7.01304 52.3613C6.65264 52.7217 6.44988 53.2103 6.44922 53.72V62.5887C6.44938 62.8595 6.53746 63.1229 6.70022 63.3394C6.86298 63.5558 7.09161 63.7135 7.35172 63.7887L7.76547 63.9138V74.7312C7.76778 75.4657 8.06092 76.1694 8.58074 76.6883C9.10056 77.2071 9.80474 77.499 10.5392 77.5H35.8142C36.5496 77.499 37.2545 77.2065 37.7745 76.6865C38.2944 76.1665 38.587 75.4616 38.588 74.7262V63.9087L38.9992 63.7838C39.2584 63.7079 39.4861 63.55 39.6481 63.334C39.8101 63.1179 39.8978 62.8551 39.898 62.585V53.72C39.8973 53.2103 39.6945 52.7217 39.3342 52.3613C38.9738 52.0009 38.4851 51.7982 37.9755 51.7975ZM18.058 49.8962C18.0578 49.8689 18.063 49.8418 18.0734 49.8165C18.0838 49.7911 18.099 49.7681 18.1183 49.7487C18.1376 49.7293 18.1605 49.7139 18.1858 49.7034C18.211 49.6929 18.2381 49.6875 18.2655 49.6875H28.0892C28.1444 49.6878 28.1971 49.71 28.236 49.7491C28.2749 49.7882 28.2967 49.8411 28.2967 49.8962V51.7975H18.058V49.8962ZM8.94922 54.2975H16.7967H16.808H16.8205H29.5342H29.5467H29.558H37.398V61.6525L27.578 64.5512V63.8525C27.5773 63.334 27.3709 62.8369 27.0042 62.4704C26.6374 62.1039 26.1402 61.8978 25.6217 61.8975H20.2117C19.6934 61.8982 19.1965 62.1043 18.8301 62.4708C18.4636 62.8373 18.2574 63.3342 18.2567 63.8525V64.4037L9.53922 61.8337C9.48414 61.8088 9.42732 61.7879 9.36922 61.7712L8.94922 61.6463V54.2975ZM25.0742 64.3975V68.14H20.7567V64.3975H25.0742ZM36.0842 74.7262C36.0839 74.7987 36.0549 74.8682 36.0037 74.9195C35.9524 74.9707 35.883 74.9997 35.8105 75H10.5392C10.4666 75 10.397 74.9712 10.3456 74.9198C10.2943 74.8685 10.2655 74.7989 10.2655 74.7262V64.655L18.2567 67.01V68.685C18.2574 69.2033 18.4636 69.7002 18.8301 70.0667C19.1965 70.4332 19.6934 70.6393 20.2117 70.64H25.6217C26.14 70.6393 26.6369 70.4332 27.0034 70.0667C27.3699 69.7002 27.5761 69.2033 27.5767 68.685V67.1575L36.0867 64.6475L36.0842 74.7262Z" fill="white"/>
</g>
<defs>
<clipPath id="clip0_276_36">
<rect width="80" height="80" fill="white"/>
</clipPath>
</defs>
</svg>
