<svg width="80" height="80" viewBox="0 0 80 80" fill="none" xmlns="http://www.w3.org/2000/svg">
<g clip-path="url(#clip0_276_29)">
<path fill-rule="evenodd" clip-rule="evenodd" d="M46.9873 78.9021H2.3526C1.99652 78.9021 1.65723 78.7509 1.41927 78.4859C1.18131 78.2211 1.06695 77.8677 1.10476 77.5137C2.15119 67.7349 9.14334 59.7342 18.3954 57.2004C14.613 55.025 12.066 50.9433 12.066 46.2668C12.066 39.3058 17.709 33.6629 24.6701 33.6629C31.6309 33.6629 37.274 39.3058 37.274 46.2668C37.274 50.9433 34.7269 55.0252 30.9443 57.2004C40.1964 59.7342 47.1885 67.7349 48.235 77.5137C48.2729 77.8677 48.1586 78.2211 47.9206 78.4859C47.6826 78.7509 47.3433 78.9021 46.9873 78.9021ZM18.9968 59.6385C18.5421 59.7647 18.0935 59.9055 17.6514 60.0605L20.6033 65.3206C20.6033 65.3206 21.3157 64.4757 21.9413 63.7339C21.9465 63.7276 21.9518 63.7214 21.9571 63.7152C22.4401 63.1424 22.8671 62.6362 22.8671 62.6362L18.9968 59.6385ZM15.3223 61.0384C9.35809 63.9745 4.9755 69.6329 3.79558 76.3923H21.8428L20.103 74.4688C19.8346 74.172 19.7237 73.7653 19.8047 73.3734L20.7659 68.7127C20.6099 68.761 20.4437 68.7791 20.2765 68.7632C19.8668 68.7243 19.5021 68.487 19.3007 68.1281L15.3223 61.0384ZM24.6699 56.3609C30.2447 56.3609 34.7642 51.8417 34.7642 46.2668C34.7642 40.6919 30.2448 36.1725 24.6701 36.1725C19.0952 36.1725 14.5758 40.6919 14.5758 46.2668C14.5758 51.8417 19.095 56.3609 24.6699 56.3609ZM27.4969 76.3923H45.5443C44.3642 69.6329 39.9815 63.9745 34.0172 61.0384L30.039 68.128C29.8376 68.487 29.4729 68.7243 29.0632 68.7632C28.896 68.7791 28.7299 68.761 28.5738 68.7127L29.535 73.3734C29.616 73.7653 29.5051 74.1722 29.2367 74.4688L27.4969 76.3923ZM31.6881 60.0605C31.2461 59.9055 30.7976 59.7647 30.3429 59.6385L26.4724 62.6362L27.3826 63.7154C27.3879 63.7215 27.3932 63.7278 27.3984 63.7341L28.7364 65.3206L31.6881 60.0605ZM27.0629 59.0043C26.2775 58.916 25.479 58.8707 24.6699 58.8707C23.8608 58.8707 23.0622 58.916 22.2767 59.0043L24.6698 60.8578L27.0629 59.0043ZM24.6698 64.3916L24.0742 65.098L22.3912 73.2572L24.6698 75.7764L26.9485 73.2572L25.2655 65.098L24.6698 64.3916ZM58.1098 1.09814C69.5926 1.09814 78.9016 10.4072 78.9016 21.89C78.9016 33.3728 69.5926 42.6818 58.1098 42.6818C55.9231 42.6818 53.8204 42.3407 51.8411 41.7201L40.0899 44.8657C39.6568 44.9816 39.1949 44.8577 38.8779 44.5407C38.5611 44.2238 38.4371 43.7618 38.5532 43.3287L41.0942 33.84C38.7151 30.4597 37.3179 26.3403 37.3179 21.89C37.3179 10.4072 46.627 1.09814 58.1098 1.09814ZM58.1098 3.60795C48.0131 3.60795 39.8277 11.7934 39.8277 21.89C39.8277 25.9971 41.1805 29.7838 43.4655 32.8345C43.6963 33.1425 43.773 33.5396 43.6734 33.9115L41.5396 41.8793L51.5499 39.1998C51.7873 39.1363 52.0381 39.1438 52.2713 39.2216C54.1066 39.8334 56.0666 40.172 58.1098 40.172C68.2064 40.172 76.3918 31.9866 76.3918 21.89C76.3918 11.7934 68.2064 3.60795 58.1098 3.60795ZM61.5518 10.1695C62.3377 10.4039 63.0969 10.7185 63.8191 11.1091L65.2735 10.4625C65.748 10.2516 66.3035 10.3546 66.6707 10.7218L69.0712 13.1223C69.4379 13.489 69.5413 14.0437 69.3313 14.5179C69.3313 14.5179 68.6867 15.973 68.6867 15.9728C69.0779 16.6961 69.3929 17.4566 69.6274 18.2453L71.1104 18.8159C71.5948 19.0025 71.9145 19.468 71.9145 19.9871V23.3827C71.9145 23.9019 71.5948 24.3675 71.1104 24.554C71.1104 24.554 69.6266 25.125 69.6266 25.1248C69.3918 25.9109 69.0759 26.6702 68.6862 27.3923L69.3313 28.8486C69.5413 29.3228 69.4379 29.8774 69.0712 30.2442L66.6707 32.6447C66.304 33.0114 65.7493 33.1148 65.2751 32.9047C65.2751 32.9047 63.8207 32.2605 63.8208 32.2605C63.0993 32.6512 62.3383 32.9661 61.5513 33.2006L60.9805 34.6839C60.794 35.1683 60.3284 35.4879 59.8092 35.4879H56.4136C55.8946 35.4879 55.429 35.1683 55.2425 34.6839C55.2425 34.6839 54.6717 33.2006 54.6718 33.2007C53.8836 32.9656 53.1233 32.6497 52.4008 32.2596L50.9444 32.9047C50.4702 33.1148 49.9156 33.0114 49.5488 32.6447L47.1484 30.2442C46.7811 29.877 46.6781 29.3215 46.8891 28.847C46.8891 28.847 47.5353 27.3932 47.5353 27.3934C47.1449 26.6723 46.8299 25.9118 46.5942 25.1254L45.1091 24.554C44.6246 24.3675 44.3051 23.9019 44.3051 23.3827V19.9871C44.3051 19.468 44.6246 19.0025 45.1091 18.8159L46.5937 18.2447C46.8296 17.4566 47.1448 16.6966 47.5357 15.9739L46.8891 14.5195C46.6781 14.045 46.7811 13.4895 47.1484 13.1223L49.5488 10.7218C49.9161 10.3546 50.4715 10.2516 50.946 10.4625L52.4004 11.1091C53.1229 10.7184 53.8825 10.4037 54.6688 10.1692L55.243 8.68167C55.4296 8.1976 55.8949 7.87854 56.4136 7.87854H59.8092C60.3288 7.87854 60.7945 8.19838 60.9807 8.68324L61.5518 10.1695ZM59.4381 11.666L58.9471 10.3883H57.2745L56.7808 11.6677C56.632 12.0534 56.3026 12.3411 55.9002 12.4368C54.9223 12.6691 53.9898 13.0555 53.1327 13.5836C52.78 13.801 52.3429 13.8302 51.9645 13.6621L50.714 13.106L49.5325 14.2875L50.0886 15.538C50.2568 15.9163 50.2276 16.3535 50.0102 16.7061C49.4815 17.5642 49.0949 18.4978 48.8593 19.4798C48.763 19.8814 48.4751 20.2098 48.0897 20.3581L46.8149 20.8487V22.521L48.0897 23.0119C48.4748 23.1599 48.7625 23.4881 48.8591 23.8892C49.0946 24.8677 49.4808 25.804 50.0092 26.6588C50.2274 27.0116 50.2571 27.4495 50.0886 27.8285L49.5325 29.079L50.715 30.2613L51.9661 29.7072C52.3432 29.5402 52.7782 29.569 53.1299 29.7846C53.9877 30.3101 54.9211 30.7003 55.9027 30.933C56.3059 31.0283 56.6359 31.3167 56.7846 31.7033L57.2753 32.9781H58.9476L59.4382 31.7033C59.5869 31.317 59.9167 31.0288 60.3193 30.9331C61.2966 30.7008 62.2317 30.3151 63.0853 29.7872C63.4376 29.5694 63.8746 29.5394 64.2535 29.7072L65.5046 30.2613L66.6878 29.0781L66.1338 27.8269C65.9667 27.4498 65.9956 27.0149 66.2111 26.6632C66.7368 25.8051 67.127 24.8716 67.3597 23.8928C67.4553 23.4901 67.7435 23.1604 68.1299 23.0119L69.4047 22.521V20.8487L68.1299 20.3581C67.7432 20.2094 67.4549 19.8793 67.3595 19.4762C67.127 18.4955 66.7408 17.5631 66.2127 16.7061C65.9957 16.354 65.9662 15.9176 66.1338 15.5396L66.6878 14.2884L65.5055 13.106L64.255 13.6621C63.8767 13.8302 63.4395 13.801 63.0869 13.5836C62.2298 13.0555 61.2972 12.6691 60.3193 12.4368C59.9164 12.341 59.5866 12.0527 59.4381 11.666ZM58.1098 14.5057C62.0754 14.5057 65.2908 17.7174 65.2908 21.6832C65.2908 25.6487 62.0753 28.8643 58.1098 28.8643C54.144 28.8643 50.9322 25.6489 50.9322 21.6832C50.9322 17.7173 54.1438 14.5057 58.1098 14.5057ZM58.1098 17.0155C55.5306 17.0155 53.442 19.1041 53.442 21.6832C53.442 24.2625 55.5305 26.3545 58.1098 26.3545C60.6894 26.3545 62.781 24.2629 62.781 21.6832C62.781 19.1039 60.6891 17.0155 58.1098 17.0155Z" fill="white"/>
</g>
<defs>
<clipPath id="clip0_276_29">
<rect width="80" height="80" fill="white"/>
</clipPath>
</defs>
</svg>
