<svg width="80" height="80" viewBox="0 0 80 80" fill="none" xmlns="http://www.w3.org/2000/svg">
<g clip-path="url(#clip0_276_45)">
<g clip-path="url(#clip1_276_45)">
<path d="M48.312 31.25H31.687C31.4755 31.247 31.2682 31.1904 31.0846 31.0854C30.901 30.9805 30.747 30.8307 30.637 30.65L22.312 16.25C22.2023 16.06 22.1445 15.8444 22.1445 15.625C22.1445 15.4056 22.2023 15.19 22.312 15L30.637 0.6C30.747 0.419325 30.901 0.269506 31.0846 0.16457C31.2682 0.0596327 31.4755 0.00300929 31.687 0L48.312 0C48.5235 0.00300929 48.7307 0.0596327 48.9144 0.16457C49.098 0.269506 49.252 0.419325 49.362 0.6L57.687 15C57.7967 15.19 57.8545 15.4056 57.8545 15.625C57.8545 15.8444 57.7967 16.06 57.687 16.25L49.362 30.6375C49.2536 30.8205 49.1002 30.9728 48.9165 31.08C48.7327 31.1872 48.5247 31.2457 48.312 31.25ZM32.387 28.8125H47.612L55.237 15.625L47.612 2.425H32.387L24.762 15.625L32.387 28.8125Z" fill="white"/>
<path d="M39.9975 17.4997C38.7952 17.4997 37.6197 17.1436 36.6194 16.4763C35.6192 15.8091 34.8389 14.8605 34.3771 13.7504C33.9153 12.6402 33.7926 11.4181 34.0244 10.2383C34.2563 9.0585 34.8323 7.97376 35.68 7.12093C36.5276 6.26811 37.6087 5.68539 38.7871 5.44629C39.9655 5.20718 41.1883 5.3224 42.3013 5.7774C43.4142 6.2324 44.3675 7.00682 45.0409 8.00295C45.7143 8.99909 46.0776 10.1723 46.085 11.3747C46.0883 12.1768 45.9334 12.9717 45.6291 13.7139C45.3248 14.456 44.8771 15.1309 44.3117 15.6998C43.7462 16.2687 43.0741 16.7206 42.3339 17.0294C41.5936 17.3383 40.7997 17.4981 39.9975 17.4997ZM39.9975 7.74971C39.2716 7.74975 38.562 7.96553 37.9589 8.36965C37.3558 8.77378 36.8865 9.34801 36.6104 10.0194C36.3343 10.6909 36.264 11.4292 36.4084 12.1406C36.5528 12.8521 36.9053 13.5046 37.4213 14.0153C37.9373 14.526 38.5934 14.8718 39.3063 15.0088C40.0192 15.1459 40.7568 15.068 41.4253 14.785C42.0938 14.5021 42.6632 14.0268 43.0611 13.4196C43.459 12.8124 43.6675 12.1006 43.66 11.3747C43.66 10.4034 43.2742 9.47178 42.5873 8.78493C41.9005 8.09808 40.9689 7.71221 39.9975 7.71221V7.74971Z" fill="white"/>
<path d="M47.3883 24.85H32.6133C32.2818 24.85 31.9638 24.7183 31.7294 24.4839C31.495 24.2495 31.3633 23.9315 31.3633 23.6C31.3633 21.3191 32.2693 19.1317 33.8822 17.5189C35.495 15.9061 37.6824 15 39.9633 15C42.2441 15 44.4316 15.9061 46.0444 17.5189C47.6572 19.1317 48.5633 21.3191 48.5633 23.6C48.5639 23.9189 48.4425 24.226 48.2241 24.4584C48.0056 24.6908 47.7066 24.8309 47.3883 24.85ZM33.9383 22.425H46.0633C45.7781 21.0276 45.0189 19.7717 43.9141 18.8696C42.8094 17.9676 41.427 17.4749 40.0008 17.4749C38.5746 17.4749 37.1922 17.9676 36.0874 18.8696C34.9827 19.7717 34.2235 21.0276 33.9383 22.425Z" fill="white"/>
<path d="M27.2659 66.0754H10.6284C10.4169 66.0724 10.2097 66.0158 10.026 65.9108C9.84238 65.8059 9.68837 65.6561 9.57841 65.4754L1.25341 51.0629C1.1437 50.8729 1.08594 50.6573 1.08594 50.4379C1.08594 50.2185 1.1437 50.0029 1.25341 49.8129L9.57841 35.4504C9.68685 35.2674 9.8402 35.1151 10.0239 35.0079C10.2077 34.9007 10.4157 34.8422 10.6284 34.8379H27.2659C27.4786 34.8422 27.6866 34.9007 27.8704 35.0079C28.0541 35.1151 28.2075 35.2674 28.3159 35.4504L36.6284 49.8504C36.7381 50.0404 36.7959 50.256 36.7959 50.4754C36.7959 50.6948 36.7381 50.9104 36.6284 51.1004L28.3159 65.4754C28.2059 65.6561 28.0519 65.8059 27.8683 65.9108C27.6847 66.0158 27.4774 66.0724 27.2659 66.0754ZM11.3284 63.6504H26.5659L34.1784 50.4629L26.5659 37.2629H11.3284L3.75341 50.4629L11.3284 63.6504Z" fill="white"/>
<path d="M19.478 52.3C18.2724 52.3 17.094 51.942 16.0921 51.2714C15.0902 50.6008 14.31 49.6479 13.8504 48.5333C13.3908 47.4188 13.2724 46.1929 13.5104 45.011C13.7483 43.8292 14.3318 42.7446 15.1869 41.8947C16.042 41.0449 17.1302 40.4681 18.3136 40.2374C19.4969 40.0068 20.722 40.1327 21.8337 40.5992C22.9454 41.0657 23.8935 41.8518 24.5579 42.8578C25.2222 43.8638 25.5729 45.0444 25.5655 46.25C25.5523 47.857 24.9056 49.3938 23.7657 50.5267C22.6259 51.6595 21.085 52.2968 19.478 52.3ZM19.478 42.55C18.7552 42.55 18.0486 42.7639 17.4472 43.1647C16.8457 43.5655 16.3763 44.1354 16.098 44.8024C15.8198 45.4695 15.7451 46.2039 15.8834 46.9133C16.0217 47.6228 16.3668 48.2754 16.8753 48.7891C17.3837 49.3027 18.0328 49.6545 18.7408 49.8C19.4488 49.9455 20.1839 49.8783 20.8538 49.6069C21.5237 49.3354 22.0982 48.8718 22.5051 48.2745C22.912 47.6771 23.1331 46.9727 23.1405 46.25C23.1505 45.7622 23.0632 45.2772 22.8837 44.8235C22.7043 44.3698 22.4363 43.9563 22.0954 43.6072C21.7545 43.2582 21.3474 42.9805 20.8981 42.7904C20.4487 42.6003 19.9659 42.5016 19.478 42.5V42.55Z" fill="white"/>
<path d="M26.8719 59.6876H12.0844C11.7529 59.6876 11.4349 59.5559 11.2005 59.3215C10.9661 59.0871 10.8344 58.7691 10.8344 58.4376C10.7902 57.2798 10.9802 56.125 11.3928 55.0424C11.8054 53.9597 12.4323 52.9715 13.2358 52.1367C14.0393 51.302 15.003 50.638 16.0691 50.1844C17.1353 49.7308 18.282 49.4971 19.4406 49.4971C20.5993 49.4971 21.746 49.7308 22.8121 50.1844C23.8783 50.638 24.842 51.302 25.6455 52.1367C26.449 52.9715 27.0758 53.9597 27.4885 55.0424C27.9011 56.125 28.091 57.2798 28.0469 58.4376C28.0475 58.7565 27.9261 59.0636 27.7077 59.296C27.4892 59.5284 27.1902 59.6685 26.8719 59.6876ZM13.4094 57.2751H25.5344C25.2491 55.8777 24.4899 54.6218 23.3852 53.7198C22.2805 52.8177 20.8981 52.3251 19.4719 52.3251C18.0457 52.3251 16.6633 52.8177 15.5585 53.7198C14.4538 54.6218 13.6946 55.8777 13.4094 57.2751Z" fill="white"/>
<path d="M69.3745 66.0748H52.737C52.5255 66.0718 52.3182 66.0152 52.1346 65.9102C51.951 65.8053 51.797 65.6555 51.687 65.4748L43.3745 51.0623C43.2648 50.8723 43.207 50.6567 43.207 50.4373C43.207 50.2179 43.2648 50.0023 43.3745 49.8123L51.687 35.4123C51.7954 35.2293 51.9488 35.077 52.1325 34.9698C52.3163 34.8626 52.5243 34.8041 52.737 34.7998H69.3745C69.5872 34.8041 69.7952 34.8626 69.979 34.9698C70.1627 35.077 70.3161 35.2293 70.4245 35.4123L78.7495 49.8498C78.8592 50.0398 78.917 50.2554 78.917 50.4748C78.917 50.6942 78.8592 50.9098 78.7495 51.0998L70.4245 65.4748C70.3145 65.6555 70.1605 65.8053 69.9769 65.9102C69.7932 66.0152 69.586 66.0718 69.3745 66.0748ZM53.437 63.6498H68.6745L76.2495 50.4623L68.6245 37.2623H53.437L45.8245 50.4623L53.437 63.6498Z" fill="white"/>
<path d="M61.5991 52.3C60.3935 52.3 59.2151 51.942 58.2132 51.2714C57.2113 50.6008 56.4311 49.6479 55.9715 48.5333C55.5119 47.4188 55.3935 46.1929 55.6315 45.011C55.8694 43.8292 56.4529 42.7446 57.308 41.8947C58.1631 41.0449 59.2513 40.4681 60.4346 40.2374C61.618 40.0068 62.8431 40.1327 63.9548 40.5992C65.0665 41.0657 66.0146 41.8518 66.679 42.8578C67.3433 43.8638 67.694 45.0444 67.6866 46.25C67.6767 47.858 67.031 49.3968 65.8904 50.5303C64.7499 51.6638 63.2071 52.3 61.5991 52.3ZM61.5991 42.55C60.8763 42.55 60.1697 42.7639 59.5683 43.1647C58.9668 43.5655 58.4974 44.1354 58.2191 44.8024C57.9409 45.4695 57.8662 46.2039 58.0045 46.9133C58.1428 47.6228 58.4879 48.2754 58.9964 48.7891C59.5048 49.3027 60.1539 49.6545 60.8619 49.8C61.5698 49.9455 62.305 49.8783 62.9749 49.6069C63.6447 49.3354 64.2193 48.8718 64.6262 48.2745C65.0331 47.6771 65.2542 46.9727 65.2616 46.25C65.2733 45.7617 65.1872 45.276 65.0083 44.8215C64.8295 44.367 64.5616 43.9529 64.2203 43.6035C63.8791 43.2541 63.4714 42.9764 63.0212 42.7869C62.571 42.5974 62.0875 42.4999 61.5991 42.5V42.55Z" fill="white"/>
<path d="M68.9891 59.6876H54.2016C53.87 59.6876 53.5521 59.5559 53.3177 59.3215C53.0833 59.0871 52.9516 58.7691 52.9516 58.4376C52.9074 57.2798 53.0974 56.125 53.51 55.0424C53.9226 53.9597 54.5494 52.9715 55.353 52.1367C56.1565 51.302 57.1202 50.638 58.1863 50.1844C59.2525 49.7308 60.3992 49.4971 61.5578 49.4971C62.7164 49.4971 63.8632 49.7308 64.9293 50.1844C65.9955 50.638 66.9592 51.302 67.7627 52.1367C68.5662 52.9715 69.193 53.9597 69.6056 55.0424C70.0183 56.125 70.2082 57.2798 70.1641 58.4376C70.1646 58.7565 70.0433 59.0636 69.8249 59.296C69.6064 59.5284 69.3074 59.6685 68.9891 59.6876ZM55.5391 57.2751H67.6641C67.3788 55.8777 66.6196 54.6218 65.5149 53.7198C64.4102 52.8177 63.0278 52.3251 61.6016 52.3251C60.1754 52.3251 58.7929 52.8177 57.6882 53.7198C56.5835 54.6218 55.8243 55.8777 55.5391 57.2751Z" fill="white"/>
<path d="M37.6729 76.1253C35.3182 76.1144 32.9669 75.9432 30.6354 75.6128C30.3192 75.5603 30.0351 75.3884 29.842 75.1325C29.6489 74.8766 29.5615 74.5563 29.5979 74.2378C29.6532 73.9238 29.8263 73.6428 30.0819 73.4523C30.3375 73.2617 30.6562 73.1761 30.9729 73.2128C38.1854 74.2253 44.3104 73.6753 49.7229 71.5378C49.9868 71.5207 50.2493 71.5878 50.4726 71.7293C50.696 71.8708 50.8687 72.0796 50.9659 72.3255C51.0632 72.5713 51.0799 72.8417 51.0138 73.0977C50.9477 73.3538 50.8021 73.5822 50.5979 73.7503C46.4798 75.3565 42.0931 76.1625 37.6729 76.1253Z" fill="white"/>
<path d="M33.7493 80.0001C33.5499 79.9977 33.354 79.9477 33.1778 79.8542C33.0017 79.7607 32.8505 79.6264 32.7368 79.4626L29.7993 75.0626C29.7073 74.9291 29.6442 74.7779 29.614 74.6186C29.5839 74.4593 29.5874 74.2954 29.6243 74.1376C29.6954 73.819 29.8883 73.5408 30.1618 73.3626L34.9993 70.3626C35.2629 70.2872 35.544 70.3007 35.7992 70.4008C36.0544 70.5009 36.2697 70.6821 36.4118 70.9166C36.5539 71.151 36.6149 71.4257 36.5856 71.6983C36.5562 71.9709 36.4381 72.2262 36.2493 72.4251L32.4993 74.7626L34.7368 78.1126C34.9087 78.3821 34.9708 78.7072 34.9103 79.021C34.8499 79.3349 34.6715 79.6137 34.4118 79.8001C34.2142 79.9277 33.9846 79.9971 33.7493 80.0001Z" fill="white"/>
<path d="M8.43644 34.413C8.27309 34.4111 8.11172 34.3771 7.96144 34.313C7.6703 34.1789 7.4418 33.9381 7.32315 33.6404C7.20451 33.3426 7.20479 33.0106 7.32394 32.713C9.64718 27.672 13.2607 23.334 17.7989 20.138C17.9186 19.991 18.0701 19.873 18.242 19.7931C18.4139 19.7133 18.6018 19.6735 18.7913 19.677C18.9809 19.6804 19.1672 19.7269 19.3361 19.813C19.505 19.899 19.6522 20.0224 19.7664 20.1737C19.8806 20.325 19.9589 20.5003 19.9954 20.6863C20.0318 20.8724 20.0255 21.0643 19.9768 21.2475C19.9282 21.4307 19.8385 21.6005 19.7146 21.744C19.5906 21.8874 19.4357 22.0008 19.2614 22.0755C15.0582 25.0187 11.7076 29.0205 9.54894 33.6755C9.45214 33.891 9.29626 34.0747 9.09937 34.2052C8.90247 34.3357 8.67262 34.4078 8.43644 34.413Z" fill="white"/>
<path d="M17.5012 26.8C17.41 26.813 17.3174 26.813 17.2262 26.8C16.9181 26.72 16.6521 26.5254 16.4825 26.2559C16.3129 25.9865 16.2526 25.6624 16.3137 25.35L17.0637 22.1L14.0887 21.5125C13.8319 21.3959 13.6221 21.1959 13.4934 20.945C13.3646 20.6941 13.3245 20.407 13.3795 20.1304C13.4345 19.8538 13.5815 19.6039 13.7965 19.4214C14.0115 19.2389 14.2819 19.1344 14.5637 19.125L18.7637 19.9625C19.0814 20.0344 19.3585 20.2275 19.5359 20.5007C19.7134 20.7739 19.7772 21.1055 19.7137 21.425L18.7512 25.8625C18.6804 26.1375 18.518 26.3802 18.2908 26.5506C18.0636 26.721 17.7851 26.809 17.5012 26.8Z" fill="white"/>
<path d="M67.9641 34.0374C67.7244 34.0334 67.4909 33.9606 67.2914 33.8276C67.092 33.6946 66.935 33.5071 66.8391 33.2874C65.0921 28.4611 62.0992 24.1829 58.1641 20.8874C57.9227 20.6809 57.7689 20.3902 57.7341 20.0745C57.6993 19.7587 57.786 19.4415 57.9766 19.1874C58.1814 18.9441 58.4712 18.7879 58.787 18.7508C59.1028 18.7136 59.421 18.7982 59.6766 18.9874C63.9401 22.5415 67.1874 27.1602 69.0891 32.3749C69.1984 32.674 69.1894 33.0035 69.0639 33.2962C68.9385 33.5889 68.7061 33.8227 68.4141 33.9499C68.2718 34.01 68.1186 34.0398 67.9641 34.0374Z" fill="white"/>
<path d="M67.9493 34.0496C67.7498 34.0472 67.5533 34.0002 67.3743 33.9121L63.3368 31.7496C63.0576 31.5913 62.8499 31.3318 62.7568 31.0246C62.6638 30.7174 62.6924 30.3862 62.8368 30.0996C62.997 29.8257 63.2552 29.6229 63.5593 29.5324C63.8634 29.4419 64.1905 29.4704 64.4743 29.6121L67.4243 31.1746L68.7493 28.4621C68.8989 28.1804 69.1505 27.9666 69.4526 27.8643C69.7547 27.7621 70.0844 27.7792 70.3743 27.9121C70.6529 28.0615 70.8645 28.3109 70.9666 28.6101C71.0687 28.9093 71.0536 29.2361 70.9243 29.5246L69.0368 33.3746C68.888 33.6636 68.6324 33.8834 68.3243 33.9871C68.2033 34.0269 68.0768 34.048 67.9493 34.0496Z" fill="white"/>
</g>
</g>
<defs>
<clipPath id="clip0_276_45">
<rect width="80" height="80" fill="white"/>
</clipPath>
<clipPath id="clip1_276_45">
<rect width="80" height="80" fill="white"/>
</clipPath>
</defs>
</svg>
