<svg width="80" height="80" viewBox="0 0 80 80" fill="none" xmlns="http://www.w3.org/2000/svg">
<g clip-path="url(#clip0_276_39)">
<path d="M51.4938 10.8655C43.4734 10.8655 36.9484 17.389 36.9484 25.4062C36.9484 26.4499 37.0328 27.3812 37.1859 28.2249L28.5469 23.2358C28.1609 23.0124 27.6844 23.0124 27.2969 23.2358L3.72656 36.8452C3.62969 36.9015 3.54219 36.9687 3.46562 37.0452C3.23594 37.2765 3.10156 37.5921 3.10156 37.9265V65.1437C3.10156 65.5905 3.33906 66.003 3.72656 66.2249L27.2969 79.8312H27.2984C27.4922 79.9421 27.7078 79.9983 27.9234 79.9983C28.1391 79.9983 28.3547 79.9421 28.5484 79.8312L52.1203 66.2249C52.5062 66.0015 52.7453 65.589 52.7453 65.1437V52.8358H54.7391C56.8953 52.8358 58.65 51.0812 58.65 48.9249V46.7343C60.1797 46.3312 61.3125 44.9358 61.3125 43.2812C61.3125 41.7437 60.3359 40.4312 58.9703 39.9296C59.2172 38.828 59.7281 37.8296 60.5172 36.9046C60.8656 36.4968 61.2219 36.0999 61.5641 35.7155C63.8656 33.1452 66.0375 30.7171 66.0375 25.4046C66.0344 17.3874 59.5125 10.8655 51.4938 10.8655ZM41.9062 42.0187L27.9219 50.0921L21.9875 46.6671L41.2641 35.539C41.3141 35.5952 41.3656 35.6515 41.4156 35.7093C41.7609 36.0952 42.1187 36.4952 42.4688 36.9062C43.2578 37.8327 43.7687 38.8312 44.0172 39.9327C43.0469 40.2858 42.2734 41.053 41.9062 42.0187ZM18.8656 45.5843C18.4797 45.8077 18.2406 46.2202 18.2406 46.6655V56.6686L14.0328 54.239V43.5155L36.3563 30.6296L38.4625 31.8468C38.8109 32.4749 39.2031 33.0515 39.625 33.5999L18.8656 45.5843ZM33.8594 29.1874L12.7844 41.353L6.85 37.928L27.9234 25.7593L33.8594 29.1874ZM5.6 40.0905L11.5344 43.5171V54.9624C11.5344 55.4093 11.7719 55.8218 12.1594 56.0436L18.8656 59.9155C19.0594 60.0265 19.275 60.0827 19.4906 60.0827C19.7062 60.0827 19.9219 60.0265 20.1156 59.9155C20.5016 59.6921 20.7406 59.2796 20.7406 58.8343V48.828L26.675 52.2546V76.5874L5.6 64.4233V40.0905ZM50.2453 64.4233L29.1719 76.5874V52.2546L42.0297 44.8327C42.4797 45.7624 43.3203 46.4671 44.3375 46.7358V48.9265C44.3375 51.0827 46.0937 52.8374 48.2531 52.8374H50.2469V64.4233H50.2453ZM54.7359 50.3374H48.2516C47.4703 50.3374 46.8344 49.703 46.8344 48.9249V46.8515H56.1484V48.9249C56.15 49.703 55.5156 50.3374 54.7359 50.3374ZM57.7391 44.353H45.2438C44.6625 44.353 44.1719 43.8624 44.1719 43.2812C44.1719 43.2187 44.1781 43.1577 44.1891 43.0968C44.1922 43.0796 44.1969 43.0624 44.2 43.0452C44.3109 42.5733 44.7438 42.2093 45.2438 42.2093H57.7391C58.3203 42.2093 58.8109 42.6999 58.8109 43.2812C58.8109 43.8624 58.3203 44.353 57.7391 44.353ZM59.7 34.0499C59.3469 34.4437 58.9828 34.8515 58.6141 35.2827C57.4719 36.6233 56.7625 38.0812 56.4609 39.7108H46.525C46.2234 38.0812 45.5141 36.6233 44.3719 35.2812C44.0016 34.8483 43.6344 34.4374 43.2797 34.0405C41.1391 31.6468 39.4484 29.7562 39.4484 25.4046C39.4484 18.764 44.8531 13.3624 51.4953 13.3624C58.1359 13.3624 63.5375 18.7655 63.5375 25.4046C63.5375 29.764 61.8437 31.6546 59.7 34.0499ZM50.2453 8.37959V1.2499C50.2453 0.559277 50.8047 0.00146484 51.4938 0.00146484C52.1828 0.00146484 52.7422 0.56084 52.7422 1.2499V8.38115C52.7422 9.07178 52.1828 9.62959 51.4938 9.62959C50.8047 9.62959 50.2453 9.07022 50.2453 8.37959ZM58.925 10.0374L62.4859 3.86396C62.8297 3.26709 63.5937 3.06084 64.1922 3.40615C64.7891 3.75146 64.9953 4.51397 64.65 5.1124L61.0891 11.2858C60.8578 11.6874 60.4375 11.9108 60.0062 11.9108C59.7953 11.9108 59.5797 11.8577 59.3828 11.7437C58.7859 11.3983 58.5797 10.6343 58.925 10.0374ZM73.0375 14.4093L66.8625 17.9749C66.6656 18.089 66.4516 18.1421 66.2391 18.1421C65.8078 18.1421 65.3875 17.9187 65.1563 17.5171C64.8109 16.9202 65.0156 16.1562 65.6125 15.8108L71.7875 12.2452C72.3844 11.8999 73.1484 12.1046 73.4938 12.703C73.8391 13.2999 73.6344 14.064 73.0375 14.4093ZM76.8953 25.4062C76.8953 26.0968 76.3359 26.6546 75.6469 26.6546H68.5203C67.8312 26.6546 67.2719 26.0952 67.2719 25.4062C67.2719 24.7171 67.8312 24.1577 68.5203 24.1577H75.6469C76.3359 24.1562 76.8953 24.7155 76.8953 25.4062ZM38.3344 5.11084C37.9891 4.51397 38.1953 3.7499 38.7922 3.40459C39.3891 3.05928 40.1531 3.26553 40.4984 3.8624L44.0594 10.0358C44.4047 10.6327 44.1984 11.3968 43.6016 11.7421C43.4047 11.8562 43.1906 11.9093 42.9781 11.9093C42.5469 11.9093 42.1266 11.6858 41.8953 11.2843L38.3344 5.11084ZM29.4938 12.703C29.8391 12.1062 30.6031 11.9015 31.2 12.2468L37.3703 15.8124C37.9672 16.1577 38.1719 16.9218 37.8266 17.5187C37.5953 17.9187 37.175 18.1437 36.7438 18.1437C36.5312 18.1437 36.3172 18.089 36.1203 17.9765L29.95 14.4108C29.3531 14.064 29.1484 13.2999 29.4938 12.703ZM57.0578 18.5265L55.5875 19.3733C55.2937 19.1733 54.9875 18.9952 54.6688 18.8405V17.1499C54.6688 16.4593 54.1094 15.9015 53.4203 15.9015H49.5625C48.8734 15.9015 48.3141 16.4608 48.3141 17.1499V18.8437C47.9969 18.9983 47.6891 19.1765 47.3969 19.3749L45.925 18.5265C45.3281 18.1827 44.5641 18.3874 44.2188 18.9843L42.2922 22.3233C42.1266 22.6108 42.0812 22.9515 42.1672 23.2718C42.2531 23.5921 42.4625 23.864 42.75 24.0296L44.2203 24.8765C44.2078 25.053 44.2016 25.2296 44.2016 25.4062C44.2016 25.5827 44.2078 25.7593 44.2203 25.9358L42.75 26.7827C42.4625 26.9483 42.2531 27.2202 42.1672 27.5405C42.0812 27.8608 42.1266 28.2015 42.2922 28.489L44.2188 31.828C44.5641 32.4249 45.3266 32.6312 45.925 32.2858L47.3953 31.4374C47.6875 31.6358 47.9922 31.8124 48.3125 31.9671V33.6608C48.3125 34.3515 48.8719 34.9093 49.5609 34.9093H53.4188C54.1094 34.9093 54.6672 34.3499 54.6672 33.6608V31.9687C54.9859 31.814 55.2922 31.6374 55.5844 31.4374L57.0547 32.2858C57.6531 32.6312 58.4156 32.4249 58.7609 31.828L60.6875 28.489C60.8531 28.2015 60.8984 27.8608 60.8125 27.5405C60.7266 27.2202 60.5172 26.9483 60.2297 26.7827L58.7594 25.9358C58.7719 25.7593 58.7781 25.5827 58.7781 25.4062C58.7781 25.2296 58.7719 25.053 58.7594 24.8765L60.2297 24.0296C60.5172 23.864 60.7266 23.5921 60.8125 23.2718C60.8984 22.9515 60.8531 22.6108 60.6875 22.3233L58.7641 18.9843C58.4187 18.3858 57.6562 18.1812 57.0578 18.5265ZM56.1906 24.4499C56.2516 24.7624 56.2828 25.0843 56.2828 25.4062C56.2828 25.7249 56.2516 26.0468 56.1906 26.3655C56.0891 26.889 56.3312 27.4187 56.7938 27.6843L57.9031 28.3233L57.225 29.4983L56.1094 28.8546C55.6437 28.5858 55.0578 28.6452 54.6562 29.003C54.1813 29.4249 53.6312 29.7421 53.0203 29.9499C52.5141 30.1218 52.1719 30.5968 52.1719 31.1327V32.4124H50.8125V31.1327C50.8125 30.5983 50.4719 30.1233 49.9672 29.9499C49.3609 29.7437 48.7953 29.4155 48.3297 29.003C47.9281 28.6468 47.3422 28.5858 46.8766 28.8546L45.7609 29.4983L45.0828 28.3233L46.1922 27.6843C46.6547 27.4187 46.8969 26.889 46.7953 26.3655C46.7344 26.0483 46.7031 25.7249 46.7031 25.4062C46.7031 25.0843 46.7344 24.7624 46.7953 24.4499C46.8984 23.9249 46.6563 23.3937 46.1922 23.128L45.0828 22.489L45.7609 21.314L46.8766 21.9562C47.3422 22.2249 47.9281 22.1655 48.3297 21.8077C48.8016 21.389 49.3656 21.0624 49.9609 20.8624C50.4703 20.6921 50.8125 20.2155 50.8125 19.678V18.3983H52.1719V19.678C52.1719 20.2155 52.5156 20.6937 53.0266 20.8624C53.6266 21.0624 54.175 21.3812 54.6562 21.8077C55.0578 22.164 55.6437 22.2249 56.1094 21.9562L57.225 21.314L57.9031 22.489L56.7938 23.128C56.3297 23.3937 56.0875 23.9249 56.1906 24.4499ZM51.4938 22.0124C49.6234 22.0124 48.1016 23.5343 48.1016 25.4046C48.1016 27.2749 49.6234 28.7968 51.4938 28.7968C53.3625 28.7968 54.8828 27.2749 54.8828 25.4046C54.8828 23.5343 53.3625 22.0124 51.4938 22.0124ZM51.4938 26.2999C51 26.2999 50.5984 25.8983 50.5984 25.4046C50.5984 24.9108 51 24.5093 51.4938 24.5093C51.9844 24.5093 52.3844 24.9108 52.3844 25.4046C52.3844 25.8983 51.9844 26.2999 51.4938 26.2999Z" fill="white"/>
</g>
<defs>
<clipPath id="clip0_276_39">
<rect width="80" height="80" fill="white"/>
</clipPath>
</defs>
</svg>
