<svg width="80" height="80" viewBox="0 0 80 80" fill="none" xmlns="http://www.w3.org/2000/svg">
<g clip-path="url(#clip0_276_42)">
<path d="M72.5 15.6336C73.1628 15.6327 73.7982 15.369 74.2668 14.9004C74.7355 14.4317 74.9991 13.7963 75 13.1336V7.86133C74.9991 7.19855 74.7355 6.56317 74.2668 6.09451C73.7982 5.62586 73.1628 5.36219 72.5 5.36133H67.229C66.5662 5.36219 65.9308 5.62586 65.4622 6.09451C64.9935 6.56317 64.7299 7.19855 64.729 7.86133V9.24805H21.7103V7.86133C21.7094 7.19855 21.4457 6.56317 20.9771 6.09451C20.5084 5.62586 19.873 5.36219 19.2103 5.36133H13.9392C13.2764 5.36219 12.641 5.62586 12.1724 6.09451C11.7037 6.56317 11.4401 7.19855 11.4392 7.86133V13.1336C11.4401 13.7963 11.7037 14.4317 12.1724 14.9004C12.641 15.369 13.2764 15.6327 13.9392 15.6336H15.321V41.3306H8.75C7.75577 41.3316 6.80257 41.7271 6.09955 42.4301C5.39652 43.1331 5.00109 44.0863 5 45.0806V70.8887C5.00109 71.8829 5.39652 72.8361 6.09955 73.5391C6.80257 74.2422 7.75577 74.6376 8.75 74.6387H34.5581C35.5523 74.6376 36.5055 74.2422 37.2086 73.5391C37.9116 72.8361 38.307 71.8829 38.3081 70.8887V65.5957H64.729V66.9775C64.7299 67.6403 64.9935 68.2757 65.4622 68.7443C65.9308 69.213 66.5662 69.4766 67.229 69.4775H72.5C73.1628 69.4766 73.7982 69.213 74.2668 68.7443C74.7355 68.2757 74.9991 67.6403 75 66.9775V61.7065C74.9991 61.0437 74.7355 60.4083 74.2668 59.9397C73.7982 59.471 73.1628 59.2074 72.5 59.2065H71.1145V15.6336H72.5ZM67.229 7.86133H72.5L72.5013 13.1336H67.229V7.86133ZM13.9392 7.86133H19.2102C19.2097 9.17733 19.2117 11.818 19.2114 13.1336C17.8725 13.1326 15.2777 13.134 13.9392 13.1336L13.9392 7.86133ZM35.8081 70.8887C35.8079 71.2201 35.6761 71.5379 35.4417 71.7723C35.2074 72.0067 34.8896 72.1385 34.5581 72.1387H8.75C8.41855 72.1385 8.10073 72.0067 7.86636 71.7723C7.63199 71.5379 7.50022 71.2201 7.5 70.8887V45.0806C7.50023 44.7491 7.63199 44.4313 7.86637 44.1969C8.10074 43.9626 8.41855 43.8308 8.75 43.8306H34.5581C34.8896 43.8308 35.2074 43.9626 35.4417 44.1969C35.6761 44.4313 35.8079 44.7491 35.8081 45.0806V70.8887ZM72.5025 66.9775H67.229V61.7065H72.5L72.5025 66.9775ZM68.6146 59.2065H67.229C66.5662 59.2074 65.9308 59.471 65.4622 59.9397C64.9935 60.4083 64.7299 61.0437 64.729 61.7065V63.0957H38.3081V45.0806C38.307 44.0863 37.9116 43.1331 37.2086 42.4301C36.5055 41.7271 35.5523 41.3316 34.5581 41.3306H17.821V15.6336H19.2102C19.873 15.6327 20.5084 15.369 20.977 14.9004C21.4457 14.4317 21.7093 13.7963 21.7102 13.1336V11.7481H64.729V13.1336C64.7298 13.7963 64.9935 14.4317 65.4621 14.9004C65.9308 15.369 66.5662 15.6327 67.229 15.6336H68.6144L68.6146 59.2065Z" fill="white"/>
<path d="M59.6296 22.5535C59.299 22.2313 58.8955 21.9939 58.4534 21.8615C58.0112 21.7291 57.5437 21.7056 57.0905 21.793L48.404 23.5605C48.0843 23.6317 47.8054 23.8254 47.6272 24.1001C47.449 24.3748 47.3857 24.7085 47.451 25.0294C47.5163 25.3503 47.7049 25.6327 47.9762 25.8159C48.2476 25.9992 48.5801 26.0686 48.9021 26.0092L55.7946 24.6067C51.0458 29.3342 41.6175 38.7199 41.452 38.8865C41.336 39.0025 41.2439 39.1403 41.1811 39.2919C41.1183 39.4436 41.0859 39.6061 41.0859 39.7702C41.0859 39.9344 41.1183 40.0969 41.1811 40.2485C41.2439 40.4002 41.336 40.538 41.452 40.654C41.5681 40.7701 41.7059 40.8622 41.8575 40.925C42.0091 40.9878 42.1717 41.0201 42.3358 41.0201C42.4999 41.0201 42.6625 40.9878 42.8141 40.925C42.9657 40.8622 43.1035 40.7701 43.2196 40.654C43.3861 40.4885 52.808 31.1075 57.5563 26.381L56.1236 33.2627C56.0632 33.5845 56.1314 33.9172 56.3136 34.1893C56.4958 34.4614 56.7774 34.6512 57.0979 34.718C57.4185 34.7848 57.7525 34.7232 58.0282 34.5465C58.3039 34.3698 58.4992 34.092 58.5724 33.7728L60.3778 25.0949C60.4665 24.6424 60.4448 24.1751 60.3145 23.7327C60.1843 23.2903 59.9493 22.8858 59.6296 22.5535Z" fill="white"/>
</g>
<defs>
<clipPath id="clip0_276_42">
<rect width="80" height="80" fill="white"/>
</clipPath>
</defs>
</svg>
