<svg width="240" height="20" viewBox="0 0 240 20" fill="none" xmlns="http://www.w3.org/2000/svg">
<g clip-path="url(#clip0_264_217)">
<path d="M81.8891 2.28345C82.1815 2.23708 82.5887 2.21798 82.8905 2.21736C86.9637 2.20903 91.0438 2.22078 95.1162 2.21499L99.2359 2.21029C100.66 2.20976 102.305 2.01916 103.436 3.05166C103.651 3.25548 104.255 3.98786 104.266 4.26518C104.445 8.2952 104.296 12.4291 104.35 16.4625C104.366 17.6188 102.878 18.9567 101.76 18.9768L101.7 19.0401C100.478 19.1233 98.8845 19.0774 97.6357 19.077L90.6234 19.0777L84.8794 19.0746C83.9788 19.0739 83.0239 19.1446 82.1318 19.0653C81.7013 19.027 81.1793 18.8223 80.7961 18.6209C80.2841 18.3522 79.6876 17.433 79.5247 16.8973C79.3269 16.2496 79.3432 5.93504 79.4441 4.81774C79.4767 4.45963 79.6233 4.0063 79.7962 3.68957C80.2314 2.89113 81.0645 2.51903 81.8891 2.28345ZM83.6887 6.56653C83.6902 7.30442 83.6452 14.5314 83.7585 14.6712C83.9082 14.7581 83.9128 14.7917 84.0649 14.7954C89.3171 14.7878 94.7935 14.7075 100.026 14.7978C100.093 14.06 100.096 6.79197 99.9922 6.61269C99.8441 6.55889 99.8417 6.53306 99.7021 6.55646C94.3646 6.60437 89.0262 6.60773 83.6887 6.56653Z" fill="white"/>
<path d="M7.03093 2.24047C8.85754 2.17125 10.9086 2.2133 12.7591 2.21369L22.5835 2.22307C22.7384 2.45135 23.2078 2.9686 23.3342 3.13716C24.4652 4.64544 36.4229 18.6796 36.4129 19.0178C36.2068 19.123 31.8398 19.1221 31.385 18.9785C31.14 18.901 29.3139 16.5492 28.988 16.1798C28.5209 15.9666 23.6457 16.065 22.8429 16.0668L12.2848 16.0688C12.0954 16.5293 10.2979 18.6029 9.87991 19.0029C9.15836 19.0645 5.456 19.1517 4.89536 18.9867C5.0275 18.4521 6.17641 17.3847 6.45625 16.9855C7.23604 15.873 14.9048 7.08508 14.9239 6.62068C14.478 6.45011 11.1154 6.60665 10.364 6.56994C8.95272 6.50098 6.94797 6.62506 5.47306 6.57252C4.94044 6.55354 4.02965 6.66262 3.55571 6.50541L3.52344 6.3952L3.72374 6.26873C3.88155 5.86515 6.58289 2.72719 7.03093 2.24047ZM20.8855 12.1127C21.9218 12.1165 24.5211 12.1923 25.4362 12.0845C24.867 10.97 21.6753 7.30558 20.6678 6.2716L20.5504 6.25545C19.1697 7.76718 17.2223 10.3237 15.8137 11.9433C15.8121 11.9958 15.8107 12.0408 15.8096 12.0783C16.3352 12.2261 20.0867 12.115 20.8855 12.1127Z" fill="white"/>
<path d="M57.6388 2.27034C58.0266 2.16878 62.2649 2.20989 62.9569 2.21024L77.5326 2.22048L77.5373 6.57341C75.5681 6.63239 59.6584 6.44015 59.4206 6.72376C59.3533 7.01065 59.3616 7.29438 59.3637 7.58687C59.379 9.83235 59.4149 12.0743 59.365 14.319C59.3618 14.466 59.3963 14.618 59.4651 14.7486C59.7593 14.8249 61.9106 14.7961 62.3387 14.7959L69.2275 14.7912L77.5411 14.7836C77.5315 16.2148 77.5327 17.6458 77.5446 19.0769L58.8035 19.0788C54.3863 19.0585 54.9748 16.0161 54.9946 12.7578C53.9794 12.8035 52.7026 12.7694 51.6675 12.7705C51.6352 11.3837 51.6646 9.87843 51.6643 8.48194L55.0029 8.4859C54.9791 5.95006 54.3949 2.87665 57.6388 2.27034Z" fill="white"/>
<path d="M25.4907 2.20654C26.0383 2.2623 27.7026 2.21847 28.3099 2.21809L34.1523 2.21468L53.2374 2.22313L53.2502 6.59895C49.962 6.50108 46.1996 6.58854 42.8649 6.56503L42.8655 8.88145L42.8675 19.0714L38.5316 19.0778C38.5868 15.2389 38.6418 10.3799 38.5255 6.56189C37.8624 6.53032 36.8676 6.57488 36.1659 6.57925L31.6472 6.58571C30.9376 6.5857 29.6735 6.63295 29.0292 6.50866C28.573 6.21811 25.7607 2.82046 25.4297 2.30946L25.4907 2.20654Z" fill="white"/>
<path d="M1.77723 8.48111C2.95639 8.48095 10.6436 8.34955 11.2678 8.56721C11.1987 8.75112 10.0438 10.1253 9.79549 10.4833C9.58 10.5534 0.630067 10.5794 0.289062 10.4922C0.291774 10.2031 1.50858 8.8214 1.77723 8.48111Z" fill="white"/>
<path d="M177.407 2.38509C178.367 2.29805 185.254 2.24497 185.714 2.45271C186.425 3.53588 187.163 5.04828 187.776 6.22557L190.777 11.9595C191.29 12.9341 194.772 19.2033 194.872 19.8578H189.045C188.649 19.6816 187.638 17.3357 187.386 16.8114C186.111 16.8135 175.937 16.7059 175.616 16.9378C175.167 17.2635 174.646 19.3846 174.166 19.787C174.14 19.8084 174.115 19.8301 174.088 19.8487L174.074 19.8578H163.056C162.676 19.6402 161.7 17.4215 161.396 16.8264L154.099 16.8311C153.699 16.8307 149.987 16.7834 149.755 16.9114C149.32 17.1505 148.599 19.3082 148.117 19.8446L148.106 19.8578H142.207C142.192 19.8008 142.175 19.6804 142.2 19.631C143.524 17.0216 145.09 14.2388 146.454 11.6756L149.472 6.04083C149.857 5.31454 151.021 2.85914 151.482 2.39173C151.945 2.27529 159.634 2.28385 159.716 2.43759C161.469 5.71162 163.45 9.20405 165.152 12.5117L167.088 16.2758C167.505 17.0916 167.977 18.1355 168.515 18.8604C168.949 18.405 170.108 15.975 170.521 15.2291C171.854 12.8153 173.151 10.3155 174.472 7.8932C175.365 6.25531 176.445 3.93368 177.407 2.38509ZM151.602 13.0057C153.077 12.9935 154.553 12.9906 156.029 12.997C156.552 12.9991 159.013 13.0525 159.383 12.9501C159.421 12.612 156.525 7.23459 156.138 6.50017C156.027 6.29014 155.23 6.34618 154.976 6.35107C154.832 6.77949 154.58 7.19275 154.379 7.59817C153.48 9.40387 152.467 11.1861 151.602 13.0057ZM177.594 13.0146L182.151 13.0089C183.166 13.0202 184.182 13.0181 185.197 13.0026C185.281 12.9009 185.287 12.8883 185.275 12.7563C185.211 12.0971 182.518 7.21315 182.076 6.35139L180.974 6.34556C180.271 7.77956 179.55 9.20389 178.809 10.6183C178.518 11.173 177.788 12.4821 177.594 13.0146Z" fill="white"/>
<path d="M111.442 2.34377L118.107 2.32787C118.727 2.32923 120.66 2.29751 121.211 2.38486L125.295 11.2919C125.455 11.6387 126.103 13.274 126.268 13.4707L126.47 13.4578C127.017 12.466 127.577 11.1504 128.057 10.1046L130.177 5.51873C130.563 4.67064 131.211 3.09833 131.686 2.36436C134.796 2.27898 138.088 2.33076 141.211 2.33054C141.212 8.0634 141.32 14.153 141.201 19.8578H136.167L136.048 19.7491C135.88 19.2138 136.07 16.0759 136.094 14.8331C136.138 12.5911 136.122 9.14681 136.132 6.81928C136.087 6.77036 136.049 6.72918 136.018 6.69577C135.842 6.66427 135.268 6.62923 135.176 6.81138C133.068 10.9797 130.906 15.1338 128.852 19.3377C128.762 19.5224 128.625 19.7311 128.453 19.8478L128.438 19.8578H124.278C124.114 19.7718 122.382 16.2021 122.146 15.7344C120.629 12.7066 119.095 9.68747 117.544 6.67723C117.232 6.67502 116.92 6.67519 116.607 6.6777L116.659 15.2293C116.676 16.5609 116.763 18.5995 116.691 19.8578H111.539C111.242 19.1498 111.552 4.26044 111.442 2.34377Z" fill="white"/>
<path d="M195.713 2.37295C196.535 2.29414 197.822 2.33251 198.693 2.33211L203.92 2.32995L210.427 2.33754C215.583 2.37157 217.911 2.24999 217.619 8.58974C217.496 11.2892 217.489 12.0944 214.661 12.9872C216.798 13.3745 217.468 14.407 217.454 16.4748C217.447 17.5034 217.558 18.8554 217.458 19.8578H212.323C211.93 19.2055 212.509 16.592 211.718 15.8767C210.79 15.038 208.465 15.2866 207.182 15.2866C205.142 15.2976 203.102 15.2924 201.062 15.271L201.064 19.8578H195.707L195.713 2.37295ZM201.069 11.0025C202.403 11.0049 211.171 11.2357 211.761 10.6609C211.779 10.6425 211.793 10.6213 211.807 10.5987C212.388 9.9704 212.285 9.44068 212.288 8.62666C212.291 7.39615 212.097 6.79204 210.758 6.70008C209.166 6.59075 207.571 6.66308 205.976 6.64241C204.503 6.6793 202.604 6.56731 201.19 6.65275C201.147 6.65547 201.104 6.65881 201.061 6.66277L201.069 11.0025Z" fill="white"/>
<path d="M240 2.34112V6.77899C237.662 6.77142 234.559 6.68346 232.258 6.77349L232.262 15.1617C232.263 16.6653 232.227 18.3699 232.284 19.8578H226.623C226.683 15.5426 226.638 11.0972 226.629 6.77266L218.77 6.77097L218.772 2.36342C220.9 2.24954 223.921 2.33771 226.087 2.33797L240 2.34112Z" fill="white"/>
<path d="M105.718 0V0.212932H105.171V2.00559H104.909V0.212932H104.359V0H105.718Z" fill="white"/>
<path d="M108.074 0.0143873V2.00559H107.812V0.52082L107.151 2.00559H106.966L106.302 0.517943V2.00559H106.04V0.0143873H106.322L107.058 1.66029L107.795 0.0143873H108.074Z" fill="white"/>
</g>
<defs>
<clipPath id="clip0_264_217">
<rect width="240" height="19.8578" fill="white"/>
</clipPath>
</defs>
</svg>
