<svg width="80" height="80" viewBox="0 0 80 80" fill="none" xmlns="http://www.w3.org/2000/svg">
<g clip-path="url(#clip0_264_108)">
<path d="M72.5848 44.1606C72.3705 43.7459 71.9425 43.4855 71.4756 43.4855H48.5031C48.0983 43.4855 47.7183 43.6819 47.4842 44.0123L41.457 52.5202L35.4256 44.012C35.1914 43.6819 34.8117 43.4855 34.4069 43.4855H11.4347C10.9678 43.4855 10.5397 43.7461 10.3253 44.1608C10.1108 44.5755 10.1459 45.0753 10.4159 45.4564L17.2364 55.0777V57.5111H16.8008C16.2169 57.5111 15.7111 57.9156 15.5827 58.4852L15.1117 60.5727L13.2975 59.4311C12.8036 59.1206 12.1614 59.193 11.7494 59.6052L9.37141 61.9834C8.95875 62.3959 8.88688 63.0394 9.19844 63.5328L10.3419 65.345L8.25125 65.8166C7.68188 65.9452 7.27734 66.4509 7.27734 67.0347V70.3984C7.27734 70.9816 7.68094 71.487 8.24938 71.6161L10.3419 72.0916L9.19906 73.8997C8.88734 74.393 8.95859 75.0363 9.37078 75.4492L11.7487 77.8317C12.1614 78.245 12.805 78.3172 13.2991 78.0056L15.1116 76.862L15.5831 78.9486C15.7117 79.5178 16.2173 79.9222 16.8011 79.9222H20.1695C20.753 79.9222 21.2589 79.518 21.3875 78.9486L21.8589 76.8627L23.6661 78.0052C24.1598 78.3173 24.8034 78.2455 25.2162 77.8328L27.2333 75.8159H64.43C65.1197 75.8159 65.6787 75.2569 65.6787 74.5672V55.0773L72.495 45.4561C72.7644 45.075 72.7992 44.5753 72.5848 44.1606ZM13.8505 45.983H33.7616L39.0414 53.4311H19.1305L13.8505 45.983ZM24.4927 70.643C24.3847 70.978 24.2511 71.3002 24.0953 71.6006C23.8911 71.9945 23.9112 72.4673 24.1484 72.8427L25.1266 74.39L24.1564 75.3602L22.6092 74.382C22.2375 74.1472 21.7703 74.1252 21.3783 74.3233C21.0494 74.4895 20.7234 74.6252 20.4098 74.7262C19.9894 74.8614 19.6719 75.2089 19.5745 75.6397L19.1711 77.4244H17.7989L17.3956 75.6397C17.2983 75.2089 16.9806 74.8616 16.5602 74.7261C16.2466 74.6252 15.9208 74.4895 15.5922 74.3233C15.2005 74.1253 14.7334 74.1473 14.362 74.3814L12.8109 75.3602L11.8431 74.3908L12.8217 72.8427C13.0589 72.4675 13.0791 71.9948 12.875 71.6009C12.7189 71.2997 12.585 70.9773 12.4773 70.643C12.342 70.2233 11.9955 69.9061 11.5655 69.8084L9.77484 69.4016V68.033L11.5637 67.6294C11.9945 67.5322 12.3419 67.2145 12.4775 66.7942C12.5852 66.4602 12.7189 66.1378 12.8752 65.8364C13.0791 65.4428 13.0589 64.9705 12.8225 64.5956L11.8431 63.0438L12.8112 62.0756L14.3636 63.0523C14.735 63.2859 15.2011 63.307 15.5923 63.1095C15.905 62.9513 16.2308 62.8172 16.5603 62.7111C16.9809 62.5758 17.2988 62.2281 17.3959 61.797L17.7995 60.0083H19.1709L19.5745 61.7972C19.6717 62.228 19.9894 62.5755 20.41 62.7109C20.7438 62.8184 21.0659 62.9522 21.3677 63.1086C21.7616 63.3125 22.2342 63.2922 22.6092 63.0552L24.1572 62.0766L25.1269 63.0444L24.148 64.5955C23.9114 64.9706 23.8914 65.443 24.0955 65.8366C24.2514 66.1373 24.3852 66.4594 24.4928 66.7941C24.6283 67.2144 24.9756 67.5317 25.4063 67.6291L27.1909 68.0325V69.4017L25.4042 69.8083C24.9744 69.9064 24.6278 70.2234 24.4927 70.643ZM40.2086 73.3181H27.4036L26.628 72.0913L28.7167 71.6159C29.285 71.4866 29.6883 70.9813 29.6883 70.3983V67.0345C29.6883 66.4509 29.2842 65.9452 28.7148 65.8166L26.6281 65.345L27.7719 63.5327C28.0834 63.0388 28.0113 62.395 27.598 61.9823L25.2153 59.6041C24.8027 59.1922 24.1595 59.1205 23.6658 59.4325L21.8588 60.5748L21.3873 58.4848C21.2587 57.9155 20.7528 57.5109 20.1692 57.5109H19.7338V55.9284H40.2086V73.3181ZM63.1809 73.3181H42.7059V55.9286H63.1808V73.3181H63.1809ZM63.7839 53.4311H43.8722L49.1487 45.983H69.0605L63.7839 53.4311ZM41.3687 26.2506C44.0925 26.2506 46.3086 24.0347 46.3086 21.3109C46.3086 18.5872 44.0925 16.3713 41.3687 16.3713C38.645 16.3713 36.4292 18.5872 36.4292 21.3109C36.4292 24.0347 38.6452 26.2506 41.3687 26.2506ZM41.3687 18.8688C42.7155 18.8688 43.8111 19.9644 43.8111 21.3109C43.8111 22.6575 42.7155 23.7531 41.3687 23.7531C40.022 23.7531 38.9266 22.6577 38.9266 21.3109C38.9266 19.9642 40.0222 18.8688 41.3687 18.8688ZM27.7544 28.8852H33.662C33.9317 29.8933 34.2513 30.8856 34.6245 31.8586C34.8008 32.3184 35.2305 32.6259 35.7177 32.6545V35.5134C35.7177 36.2031 36.2767 36.7622 36.9664 36.7622H45.9439C46.6336 36.7622 47.1927 36.2031 47.1927 35.5134V32.6548C47.682 32.6278 48.1141 32.3191 48.2906 31.8572C48.6625 30.8842 48.9811 29.8925 49.2498 28.8852H55.1559C55.8456 28.8852 56.4047 28.3261 56.4047 27.6364V20.8602C56.4047 20.4589 56.2119 20.082 55.8864 19.8473L49.8302 15.48C48.8283 9.69797 46.2239 4.40109 42.3489 0.452188C42.1141 0.212969 41.793 0.078125 41.4578 0.078125C41.4577 0.078125 41.4577 0.078125 41.4575 0.078125C41.1225 0.078125 40.8014 0.212812 40.5666 0.451875C36.6889 4.39953 34.0828 9.69672 33.0805 15.48L27.0241 19.8473C26.6986 20.082 26.5058 20.4589 26.5058 20.8602V27.6364C26.5056 28.3261 27.0647 28.8852 27.7544 28.8852ZM50.2913 20.838C50.2913 20.1705 50.2684 19.5059 50.2266 18.845L53.907 21.4992V26.3878H49.8052C50.1278 24.5775 50.2913 22.7236 50.2913 20.838ZM44.6952 34.2647H38.215V32.66H44.6952V34.2647ZM41.4569 3.16359C43.3528 5.33297 44.8645 7.885 45.9352 10.6736H36.9756C38.047 7.88453 39.5595 5.3325 41.4569 3.16359ZM36.1537 13.1709H46.7566C47.4358 15.6189 47.7937 18.2031 47.7937 20.838C47.7937 24.0755 47.2747 27.2081 46.2502 30.1627H36.6633C35.6366 27.2114 35.1164 24.0791 35.1164 20.838C35.1164 18.203 35.4744 15.6187 36.1537 13.1709ZM29.0031 21.4992L32.6836 18.8452C32.6417 19.5059 32.6189 20.1705 32.6189 20.8381C32.6189 22.7247 32.7825 24.5784 33.1056 26.3878H29.0031V21.4992ZM44.3481 37.717H38.562C38.1939 37.717 37.8448 37.8794 37.6075 38.1606C37.3702 38.442 37.2691 38.8136 37.3311 39.1764C37.9481 42.783 38.9945 46.0309 40.3572 48.5694C40.5748 48.9747 40.9975 49.2275 41.4575 49.2275H41.4584C41.9186 49.2272 42.3416 48.9736 42.5586 48.5678C43.9187 46.0255 44.9631 42.778 45.5794 39.1764C45.6412 38.8136 45.5403 38.442 45.303 38.1608C45.0656 37.8795 44.7162 37.717 44.3481 37.717ZM41.4558 44.9669C40.9009 43.5294 40.4342 41.9292 40.0716 40.2144H42.8387C42.4762 41.928 42.0102 43.5283 41.4558 44.9669ZM18.485 63.8056C15.7759 63.8056 13.5717 66.0097 13.5717 68.7187C13.5717 71.4278 15.7758 73.6319 18.485 73.6319C21.1942 73.6319 23.3981 71.4278 23.3981 68.7187C23.3981 66.0097 21.1942 63.8056 18.485 63.8056ZM18.485 71.1344C17.153 71.1344 16.0692 70.0508 16.0692 68.7187C16.0692 67.3867 17.1531 66.3031 18.485 66.3031C19.8169 66.3031 20.9006 67.3867 20.9006 68.7187C20.9006 70.0508 19.817 71.1344 18.485 71.1344ZM19.7381 33.5994C19.7381 32.9097 20.2972 32.3506 20.9869 32.3506C26.2073 32.3506 30.8177 35.8619 32.1984 40.8894C32.3811 41.5544 31.9902 42.2416 31.325 42.4242C31.2144 42.4545 31.103 42.4691 30.9934 42.4691C30.4452 42.4691 29.9423 42.1052 29.7902 41.5508C28.7063 37.6044 25.0862 34.8481 20.9867 34.8481C20.2972 34.8481 19.7381 34.2891 19.7381 33.5994ZM15.0328 35.1045C17.0791 35.1045 18.7438 33.4398 18.7438 31.3937C18.7438 29.3477 17.0792 27.683 15.0328 27.683C12.9866 27.683 11.3219 29.3477 11.3219 31.3937C11.3219 33.4398 12.9866 35.1045 15.0328 35.1045ZM15.0328 30.1803C15.702 30.1803 16.2463 30.7247 16.2463 31.3937C16.2463 32.0628 15.702 32.6072 15.0328 32.6072C14.3638 32.6072 13.8194 32.0628 13.8194 31.3937C13.8194 30.7247 14.3636 30.1803 15.0328 30.1803ZM61.9233 32.3506C62.613 32.3506 63.172 32.9097 63.172 33.5994C63.172 34.2891 62.613 34.8481 61.9233 34.8481C57.8278 34.8481 54.2075 37.6048 53.1194 41.5519C52.9667 42.1056 52.4641 42.4691 51.9164 42.4691C51.8064 42.4691 51.6948 42.4545 51.5839 42.4239C50.9191 42.2408 50.5286 41.5531 50.7119 40.8883C52.0975 35.8614 56.7077 32.3506 61.9233 32.3506ZM67.8819 35.1045C69.9281 35.1045 71.5927 33.4398 71.5927 31.3937C71.5927 29.3477 69.9281 27.683 67.8819 27.683C65.8356 27.683 64.1709 29.3477 64.1709 31.3937C64.1709 33.4398 65.8356 35.1045 67.8819 35.1045ZM67.8819 30.1803C68.5509 30.1803 69.0953 30.7247 69.0953 31.3937C69.0953 32.0628 68.5511 32.6072 67.8819 32.6072C67.2127 32.6072 66.6684 32.0628 66.6684 31.3937C66.6684 30.7247 67.2127 30.1803 67.8819 30.1803Z" fill="white"/>
</g>
<defs>
<clipPath id="clip0_264_108">
<rect width="80" height="80" fill="white"/>
</clipPath>
</defs>
</svg>
