<svg width="181" height="40" viewBox="0 0 181 40" fill="none" xmlns="http://www.w3.org/2000/svg">
<g clip-path="url(#clip0_261_35)">
<path fill-rule="evenodd" clip-rule="evenodd" d="M10.281 30.468C7.56733 30.468 4.50054 30.2773 2.29989 28.8906C1.86868 28.6176 1.89842 28.5466 1.90586 27.8701C1.90957 27.3991 1.90586 26.9244 1.90586 26.4534C6.00606 28.6363 13.7493 28.3971 17.4033 26.4534C17.4033 27.9149 17.5967 28.3486 17.0316 28.8382C16.7788 29.0587 16.4406 29.1709 16.1097 29.3279C15.7789 29.4849 15.4555 29.6157 15.1061 29.7353C13.8607 30.154 11.6489 30.4717 10.281 30.4717V30.468ZM1.90586 22.0426C2.69021 22.5696 4.25892 22.9883 5.35552 23.2201C8.37767 23.8592 12.8422 23.7321 15.7528 22.7453L17.4071 22.0463C17.4071 23.4929 17.6078 24.0461 16.9498 24.4984C16.4889 24.8161 15.422 25.2684 14.8867 25.4142C11.582 26.3188 7.78665 26.3525 4.48939 25.4291C3.80541 25.2386 2.92812 24.8984 2.38911 24.5507C1.69397 24.1022 1.90586 23.7583 1.90586 22.0463V22.0426ZM9.6565 21.7286C7.71602 21.7286 5.99118 21.4258 4.47452 21.0371C3.78682 20.8614 3.00618 20.5287 2.44115 20.1698C1.97277 19.8746 1.89842 19.9755 1.90586 19.2129C1.90586 18.7121 1.90586 18.2149 1.90586 17.714C2.43372 17.8373 3.54891 18.5812 6.06553 18.9625C9.60067 19.497 14.2473 19.3176 17.4033 17.6355C17.4033 19.8633 17.868 20.054 14.8904 21.0109C13.5485 21.4445 11.4073 21.7286 9.6565 21.7286ZM1.90586 15.3516C2.71623 14.1367 7.01345 13.3854 8.716 13.3854C10.794 13.3854 12.2326 13.3817 14.3068 13.905C15.1952 14.1293 16.8309 14.6077 17.329 15.3553C16.3811 16.7757 11.5374 17.3215 9.6565 17.3215C7.58592 17.3215 4.37416 16.9477 2.62702 15.8899C2.29617 15.6917 2.11774 15.6693 1.90586 15.3553V15.3516ZM8.66025 32.3594C8.76433 32.2024 10.5375 32.2659 10.6676 32.2958C10.6899 32.2996 10.7159 32.3145 10.7345 32.3182C10.7531 32.322 10.7753 32.3369 10.7977 32.3481C11.504 32.3668 12.2548 32.251 12.898 32.1501C13.6637 32.0304 14.1804 31.9445 14.8793 31.7837C15.9908 31.5258 17.2323 30.9688 18.1394 30.3409C19.6188 29.3166 19.2806 28.2701 19.2806 26.7637C19.2806 25.4516 19.3735 15.4488 19.236 14.9217C19.0984 14.4021 18.5668 13.8003 18.1988 13.5237C16.4071 12.1818 12.8719 11.494 10.7753 11.4903C10.7567 11.4977 10.7345 11.5127 10.7196 11.5165C10.7047 11.5201 10.6787 11.5351 10.6602 11.5389L9.6565 11.5576C9.42225 11.5576 8.768 11.6436 8.66392 11.4791C6.89077 11.5463 5.11018 11.8006 3.57865 12.3051C2.60099 12.6266 1.99507 12.9294 1.15496 13.4864C-0.283643 14.4396 0.0286116 15.5684 0.0286116 17.086C0.0286116 18.3121 -0.0308654 28.5167 0.0583501 28.9429C0.236782 29.7839 1.14752 30.3782 1.81292 30.8006C3.36676 31.7912 6.76439 32.3033 8.66025 32.3668V32.3594Z" fill="white"/>
<path fill-rule="evenodd" clip-rule="evenodd" d="M8.66359 11.4867L10.775 11.4942C10.7268 10.4961 11.3661 9.73359 12.0798 9.44575C12.8308 9.14667 14.3511 9.28875 15.3697 9.28875H22.1798V12.9893C22.1798 14.4696 22.0423 15.2583 22.8228 16.0433C23.5812 16.8095 24.4138 16.6899 25.8599 16.6899H29.5401V31.1746C29.5401 32.5613 29.5698 33.9706 27.9008 34.4042C27.1796 34.5911 15.3064 34.4752 13.4924 34.4789C12.3438 34.4789 11.8828 34.4117 11.2732 33.7201C11.1208 33.5482 11.1208 33.5706 11.0093 33.3575C10.8643 33.0734 10.7825 32.6698 10.7973 32.352L8.65993 32.3633C8.59301 32.9725 8.64134 33.6977 8.63759 34.3257C8.63759 34.7069 8.60409 34.9163 8.71193 35.1928C9.39218 36.9048 10.7304 36.6058 12.3178 36.6058H28.2873C28.8673 36.6058 29.6813 36.7254 30.1906 36.5535C32.0567 35.9218 31.6515 34.0042 31.6515 31.9633V15.034L24.4511 7.16557H10.6673C9.50376 7.15809 8.70076 8.15239 8.63384 8.89625C8.58926 9.39717 8.59668 11.0082 8.65993 11.4867H8.66359Z" fill="white"/>
<path fill-rule="evenodd" clip-rule="evenodd" d="M20.5391 30.4683H26.2526C27.7692 30.4683 28.1075 28.1844 26.0964 28.1844H20.5391V30.4683Z" fill="white"/>
<path fill-rule="evenodd" clip-rule="evenodd" d="M20.5391 26.2146H26.3306C27.0257 26.2146 27.5053 25.7362 27.5053 25.0334C27.5053 24.5512 26.9663 24.0092 26.4867 24.0092H20.5391V26.2146Z" fill="white"/>
<path fill-rule="evenodd" clip-rule="evenodd" d="M20.5391 21.9645H26.5648C26.825 21.9645 27.1001 21.7739 27.2376 21.6169C27.9588 20.7982 27.0629 19.759 26.4086 19.759H20.5391V21.9645Z" fill="white"/>
<path fill-rule="evenodd" clip-rule="evenodd" d="M10.7976 32.3521C10.7753 32.341 10.753 32.3297 10.7344 32.3223C10.7158 32.3186 10.6898 32.3036 10.6675 32.2998C10.5374 32.27 8.76424 32.2064 8.66016 32.3634L10.7976 32.3521Z" fill="white"/>
<path fill-rule="evenodd" clip-rule="evenodd" d="M10.7755 11.4979L8.66406 11.4905C8.76815 11.6549 9.4224 11.5727 9.65656 11.569L10.6602 11.5502C10.6788 11.5466 10.7049 11.5316 10.7197 11.5278C10.7346 11.5241 10.7569 11.5091 10.7755 11.5016V11.4979Z" fill="white"/>
<path fill-rule="evenodd" clip-rule="evenodd" d="M65.8555 10.7277L63.2496 17.6206H68.5543L65.8555 10.7277ZM64.0155 7.16919H67.9856L75.58 25.0778H71.4129L69.781 20.8127H62.0415L60.4542 25.0778H56.4805L64.0155 7.16919Z" fill="white"/>
<path fill-rule="evenodd" clip-rule="evenodd" d="M78.438 25.074V10.309H72.6836V7.19159H88.0883V10.309H82.3077V25.074H78.438Z" fill="white"/>
<path fill-rule="evenodd" clip-rule="evenodd" d="M94.5703 10.7277L91.9645 17.6206H97.2695L94.5703 10.7277ZM92.7303 7.16919H96.7003L104.295 25.0778H100.128L98.4961 20.8127H90.757L89.1695 25.0778H85.1953L92.7303 7.16919Z" fill="white"/>
<path fill-rule="evenodd" clip-rule="evenodd" d="M105.539 7.16919H110.279L117.576 20.0316L117.394 7.16919H121.215V25.0741H116.873L109.212 11.5277L109.383 25.0741H105.539V7.16919Z" fill="white"/>
<path fill-rule="evenodd" clip-rule="evenodd" d="M123.691 15.9391C123.691 12.8627 124.424 10.5713 125.892 9.0724C127.356 7.57349 129.583 6.81842 132.58 6.81842C135.576 6.81842 137.828 7.57723 139.275 9.09481C140.724 10.6125 141.449 12.9524 141.449 16.1185C141.449 19.2846 140.724 21.632 139.275 23.1571C137.828 24.6821 135.595 25.4485 132.58 25.4485C129.565 25.4485 127.282 24.6785 125.844 23.1459C124.409 21.6133 123.691 19.2098 123.691 15.9391ZM132.58 9.88731C130.97 9.88731 129.773 10.3919 128.974 11.3974C128.182 12.403 127.784 13.9281 127.784 15.9652C127.784 18.1744 128.167 19.7891 128.941 20.8171C129.71 21.8451 130.921 22.3609 132.58 22.3609C134.237 22.3609 135.416 21.8488 136.204 20.8321C136.988 19.8153 137.382 18.2454 137.382 16.126C137.382 14.0066 136.988 12.4254 136.204 11.4124C135.416 10.3994 134.208 9.89106 132.58 9.89106V9.88731Z" fill="white"/>
<path fill-rule="evenodd" clip-rule="evenodd" d="M147.903 10.309H142.148V7.19159H157.549V10.309H151.773V25.074H147.903V10.309Z" fill="white"/>
<path fill-rule="evenodd" clip-rule="evenodd" d="M167.695 14.5781L172.863 14.5855V17.6917H167.695V14.5781Z" fill="white"/>
<path fill-rule="evenodd" clip-rule="evenodd" d="M166.711 10.283C165.351 10.283 164.328 10.6232 163.641 11.3109C162.949 11.9913 162.566 13.0416 162.496 14.4508L162.469 17.5683C162.477 19.127 162.807 20.2484 163.458 20.9362C164.109 21.6165 165.191 21.9604 166.711 21.9604H172.863V25.0779H166.529C165.131 25.0779 164.034 24.9583 163.239 24.719C162.44 24.4798 161.689 24.0761 160.987 23.5042C160.076 22.7716 159.395 21.8221 158.934 20.6484C158.481 19.4709 158.25 18.0692 158.25 16.4357C158.25 13.2697 158.934 10.9334 160.298 9.427C161.659 7.91686 163.771 7.16553 166.637 7.16553H172.863V10.283H166.711Z" fill="white"/>
<path d="M44.0293 18.3011H38.918V21.3439H44.0293V18.3011Z" fill="white"/>
<path d="M44.0293 10.9074H38.918V13.9501H44.0293V10.9074Z" fill="white"/>
<path fill-rule="evenodd" clip-rule="evenodd" d="M46.6163 14.5671L41.4492 14.5745V17.6807H46.6163V14.5671Z" fill="white"/>
<path fill-rule="evenodd" clip-rule="evenodd" d="M47.6014 10.283C48.9619 10.283 49.9841 10.6232 50.6719 11.3109C51.3633 11.9913 51.7461 13.0416 51.8168 14.4508L51.8428 17.5683C51.8354 19.127 51.5046 20.2484 50.8541 20.9362C50.2035 21.6165 49.1217 21.9604 47.6014 21.9604H41.4492V25.0779H47.7836C49.1812 25.0779 50.2778 24.9583 51.0733 24.719C51.8726 24.4798 52.6235 24.0761 53.3261 23.5042C54.2368 22.7716 54.9171 21.8221 55.378 20.6484C55.8315 19.4709 56.0582 18.0692 56.0582 16.4357C56.0582 13.2697 55.378 10.9334 54.0137 9.427C52.6532 7.91686 50.5417 7.16553 47.6757 7.16553H41.4492V10.283H47.6014Z" fill="white"/>
<path fill-rule="evenodd" clip-rule="evenodd" d="M175.851 4.84441V1.70077H177.182C177.517 1.70077 177.759 1.73068 177.911 1.78675C178.063 1.84282 178.182 1.94374 178.276 2.08953C178.365 2.23531 178.413 2.39978 178.413 2.58668C178.413 2.82217 178.346 3.01654 178.208 3.1698C178.071 3.32306 177.866 3.42024 177.591 3.46136C177.729 3.53986 177.841 3.62957 177.926 3.72302C178.015 3.82021 178.134 3.98842 178.283 4.23512L178.666 4.84815H177.911L177.457 4.16036C177.294 3.91739 177.182 3.76413 177.123 3.70059C177.064 3.63704 177.001 3.59219 176.933 3.56976C176.866 3.54733 176.759 3.53612 176.614 3.53612H176.487V4.84815H175.856L175.851 4.84441ZM177.256 0C176.357 0 175.543 0.366321 174.956 0.956917C174.368 1.54752 174.004 2.36613 174.004 3.27072C174.004 4.17531 174.368 4.99392 174.956 5.58452C175.543 6.17512 176.357 6.54145 177.256 6.54145C178.156 6.54145 178.971 6.17512 179.558 5.58452C180.145 4.99392 180.51 4.17531 180.51 3.27072C180.51 2.36613 180.145 1.54752 179.558 0.956917C178.971 0.366321 178.156 0 177.256 0ZM179.249 1.27091C178.74 0.758807 178.034 0.44108 177.256 0.44108C176.48 0.44108 175.774 0.758807 175.264 1.27091C174.755 1.78301 174.439 2.49322 174.439 3.27446C174.439 4.0557 174.755 4.76591 175.264 5.27802C175.774 5.79012 176.48 6.10784 177.256 6.10784C178.034 6.10784 178.74 5.79012 179.249 5.27802C179.759 4.76591 180.075 4.0557 180.075 3.27446C180.075 2.49322 179.759 1.78301 179.249 1.27091ZM176.484 3.03523H176.952C177.253 3.03523 177.443 3.02028 177.521 2.99785C177.595 2.97168 177.655 2.92683 177.699 2.86328C177.744 2.79974 177.762 2.72124 177.762 2.62779C177.762 2.52313 177.732 2.43716 177.677 2.36987C177.621 2.30632 177.543 2.26521 177.439 2.24652C177.387 2.23904 177.235 2.23531 176.978 2.23531H176.484V3.03523Z" fill="white"/>
<path d="M60.1325 34.281H41.4492V35.0286H60.1325V34.281Z" fill="white"/>
<path d="M68.9343 29.8027C69.726 29.8027 70.4212 29.9373 71.0233 30.2101C71.7297 30.5316 72.224 31.0736 72.5066 31.8361C72.7296 32.4342 72.8448 33.1369 72.8448 33.9481C72.8448 34.7592 72.7073 35.4582 72.4322 36.0525C72.0939 36.7665 71.5773 37.2674 70.8709 37.544C70.3468 37.7533 69.7408 37.858 69.0569 37.858C68.1684 37.858 67.3915 37.6898 66.7336 37.3571C66.1797 37.0768 65.7596 36.6394 65.4659 36.0413C65.1723 35.4433 65.0273 34.7218 65.0273 33.8696C65.0273 32.3519 65.4028 31.2717 66.1537 30.6288C66.7893 30.083 67.7149 29.8102 68.9379 29.8027H68.9343ZM68.9453 31.1446C68.1684 31.1446 67.6108 31.3988 67.2763 31.9072C67.0123 32.3033 66.8823 32.9426 66.8823 33.821C66.8823 34.7555 67.0495 35.4395 67.3803 35.8806C67.7075 36.3104 68.2317 36.5273 68.9528 36.5273C69.6739 36.5273 70.1609 36.3104 70.4918 35.8731C70.8226 35.4358 70.9862 34.7592 70.9862 33.8397C70.9862 33.0061 70.8523 32.3743 70.5847 31.9333C70.2724 31.4138 69.726 31.1521 68.9453 31.1446Z" fill="white"/>
<path d="M74.0078 32.0007H76.7847C77.3274 32.0007 77.7362 32.0343 78.0151 32.1016C78.2939 32.1689 78.5578 32.2997 78.8031 32.4941C79.4908 33.0399 79.8366 33.8734 79.8366 34.9948C79.8366 35.8471 79.5838 36.5349 79.0782 37.0656C78.8255 37.3273 78.5355 37.5142 78.2084 37.6338C77.8812 37.7535 77.4798 37.8132 77.004 37.8132H75.6026V40H74.0152V32.0007H74.0078ZM75.5951 33.2417V36.5722H76.5691C77.0821 36.5722 77.4612 36.4601 77.7066 36.2396C78.0374 35.9406 78.2046 35.4845 78.2046 34.8752C78.2046 34.3519 78.0746 33.9482 77.8106 33.6641C77.5467 33.3801 77.1712 33.2417 76.6806 33.2417H75.5951Z" fill="white"/>
<path d="M85.7329 34.2809V35.5219H82.3796C82.4093 35.9031 82.532 36.1723 82.7476 36.333C82.9633 36.4937 83.3089 36.5722 83.7888 36.5722H85.7329V37.8132H83.6171C83.1565 37.8132 82.7848 37.7721 82.4948 37.6899C82.2086 37.6076 81.9335 37.4694 81.6733 37.2712C80.9745 36.7255 80.625 35.9144 80.625 34.8341C80.625 34.1276 80.8109 33.5108 81.1827 32.9913C81.4391 32.6324 81.7439 32.3782 82.0971 32.2287C82.4539 32.0755 82.9186 32.0007 83.4988 32.0007H85.7329V33.2417H83.6171C83.1826 33.2417 82.8814 33.3165 82.703 33.4622C82.5246 33.6081 82.4205 33.8809 82.3796 34.2771H85.7329V34.2809Z" fill="white"/>
<path d="M87.043 32.0007H90.1096C90.5671 32.0007 90.9163 32.0343 91.158 32.0979C91.4038 32.1651 91.6188 32.2848 91.8121 32.4642C92.218 32.8343 92.4221 33.4211 92.4221 34.2323V37.8132H90.8346V34.0529C90.8346 33.7651 90.7713 33.5595 90.6455 33.4324C90.5188 33.3052 90.3105 33.2417 90.0205 33.2417H88.6338V37.8132H87.0471V32.0007H87.043Z" fill="white"/>
<path d="M93.8516 29.8556H95.5316V34.3224C95.5541 34.8906 95.5799 35.2682 95.6057 35.455C95.6616 35.8176 95.8332 36.0643 96.1266 36.1989C96.4166 36.3334 96.9332 36.4008 97.6657 36.4008H99.2824V37.8174H97.4907C96.6432 37.8174 96.0299 37.7726 95.6474 37.6717C94.7732 37.4138 94.2199 36.8568 93.9891 35.997C93.8999 35.6681 93.8549 35.1074 93.8516 34.3224V29.8556Z" fill="white"/>
<path d="M102.903 31.9149C103.97 31.9149 104.758 32.2252 105.267 32.8493C105.736 33.4175 105.97 34.1277 105.97 34.9837C105.97 35.8921 105.677 36.6172 105.089 37.1592C104.55 37.6564 103.814 37.9068 102.881 37.9068C101.948 37.9068 101.156 37.6302 100.606 37.0732C100.104 36.5649 99.8516 35.8322 99.8516 34.8753C99.8516 34.0605 100.093 33.3802 100.576 32.8419C101.115 32.2401 101.888 31.9336 102.899 31.9223L102.903 31.9149ZM102.914 33.1409C101.959 33.1409 101.483 33.739 101.483 34.9314C101.483 35.4173 101.562 35.7874 101.713 36.0378C101.974 36.464 102.376 36.6771 102.926 36.6771C103.87 36.6771 104.342 36.0864 104.342 34.8977C104.342 33.7091 103.866 33.1484 102.914 33.1372V33.1409Z" fill="white"/>
<path d="M112.692 32.0007V37.7721C112.692 38.0973 112.655 38.3889 112.581 38.6431C112.507 38.8972 112.398 39.1141 112.25 39.2935C112.072 39.5141 111.852 39.6673 111.596 39.7532C111.335 39.8392 110.96 39.8803 110.469 39.8803H107.298V38.6393H110.253C110.603 38.6393 110.83 38.587 110.937 38.4786C111.046 38.3702 111.101 38.1496 111.101 37.8095H109.64C109.172 37.8095 108.789 37.7609 108.484 37.66C108.179 37.5591 107.904 37.3946 107.659 37.1628C107.079 36.6171 106.789 35.8658 106.789 34.9014C106.789 33.8024 107.142 32.9987 107.845 32.4941C108.102 32.3147 108.369 32.1876 108.652 32.1128C108.934 32.0381 109.291 32.0007 109.726 32.0007H112.696H112.692ZM111.105 33.2417H109.789C108.874 33.2417 108.413 33.7986 108.413 34.9088C108.413 35.4546 108.537 35.8658 108.785 36.1461C109.034 36.4265 109.395 36.5685 109.871 36.5685H111.105V33.238V33.2417Z" fill="white"/>
<path d="M114.258 31.4068V29.8556H115.844V31.4068H114.258ZM114.258 32.0012H115.844V37.8137H114.258V32.0012Z" fill="white"/>
<path d="M122.243 32.0005V33.2415H120.336C119.7 33.2415 119.258 33.3835 119.01 33.6713C118.775 33.9442 118.656 34.3554 118.656 34.9086C118.656 35.5328 118.85 35.9889 119.236 36.2655C119.395 36.3814 119.567 36.4636 119.753 36.5047C119.939 36.5496 120.199 36.5682 120.53 36.5682H122.247V37.8092H120.072C119.489 37.8092 119.028 37.7495 118.685 37.6298C118.344 37.5102 118.043 37.3009 117.775 37.0019C117.28 36.4449 117.031 35.7421 117.031 34.8861C117.031 33.8507 117.329 33.0807 117.924 32.5649C118.158 32.3593 118.444 32.2136 118.775 32.1238C119.105 32.0378 119.537 31.993 120.069 31.993H122.243V32.0005Z" fill="white"/>
<path d="M132.407 29.8548V31.2715H130.21C129.633 31.2715 129.217 31.3126 128.953 31.3911C128.689 31.4696 128.474 31.6266 128.302 31.8547C128.187 32.0116 128.106 32.1686 128.065 32.3256C128.024 32.4863 127.987 32.7555 127.953 33.1405H132.407V34.5572H127.953C128.013 35.245 128.21 35.7234 128.552 35.9926C128.894 36.2617 129.47 36.3962 130.284 36.3962H132.407V37.8129H130.21C129.615 37.8129 129.091 37.7756 128.637 37.7008C127.927 37.5849 127.358 37.2709 126.938 36.7626C126.34 36.0299 126.039 35.0394 126.039 33.7872C126.039 32.4003 126.462 31.3201 127.31 30.5501C127.6 30.2884 127.909 30.109 128.24 30.0043C128.567 29.8997 129.009 29.8511 129.563 29.8511H132.411L132.407 29.8548Z" fill="white"/>
<path d="M135.422 34.7896V37.8173H133.742V29.8593H137.604C138.712 29.8593 139.489 30.0013 139.927 30.2853C140.225 30.476 140.456 30.7264 140.619 31.0404C140.782 31.3544 140.864 31.6983 140.864 32.0758C140.864 32.8347 140.675 33.4178 140.291 33.8252C140.057 34.0757 139.741 34.2625 139.351 34.3971C139.66 34.5018 139.894 34.6177 140.054 34.741C140.214 34.8643 140.355 35.0475 140.481 35.2905C140.578 35.4774 140.645 35.6606 140.686 35.8363C140.726 36.0119 140.76 36.2736 140.786 36.6212C140.831 37.1931 140.898 37.5931 140.976 37.8211H139.087C139.028 37.6342 138.972 37.2567 138.912 36.6885C138.868 36.2213 138.782 35.8662 138.66 35.6194C138.537 35.3728 138.355 35.1783 138.106 35.04C137.801 34.8718 137.355 34.7896 136.771 34.7933H135.415L135.422 34.7896ZM135.422 33.3729H137.786C138.181 33.3729 138.459 33.3131 138.626 33.1973C138.879 33.0178 139.002 32.7113 139.002 32.2777C139.002 31.7918 138.812 31.4815 138.433 31.3432C138.303 31.2983 138.084 31.2722 137.782 31.2722H135.418V33.3729H135.422Z" fill="white"/>
<path d="M143.91 35.0327V37.8137H142.23V29.8556H146.178C146.895 29.8556 147.412 29.9079 147.728 30.0088C148.245 30.1845 148.658 30.5471 148.959 31.1003C149.182 31.5078 149.293 31.9563 149.293 32.446C149.293 32.8497 149.219 33.2347 149.074 33.5935C148.929 33.9523 148.721 34.2514 148.46 34.4869C148.23 34.6925 147.981 34.8345 147.714 34.9168C147.445 34.9953 147.081 35.0364 146.625 35.0364H143.918L143.91 35.0327ZM143.91 33.6159H146.208C146.617 33.6159 146.907 33.5487 147.07 33.4178C147.32 33.2198 147.442 32.8758 147.442 32.3862C147.442 31.8516 147.256 31.504 146.88 31.3545C146.747 31.2984 146.531 31.2723 146.241 31.2723H143.91V33.6159Z" fill="white"/>
<path d="M172.863 34.281H154.18V35.0286H172.863V34.281Z" fill="white"/>
</g>
<defs>
<clipPath id="clip0_261_35">
<rect width="180.833" height="40" fill="white"/>
</clipPath>
</defs>
</svg>
