<svg width="155" height="70" viewBox="0 0 155 70" fill="none" xmlns="http://www.w3.org/2000/svg">
<g clip-path="url(#clip0_9_63)">
<g opacity="0.8">
<path d="M23.9013 69.9999C22.8051 69.9999 21.7435 69.4029 21.2069 68.363L0.338107 28.066C-0.429275 26.5846 0.153482 24.7701 1.64207 24.0064C3.1306 23.2427 4.95384 23.8226 5.72122 25.3041L26.59 65.6074C27.3573 67.0888 26.7746 68.9028 25.2861 69.6667C24.8418 69.8963 24.3687 69.9999 23.9013 69.9999Z" fill="url(#paint0_linear_9_63)"/>
<path d="M39.4336 70C38.1359 70 36.9645 69.1728 36.5549 67.9215L25.858 35.3412V36.9662C25.858 38.6314 24.5021 39.9808 22.8289 39.9808C21.1557 39.9808 19.7998 38.6314 19.7998 36.9662V16.4099C19.7998 14.9284 20.8845 13.6652 22.35 13.4355C23.8213 13.2001 25.2406 14.0671 25.7022 15.4739L37.8936 52.6075L43.1497 2.69801C43.3227 1.04431 44.817 -0.155794 46.4788 0.016448C48.1406 0.188757 49.3522 1.67593 49.1731 3.32963L42.4396 67.3009C42.2902 68.7137 41.1709 69.8331 39.7453 69.9825C39.6356 69.9939 39.5319 70 39.4222 70H39.4336Z" fill="url(#paint1_linear_9_63)"/>
<path d="M64.6924 54.1523H65.9268L63.0999 60.968H61.8654L59.0264 54.1523H60.2615L61.4151 56.9833L62.4712 59.6413L64.6924 54.1523Z" fill="#231F20"/>
<path d="M71.1259 59.9287H75.0897V60.968H69.9951V54.1523H75.0325V55.1855H71.132V57.0062H74.8709V58.0165H71.132V59.9227L71.1259 59.9287Z" fill="#231F20"/>
<path d="M84.3207 54.1523H85.4636V60.968H84.4251L80.7265 56.0989L80.7379 58.2696V60.968H79.5957V54.1523H80.6343L84.3322 59.0214L84.3207 56.9887V54.1577V54.1523Z" fill="#231F20"/>
<path d="M95.1907 54.1523V55.203H92.9689V60.968H91.8266V55.203H89.6055V54.1523H95.1907Z" fill="#231F20"/>
<path d="M100.62 60.7438C100.176 60.5029 99.8356 60.1643 99.5993 59.716C99.3624 59.2738 99.2412 58.7461 99.2412 58.1431V54.1523H100.378V58.1256C100.378 58.7172 100.54 59.1877 100.869 59.5323C101.192 59.8769 101.63 60.0553 102.179 60.0553C102.726 60.0553 103.165 59.883 103.488 59.5323C103.811 59.1823 103.978 58.7172 103.978 58.1256V54.1523H105.115V58.1431C105.115 58.7461 104.994 59.2684 104.757 59.716C104.521 60.1583 104.18 60.5029 103.736 60.7438C103.292 60.9855 102.772 61.106 102.179 61.106C101.584 61.106 101.065 60.9855 100.62 60.7438Z" fill="#231F20"/>
<path d="M112.367 58.6425H110.976V60.968H109.834V54.1523H113.042C113.527 54.1523 113.948 54.2439 114.317 54.4276C114.686 54.6114 114.969 54.8759 115.165 55.2145C115.361 55.553 115.465 55.9495 115.465 56.3971C115.465 56.9598 115.309 57.437 114.992 57.8159C114.675 58.2003 114.242 58.4473 113.693 58.5678L115.777 60.9619H114.352L112.367 58.6364V58.6425ZM113.988 55.5248C113.757 55.3121 113.44 55.203 113.036 55.203H110.97V57.5972H113.036C113.44 57.5972 113.757 57.4942 113.988 57.2815C114.218 57.0695 114.334 56.776 114.334 56.4031C114.334 56.0296 114.218 55.7428 113.988 55.5248Z" fill="#231F20"/>
<path d="M121.148 59.9287H125.112V60.968H120.018V54.1523H125.054V55.1855H121.154V57.0062H124.893V58.0165H121.154V59.9227L121.148 59.9287Z" fill="#231F20"/>
<path d="M130.543 60.8588C130.041 60.6919 129.591 60.4569 129.192 60.1527L129.787 59.2965C130.075 59.5382 130.421 59.7273 130.831 59.8592C131.241 59.9918 131.657 60.0666 132.077 60.0666C132.574 60.0666 132.972 59.9743 133.272 59.7906C133.572 59.6068 133.722 59.3598 133.722 59.0556C133.722 58.7742 133.584 58.5562 133.312 58.3953C133.041 58.2344 132.602 58.1139 132.014 58.0338C131.079 57.9012 130.405 57.6778 129.989 57.35C129.573 57.0229 129.366 56.5638 129.366 55.9668C129.366 55.5879 129.481 55.2547 129.701 54.9619C129.925 54.6691 130.237 54.4335 130.641 54.2727C131.045 54.1118 131.5 54.0256 132.014 54.0256C132.47 54.0256 132.92 54.1003 133.364 54.2498C133.808 54.3992 134.201 54.6058 134.547 54.8697L133.97 55.6794C133.687 55.4667 133.382 55.3005 133.041 55.1914C132.7 55.0824 132.36 55.0245 132.025 55.0245C131.576 55.0245 131.206 55.1167 130.917 55.2944C130.629 55.4728 130.485 55.7023 130.485 55.9836C130.485 56.265 130.618 56.4716 130.877 56.6385C131.137 56.8048 131.558 56.9253 132.13 57.006C133.099 57.1494 133.802 57.3789 134.235 57.6946C134.668 58.011 134.881 58.4586 134.881 59.0327C134.881 59.446 134.766 59.8135 134.535 60.1292C134.304 60.4455 133.976 60.6865 133.555 60.8588C133.128 61.0311 132.643 61.1172 132.089 61.1172C131.57 61.1172 131.056 61.0365 130.554 60.8702L130.543 60.8588Z" fill="#231F20"/>
<path d="M64.4042 22.7894C64.4042 26.6193 58.5713 26.6193 58.5713 22.7894C58.5713 18.9595 64.4042 18.9595 64.4042 22.7894ZM59.0209 28.3132V48.2608H63.96V28.3074H59.0209V28.3132Z" fill="#2E3191"/>
<path d="M88.3429 20.0849V48.2551H83.7276L83.4045 45.5162C81.8638 47.8933 79.3943 48.6973 76.9651 48.6973C71.0918 48.6973 66.6777 44.8271 66.6777 38.2985C66.6777 31.4483 71.011 27.8997 76.844 27.8997C78.9501 27.8997 82.2273 29.0309 83.4045 31.0808V20.0791H88.3429V20.0849ZM71.6168 38.3042C71.6168 41.7724 74.1268 44.1496 77.2882 44.1496C80.4504 44.1496 83.0814 41.893 83.0814 38.3042C83.0814 34.7155 80.41 32.499 77.2882 32.499C74.1671 32.499 71.6168 34.7155 71.6168 38.3042Z" fill="#2E3191"/>
<path d="M96.4781 40.0786C96.8012 42.5361 98.9476 44.3104 102.432 44.3104C104.256 44.3104 106.644 43.6271 107.775 42.4557L110.931 45.5564C108.825 47.7326 105.381 48.7834 102.346 48.7834C95.4631 48.7834 91.3721 44.5515 91.3721 38.1837C91.3721 31.8158 95.5035 27.7849 101.983 27.7849C108.462 27.7849 112.835 31.8962 112.068 40.0786H96.4781ZM107.331 36.0075C107.008 33.4293 104.982 32.1373 102.149 32.1373C99.4787 32.1373 97.2918 33.4293 96.5588 36.0075H107.331Z" fill="#2E3191"/>
<path d="M130.9 28.3879H135.637V48.2552H130.98L130.738 45.3555C129.602 47.6925 126.486 48.8237 124.259 48.8639C118.345 48.9041 113.972 45.2751 113.972 38.3044C113.972 31.3336 118.547 27.8654 124.38 27.9056C127.052 27.9056 129.602 29.1574 130.738 31.1326L130.9 28.3937V28.3879ZM118.911 38.3044C118.911 42.0941 121.542 44.3507 124.824 44.3507C132.602 44.3507 132.602 32.2982 124.824 32.2982C121.542 32.2982 118.911 34.5146 118.911 38.3044Z" fill="#2E3191"/>
<path d="M154.058 28.3879V30.725L144.867 43.4204H154.139V48.2552H137.332V46.1996L146.886 32.8609H138.059V28.3879H154.053H154.058Z" fill="#2E3191"/>
</g>
</g>
<defs>
<linearGradient id="paint0_linear_9_63" x1="13.464" y1="69.9999" x2="13.464" y2="23.6676" gradientUnits="userSpaceOnUse">
<stop stop-color="#EC1C24"/>
<stop offset="1" stop-color="#2E3191"/>
</linearGradient>
<linearGradient id="paint1_linear_9_63" x1="34.4951" y1="70" x2="34.4951" y2="-0.000784406" gradientUnits="userSpaceOnUse">
<stop stop-color="#EC1C24"/>
<stop offset="1" stop-color="#2E3191"/>
</linearGradient>
<clipPath id="clip0_9_63">
<rect width="155" height="70" fill="white"/>
</clipPath>
</defs>
</svg>
