<svg width="80" height="80" viewBox="0 0 80 80" fill="none" xmlns="http://www.w3.org/2000/svg">
<g clip-path="url(#clip0_264_109)">
<path d="M25 22.947C16.04 22.947 8.75 30.237 8.75 39.197C8.75 48.157 16.04 55.447 25 55.447C33.96 55.447 41.25 48.157 41.25 39.197C41.25 30.237 33.96 22.947 25 22.947ZM25 52.947C17.4187 52.947 11.25 46.7783 11.25 39.197C11.25 31.6158 17.4187 25.447 25 25.447C32.5813 25.447 38.75 31.6158 38.75 39.197C38.75 46.7783 32.5813 52.947 25 52.947Z" fill="white"/>
<path d="M30 30.447H20C17.9325 30.447 16.25 32.1295 16.25 34.197V44.197C16.25 46.2645 17.9325 47.947 20 47.947H30C32.0675 47.947 33.75 46.2645 33.75 44.197V34.197C33.75 32.1295 32.0675 30.447 30 30.447ZM23.75 32.947H26.25V35.447H23.75V32.947ZM31.25 44.197C31.25 44.887 30.6887 45.447 30 45.447H20C19.3113 45.447 18.75 44.887 18.75 44.197V34.197C18.75 33.507 19.3113 32.947 20 32.947H21.25V37.947H28.75V32.947H30C30.6887 32.947 31.25 33.507 31.25 34.197V44.197Z" fill="white"/>
<path d="M43.75 6.69702H46.25V9.19702H43.75V6.69702Z" fill="white"/>
<path d="M48.75 6.69702H58.75V9.19702H48.75V6.69702Z" fill="white"/>
<path d="M43.75 11.697H58.75V14.197H43.75V11.697Z" fill="white"/>
<path d="M78.75 33.2208L73.75 31.972V22.947C73.75 20.1895 71.5075 17.947 68.75 17.947C66.2875 17.947 64.2475 19.7395 63.8375 22.087C57.6175 24.837 51.04 26.632 44.2537 27.4383C44.015 25.577 43.1925 23.7995 41.795 22.4033C39.425 20.0333 35.9663 19.2608 32.85 20.3195C31.395 17.357 28.3887 15.447 25 15.447C21.6113 15.447 18.605 17.357 17.1512 20.3195C14.035 19.2645 10.5763 20.0333 8.20625 22.4033C5.83625 24.7733 5.07 28.2295 6.1225 31.347C3.16125 32.802 1.25 35.807 1.25 39.197C1.25 42.587 3.16125 45.592 6.1225 47.0458C5.07 50.1633 5.83625 53.6208 8.20625 55.9895C10.5763 58.3595 14.0325 59.132 17.1512 58.0733C17.255 58.2858 17.385 58.4795 17.5038 58.6808L16.1225 78.472L25 75.5145L33.8775 78.4733L32.4962 58.682C32.6162 58.4808 32.745 58.287 32.8487 58.0745C35.9675 59.132 39.4238 58.362 41.7938 55.9908C43.1913 54.5933 44.015 52.8158 44.2525 50.9558C51.0388 51.762 57.6163 53.557 63.8363 56.307C64.2475 58.6545 66.2875 60.447 68.75 60.447C71.5075 60.447 73.75 58.2045 73.75 55.447V46.4233L78.75 45.1745V33.2208ZM43.8775 47.0458C46.8388 45.592 48.75 42.587 48.75 39.197C48.75 35.807 46.8388 32.802 43.8775 31.3483C44.0313 30.8933 44.135 30.4295 44.2112 29.9633C50.965 29.192 57.525 27.487 63.75 24.8595V53.5345C57.525 50.907 50.965 49.202 44.2112 48.4308C44.135 47.9645 44.0313 47.502 43.8775 47.0458ZM26.25 73.297V69.197H23.75V73.297L18.8775 74.9208L19.8312 61.2445C21.2925 62.317 23.0788 62.947 25 62.947C26.9212 62.947 28.7075 62.317 30.1688 61.2445L31.1225 74.9208L26.25 73.297ZM41.1212 46.9358C42.3875 49.3733 41.9475 52.3008 40.0262 54.222C38.1037 56.1445 35.1762 56.5845 32.74 55.317L31.4138 54.6283L30.97 56.0558C30.1525 58.682 27.7538 60.447 25 60.447C22.2462 60.447 19.8475 58.682 19.0313 56.0558L18.5875 54.6283L17.2613 55.317C14.8263 56.5833 11.8962 56.1433 9.975 54.222C8.05375 52.3008 7.61375 49.3733 8.88 46.9358L9.56875 45.6095L8.14125 45.1658C5.515 44.3495 3.75 41.9508 3.75 39.197C3.75 36.4433 5.515 34.0445 8.14125 33.2283L9.56875 32.7845L8.88 31.4583C7.61375 29.0208 8.05375 26.0933 9.975 24.172C11.8975 22.2508 14.8275 21.8108 17.2613 23.077L18.5875 23.7658L19.0313 22.3383C19.8475 19.712 22.2462 17.947 25 17.947C27.7538 17.947 30.1525 19.712 30.9687 22.3383L31.4125 23.7658L32.7387 23.077C35.1737 21.8095 38.1038 22.2508 40.025 24.172C41.9463 26.0933 42.3862 29.0208 41.12 31.4583L40.4313 32.7845L41.8587 33.2283C44.485 34.0445 46.25 36.4433 46.25 39.197C46.25 41.9508 44.485 44.3495 41.8587 45.1658L40.4313 45.6095L41.1212 46.9358ZM71.25 55.447C71.25 56.8258 70.1288 57.947 68.75 57.947C67.3712 57.947 66.25 56.8258 66.25 55.447V22.947C66.25 21.5683 67.3712 20.447 68.75 20.447C70.1288 20.447 71.25 21.5683 71.25 22.947V55.447ZM76.25 43.2208L73.75 43.847V34.5483L76.25 35.1745V43.2208Z" fill="white"/>
<path d="M42.5 19.197H46.9825L51.0988 23.3145C51.6613 23.8745 52.4387 24.197 53.2325 24.197C54.8962 24.197 56.25 22.8433 56.25 21.1795V19.197H60C62.0675 19.197 63.75 17.5145 63.75 15.447V5.44702C63.75 3.37952 62.0675 1.69702 60 1.69702H42.5C40.4325 1.69702 38.75 3.37952 38.75 5.44702V15.447C38.75 17.5145 40.4325 19.197 42.5 19.197ZM41.25 5.44702C41.25 4.75702 41.8113 4.19702 42.5 4.19702H60C60.6887 4.19702 61.25 4.75702 61.25 5.44702V15.447C61.25 16.137 60.6887 16.697 60 16.697H53.75V21.1795C53.75 21.6008 53.165 21.8445 52.8662 21.5458L48.0175 16.697H42.5C41.8113 16.697 41.25 16.137 41.25 15.447V5.44702Z" fill="white"/>
</g>
<defs>
<clipPath id="clip0_264_109">
<rect width="80" height="80" fill="white"/>
</clipPath>
</defs>
</svg>
