<svg width="80" height="80" viewBox="0 0 80 80" fill="none" xmlns="http://www.w3.org/2000/svg">
<g clip-path="url(#clip0_264_112)">
<path d="M45.2959 21.8823L44.7076 16.7059C44.59 16.1176 44.1194 15.647 43.5311 15.647H36.4723C35.8841 15.647 35.4135 16.1176 35.2959 16.7059L34.7076 21.8823C31.7664 22.7059 29.1782 24.2353 26.9429 26.3529L22.1194 24.2353C21.5311 24 20.9429 24.2353 20.59 24.7059L17.0606 30.7059C16.7076 31.1764 16.9429 31.8823 17.4135 32.2353L21.6488 35.4117C20.9429 38.3529 20.9429 41.5294 21.6488 44.3529L17.4135 47.5294C16.9429 47.8823 16.8253 48.5882 17.0606 49.0588L20.59 55.0588C20.9429 55.5294 21.5311 55.7647 22.1194 55.5294L26.9429 53.4117C29.1782 55.5294 31.7664 57.0588 34.7076 57.8823L35.2959 63.0588C35.4135 63.647 35.8841 64.1176 36.4723 64.1176H43.5311C44.1194 64.1176 44.59 63.647 44.7076 63.0588L45.2959 57.8823C48.237 57.0588 50.8253 55.5294 53.0606 53.4117L57.8841 55.5294C58.4723 55.7647 59.0606 55.5294 59.4135 55.0588L62.9429 49.0588C63.2959 48.5882 63.0606 47.8823 62.59 47.5294L58.3547 44.3529C59.0606 41.5294 59.0606 38.3529 58.3547 35.4117L62.59 32.2353C63.0606 31.8823 63.1782 31.1764 62.9429 30.7059L59.4135 24.7059C59.0606 24.2353 58.4723 24 57.8841 24.2353L53.0606 26.3529C50.8253 24.2353 48.237 22.7059 45.2959 21.8823ZM57.8841 26.8235L60.3547 31.0588L56.237 34.1176C55.8841 34.4706 55.6488 34.9411 55.7664 35.4117C56.59 38.2353 56.7076 41.647 55.7664 44.5882C55.6488 45.0588 55.7664 45.5294 56.237 45.8823L60.237 48.9411L57.7664 53.1764L53.1782 51.1764C52.7076 50.9412 52.237 51.0588 51.8841 51.4117C49.7664 53.647 46.9429 55.2941 43.8841 56C43.4135 56.1176 43.0606 56.4706 42.9429 57.0588L42.3547 62H37.4135L36.8253 57.0588C36.8253 56.5882 36.3547 56.1176 35.8841 56C32.8253 55.2941 30.1194 53.647 27.8841 51.4117C27.5311 51.0588 27.0606 50.9412 26.59 51.1764L22.0017 53.1764L19.5311 48.9411L23.5311 45.8823C23.8841 45.5294 24.1194 45.0588 24.0017 44.5882C23.1782 41.7647 23.0606 38.3529 24.0017 35.4117C24.1194 34.9411 24.0017 34.4706 23.5311 34.1176L19.5311 31.0588L22.0017 26.8235L26.59 28.8235C27.0606 29.0588 27.5311 28.9411 27.8841 28.5882C30.1194 26.3529 32.8253 24.7059 35.8841 24C36.3547 23.8823 36.7076 23.5294 36.8253 22.9412L37.4135 18H42.3547L42.9429 22.9412C42.9429 23.4117 43.4135 23.8823 43.8841 24C46.9429 24.7059 49.6488 26.3529 51.8841 28.5882C52.237 28.9411 52.7076 29.0588 53.1782 28.8235L57.8841 26.8235Z" fill="white"/>
<path d="M40.0014 31.7647C37.6484 31.7647 35.6484 33.6471 35.6484 36.1177C35.6484 38.5882 37.5308 40.4706 40.0014 40.4706C42.472 40.4706 44.3543 38.5882 44.3543 36.1177C44.3543 33.6471 42.3543 31.7647 40.0014 31.7647ZM40.0014 38C38.9426 38 38.0014 37.1765 38.0014 36C38.0014 34.8235 38.9426 34.1177 40.0014 34.1177C41.0602 34.1177 42.0014 34.9412 42.0014 36.1177C42.0014 37.2941 41.0602 38 40.0014 38Z" fill="white"/>
<path d="M40.0011 26.7059C32.707 26.7059 26.707 32.7059 26.707 40C26.707 47.4118 32.8247 53.2941 40.0011 53.2941C47.2953 53.2941 53.2953 47.2941 53.2953 40C53.2953 32.7059 47.2953 26.7059 40.0011 26.7059ZM32.8247 48C36.9423 44.1176 42.9423 44.1176 47.06 48C45.06 49.8823 42.4717 50.9412 39.8835 50.9412C37.4129 50.9412 34.9423 50 32.8247 48ZM48.8247 46.3529C43.7659 41.4118 36.2364 41.4118 31.1776 46.3529C29.6482 44.2353 29.06 42 29.06 39.647C29.1776 34.1176 33.6482 28.9412 40.0011 28.9412C46.4717 28.9412 50.9423 34.2353 50.9423 39.8823C50.9423 42.1176 50.3541 44.3529 48.8247 46.3529Z" fill="white"/>
<path d="M59.6482 23.2941H76.4717C77.1776 23.2941 77.6482 22.8236 77.6482 22.1177V20.4706C77.6482 16.5883 75.2952 13.1765 71.8835 11.6471C75.2952 8.23532 72.8247 2.35297 68.1188 2.35297C63.2952 2.35297 60.9423 8.23532 64.3541 11.6471C60.9423 13.1765 58.5894 16.4706 58.5894 20.4706V22.1177C58.4717 22.7059 59.06 23.2941 59.6482 23.2941ZM68.1188 4.70591C69.7658 4.70591 71.1776 6.11767 71.1776 7.76473C71.1776 9.41179 69.7658 10.8236 68.1188 10.8236C66.4717 10.8236 65.0599 9.41179 65.0599 7.76473C65.0599 6.11767 66.3541 4.70591 68.1188 4.70591ZM60.8247 20.353C60.8247 16.353 64.0011 13.1765 68.0011 13.1765C72.0011 13.1765 75.1776 16.353 75.1776 20.353V20.8236H60.8247V20.353Z" fill="white"/>
<path d="M3.52803 77.6471H23.1751C23.881 77.6471 24.3516 77.1765 24.3516 76.4706V74.4706C24.3516 69.8824 21.528 65.8824 17.4104 64.2353C18.7045 63.0588 19.528 61.5294 19.528 59.6471C19.528 56.2353 16.8221 53.5294 13.4104 53.5294C9.99862 53.5294 7.29274 56.2353 7.29274 59.6471C7.29274 61.4118 8.11627 63.0588 9.41039 64.2353C5.17509 65.8824 2.35156 69.8824 2.35156 74.4706V76.4706C2.35156 77.1765 2.82215 77.6471 3.52803 77.6471ZM13.2927 55.8824C15.4104 55.8824 17.0574 57.5294 17.0574 59.6471C17.0574 61.7647 15.4104 63.5294 13.2927 63.5294C11.1751 63.5294 9.52803 61.8824 9.52803 59.7647C9.52803 57.6471 11.2927 55.8824 13.2927 55.8824ZM4.7045 74.4706C4.7045 69.6471 8.58686 65.8824 13.2927 65.8824C17.9986 65.8824 21.881 69.7647 21.881 74.4706V75.2941H4.7045V74.4706Z" fill="white"/>
<path d="M6.82347 45.4118C7.29406 45.7647 7.99994 45.7647 8.35288 45.2941C8.70583 44.9412 10.4705 42.7059 11.5294 41.1765C11.8823 40.7059 11.8823 39.8823 11.2941 39.5294C10.8235 39.1765 9.99994 39.1765 9.647 39.7647L8.11759 41.6471C5.17641 16.4706 32.1176 -1.05882 53.647 11.1765C54.2352 11.5294 54.9411 11.2941 55.2941 10.7059C55.647 10.1176 55.4117 9.41176 54.8235 9.05882C31.7646 -4 2.70583 14.7059 5.99994 41.7647L4.35288 40.4706C3.8823 40.1176 3.05877 40.1176 2.70583 40.7059C2.23524 41.1765 2.35289 41.8824 2.82347 42.3529L6.82347 45.4118Z" fill="white"/>
<path d="M77.4122 39.2941C77.7652 38.8235 77.7652 38 77.1769 37.6471L73.0593 34.4706C72.5887 34.1177 71.7652 34.2353 71.4122 34.7059L68.3534 38.8235C68.0005 39.2941 68.0005 40.1177 68.5887 40.4706C69.0593 40.8235 69.8828 40.8235 70.2358 40.2353L71.7652 38.3529C74.5887 61.6471 51.4122 79.1765 30.0005 70.5882C29.4122 70.353 28.7063 70.5882 28.471 71.2941C28.2358 71.8824 28.471 72.5882 29.1769 72.8235C52.1181 82 77.1769 63.2941 74.1181 38.2353L75.7652 39.5294C76.2358 39.8824 77.0593 39.8824 77.4122 39.2941Z" fill="white"/>
</g>
<defs>
<clipPath id="clip0_264_112">
<rect width="80" height="80" fill="white"/>
</clipPath>
</defs>
</svg>
