<svg width="80" height="80" viewBox="0 0 80 80" fill="none" xmlns="http://www.w3.org/2000/svg">
<g clip-path="url(#clip0_264_110)">
<path fill-rule="evenodd" clip-rule="evenodd" d="M71.5564 45.9683C69.4148 48.8672 64.1574 53.5216 58.1628 57.8248C52.0282 62.227 46.6636 65.1889 44.1625 65.5491C38.6026 66.3413 36.0375 65.7112 33.9767 65.1981C30.8596 64.4328 28.7249 64.1358 22.6457 66.9717L16.6722 54.3139L29.5514 47.3728C30.5828 46.8145 31.6921 46.7785 32.7583 47.2648L43.4878 52.1443C44.363 52.5405 44.8114 53.4677 44.5783 54.404L44.5146 54.6561C44.5146 54.6561 44.5146 54.6561 44.5143 54.6561C44.2868 55.5726 43.3135 56.4873 42.3842 56.1505L34.9567 53.4497C34.7903 53.3867 34.6114 53.3688 34.4362 53.3957L30.9326 53.9088C30.349 53.9989 29.9454 54.539 30.0311 55.1241C30.1169 55.7093 30.6599 56.1145 31.2438 56.0245L34.4801 55.5473L41.6535 58.1581C43.4934 58.8315 45.4473 57.7403 46.2889 55.9974L47.1385 56.0064C48.582 56.0245 49.8769 55.6643 51.0929 54.8811C51.8346 54.404 52.9796 53.6206 54.3054 52.7115C56.861 50.9649 60.3607 48.5702 63.479 46.6526C68.262 43.7177 69.7657 43.3936 70.1902 43.3936C71.4706 43.3846 72.034 43.4837 72.539 44.0958C72.5348 44.2217 72.4546 44.7529 71.5564 45.9683ZM21.5166 70.5006C21.6386 70.1675 21.6234 69.8073 21.4734 69.4923L13.738 53.0984C13.4188 52.4198 12.6052 52.1249 11.9473 52.4411L8.24072 54.1606C7.57384 54.4717 7.27048 55.2795 7.5852 55.9432L15.3206 72.3371C15.6388 73.0123 16.4423 73.3094 17.1111 72.9942L20.8177 71.2747C21.1446 71.1219 21.3924 70.8518 21.5166 70.5006ZM29.4337 45.1041V38.0821C29.4337 38.0461 29.4036 38.019 29.3698 38.019H26.0441C26.0106 38.019 25.9798 38.0461 25.9798 38.0821V46.8686L28.5388 45.4912C28.8313 45.3381 29.1305 45.203 29.4337 45.1041ZM40.8239 48.5881V31.6901C40.8239 31.663 40.7934 31.627 40.7599 31.627H37.4342C37.4004 31.627 37.3698 31.663 37.3698 31.6901V47.0126L40.8239 48.5881ZM52.214 51.5499V25.7933C52.214 25.7573 52.1834 25.7302 52.1497 25.7302H48.8239C48.7905 25.7302 48.7599 25.7573 48.7599 25.7933V53.6477C49.1602 53.5216 49.547 53.3326 49.9374 53.0805C50.4863 52.7293 51.2814 52.1891 52.214 51.5499ZM21.1262 8.20205V49.4885L23.8431 48.0211V38.0822C23.8431 36.8669 24.8303 35.8765 26.0439 35.8765H29.3697C30.5833 35.8765 31.5703 36.8667 31.5703 38.0822V44.8072C32.269 44.8432 32.9671 45.0142 33.6423 45.3203L35.2329 46.0405V31.6902C35.2329 30.4749 36.2204 29.4936 37.434 29.4936H40.7598C41.973 29.4936 42.9604 30.4749 42.9604 31.6902V49.5606L44.3716 50.1998C45.5089 50.7129 46.3079 51.7033 46.623 52.8376V25.7933C46.623 24.5779 47.6105 23.5966 48.8238 23.5966H52.1495C53.3631 23.5966 54.3506 24.5779 54.3506 25.7933V50.0915C55.2702 49.4704 56.1778 48.8491 57.0676 48.255V16.3045H51.1033C49.199 16.3045 47.6498 14.756 47.6498 12.8473V6.88765H22.4425C21.7167 6.88765 21.1262 7.47277 21.1262 8.20205ZM49.7868 8.39997L55.5569 14.1617H51.1034C50.3772 14.1617 49.7868 13.5766 49.7868 12.8473V8.39997ZM74.2513 42.8174C73.0914 41.3501 71.6604 41.2419 70.1734 41.251C68.2265 41.2691 64.1198 43.6278 59.2041 46.8417V15.2331C59.2041 14.9539 59.0916 14.6838 58.8911 14.4768L49.4738 5.05997C49.2734 4.86189 49.002 4.74493 48.7185 4.74493H22.4425C20.5386 4.74493 18.9895 6.29341 18.9895 8.20205V50.6318L15.7591 52.3784L15.6705 52.1893C14.8521 50.4518 12.778 49.6955 11.0466 50.5057L7.34008 52.2253C5.60552 53.0336 4.83224 55.1213 5.65272 56.8526L13.3884 73.2465C14.2151 75.0033 16.3089 75.7324 18.0121 74.93L21.7183 73.2105C23.3369 72.4563 24.1324 70.5813 23.5406 68.9072C29.257 66.2424 30.9591 66.6565 33.4663 67.2777C35.7065 67.8269 38.4942 68.5112 44.4638 67.6649C48.2156 67.1248 55.5198 62.4885 61.1039 58.3201C66.6929 54.1518 73.1246 48.5432 74.4124 45.3022C74.915 44.0417 74.6023 43.2585 74.2513 42.8174ZM32.1268 13.2705C33.8071 13.2705 35.3314 13.9547 36.442 15.0441L31.5588 19.9326L29.4842 17.8529C29.0671 17.4389 28.3906 17.4389 27.9735 17.8529C27.5561 18.2761 27.5561 18.9513 27.9735 19.3654L30.8033 22.1923C31.218 22.6136 31.9001 22.6133 32.3143 22.1923L37.6934 16.8177C39.5881 20.8595 36.6404 25.5683 32.1265 25.5683C28.737 25.5683 25.9793 22.8134 25.9793 19.4195C25.9796 16.0344 28.7374 13.2705 32.1268 13.2705ZM32.1268 27.7019C27.559 27.7019 23.8433 23.9838 23.8433 19.4193C23.8433 14.855 27.559 11.1369 32.1268 11.1369C34.3961 11.1369 36.4548 12.0552 37.9524 13.5406L40.0014 11.488C40.4188 11.0739 41.0951 11.0739 41.5124 11.488C41.9295 11.9021 41.9295 12.5864 41.5124 13.0005L39.2729 15.2421C39.9946 16.4664 40.4102 17.8979 40.4102 19.4193C40.4103 23.9837 36.6942 27.7019 32.1268 27.7019Z" fill="white"/>
</g>
<defs>
<clipPath id="clip0_264_110">
<rect width="80" height="80" fill="white"/>
</clipPath>
</defs>
</svg>
