<svg width="104" height="40" viewBox="0 0 104 40" fill="none" xmlns="http://www.w3.org/2000/svg">
<g clip-path="url(#clip0_261_79)">
<mask id="mask0_261_79" style="mask-type:luminance" maskUnits="userSpaceOnUse" x="0" y="0" width="103" height="40">
<path d="M102.868 0.165283H0V39.8347H102.868V0.165283Z" fill="white"/>
</mask>
<g mask="url(#mask0_261_79)">
<path fill-rule="evenodd" clip-rule="evenodd" d="M0.46875 39.6552V31.1275H3.14902L3.23956 31.8825C3.62393 31.6075 4.05613 31.382 4.53444 31.2078C5.01444 31.0336 5.53034 30.9464 6.08211 30.9464C6.63388 30.9464 7.10707 31.0336 7.43166 31.2078C7.75622 31.382 8.00733 31.6246 8.1867 31.9372C8.58303 31.6485 9.02888 31.4128 9.52769 31.2266C10.0248 31.0404 10.6107 30.9481 11.2821 30.9481C12.278 30.9481 13.0091 31.2061 13.4772 31.722C13.9453 32.2379 14.1793 33.0237 14.1793 34.0793V39.6568H11.318V34.4211C11.318 33.953 11.2189 33.6148 11.0207 33.4046C10.8226 33.1943 10.5014 33.0902 10.059 33.0902C9.78393 33.0902 9.51404 33.1467 9.24925 33.2611C8.98617 33.3755 8.76409 33.5345 8.58303 33.7378C8.60693 33.8694 8.62231 33.9957 8.62743 34.1153C8.63255 34.235 8.63599 34.3785 8.63599 34.5474V39.6568H5.93692V34.3851C5.93692 33.953 5.86174 33.63 5.71143 33.4132C5.56108 33.198 5.27583 33.0886 4.85728 33.0886C4.55662 33.0886 4.27649 33.1672 4.0117 33.3226C3.74862 33.478 3.50776 33.6591 3.29252 33.8624V39.6552H0.46875Z" fill="white"/>
<path fill-rule="evenodd" clip-rule="evenodd" d="M18.3188 39.8344C17.779 39.8344 17.2785 39.7389 16.8172 39.5458C16.356 39.3544 15.987 39.0572 15.7103 38.6559C15.4352 38.2546 15.2969 37.7537 15.2969 37.1544C15.2969 36.278 15.5941 35.5931 16.1869 35.0942C16.7813 34.597 17.6714 34.3475 18.8586 34.3475H21.2331V34.1494C21.2331 33.7174 21.0896 33.408 20.8009 33.2235C20.5122 33.0373 19.9741 32.9451 19.1815 32.9451C18.2095 32.9451 17.2562 33.0956 16.3201 33.3944V31.5238C16.7403 31.3564 17.2528 31.218 17.8576 31.1104C18.464 31.0028 19.1012 30.9481 19.7742 30.9481C21.093 30.9481 22.1282 31.218 22.8782 31.7578C23.6281 32.2977 24.0022 33.1551 24.0022 34.3306V39.6552H21.4654L21.3219 38.9359C21.0093 39.2248 20.6113 39.445 20.1261 39.6023C19.641 39.7577 19.038 39.8364 18.3188 39.8364V39.8344ZM19.2361 38.0529C19.6922 38.0529 20.0869 37.9742 20.4234 37.8189C20.7599 37.6635 21.0298 37.4651 21.2331 37.2242V36.0182H19.1815C18.329 36.0182 17.9037 36.36 17.9037 37.0433C17.9037 37.3557 18.0113 37.6 18.2282 37.7812C18.4435 37.9607 18.78 38.0513 19.2361 38.0513V38.0529Z" fill="white"/>
<path fill-rule="evenodd" clip-rule="evenodd" d="M25.7478 39.6552V31.1275H28.4998L28.5904 31.9184C28.9628 31.6912 29.424 31.4828 29.9757 31.2983C30.5275 31.1121 31.0793 30.996 31.6311 30.9481V33.1243C31.3185 33.1604 30.9751 33.2169 30.5958 33.2952C30.2183 33.3739 29.8579 33.4661 29.5162 33.5739C29.1746 33.6813 28.8842 33.7957 28.6433 33.9154V39.6552H25.7461H25.7478Z" fill="white"/>
<path fill-rule="evenodd" clip-rule="evenodd" d="M36.2396 39.8347C35.1841 39.8347 34.4085 39.5646 33.9097 39.0248C33.4125 38.4849 33.1629 37.7418 33.1629 36.7937V33.321H32.0117V31.1258H33.1629V29.344L36.0604 28.5702V31.1241H38.1289L38.0026 33.3193H36.0604V36.594C36.0604 37.0023 36.1629 37.2859 36.3662 37.4479C36.5695 37.6102 36.8753 37.6906 37.2836 37.6906C37.632 37.6906 37.9854 37.6307 38.3444 37.5114V39.4724C37.7804 39.7114 37.0783 39.8327 36.2396 39.8327V39.8347Z" fill="white"/>
<path d="M41.419 37.5319H39.0977V39.6552H41.419V37.5319Z" fill="white"/>
<path fill-rule="evenodd" clip-rule="evenodd" d="M47.3894 39.8347C45.8658 39.8347 44.6767 39.4622 43.8175 38.719C42.96 37.9759 42.5312 36.8658 42.5312 35.3914C42.5312 33.917 42.9789 32.7761 43.8721 32.0449C44.7656 31.3138 45.9564 30.9465 47.444 30.9465C48.0678 30.9465 48.6109 30.9909 49.0721 31.0815C49.5332 31.172 49.9808 31.3189 50.4132 31.5222V33.5739C49.7418 33.2493 48.956 33.0886 48.0555 33.0886C47.2169 33.0886 46.5779 33.2562 46.1389 33.5927C45.7018 33.9293 45.483 34.5286 45.483 35.3914C45.483 36.1944 45.6863 36.7802 46.0946 37.1458C46.5028 37.5114 47.1504 37.6942 48.037 37.6942C48.9233 37.6942 49.7094 37.5147 50.4301 37.1544V39.2949C49.998 39.4863 49.5332 39.6245 49.0364 39.7081C48.5392 39.7921 47.9891 39.8347 47.3894 39.8347Z" fill="white"/>
<path fill-rule="evenodd" clip-rule="evenodd" d="M56.3505 39.8347C54.7072 39.8347 53.4963 39.4536 52.7171 38.6919C51.9383 37.9299 51.5469 36.8298 51.5469 35.3898C51.5469 33.9498 51.9399 32.8649 52.7257 32.0979C53.5115 31.3309 54.7194 30.9465 56.3505 30.9465C57.9819 30.9465 59.2087 31.3309 59.9945 32.0979C60.7803 32.8649 61.173 33.9633 61.173 35.3898C61.173 36.8162 60.7836 37.9299 60.0031 38.6919C59.2239 39.4536 58.0061 39.8347 56.3505 39.8347ZM56.3505 37.5676C57.0219 37.5676 57.5019 37.4004 57.7908 37.0638C58.0794 36.7273 58.2229 36.1703 58.2229 35.3914C58.2229 34.6126 58.0794 34.0539 57.7908 33.719C57.5019 33.3825 57.0236 33.2152 56.3505 33.2152C55.6775 33.2152 55.2179 33.3825 54.9294 33.719C54.6424 34.0556 54.4973 34.6126 54.4973 35.3914C54.4973 36.1703 54.6408 36.7289 54.9294 37.0638C55.2179 37.4004 55.6913 37.5676 56.3505 37.5676Z" fill="white"/>
<path fill-rule="evenodd" clip-rule="evenodd" d="M62.6484 39.6552V31.1276H65.3288L65.4193 31.8827C65.8038 31.6076 66.2342 31.3821 66.7142 31.2079C67.1942 31.0336 67.7103 30.9465 68.262 30.9465C68.8137 30.9465 69.2868 31.0336 69.6114 31.2079C69.9344 31.3821 70.1873 31.6247 70.3665 31.9373C70.7628 31.6486 71.2088 31.4129 71.7076 31.2267C72.2045 31.0405 72.7906 30.9482 73.462 30.9482C74.4577 30.9482 75.1889 31.2062 75.657 31.7221C76.1251 32.238 76.3592 33.0238 76.3592 34.0794V39.6569H73.4977V34.4212C73.4977 33.9531 73.3985 33.6149 73.2005 33.4047C73.0025 33.1947 72.6812 33.0903 72.2389 33.0903C71.9638 33.0903 71.6937 33.1468 71.4289 33.2612C71.1661 33.3756 70.944 33.5346 70.7628 33.7379C70.7866 33.8694 70.8022 33.9957 70.8071 34.1154C70.8124 34.2351 70.8157 34.3785 70.8157 34.5475V39.6569H68.1165V34.3851C68.1165 33.9531 68.0415 33.6301 67.8911 33.4132C67.741 33.198 67.4557 33.0886 67.0372 33.0886C66.738 33.0886 66.4564 33.1673 66.1916 33.3227C65.9284 33.478 65.6874 33.6592 65.4722 33.8625V39.6552H62.6484Z" fill="white"/>
<path fill-rule="evenodd" clip-rule="evenodd" d="M53.9648 27.0739V0.165283L59.3579 4.42059V12.3179L56.2488 9.64277V27.0039V27.0739H53.9648Z" fill="white"/>
<path fill-rule="evenodd" clip-rule="evenodd" d="M57.3633 27.0741V12.4018L60.5904 15.2734V27.0741H57.3633Z" fill="white"/>
<path fill-rule="evenodd" clip-rule="evenodd" d="M0 26.705V9.24308H5.63727L5.82177 10.8642C6.58365 10.3979 7.52835 9.97422 8.65923 9.59326C9.78838 9.21233 10.9193 8.97316 12.0484 8.87408V13.3327C11.4095 13.4061 10.704 13.5223 9.93017 13.6829C9.15632 13.8417 8.42005 14.0331 7.71965 14.2534C7.01929 14.4738 6.42481 14.7078 5.93281 14.9538V26.7067H0V26.705Z" fill="white"/>
<path fill-rule="evenodd" clip-rule="evenodd" d="M22.9145 27.074C19.8686 27.074 17.4258 26.3189 15.5826 24.8088C13.7411 23.2987 12.8203 21.0199 12.8203 17.9741C12.8203 15.1981 13.5822 12.9876 15.1043 11.3425C16.6263 9.69749 18.912 8.87408 21.9561 8.87408C24.7321 8.87408 26.8811 9.58645 28.4032 11.0111C29.9252 12.4358 30.6871 14.3508 30.6871 16.7578V19.889H18.3107C18.5806 21.0438 19.2127 21.8484 20.2086 22.3028C21.2028 22.7572 22.5609 22.9844 24.2794 22.9844C25.2377 22.9844 26.2131 22.899 27.2091 22.7264C28.2033 22.5539 29.0335 22.3336 29.6963 22.0636V25.9329C28.861 26.3258 27.8668 26.6145 26.7119 26.7989C25.5572 26.9834 24.293 27.0757 22.9179 27.0757L22.9145 27.074ZM18.309 16.4639H25.5298V15.6901C25.5298 14.8308 25.2719 14.1492 24.756 13.6453C24.2401 13.1414 23.3689 12.8902 22.1406 12.8902C20.7159 12.8902 19.7217 13.1789 19.1563 13.7563C18.5909 14.3337 18.309 15.2357 18.309 16.4639Z" fill="white"/>
<path fill-rule="evenodd" clip-rule="evenodd" d="M39.1616 27.0739C38.0565 27.0739 37.0314 26.8775 36.0852 26.4846C35.1388 26.0917 34.3838 25.4835 33.8198 24.6618C33.2545 23.8385 32.9727 22.8135 32.9727 21.5853C32.9727 19.7916 33.5808 18.3857 34.797 17.3675C36.0135 16.3477 37.836 15.8386 40.2687 15.8386H45.1322V15.4338C45.1322 14.5489 44.8367 13.9169 44.2472 13.5359C43.6578 13.1549 42.5527 12.9653 40.9315 12.9653C38.9414 12.9653 36.9887 13.2728 35.0737 13.8861V10.0544C35.9332 9.71107 36.9838 9.4275 38.2238 9.20714C39.4641 8.98677 40.7725 8.87573 42.1477 8.87573C44.8502 8.87573 46.9686 9.42922 48.5024 10.5345C50.0383 11.6397 50.8052 13.3958 50.8052 15.8028V26.7084H45.6105L45.315 25.2341C44.676 25.8235 43.8595 26.2779 42.8651 26.5973C41.871 26.9168 40.636 27.0756 39.1616 27.0756V27.0739ZM41.041 23.4268C41.9735 23.4268 42.7851 23.2679 43.4717 22.9485C44.16 22.629 44.712 22.2242 45.1286 21.7322V19.2637H40.9282C39.1838 19.2637 38.3127 19.9641 38.3127 21.3632C38.3127 22.0021 38.5332 22.506 38.9755 22.8733C39.4178 23.2423 40.1048 23.4251 41.039 23.4251L41.041 23.4268Z" fill="white"/>
<path fill-rule="evenodd" clip-rule="evenodd" d="M71.9896 27.0738C69.8286 27.0738 68.2381 26.5203 67.2183 25.4168C66.1985 24.3115 65.6897 22.7895 65.6897 20.8489V13.7391H63.332V9.24464H65.6897V5.59574L71.6206 4.01221V9.24464H75.8573L75.5991 13.7391H71.6206V20.444C71.6206 21.2794 71.8292 21.8619 72.2477 22.1933C72.6662 22.5247 73.2914 22.6904 74.1267 22.6904C74.8391 22.6904 75.5634 22.5674 76.2996 22.3214V26.3376C75.1449 26.8295 73.7082 27.0738 71.9896 27.0738Z" fill="white"/>
<path fill-rule="evenodd" clip-rule="evenodd" d="M82.1204 33.1898C81.2354 33.1898 80.4804 33.1471 79.8549 33.0598C79.2282 32.9744 78.608 32.8088 77.9948 32.5627V28.4373C78.4116 28.5842 78.7994 28.6833 79.1548 28.7328C79.5101 28.7823 79.8738 28.8063 80.2411 28.8063C81.249 28.8063 82.004 28.6286 82.5062 28.2716C83.0103 27.9163 83.5194 27.2825 84.0351 26.3737L76.1875 9.24146H82.4139L87.0196 20.3315L91.5515 9.24146H97.7406L91.0715 25.2685C90.4087 26.8657 89.6708 28.2579 88.8612 29.4503C88.0513 30.641 87.1049 31.5617 86.0235 32.2143C84.9422 32.8651 83.6407 33.1914 82.1184 33.1914L82.1204 33.1898Z" fill="white"/>
<path d="M99.065 9.63726V7.57706H98.3047V7.26447H100.221V7.57706H99.4663V9.63726H99.065Z" fill="white"/>
<path d="M100.543 9.6373V7.26282H100.957L101.708 8.80027L102.456 7.26282H102.87V9.6373H102.472V7.91538L101.831 9.22731H101.589L100.943 7.91538V9.6373H100.545H100.543Z" fill="white"/>
</g>
</g>
<defs>
<clipPath id="clip0_261_79">
<rect width="103.14" height="40" fill="white"/>
</clipPath>
</defs>
</svg>
