<svg width="80" height="80" viewBox="0 0 80 80" fill="none" xmlns="http://www.w3.org/2000/svg">
<g clip-path="url(#clip0_264_106)">
<path d="M2.52422 40V46.9323C2.52421 47.2384 2.63653 47.5339 2.83989 47.7627C3.04324 47.9916 3.3235 48.1378 3.6275 48.1737L12.72 49.2486C13.1278 50.4505 13.6147 51.624 14.1777 52.7615L8.50672 59.9531C8.3172 60.1935 8.22246 60.495 8.24046 60.8006C8.25846 61.1061 8.38795 61.3945 8.60438 61.6109L18.4083 71.4148C18.6247 71.6312 18.9131 71.7607 19.2186 71.7787C19.5242 71.7967 19.8257 71.702 20.0661 71.5125L27.2561 65.8428C28.3942 66.4056 29.5682 66.8924 30.7706 67.3001L31.8455 76.3917C31.8814 76.6957 32.0276 76.9759 32.2564 77.1793C32.4852 77.3826 32.7806 77.4949 33.0867 77.495H46.9514C47.2575 77.495 47.553 77.3827 47.7818 77.1793C48.0106 76.976 48.1569 76.6957 48.1928 76.3917L49.2677 67.2992C50.4694 66.8912 51.6429 66.4043 52.7805 65.8415L59.972 71.5125C60.2124 71.702 60.5139 71.7967 60.8195 71.7787C61.1251 71.7607 61.4134 71.6312 61.6298 71.4148L71.4338 61.6109C71.6502 61.3945 71.7797 61.1061 71.7977 60.8006C71.8157 60.495 71.7209 60.1935 71.5314 59.9531L65.8617 52.7633C66.4245 51.6248 66.9114 50.4504 67.3191 49.2476L76.4105 48.1731C76.7145 48.1372 76.9947 47.9909 77.1981 47.7621C77.4014 47.5333 77.5138 47.2378 77.5138 46.9317V40C77.5138 39.6685 77.3821 39.3505 77.1476 39.1161C76.9132 38.8817 76.5953 38.75 76.2638 38.75H53.7119C53.3804 38.75 53.0624 38.8817 52.828 39.1161C52.5936 39.3505 52.4619 39.6685 52.4619 40C52.4619 43.3 51.1509 46.4649 48.8175 48.7984C46.484 51.1319 43.3191 52.4428 40.0191 52.4428C36.719 52.4428 33.5541 51.1319 31.2207 48.7984C28.8872 46.4649 27.5763 43.3 27.5763 40C27.5763 39.6685 27.4446 39.3505 27.2101 39.1161C26.9757 38.8817 26.6578 38.75 26.3263 38.75H3.77422C3.4427 38.75 3.12476 38.8817 2.89034 39.1161C2.65592 39.3505 2.52422 39.6685 2.52422 40ZM5.02422 41.25H25.128C25.4415 44.9836 27.1462 48.4632 29.9042 50.9993C32.6622 53.5353 36.2722 54.9428 40.019 54.9428C43.7657 54.9428 47.3758 53.5353 50.1338 50.9993C52.8918 48.4632 54.5964 44.9836 54.91 41.25H75.0138V45.8214L66.2292 46.8593C65.9885 46.8879 65.7612 46.9857 65.5751 47.1411C65.389 47.2965 65.2521 47.5026 65.1811 47.7343C64.6938 49.32 64.057 50.8557 63.2792 52.3209C63.1657 52.535 63.1168 52.7775 63.1386 53.0188C63.1603 53.2601 63.2517 53.49 63.4017 53.6803L68.8803 60.6279L60.6478 68.8606L53.6984 63.3809C53.5081 63.2309 53.2783 63.1394 53.037 63.1177C52.7956 63.0959 52.5532 63.1447 52.3391 63.2583C50.8743 64.036 49.339 64.6729 47.7539 65.1606C47.5221 65.2316 47.316 65.3685 47.1607 65.5546C47.0053 65.7407 46.9074 65.968 46.8789 66.2087L45.8403 74.9942H34.1977L33.1592 66.2095C33.1307 65.9688 33.0328 65.7415 32.8775 65.5554C32.7221 65.3693 32.516 65.2324 32.2842 65.1614C30.6987 64.6741 29.163 64.0374 27.6978 63.2597C27.4836 63.1459 27.241 63.0969 26.9995 63.1186C26.7579 63.1403 26.5279 63.2319 26.3375 63.382L19.3906 68.8614L11.1578 60.6286L16.6375 53.6795C16.7875 53.4892 16.879 53.2594 16.9007 53.018C16.9225 52.7767 16.8737 52.5342 16.7602 52.3201C15.9823 50.8552 15.3454 49.3197 14.8578 47.7343C14.7868 47.5026 14.6499 47.2965 14.4638 47.1411C14.2777 46.9857 14.0504 46.8879 13.8097 46.8593L5.02422 45.8208V41.25ZM45.623 15.3272C45.623 14.2416 45.3011 13.1805 44.698 12.2779C44.0949 11.3753 43.2377 10.6718 42.2348 10.2564C41.2319 9.84094 40.1283 9.73225 39.0636 9.94402C37.9989 10.1558 37.0209 10.6785 36.2534 11.4461C35.4858 12.2137 34.963 13.1917 34.7512 14.2564C34.5395 15.3211 34.6482 16.4246 35.0636 17.4276C35.479 18.4305 36.1825 19.2877 37.0851 19.8908C37.9877 20.4938 39.0488 20.8157 40.1344 20.8157C41.5895 20.8141 42.9846 20.2353 44.0136 19.2064C45.0425 18.1774 45.6213 16.7823 45.623 15.3272ZM37.1458 15.3272C37.1458 14.7361 37.3211 14.1583 37.6495 13.6668C37.9778 13.1753 38.4446 12.7923 38.9907 12.5661C39.5368 12.3399 40.1377 12.2807 40.7174 12.396C41.2972 12.5113 41.8297 12.7959 42.2476 13.2139C42.6656 13.6319 42.9502 14.1644 43.0655 14.7441C43.1809 15.3238 43.1217 15.9247 42.8955 16.4708C42.6693 17.0169 42.2862 17.4837 41.7948 17.8121C41.3033 18.1405 40.7255 18.3158 40.1344 18.3158C39.342 18.3149 38.5824 17.9997 38.0221 17.4395C37.4618 16.8792 37.1467 16.1195 37.1458 15.3272ZM13.4008 27.5908V35.3233C13.4008 35.6548 13.5325 35.9727 13.7669 36.2071C14.0013 36.4416 14.3193 36.5733 14.6508 36.5733H65.3874C65.7189 36.5733 66.0368 36.4416 66.2712 36.2071C66.5057 35.9727 66.6374 35.6548 66.6374 35.3233V27.5908C66.6374 25.5567 65.1834 24.0006 62.6486 23.3212C60.5851 22.7729 58.4629 22.4762 56.3281 22.4375C57.6499 22.2975 58.8678 21.6561 59.7309 20.6453C60.594 19.6345 61.0368 18.3313 60.968 17.0039C60.8993 15.6765 60.3242 14.4259 59.3612 13.5098C58.3982 12.5936 57.1206 12.0815 55.7914 12.0789C54.4623 12.0762 53.1827 12.5833 52.2161 13.4957C51.2495 14.4081 50.6695 15.6564 50.5955 16.9835C50.5216 18.3106 50.9592 19.6156 51.8184 20.6298C52.6775 21.644 53.8928 22.2901 55.2141 22.4353C53.434 22.4579 51.6606 22.6563 49.9195 23.0275C49.1867 22.5113 48.3646 22.1351 47.4948 21.9181C45.0961 21.2802 42.6242 20.9592 40.1422 20.9632H39.9063C37.421 20.9587 34.9459 21.2797 32.5441 21.9181C31.6744 22.1352 30.8525 22.5113 30.1197 23.0275C28.4474 22.6674 26.7443 22.4694 25.0341 22.4361C26.3547 22.2928 27.5701 21.6489 28.4305 20.6369C29.2909 19.6248 29.7307 18.3215 29.6595 16.9951C29.5883 15.6687 29.0115 14.4199 28.0478 13.5058C27.084 12.5916 25.8066 12.0815 24.4783 12.0804C23.15 12.0793 21.8717 12.5873 20.9064 13.4998C19.9412 14.4124 19.3623 15.6602 19.2889 16.9865C19.2156 18.3128 19.6532 19.6168 20.5119 20.6303C21.3706 21.6438 22.585 22.2897 23.9053 22.4351C21.7051 22.4588 19.5164 22.7563 17.3897 23.3206C14.8545 24 13.4008 25.5567 13.4008 27.5908ZM64.1374 27.5908V34.0733H62.1358V28.8593C62.1358 28.5278 62.0041 28.2099 61.7697 27.9755C61.5353 27.741 61.2173 27.6093 60.8858 27.6093C60.5543 27.6093 60.2363 27.741 60.0019 27.9755C59.7675 28.2099 59.6358 28.5278 59.6358 28.8593V34.0726H51.7139V26.4164C51.7153 26.0252 51.6608 25.6359 51.552 25.2601C52.9156 25.0335 54.2959 24.9225 55.6781 24.9286C57.8127 24.9143 59.9397 25.1853 62.0025 25.7345C62.9759 25.9972 64.1374 26.5312 64.1374 27.5908ZM53.0872 17.2748C53.0872 16.7423 53.2451 16.2217 53.541 15.7789C53.8369 15.336 54.2574 14.9909 54.7494 14.7871C55.2414 14.5833 55.7828 14.53 56.3052 14.6339C56.8275 14.7378 57.3073 14.9942 57.6838 15.3708C58.0604 15.7474 58.3169 16.2272 58.4208 16.7495C58.5247 17.2718 58.4713 17.8132 58.2675 18.3052C58.0637 18.7973 57.7186 19.2178 57.2758 19.5137C56.833 19.8095 56.3124 19.9675 55.7798 19.9675C55.066 19.9667 54.3815 19.6827 53.8767 19.1779C53.3719 18.6731 53.088 17.9887 53.0872 17.2748ZM33.1905 24.3329C37.669 23.1736 42.369 23.1736 46.8475 24.3329C47.9266 24.6222 49.2131 25.2184 49.2131 26.4175V34.0737H46.8736V27.782C46.8736 27.4505 46.7419 27.1325 46.5075 26.8981C46.2731 26.6637 45.9551 26.532 45.6236 26.532C45.2921 26.532 44.9741 26.6637 44.7397 26.8981C44.5053 27.1325 44.3736 27.4505 44.3736 27.782V34.0733H35.6645V27.782C35.6645 27.4505 35.5328 27.1325 35.2984 26.8981C35.064 26.6637 34.7461 26.532 34.4145 26.532C34.083 26.532 33.7651 26.6637 33.5307 26.8981C33.2962 27.1325 33.1645 27.4505 33.1645 27.782V34.0733H30.8248V26.417C30.8248 25.2187 32.1114 24.6222 33.1905 24.3329ZM21.7803 17.2748C21.7803 16.7422 21.9382 16.2216 22.2341 15.7788C22.53 15.336 22.9505 14.9909 23.4426 14.7871C23.9346 14.5833 24.476 14.53 24.9983 14.6339C25.5207 14.7378 26.0005 14.9943 26.377 15.3709C26.7536 15.7475 27.01 16.2273 27.1139 16.7496C27.2178 17.2719 27.1644 17.8133 26.9606 18.3054C26.7568 18.7974 26.4116 19.2179 25.9688 19.5138C25.526 19.8096 25.0054 19.9675 24.4728 19.9675C23.7589 19.9666 23.0746 19.6827 22.5698 19.1779C22.065 18.6731 21.7811 17.9887 21.7803 17.2748ZM24.3706 24.9301C25.7497 24.9216 27.127 25.0322 28.487 25.2606C28.3782 25.6363 28.3235 26.0257 28.3248 26.4168V34.0731H20.403V28.8593C20.403 28.5278 20.2713 28.2099 20.0369 27.9755C19.8024 27.741 19.4845 27.6093 19.153 27.6093C18.8215 27.6093 18.5035 27.741 18.2691 27.9755C18.0347 28.2099 17.903 28.5278 17.903 28.8593V34.0726H15.9014V27.5908C15.9014 26.5309 17.0628 25.997 18.0372 25.7361C20.1032 25.1876 22.2331 24.9166 24.3706 24.9301ZM7.38601e-07 31.875C-0.000458086 32.6934 0.21286 33.4977 0.618832 34.2083C1.0248 34.9189 1.60935 35.5111 2.31458 35.9264C3.01982 36.3416 3.82128 36.5654 4.63962 36.5757C5.45795 36.5859 6.26477 36.3822 6.98018 35.9848C7.69559 35.5873 8.29478 35.0099 8.71841 34.3097C9.14205 33.6095 9.37544 32.8108 9.39547 31.9926C9.4155 31.1745 9.22148 30.3653 8.83262 29.6451C8.44376 28.925 7.87354 28.319 7.17844 27.887C9.64976 21.1685 14.1248 15.371 19.9983 11.2786C25.8718 7.18619 32.8604 4.99632 40.0191 5.00512C56.7933 5.00512 70.9758 16.655 74.2969 32.9168L71.7656 31.4556C71.4787 31.2924 71.1389 31.2494 70.8203 31.3359C70.5017 31.4224 70.2303 31.6314 70.0653 31.9172C69.9002 32.2031 69.855 32.5426 69.9393 32.8617C70.0237 33.1809 70.2309 33.4537 70.5156 33.6206L75.3398 36.4062C75.6269 36.572 75.9681 36.6169 76.2883 36.5311C76.6086 36.4453 76.8816 36.2358 77.0474 35.9487L79.8325 31.125C79.9957 30.838 80.0387 30.4982 79.9522 30.1796C79.8657 29.8611 79.6567 29.5897 79.3709 29.4246C79.085 29.2596 78.7455 29.2143 78.4264 29.2987C78.1072 29.383 77.8344 29.5902 77.6675 29.875L76.5964 31.7303C74.8076 23.829 70.5084 16.7193 64.3422 11.465C58.176 6.21068 50.4742 3.09415 42.3892 2.58172C34.3042 2.06929 26.2706 4.1885 19.4903 8.62228C12.7101 13.0561 7.54773 19.5661 4.77563 27.1783C4.74969 27.1783 4.72422 27.1764 4.6975 27.1764C3.45191 27.1779 2.25779 27.6734 1.37713 28.5543C0.496464 29.4351 0.00119992 30.6294 7.38601e-07 31.875ZM4.69828 29.6765C5.1331 29.6765 5.55816 29.8054 5.91971 30.047C6.28126 30.2885 6.56307 30.6318 6.72949 31.0336C6.8959 31.4353 6.93946 31.8773 6.85465 32.3038C6.76984 32.7302 6.56047 33.122 6.25302 33.4294C5.94557 33.7369 5.55385 33.9463 5.12739 34.0312C4.70093 34.116 4.25889 34.0725 3.85717 33.9061C3.45545 33.7397 3.11209 33.4579 2.87052 33.0964C2.62894 32.7348 2.5 32.3098 2.5 31.875C2.50062 31.2921 2.73241 30.7333 3.14453 30.3211C3.55664 29.909 4.11542 29.6772 4.69828 29.6765Z" fill="white"/>
</g>
<defs>
<clipPath id="clip0_264_106">
<rect width="80" height="80" fill="white"/>
</clipPath>
</defs>
</svg>
