<svg width="80" height="80" viewBox="0 0 80 80" fill="none" xmlns="http://www.w3.org/2000/svg">
<g clip-path="url(#clip0_264_107)">
<path d="M3.75 75.74H36.3675C37.0575 75.74 37.6175 75.18 37.6175 74.49V68.2337C37.6175 63.5387 35.7925 59.1275 32.4787 55.8137C30.5837 53.9175 28.3012 52.5037 25.8 51.6437C29.2975 49.6425 31.665 45.88 31.665 41.57C31.665 35.17 26.4588 29.9637 20.0588 29.9637C13.6588 29.9637 8.4525 35.17 8.4525 41.57C8.4525 45.8887 10.8288 49.6562 14.3375 51.655C7.3725 54.06 2.5 60.715 2.5 68.2325V74.4887C2.5 75.1787 3.06 75.74 3.75 75.74ZM17.885 53.3525C18.0162 53.3325 18.1425 53.3037 18.2763 53.2875C18.3725 53.2762 18.4688 53.265 18.5675 53.255C19.025 53.2087 19.4875 53.1787 19.9513 53.175C20.0025 53.175 20.0537 53.1787 20.105 53.1787C20.52 53.1787 20.9325 53.2 21.34 53.2337C21.4575 53.2437 21.575 53.2537 21.6913 53.2662C21.8013 53.2787 21.905 53.3012 22.0138 53.3162V63.19C21.235 63.96 20.6513 64.5425 19.9538 65.2462C19.2488 64.5425 18.665 63.96 17.8863 63.19V53.3525H17.885ZM10.9525 41.57C10.9525 36.5487 15.0375 32.4637 20.0588 32.4637C25.08 32.4637 29.165 36.5487 29.165 41.57C29.165 46.5912 25.09 50.665 20.0775 50.675C20.0713 50.675 20.065 50.675 20.0588 50.675C20.0525 50.675 20.0475 50.675 20.0413 50.675C15.0288 50.665 10.9525 46.585 10.9525 41.57ZM5 68.2337C5 61.7075 9.28 55.9337 15.385 53.9362V63.7137C15.385 64.0487 15.5187 64.3687 15.7562 64.6025C17.0525 65.8825 17.7763 66.6075 19.0725 67.9025C19.3075 68.1375 19.625 68.2687 19.9563 68.2687H19.96C20.2925 68.2687 20.6113 68.1337 20.845 67.8975C22.1225 66.6037 22.845 65.88 24.14 64.6037C24.3775 64.3687 24.5112 64.0487 24.5112 63.7137V53.8587C26.845 54.5762 28.9675 55.8412 30.7087 57.5825C33.55 60.4237 35.115 64.2062 35.115 68.2337V73.24H5V68.2337Z" fill="white"/>
<path d="M77.4981 9.46751C77.4981 6.59626 75.1619 4.26001 72.2906 4.26001H35.6294C32.7581 4.26001 30.4219 6.59626 30.4219 9.46751V30.7438C30.4219 33.615 32.7581 35.9513 35.6294 35.9513H40.2331V41.375C40.2331 41.88 40.5381 42.3363 41.0044 42.53C41.1594 42.5938 41.3219 42.625 41.4831 42.625C41.8081 42.625 42.1281 42.4975 42.3669 42.2588L48.6744 35.9513H72.2906C75.1619 35.9513 77.4981 33.615 77.4981 30.7438V9.46751ZM74.9981 30.7438C74.9981 32.2363 73.7831 33.4513 72.2906 33.4513H48.1569C47.8256 33.4513 47.5069 33.5825 47.2731 33.8175L42.7331 38.3575V34.7013C42.7331 34.0113 42.1731 33.4513 41.4831 33.4513H35.6294C34.1369 33.4513 32.9219 32.2363 32.9219 30.7438V9.46751C32.9219 7.97501 34.1369 6.76001 35.6294 6.76001H72.2906C73.7831 6.76001 74.9981 7.97501 74.9981 9.46751V30.7438Z" fill="white"/>
<path d="M62.0818 11.2887C59.933 9.36374 57.0443 8.44249 54.1505 8.76124C49.3568 9.29124 45.493 13.3275 45.1643 18.15C44.938 21.47 46.3455 24.695 48.9305 26.7787C49.5005 27.2375 49.8268 27.8812 49.8268 28.5462V28.745C49.8268 30.41 51.1805 31.7637 52.8468 31.7637H57.7605C59.4255 31.7637 60.7793 30.41 60.7793 28.745V28.4712C60.7793 27.8487 61.0868 27.2475 61.623 26.8212C64.0668 24.88 65.4668 21.9787 65.4668 18.8625C65.4668 15.9762 64.233 13.2162 62.0818 11.2887ZM58.2793 28.7437C58.2793 29.03 58.0468 29.2625 57.7605 29.2625H52.8468C52.5605 29.2625 52.3268 29.03 52.3268 28.7437V28.545C52.3268 28.0887 52.2355 27.6462 52.1043 27.2162H58.483C58.363 27.6225 58.2793 28.0387 58.2793 28.47V28.7437ZM60.233 24.7162H50.373C48.508 23.1425 47.4918 20.7675 47.658 18.32C47.9068 14.6862 50.8155 11.645 54.4255 11.2462C54.723 11.2137 55.0193 11.1962 55.3118 11.1962C57.2043 11.1962 58.9905 11.8737 60.4143 13.15C62.0368 14.6037 62.9668 16.685 62.9668 18.8612C62.9668 21.1362 61.9693 23.2537 60.2318 24.7162H60.233Z" fill="white"/>
</g>
<defs>
<clipPath id="clip0_264_107">
<rect width="80" height="80" fill="white"/>
</clipPath>
</defs>
</svg>
