<svg width="183" height="22" viewBox="0 0 183 22" fill="none" xmlns="http://www.w3.org/2000/svg">
<g clip-path="url(#clip0_261_70)">
<path d="M147.528 12.0776C147.875 12.0776 148.219 12.1135 148.556 12.1831C148.886 12.2527 149.211 12.3582 149.525 12.4974C149.844 12.6388 150.136 12.8072 150.403 13.0002C150.675 13.1978 150.924 13.4223 151.151 13.6759L151.463 14.0239L149.566 15.9208L149.227 15.4584C149.025 15.1845 148.785 14.978 148.509 14.8433C148.228 14.7063 147.9 14.6367 147.528 14.6367C147.193 14.6367 146.897 14.6906 146.636 14.8006C146.38 14.9084 146.149 15.0745 145.947 15.2945C145.743 15.5167 145.59 15.7704 145.487 16.051C145.381 16.3361 145.33 16.6549 145.33 17.0074C145.33 17.3598 145.381 17.6786 145.487 17.9637C145.59 18.2465 145.745 18.498 145.947 18.7202C146.149 18.9402 146.38 19.1063 146.636 19.2141C146.897 19.3241 147.193 19.378 147.528 19.378C147.9 19.378 148.228 19.3106 148.509 19.1737C148.785 19.039 149.025 18.8325 149.227 18.5586L149.568 18.0939L151.465 19.9908L151.151 20.3388C150.924 20.5925 150.673 20.817 150.403 21.0145C150.136 21.2076 149.844 21.3759 149.525 21.5174C149.209 21.6588 148.886 21.7621 148.556 21.8316C148.219 21.9012 147.875 21.9372 147.528 21.9372C146.854 21.9372 146.228 21.8159 145.644 21.5712C145.063 21.3288 144.533 20.9674 144.05 20.487C143.57 20.0043 143.208 19.4723 142.966 18.8931C142.723 18.3094 142.6 17.6808 142.6 17.0096C142.6 16.3384 142.721 15.7098 142.966 15.1261C143.208 14.5425 143.57 14.0104 144.05 13.5323C144.531 13.0518 145.063 12.6904 145.644 12.448C146.228 12.2055 146.856 12.0821 147.528 12.0821V12.0776ZM140.764 19.6923C140.764 18.5788 139.947 17.8245 139.019 17.811C137.315 17.7863 136.595 19.7753 137.636 20.8596C137.931 21.1672 138.355 21.4141 138.878 21.4343C139.886 21.477 140.766 20.7092 140.766 19.69L140.764 19.6923ZM159.697 15.2878C159.502 15.07 159.277 14.9084 159.021 14.7984C158.763 14.6884 158.469 14.6345 158.137 14.6345C157.805 14.6345 157.506 14.6884 157.246 14.7984C156.988 14.9061 156.759 15.0723 156.557 15.29C156.352 15.5123 156.197 15.7659 156.094 16.0488C155.991 16.3339 155.937 16.6527 155.937 17.0051C155.937 17.3576 155.989 17.6763 156.094 17.9614C156.197 18.2443 156.352 18.4957 156.557 18.718C156.759 18.938 156.99 19.1041 157.246 19.2118C157.506 19.3218 157.802 19.3757 158.137 19.3757C158.788 19.3757 159.306 19.158 159.697 18.7247C159.897 18.5025 160.047 18.2488 160.148 17.9659C160.252 17.6786 160.303 17.3598 160.303 17.0074C160.303 16.3137 160.101 15.739 159.697 15.29V15.2878ZM154.66 13.5255C155.14 13.0451 155.672 12.6837 156.253 12.4412C156.837 12.1988 157.466 12.0753 158.137 12.0753C158.808 12.0753 159.437 12.1965 160.02 12.4412C160.602 12.6837 161.132 13.0451 161.614 13.5255C162.095 14.0059 162.456 14.538 162.699 15.1194C162.941 15.7031 163.064 16.3316 163.064 17.0029C163.064 17.6741 162.943 18.3027 162.699 18.8863C162.456 19.47 162.095 20.0021 161.614 20.4802C161.134 20.9606 160.602 21.3221 160.02 21.5645C159.437 21.8069 158.808 21.9304 158.137 21.9304C157.466 21.9304 156.837 21.8092 156.253 21.5645C155.67 21.3221 155.138 20.9584 154.66 20.4802C154.179 19.9998 153.818 19.4678 153.575 18.8863C153.333 18.3027 153.212 17.6741 153.212 17.0029C153.212 16.3316 153.333 15.7031 153.575 15.1194C153.818 14.5357 154.179 14.0037 154.66 13.5255ZM171.799 13.3841L171.903 13.2921C172.275 12.971 172.655 12.7218 173.041 12.5445C173.438 12.3627 173.844 12.2594 174.258 12.2325H174.289H174.493C174.882 12.2325 175.248 12.2863 175.593 12.3918C175.941 12.4996 176.264 12.659 176.556 12.8723C176.844 13.0833 177.093 13.3167 177.304 13.5794C177.515 13.8398 177.69 14.1316 177.827 14.4504C177.959 14.758 178.06 15.0767 178.125 15.409C178.193 15.7435 178.226 16.0847 178.226 16.4282V21.9349H175.533V16.8367C175.533 16.6459 175.53 16.4955 175.526 16.3855C175.521 16.2531 175.512 16.1318 175.501 16.0241C175.492 15.9298 175.474 15.8221 175.452 15.7008C175.427 15.5774 175.398 15.4539 175.364 15.3327C175.335 15.2294 175.297 15.1374 175.25 15.0565C175.205 14.978 175.149 14.9061 175.086 14.8455C175.023 14.7849 174.953 14.7355 174.873 14.6929C174.785 14.648 174.684 14.6121 174.572 14.5874H174.558C174.511 14.5739 174.462 14.5649 174.412 14.5582C174.363 14.5514 174.309 14.5492 174.253 14.5492C174.073 14.5492 173.91 14.5851 173.761 14.657C173.609 14.731 173.465 14.8478 173.335 15.0027C173.2 15.1643 173.099 15.3551 173.032 15.5796C172.96 15.8176 172.922 16.1004 172.922 16.4259V16.9198H172.906C172.904 18.59 172.906 20.2625 172.906 21.9327H170.212V16.39C170.212 16.087 170.179 15.8176 170.109 15.5841C170.044 15.3641 169.947 15.1688 169.819 15.0004C169.7 14.8433 169.566 14.7288 169.42 14.6547C169.276 14.5829 169.108 14.547 168.915 14.547H168.881C168.632 14.5492 168.428 14.5963 168.264 14.6861C168.118 14.7647 168.003 14.8837 167.92 15.0431C167.815 15.2429 167.734 15.5167 167.675 15.8625C167.615 16.2306 167.586 16.6796 167.586 17.2094V21.9327H164.993V17.0208C164.993 16.6145 165.02 16.2306 165.071 15.8647C165.123 15.4988 165.204 15.1553 165.309 14.8365C165.419 14.511 165.547 14.2237 165.698 13.9723C165.853 13.7118 166.034 13.4874 166.239 13.2988C166.43 13.1237 166.618 12.9733 166.802 12.8498C166.995 12.7196 167.195 12.6096 167.395 12.5198C167.59 12.4345 167.797 12.3649 168.014 12.311C168.219 12.2616 168.425 12.2302 168.634 12.2167C168.681 12.21 168.737 12.2055 168.807 12.201C168.877 12.1965 168.937 12.1943 168.984 12.1943C169.171 12.1943 169.357 12.2078 169.545 12.2369C169.734 12.2661 169.918 12.3065 170.1 12.3604C170.275 12.4165 170.434 12.4704 170.574 12.5288C170.722 12.5894 170.854 12.6545 170.973 12.7241C171.092 12.7937 171.202 12.8678 171.305 12.9441C171.415 13.0272 171.519 13.1147 171.615 13.2045L171.799 13.3796V13.3841Z" fill="white"/>
<path d="M75.6916 7.00857H78.8816L80.9581 16.5943L83.4926 7.00857H87.5356L90.3844 16.5965L92.1467 7.00857H95.6734L92.6832 21.9327H88.3326L85.4861 12.0416L82.9134 21.9327H78.4236L75.0742 7.00857H75.6893H75.6916ZM115.514 0H118.8V21.9327H115.02V0H115.514ZM128.402 10.12C127.463 10.12 126.664 10.3535 126.006 10.8227C125.679 11.0561 125.405 11.3322 125.183 11.6488C125.079 11.7947 124.987 11.9518 124.906 12.118H131.819C131.738 11.9496 131.648 11.7924 131.547 11.6443C131.329 11.3233 131.062 11.0471 130.75 10.8159C130.44 10.5847 130.09 10.4118 129.706 10.2973C129.313 10.1784 128.88 10.12 128.406 10.12H128.402ZM124.621 15.3933C124.702 15.6941 124.81 15.9769 124.945 16.2418C125.16 16.6616 125.447 17.041 125.807 17.38C126.161 17.7122 126.552 17.9637 126.981 18.1276C127.41 18.2937 127.883 18.3745 128.402 18.3745C129.062 18.3745 129.643 18.251 130.148 18.0063C130.649 17.7616 131.08 17.3935 131.439 16.9018L131.78 16.4371L134.416 19.0727L134.102 19.4206C133.742 19.818 133.352 20.1727 132.925 20.4824C132.503 20.7878 132.043 21.0504 131.547 21.2727C131.051 21.4927 130.543 21.6565 130.02 21.7665C129.493 21.8765 128.952 21.9327 128.402 21.9327C127.342 21.9327 126.357 21.7418 125.447 21.3624C124.541 20.9831 123.712 20.4151 122.967 19.6608C122.222 18.9065 121.663 18.0714 121.29 17.1555C120.917 16.2396 120.729 15.2451 120.729 14.1765C120.729 13.108 120.915 12.1157 121.29 11.1998C121.663 10.2839 122.224 9.44878 122.967 8.69225C123.712 7.93796 124.538 7.37 125.447 6.99061C126.357 6.61122 127.34 6.42041 128.402 6.42041C129.464 6.42041 130.442 6.61122 131.347 6.99286C132.247 7.37224 133.064 7.9402 133.796 8.69673C134.524 9.44878 135.071 10.2839 135.437 11.202C135.803 12.1202 135.987 13.1102 135.987 14.1765C135.987 14.2484 135.985 14.3629 135.978 14.5178C135.974 14.6592 135.965 14.7961 135.958 14.9331L135.929 15.4022L135.46 15.3978C134.692 15.3888 133.906 15.382 133.103 15.3776C132.526 15.3731 131.706 15.3731 130.633 15.3731C129.56 15.3731 128.559 15.3731 127.766 15.3776C126.824 15.382 125.775 15.3865 124.619 15.3955L124.621 15.3933ZM105.335 9.89776C104.75 9.89776 104.22 9.99878 103.748 10.1986C103.279 10.3984 102.857 10.7014 102.487 11.1055C102.112 11.5141 101.829 11.972 101.643 12.4727C101.454 12.9778 101.362 13.5367 101.362 14.1518C101.362 14.7669 101.456 15.3259 101.643 15.831C101.829 16.3316 102.11 16.7873 102.487 17.1982C102.857 17.6022 103.279 17.9053 103.748 18.1051C104.22 18.3071 104.75 18.4059 105.335 18.4059C106.498 18.4059 107.47 18.0018 108.247 17.1892C108.638 16.7806 108.932 16.3271 109.127 15.8265C109.322 15.3259 109.421 14.7714 109.421 14.1653C109.421 13.5592 109.322 13.0024 109.127 12.4996C108.932 11.999 108.638 11.541 108.245 11.1257C107.854 10.7127 107.416 10.4051 106.938 10.2031C106.458 9.99878 105.924 9.89776 105.335 9.89776ZM105.335 6.39571C105.823 6.39571 106.303 6.43388 106.779 6.51245C107.253 6.58878 107.713 6.70327 108.16 6.85592C108.611 7.00857 109.042 7.19939 109.453 7.42388C109.859 7.64612 110.25 7.90878 110.624 8.20959C111.008 8.51714 111.352 8.87857 111.655 9.29163C111.956 9.70245 112.216 10.1649 112.434 10.6767C112.652 11.1886 112.815 11.7363 112.925 12.32C113.033 12.9014 113.089 13.512 113.089 14.1518V21.6273H109.309V20.4869C109.167 20.6037 109.017 20.7159 108.86 20.8237C108.698 20.9337 108.523 21.0414 108.339 21.1447C108.146 21.2524 107.937 21.3512 107.713 21.4388C107.497 21.5241 107.248 21.6071 106.967 21.6902C106.687 21.771 106.404 21.8339 106.119 21.8743C105.829 21.9147 105.54 21.9371 105.252 21.9371H105.225C104.083 21.9371 103.043 21.7463 102.112 21.3669C101.171 20.9831 100.345 20.4084 99.6289 19.6429C98.9218 18.8841 98.3897 18.0445 98.0328 17.1218C97.6759 16.1992 97.4985 15.2002 97.4985 14.1271C97.4985 13.6557 97.5389 13.1865 97.6175 12.7218C97.6961 12.2616 97.815 11.8059 97.9744 11.3547C98.1338 10.9035 98.3291 10.4702 98.5626 10.0594C98.7983 9.64633 99.0677 9.25347 99.373 8.88306C99.6873 8.50143 100.055 8.1602 100.473 7.85714C100.884 7.55857 101.346 7.29592 101.86 7.07143C102.374 6.84694 102.918 6.67857 103.49 6.56633C104.06 6.45408 104.66 6.4002 105.284 6.4002H105.34L105.335 6.39571Z" fill="white"/>
<path fill-rule="evenodd" clip-rule="evenodd" d="M19.1187 15.2383C18.8897 16.5696 17.7291 17.582 16.3328 17.582C14.9365 17.582 13.7759 16.5696 13.5469 15.2383H19.1187Z" fill="white"/>
<path fill-rule="evenodd" clip-rule="evenodd" d="M15.92 10.7822C15.554 10.8496 15.4755 10.991 15.5428 11.3165C15.6281 11.7318 15.7134 12.1561 15.7987 12.5737C15.92 13.1775 15.4642 13.1304 15.3026 13.0204C15.1297 12.9014 14.9838 11.7834 14.8671 11.5522C14.5528 11.5881 14.124 12.2077 13.9938 12.4547C13.8142 12.7959 13.6885 13.2898 13.6885 13.7006C13.6885 13.8173 13.702 13.8577 13.6616 13.8981C13.5561 13.97 13.3136 13.8981 13.1879 13.9902C13.0734 14.0732 13.0061 14.2439 13.0555 14.4414C13.1363 14.7669 13.5763 14.6996 13.9512 14.6996H18.6026C18.9842 14.6996 19.413 14.7737 19.5679 14.511C19.6644 14.3494 19.6128 14.1541 19.5185 14.0463C19.2806 13.7747 19.0471 14.1496 19.0471 13.7006C19.0471 13.6243 19.0471 13.5434 19.0426 13.4671C19.0224 13.1102 18.8832 12.7083 18.7149 12.4053C18.6138 12.2234 18.4724 12.0304 18.322 11.8732C18.2075 11.7565 17.9538 11.5006 17.7787 11.4624C17.7024 11.6308 17.5677 12.329 17.4891 12.6073C17.4353 12.7981 17.4285 13.0092 17.2332 13.072C16.9997 13.1461 16.8246 12.9822 16.8067 12.8004C16.7887 12.5983 16.9863 11.8216 17.0334 11.5881C17.112 11.193 17.2804 10.7822 16.6338 10.7463C16.4295 10.7351 16.1355 10.762 15.92 10.78V10.7822Z" fill="white"/>
<path d="M39.4294 10.12C38.491 10.12 37.6918 10.3535 37.0341 10.8227C36.7063 11.0561 36.4324 11.3322 36.2102 11.6488C36.1069 11.7947 36.0149 11.9518 35.9341 12.118H42.8461C42.7653 11.9496 42.6733 11.7924 42.5722 11.6443C42.3545 11.3233 42.0873 11.0471 41.7753 10.8159C41.4655 10.5847 41.1153 10.4118 40.7314 10.2973C40.3386 10.1784 39.9053 10.12 39.4316 10.12H39.4294ZM0.493878 1.39633H3.78041V6.98163H7.57878V10.3445H3.78041V14.4571C3.78041 15.0588 3.87245 15.5976 4.05653 16.0712C4.23612 16.5359 4.51 16.9467 4.87367 17.3014C5.23959 17.6584 5.65939 17.9255 6.13082 18.1051C6.61122 18.2847 7.15225 18.3767 7.75388 18.3767H8.24776V21.9349H7.75388C6.6898 21.9349 5.6998 21.7576 4.78388 21.4006C3.86571 21.0437 3.03061 20.5116 2.27857 19.8022C1.52204 19.0906 0.951837 18.2869 0.570204 17.3912C0.188571 16.4978 0 15.519 0 14.4571V1.39633H0.493878ZM26.7367 0H30.0233V21.9327H26.2429V0H26.7367ZM65.5106 1.39633H68.7971V6.98163H72.5955V10.3445H68.7971V14.4571C68.7971 15.0588 68.8892 15.5976 69.0733 16.0712C69.2529 16.5359 69.5267 16.9467 69.8904 17.3014C70.2563 17.6584 70.6761 17.9255 71.1476 18.1051C71.6257 18.2847 72.169 18.3767 72.7706 18.3767H73.2645V21.9349H72.7706C71.7065 21.9349 70.7165 21.7576 69.8006 21.4006C68.8825 21.0437 68.0474 20.5116 67.2953 19.8022C66.5365 19.0906 65.9686 18.2869 65.5869 17.3912C65.2053 16.4978 65.0167 15.519 65.0167 14.4571V1.39633H65.5106ZM62.5923 21.9057H59.3057V14.4863C59.3057 13.7478 59.2271 13.099 59.07 12.5422C58.9174 12.0035 58.6929 11.5478 58.3965 11.1773C58.1069 10.8159 57.7567 10.5465 57.3437 10.3669C56.9216 10.1829 56.4278 10.0931 55.862 10.0931C54.7957 10.0931 53.9898 10.4478 53.4465 11.1549C53.1659 11.5208 52.9527 11.9788 52.809 12.5243C52.6608 13.09 52.5845 13.7522 52.5845 14.5133V21.9371L48.9433 21.899V13.7051C48.9433 12.7241 49.1049 11.8171 49.4282 10.982C49.7514 10.1447 50.2363 9.39041 50.8806 8.71469C51.5316 8.03449 52.3016 7.52265 53.1884 7.18143C54.0661 6.84469 55.0494 6.67633 56.1382 6.67633C56.2549 6.67633 56.4076 6.67857 56.5916 6.68531C56.7578 6.6898 56.9059 6.69878 57.0339 6.70775C57.1888 6.71673 57.3661 6.73918 57.5682 6.77286C57.759 6.80429 57.9745 6.84694 58.2147 6.90082C58.4571 6.95469 58.6906 7.01755 58.9129 7.09163C59.1396 7.16347 59.3551 7.24653 59.5594 7.33633C59.7704 7.42837 59.9859 7.54286 60.2082 7.6798C60.4304 7.81673 60.6504 7.96939 60.8659 8.13776C61.0971 8.31959 61.3082 8.51714 61.5035 8.73265C61.701 8.95041 61.8761 9.18163 62.0288 9.42633C62.1814 9.66878 62.3206 9.94714 62.4486 10.2614C62.5743 10.569 62.6865 10.9035 62.7831 11.2627C62.8818 11.6308 62.9559 12.0192 63.0053 12.43C63.0547 12.8363 63.0794 13.2629 63.0794 13.7073V21.908H62.5855L62.5923 21.9057ZM35.6467 15.3933C35.7276 15.6941 35.8353 15.9769 35.97 16.2418C36.1855 16.6616 36.4729 17.041 36.832 17.38C37.1867 17.7122 37.5774 17.9637 38.0061 18.1276C38.4349 18.2937 38.9086 18.3745 39.4271 18.3745C40.0871 18.3745 40.6686 18.251 41.1714 18.0063C41.672 17.7616 42.1031 17.3935 42.4622 16.9018L42.8035 16.4371L45.439 19.0727L45.1247 19.4206C44.7655 19.818 44.3749 20.1727 43.9484 20.4824C43.5263 20.7878 43.0684 21.0504 42.57 21.2727C42.0739 21.4927 41.5665 21.6565 41.0435 21.7665C40.5159 21.8765 39.9749 21.9327 39.4249 21.9327C38.3631 21.9327 37.3798 21.7418 36.4706 21.3624C35.5637 20.9831 34.7353 20.4151 33.99 19.6608C33.2469 18.9065 32.6857 18.0714 32.3131 17.1555C31.9404 16.2396 31.7518 15.2451 31.7518 14.1765C31.7518 13.108 31.9382 12.1157 32.3131 11.1998C32.6857 10.2839 33.2469 9.44878 33.99 8.69225C34.7353 7.93796 35.5614 7.37 36.4706 6.99061C37.3798 6.61122 38.3631 6.42041 39.4249 6.42041C40.4867 6.42041 41.4655 6.61122 42.3702 6.99286C43.2704 7.37224 44.0876 7.9402 44.8194 8.69674C45.5467 9.44878 46.0945 10.2839 46.4604 11.202C46.8263 12.1202 47.0104 13.1102 47.0104 14.1765C47.0104 14.2484 47.0082 14.3629 47.0014 14.5178C46.9969 14.6592 46.988 14.7961 46.9812 14.9331L46.952 15.4022L46.4829 15.3978C45.7151 15.3888 44.9294 15.382 44.1257 15.3776C43.5488 15.3731 42.7294 15.3731 41.6586 15.3731C40.5339 15.3731 39.5843 15.3731 38.7918 15.3776C37.849 15.382 36.8006 15.3865 35.6445 15.3955L35.6467 15.3933Z" fill="white"/>
<path d="M16.3604 9.89779C15.7745 9.89779 15.2447 9.99881 14.7732 10.1986C14.304 10.3984 13.882 10.7015 13.5116 11.1055C13.1345 11.5141 12.8538 11.9721 12.6675 12.4727C12.4789 12.9778 12.3869 13.5368 12.3869 14.1519C12.3869 14.767 12.4812 15.326 12.6675 15.8311C12.8538 16.3317 13.1345 16.7874 13.5116 17.1982C13.882 17.6023 14.304 17.9053 14.7732 18.1051C15.2447 18.3072 15.7745 18.406 16.3604 18.406C17.5232 18.406 18.4953 17.9996 19.272 17.1892C19.6626 16.7807 19.9567 16.3272 20.152 15.8266C20.3473 15.326 20.4461 14.7715 20.4461 14.1653C20.4461 13.5592 20.3473 13.0025 20.152 12.4996C19.9567 11.999 19.6626 11.5411 19.2698 11.1258C18.8792 10.7127 18.4414 10.4051 17.9632 10.2031C17.4828 9.99881 16.9485 9.89779 16.3604 9.89779ZM16.3604 6.39575C16.8475 6.39575 17.3279 6.43392 17.8038 6.51249C18.2775 6.58881 18.7377 6.7033 19.1845 6.85596C19.6357 7.00861 20.0667 7.19943 20.4775 7.42392C20.8838 7.64616 21.2745 7.90881 21.6494 8.20963C22.0332 8.51718 22.3767 8.87861 22.6798 9.29167C22.9806 9.70249 23.241 10.1649 23.4587 10.6768C23.6765 11.1886 23.8404 11.7364 23.9504 12.32C24.0581 12.9015 24.1143 13.5121 24.1143 14.1519V21.6274H20.3338V20.487C20.1857 20.6082 20.0353 20.7227 19.8849 20.826C19.7232 20.936 19.5481 21.0437 19.364 21.1447C19.171 21.2525 18.9622 21.3513 18.7377 21.4388C18.5222 21.5241 18.273 21.6072 17.9924 21.6902C17.7118 21.7711 17.4289 21.8339 17.1438 21.8743C16.8543 21.9147 16.5647 21.9372 16.2773 21.9372H16.2504C15.1077 21.9372 14.0683 21.7464 13.1367 21.367C12.1983 20.9831 11.37 20.4084 10.6538 19.6429C9.9467 18.8841 9.41242 18.0445 9.05772 17.1219C8.70303 16.1992 8.52344 15.2002 8.52344 14.1272C8.52344 13.6558 8.56385 13.1866 8.64242 12.7219C8.72099 12.2617 8.83997 11.806 8.99936 11.3547C9.15874 10.9035 9.35405 10.4702 9.58752 10.0594C9.82099 9.64412 10.0926 9.25351 10.3979 8.88534C10.7122 8.50371 11.0804 8.16249 11.4979 7.85943C11.9087 7.56085 12.3712 7.2982 12.8853 7.07371C13.3994 6.84922 13.9426 6.68085 14.5151 6.56861C15.0853 6.45636 15.6847 6.40249 16.3087 6.40249H16.3649L16.3604 6.39575Z" fill="white"/>
<path d="M177.083 7.56754H176.012V7.17468H178.564V7.56754H177.493V10.6296H177.08V7.56754H177.083Z" fill="white"/>
<path d="M179.26 7.17242H179.947L180.948 10.0347H180.953L181.97 7.17242H182.641V10.6273H182.223L182.232 7.471H182.223L181.103 10.6273H180.769L179.651 7.471H179.642L179.651 10.6273H179.258V7.17242H179.26Z" fill="white"/>
</g>
<defs>
<clipPath id="clip0_261_70">
<rect width="182.735" height="22" fill="white"/>
</clipPath>
</defs>
</svg>
