<svg width="80" height="80" viewBox="0 0 80 80" fill="none" xmlns="http://www.w3.org/2000/svg">
<g clip-path="url(#clip0_288_63)">
<path d="M2.52422 40.0002V46.9326C2.52421 47.2387 2.63653 47.5342 2.83989 47.763C3.04324 47.9918 3.3235 48.138 3.6275 48.174L12.72 49.2488C13.1278 50.4507 13.6147 51.6243 14.1777 52.7618L8.50672 59.9533C8.3172 60.1937 8.22246 60.4952 8.24046 60.8008C8.25846 61.1064 8.38795 61.3947 8.60438 61.6112L18.4083 71.4151C18.6247 71.6315 18.9131 71.761 19.2186 71.779C19.5242 71.797 19.8257 71.7022 20.0661 71.5127L27.2561 65.843C28.3942 66.4058 29.5682 66.8927 30.7706 67.3004L31.8455 76.3919C31.8814 76.6959 32.0276 76.9761 32.2564 77.1795C32.4852 77.3829 32.7806 77.4952 33.0867 77.4952H46.9514C47.2575 77.4952 47.553 77.3829 47.7818 77.1796C48.0106 76.9762 48.1569 76.6959 48.1928 76.3919L49.2677 67.2994C50.4694 66.8915 51.6429 66.4045 52.7805 65.8418L59.972 71.5127C60.2124 71.7022 60.5139 71.797 60.8195 71.779C61.1251 71.761 61.4134 71.6315 61.6298 71.4151L71.4338 61.6112C71.6502 61.3947 71.7797 61.1064 71.7977 60.8008C71.8157 60.4952 71.7209 60.1937 71.5314 59.9533L65.8617 52.7635C66.4245 51.625 66.9114 50.4506 67.3191 49.2479L76.4105 48.1733C76.7145 48.1374 76.9947 47.9912 77.1981 47.7624C77.4014 47.5335 77.5138 47.2381 77.5138 46.9319V40.0002C77.5138 39.6687 77.3821 39.3508 77.1476 39.1163C76.9132 38.8819 76.5953 38.7502 76.2638 38.7502H53.7119C53.3804 38.7502 53.0624 38.8819 52.828 39.1163C52.5936 39.3508 52.4619 39.6687 52.4619 40.0002C52.4619 43.3003 51.1509 46.4651 48.8175 48.7986C46.484 51.1321 43.3191 52.443 40.0191 52.443C36.719 52.443 33.5541 51.1321 31.2207 48.7986C28.8872 46.4651 27.5763 43.3003 27.5763 40.0002C27.5763 39.6687 27.4446 39.3508 27.2101 39.1163C26.9757 38.8819 26.6578 38.7502 26.3263 38.7502H3.77422C3.4427 38.7502 3.12476 38.8819 2.89034 39.1163C2.65592 39.3508 2.52422 39.6687 2.52422 40.0002ZM5.02422 41.2502H25.128C25.4415 44.9838 27.1462 48.4634 29.9042 50.9995C32.6622 53.5356 36.2722 54.9431 40.019 54.9431C43.7657 54.9431 47.3758 53.5356 50.1338 50.9995C52.8918 48.4634 54.5964 44.9838 54.91 41.2502H75.0138V45.8216L66.2292 46.8596C65.9885 46.8881 65.7612 46.986 65.5751 47.1413C65.389 47.2967 65.2521 47.5028 65.1811 47.7346C64.6938 49.3202 64.057 50.856 63.2792 52.3212C63.1657 52.5352 63.1168 52.7777 63.1386 53.019C63.1603 53.2604 63.2517 53.4902 63.4017 53.6805L68.8803 60.6282L60.6478 68.8608L53.6984 63.3812C53.5081 63.2311 53.2783 63.1397 53.037 63.1179C52.7956 63.0961 52.5532 63.145 52.3391 63.2585C50.8743 64.0362 49.339 64.6732 47.7539 65.1608C47.5221 65.2319 47.316 65.3688 47.1607 65.5549C47.0053 65.741 46.9074 65.9682 46.8789 66.209L45.8403 74.9944H34.1977L33.1592 66.2097C33.1307 65.969 33.0328 65.7418 32.8775 65.5557C32.7221 65.3696 32.516 65.2327 32.2842 65.1616C30.6987 64.6744 29.163 64.0376 27.6978 63.2599C27.4836 63.1461 27.241 63.0971 26.9995 63.1189C26.7579 63.1406 26.5279 63.2321 26.3375 63.3822L19.3906 68.8616L11.1578 60.6288L16.6375 53.6798C16.7875 53.4894 16.879 53.2596 16.9007 53.0183C16.9225 52.7769 16.8737 52.5345 16.7602 52.3204C15.9823 50.8554 15.3454 49.3199 14.8578 47.7346C14.7868 47.5028 14.6499 47.2967 14.4638 47.1413C14.2777 46.986 14.0504 46.8881 13.8097 46.8596L5.02422 45.821V41.2502ZM45.623 15.3274C45.623 14.2419 45.3011 13.1807 44.698 12.2781C44.0949 11.3755 43.2377 10.672 42.2348 10.2566C41.2319 9.84118 40.1283 9.73249 39.0636 9.94427C37.9989 10.156 37.0209 10.6788 36.2534 11.4464C35.4858 12.214 34.963 13.1919 34.7512 14.2566C34.5395 15.3213 34.6482 16.4249 35.0636 17.4278C35.479 18.4307 36.1825 19.2879 37.0851 19.891C37.9877 20.4941 39.0488 20.816 40.1344 20.816C41.5895 20.8143 42.9846 20.2355 44.0136 19.2066C45.0425 18.1776 45.6213 16.7826 45.623 15.3274ZM37.1458 15.3274C37.1458 14.7363 37.3211 14.1585 37.6495 13.667C37.9778 13.1756 38.4446 12.7925 38.9907 12.5663C39.5368 12.3401 40.1377 12.2809 40.7174 12.3962C41.2972 12.5115 41.8297 12.7962 42.2476 13.2141C42.6656 13.6321 42.9502 14.1646 43.0655 14.7444C43.1809 15.3241 43.1217 15.925 42.8955 16.4711C42.6693 17.0172 42.2862 17.4839 41.7948 17.8123C41.3033 18.1407 40.7255 18.316 40.1344 18.316C39.342 18.3151 38.5824 18 38.0221 17.4397C37.4618 16.8794 37.1467 16.1198 37.1458 15.3274ZM13.4008 27.591V35.3235C13.4008 35.655 13.5325 35.973 13.7669 36.2074C14.0013 36.4418 14.3193 36.5735 14.6508 36.5735H65.3874C65.7189 36.5735 66.0368 36.4418 66.2712 36.2074C66.5057 35.973 66.6374 35.655 66.6374 35.3235V27.591C66.6374 25.5569 65.1834 24.0008 62.6486 23.3215C60.5851 22.7732 58.4629 22.4765 56.3281 22.4377C57.6499 22.2978 58.8678 21.6564 59.7309 20.6456C60.594 19.6348 61.0368 18.3315 60.968 17.0041C60.8993 15.6767 60.3242 14.4262 59.3612 13.51C58.3982 12.5938 57.1206 12.0817 55.7914 12.0791C54.4623 12.0765 53.1827 12.5836 52.2161 13.496C51.2495 14.4084 50.6695 15.6566 50.5955 16.9837C50.5216 18.3109 50.9592 19.6158 51.8184 20.63C52.6775 21.6442 53.8928 22.2904 55.2141 22.4355C53.434 22.4582 51.6606 22.6565 49.9195 23.0277C49.1867 22.5115 48.3646 22.1354 47.4948 21.9183C45.0961 21.2805 42.6242 20.9595 40.1422 20.9635H39.9063C37.421 20.959 34.9459 21.28 32.5441 21.9183C31.6744 22.1355 30.8525 22.5116 30.1197 23.0277C28.4474 22.6677 26.7443 22.4696 25.0341 22.4363C26.3547 22.293 27.5701 21.6492 28.4305 20.6371C29.2909 19.625 29.7307 18.3218 29.6595 16.9953C29.5883 15.6689 29.0115 14.4202 28.0478 13.506C27.084 12.5919 25.8066 12.0818 24.4783 12.0807C23.15 12.0796 21.8717 12.5875 20.9064 13.5001C19.9412 14.4126 19.3623 15.6604 19.2889 16.9867C19.2156 18.313 19.6532 19.617 20.5119 20.6305C21.3706 21.644 22.585 22.2899 23.9053 22.4354C21.7051 22.4591 19.5164 22.7565 17.3897 23.3208C14.8545 24.0002 13.4008 25.5569 13.4008 27.591ZM64.1374 27.591V34.0735H62.1358V28.8596C62.1358 28.5281 62.0041 28.2101 61.7697 27.9757C61.5353 27.7413 61.2173 27.6096 60.8858 27.6096C60.5543 27.6096 60.2363 27.7413 60.0019 27.9757C59.7675 28.2101 59.6358 28.5281 59.6358 28.8596V34.0729H51.7139V26.4166C51.7153 26.0255 51.6608 25.6361 51.552 25.2604C52.9156 25.0337 54.2959 24.9228 55.6781 24.9288C57.8127 24.9145 59.9397 25.1856 62.0025 25.7347C62.9759 25.9974 64.1374 26.5315 64.1374 27.591ZM53.0872 17.2751C53.0872 16.7425 53.2451 16.2219 53.541 15.7791C53.8369 15.3363 54.2574 14.9912 54.7494 14.7874C55.2414 14.5836 55.7828 14.5302 56.3052 14.6341C56.8275 14.738 57.3073 14.9945 57.6838 15.3711C58.0604 15.7476 58.3169 16.2274 58.4208 16.7497C58.5247 17.2721 58.4713 17.8135 58.2675 18.3055C58.0637 18.7975 57.7186 19.218 57.2758 19.5139C56.833 19.8098 56.3124 19.9677 55.7798 19.9677C55.066 19.9669 54.3815 19.683 53.8767 19.1782C53.3719 18.6734 53.088 17.989 53.0872 17.2751ZM33.1905 24.3332C37.669 23.1738 42.369 23.1738 46.8475 24.3332C47.9266 24.6224 49.2131 25.2187 49.2131 26.4177V34.074H46.8736V27.7822C46.8736 27.4507 46.7419 27.1328 46.5075 26.8984C46.2731 26.6639 45.9551 26.5322 45.6236 26.5322C45.2921 26.5322 44.9741 26.6639 44.7397 26.8984C44.5053 27.1328 44.3736 27.4507 44.3736 27.7822V34.0735H35.6645V27.7822C35.6645 27.4507 35.5328 27.1328 35.2984 26.8984C35.064 26.6639 34.7461 26.5322 34.4145 26.5322C34.083 26.5322 33.7651 26.6639 33.5307 26.8984C33.2962 27.1328 33.1645 27.4507 33.1645 27.7822V34.0735H30.8248V26.4172C30.8248 25.219 32.1114 24.6224 33.1905 24.3332ZM21.7803 17.2751C21.7803 16.7425 21.9382 16.2219 22.2341 15.7791C22.53 15.3363 22.9505 14.9911 23.4426 14.7874C23.9346 14.5836 24.476 14.5302 24.9983 14.6342C25.5207 14.7381 26.0005 14.9945 26.377 15.3711C26.7536 15.7477 27.01 16.2275 27.1139 16.7498C27.2178 17.2722 27.1644 17.8136 26.9606 18.3056C26.7568 18.7976 26.4116 19.2181 25.9688 19.514C25.526 19.8098 25.0054 19.9677 24.4728 19.9677C23.7589 19.9669 23.0746 19.6829 22.5698 19.1781C22.065 18.6733 21.7811 17.9889 21.7803 17.2751ZM24.3706 24.9304C25.7497 24.9219 27.127 25.0324 28.487 25.2608C28.3782 25.6366 28.3235 26.0259 28.3248 26.4171V34.0733H20.403V28.8596C20.403 28.5281 20.2713 28.2101 20.0369 27.9757C19.8024 27.7413 19.4845 27.6096 19.153 27.6096C18.8215 27.6096 18.5035 27.7413 18.2691 27.9757C18.0347 28.2101 17.903 28.5281 17.903 28.8596V34.0729H15.9014V27.591C15.9014 26.5312 17.0628 25.9972 18.0372 25.7363C20.1032 25.1879 22.2331 24.9168 24.3706 24.9304ZM7.38601e-07 31.8752C-0.000458086 32.6936 0.21286 33.4979 0.618832 34.2085C1.0248 34.9191 1.60935 35.5114 2.31458 35.9266C3.01982 36.3419 3.82128 36.5657 4.63962 36.5759C5.45795 36.5862 6.26477 36.3825 6.98018 35.985C7.69559 35.5876 8.29478 35.0102 8.71841 34.31C9.14205 33.6097 9.37544 32.811 9.39547 31.9928C9.4155 31.1747 9.22148 30.3655 8.83262 29.6454C8.44376 28.9253 7.87354 28.3192 7.17844 27.8872C9.64976 21.1687 14.1248 15.3712 19.9983 11.2788C25.8718 7.18644 32.8604 4.99656 40.0191 5.00537C56.7933 5.00537 70.9758 16.6552 74.2969 32.9171L71.7656 31.4558C71.4787 31.2927 71.1389 31.2497 70.8203 31.3362C70.5017 31.4226 70.2303 31.6316 70.0653 31.9175C69.9002 32.2033 69.855 32.5429 69.9393 32.862C70.0237 33.1811 70.2309 33.4539 70.5156 33.6208L75.3398 36.4065C75.6269 36.5722 75.9681 36.6171 76.2883 36.5313C76.6086 36.4455 76.8816 36.2361 77.0474 35.949L79.8325 31.1252C79.9957 30.8383 80.0387 30.4984 79.9522 30.1799C79.8657 29.8613 79.6567 29.5899 79.3709 29.4249C79.085 29.2598 78.7455 29.2145 78.4264 29.2989C78.1072 29.3833 77.8344 29.5905 77.6675 29.8752L76.5964 31.7305C74.8076 23.8293 70.5084 16.7196 64.3422 11.4653C58.176 6.21092 50.4742 3.0944 42.3892 2.58197C34.3042 2.06953 26.2706 4.18874 19.4903 8.62253C12.7101 13.0563 7.54773 19.5663 4.77563 27.1785C4.74969 27.1785 4.72422 27.1766 4.6975 27.1766C3.45191 27.1781 2.25779 27.6737 1.37713 28.5545C0.496464 29.4354 0.00119992 30.6296 7.38601e-07 31.8752ZM4.69828 29.6768C5.1331 29.6767 5.55816 29.8057 5.91971 30.0472C6.28126 30.2888 6.56307 30.6321 6.72949 31.0338C6.8959 31.4355 6.93946 31.8775 6.85465 32.304C6.76984 32.7305 6.56047 33.1222 6.25302 33.4297C5.94557 33.7372 5.55385 33.9466 5.12739 34.0314C4.70093 34.1162 4.25889 34.0727 3.85717 33.9063C3.45545 33.7399 3.11209 33.4582 2.87052 33.0966C2.62894 32.7351 2.5 32.31 2.5 31.8752C2.50062 31.2924 2.73241 30.7335 3.14453 30.3214C3.55664 29.9092 4.11542 29.6775 4.69828 29.6768Z" fill="white"/>
</g>
<defs>
<clipPath id="clip0_288_63">
<rect width="80" height="80" fill="white"/>
</clipPath>
</defs>
</svg>
