<svg width="50" height="70" viewBox="0 0 50 70" fill="none" xmlns="http://www.w3.org/2000/svg">
<path d="M23.9013 69.9999C22.8051 69.9999 21.7435 69.4029 21.2069 68.363L0.338107 28.066C-0.429275 26.5846 0.153482 24.7701 1.64207 24.0064C3.1306 23.2427 4.95384 23.8226 5.72122 25.3041L26.59 65.6074C27.3573 67.0888 26.7746 68.9028 25.2861 69.6667C24.8418 69.8963 24.3687 69.9999 23.9013 69.9999Z" fill="white"/>
<path d="M39.4336 70C38.1359 70 36.9645 69.1728 36.5549 67.9215L25.858 35.3412V36.9662C25.858 38.6314 24.5021 39.9808 22.8289 39.9808C21.1557 39.9808 19.7998 38.6314 19.7998 36.9662V16.4099C19.7998 14.9284 20.8845 13.6652 22.35 13.4355C23.8213 13.2001 25.2406 14.0671 25.7022 15.4739L37.8936 52.6075L43.1497 2.69801C43.3227 1.04431 44.817 -0.155794 46.4788 0.016448C48.1406 0.188757 49.3522 1.67593 49.1731 3.32963L42.4396 67.3009C42.2902 68.7137 41.1709 69.8331 39.7453 69.9825C39.6356 69.9939 39.5319 70 39.4222 70H39.4336Z" fill="url(#paint0_linear_2_407)"/>
<path d="M39.4336 70C38.1359 70 36.9645 69.1728 36.5549 67.9215L25.858 35.3412V36.9662C25.858 38.6314 24.5021 39.9808 22.8289 39.9808C21.1557 39.9808 19.7998 38.6314 19.7998 36.9662V16.4099C19.7998 14.9284 20.8845 13.6652 22.35 13.4355C23.8213 13.2001 25.2406 14.0671 25.7022 15.4739L37.8936 52.6075L43.1497 2.69801C43.3227 1.04431 44.817 -0.155794 46.4788 0.016448C48.1406 0.188757 49.3522 1.67593 49.1731 3.32963L42.4396 67.3009C42.2902 68.7137 41.1709 69.8331 39.7453 69.9825C39.6356 69.9939 39.5319 70 39.4222 70H39.4336Z" fill="white"/>
<defs>
<linearGradient id="paint0_linear_2_407" x1="34.4951" y1="70" x2="34.4951" y2="-0.000784406" gradientUnits="userSpaceOnUse">
<stop stop-color="#EC1C24"/>
<stop offset="1" stop-color="#2E3191"/>
</linearGradient>
</defs>
</svg>
