<svg width="80" height="80" viewBox="0 0 80 80" fill="none" xmlns="http://www.w3.org/2000/svg">
<g clip-path="url(#clip0_292_216)">
<path fill-rule="evenodd" clip-rule="evenodd" d="M44.0969 72.1727C44.1061 72.1727 44.1153 72.1727 44.1244 72.1735C44.1455 72.174 44.1664 72.1686 44.1847 72.1579L46.8594 69.4815L46.8605 69.4827C47.0147 69.3286 47.2179 69.2332 47.435 69.2129C47.6521 69.1927 47.8694 69.2488 48.0495 69.3716C49.7776 70.5537 51.7303 71.3679 53.7862 71.7637C54.0144 71.7905 54.2248 71.9001 54.3774 72.0718C54.5301 72.2435 54.6144 72.4652 54.6144 72.6949V76.4605C54.6149 76.4876 54.6261 76.5134 54.6456 76.5323L54.6439 76.534C54.6638 76.5528 54.6901 76.5632 54.7175 76.563L58.7358 76.546L58.78 76.4605V72.6949H58.7823C58.7824 72.4768 58.8587 72.2655 58.9981 72.0976C59.1374 71.9298 59.331 71.8159 59.5455 71.7757C61.6049 71.3883 63.5627 70.5813 65.2969 69.4049C65.4772 69.2645 65.7027 69.1947 65.9308 69.2088C66.159 69.2229 66.3741 69.3199 66.5358 69.4815L69.1989 72.1446C69.2179 72.1646 69.244 72.1763 69.2716 72.1771V72.1734C69.2927 72.1738 69.3136 72.1684 69.3319 72.1577L72.1444 69.3452L72.1462 69.347L72.1444 69.2001L69.4812 66.5368L69.4825 66.5356C69.3284 66.3814 69.2329 66.1782 69.2126 65.9611C69.1923 65.7441 69.2484 65.5267 69.3713 65.3466C70.5534 63.6185 71.3676 61.6659 71.7634 59.6099C71.7902 59.3818 71.8999 59.1714 72.0715 59.0187C72.2432 58.8661 72.465 58.7818 72.6947 58.7818H76.4603L76.5628 58.6793V54.7188L76.4603 54.6163H72.6947V54.614C72.4765 54.6139 72.2652 54.5376 72.0974 54.3983C71.9295 54.2589 71.8157 54.0653 71.7755 53.8509C71.388 51.7915 70.581 49.8339 69.4047 48.0998C69.2642 47.9194 69.1945 47.694 69.2086 47.4658C69.2228 47.2376 69.3198 47.0225 69.4814 46.8609L72.1444 44.1977C72.1643 44.1788 72.176 44.1527 72.1767 44.1252H72.1731C72.1736 44.1041 72.1682 44.0832 72.1575 44.0649L69.345 41.2524C69.326 41.2324 69.2999 41.2207 69.2723 41.2199V41.2237C69.2512 41.2232 69.2303 41.2286 69.212 41.2393L66.5367 43.9149L66.5355 43.9137C66.3813 44.0678 66.1781 44.1633 65.9611 44.1836C65.744 44.2039 65.5267 44.1478 65.3466 44.0249C63.6185 42.8428 61.6658 42.0286 59.6098 41.6327C59.3817 41.6059 59.1714 41.4963 59.0187 41.3247C58.866 41.1531 58.7817 40.9313 58.7817 40.7016V36.936C58.7815 36.9226 58.7786 36.9093 58.7733 36.897C58.7679 36.8847 58.7601 36.8736 58.7505 36.8643L58.7523 36.8626C58.7325 36.8438 58.7061 36.8334 58.6787 36.8335L54.6603 36.8506L54.6161 36.936V40.7016H54.6138C54.6137 40.9198 54.5374 41.1311 54.398 41.2989C54.2587 41.4668 54.0651 41.5807 53.8506 41.6209C51.7913 42.0082 49.8336 42.8152 48.0995 43.9916C47.9192 44.1321 47.6938 44.2017 47.4656 44.1876C47.2375 44.1735 47.0224 44.0765 46.8608 43.9149L44.1455 41.222L44.125 41.223L44.0648 41.2387L41.2523 44.0512C41.2424 44.0605 41.2344 44.0718 41.2288 44.0843C41.2232 44.0967 41.2202 44.1102 41.2198 44.1238H41.2236C41.2232 44.1449 41.2286 44.1658 41.2392 44.184L43.9147 46.8595L43.9134 46.8607C44.0675 47.0149 44.163 47.2181 44.1833 47.4351C44.2035 47.6522 44.1474 47.8695 44.0245 48.0496C42.8425 49.7778 42.0283 51.7305 41.6325 53.7865C41.6057 54.0146 41.4961 54.225 41.3244 54.3777C41.1527 54.5303 40.931 54.6146 40.7013 54.6146H36.9356L36.8331 54.7171V58.6773L36.9356 58.7798H40.7013V58.782C40.9194 58.782 41.1306 58.8583 41.2985 58.9977C41.4663 59.137 41.5802 59.3307 41.6203 59.5451C42.0077 61.6047 42.8148 63.5626 43.9914 65.297C44.1319 65.4773 44.2016 65.7028 44.1875 65.9309C44.1733 66.1591 44.0763 66.3742 43.9147 66.5359L41.2517 69.1988L41.2498 69.1973L41.2516 69.344L44.0969 72.1721V72.1727ZM55.3328 28.2259C55.6308 29.265 55.5752 30.3736 55.1747 31.3776C54.7741 32.3817 54.0514 33.2242 53.12 33.7729C52.1886 34.3215 51.1013 34.5452 50.029 34.4088C48.9567 34.2724 47.96 33.7836 47.1957 33.0193C46.4313 32.2549 45.9425 31.2583 45.8061 30.1859C45.6697 29.1136 45.8934 28.0263 46.4421 27.0949C46.9907 26.1635 47.8333 25.4408 48.8373 25.0403C49.8413 24.6397 50.95 24.5841 51.9891 24.8821L60.917 17.9871C61.098 17.8473 61.324 17.7787 61.5522 17.7943C61.7804 17.8099 61.995 17.9086 62.1553 18.0718C62.3156 18.2349 62.4105 18.4512 62.422 18.6797C62.4335 18.9081 62.3609 19.1329 62.2178 19.3113L55.3328 28.2259ZM53.5905 30.1604C53.707 29.5742 53.6471 28.9666 53.4186 28.4143H53.4195C53.3563 28.2622 53.3344 28.096 53.3561 27.9327C53.3778 27.7694 53.4424 27.6148 53.5431 27.4845L56.3011 23.9134L52.7695 26.6407C51.9727 27.2896 51.6133 26.3154 50.0544 26.6241C49.5215 26.7311 49.0277 26.9807 48.6256 27.3462C48.2234 27.7117 47.9279 28.1795 47.7706 28.6997C47.6133 29.2199 47.6001 29.773 47.7324 30.3001C47.8647 30.8272 48.1375 31.3085 48.5218 31.6928C48.9061 32.0771 49.3874 32.3499 49.9145 32.4822C50.4416 32.6145 50.9948 32.6013 51.515 32.444C52.0352 32.2867 52.5029 31.9912 52.8684 31.5891C53.2339 31.1869 53.4835 30.6931 53.5905 30.1602V30.1604ZM52.7364 1.57039C58.7451 2.0131 64.4502 4.38404 69.0028 8.33039C69.0996 8.41465 69.178 8.51787 69.2333 8.63367C69.2885 8.74947 69.3194 8.87537 69.3241 9.0036C69.3287 9.13182 69.3069 9.25962 69.2602 9.3791C69.2134 9.49858 69.1426 9.60719 69.0522 9.69821L69.0541 9.70008L63.4688 15.2856C63.296 15.4583 63.0626 15.5567 62.8183 15.56C62.574 15.5632 62.3381 15.4709 62.1608 15.3027C59.4024 13.0708 56.0537 11.6903 52.5238 11.3299C52.2927 11.3073 52.0784 11.1996 51.9224 11.0277C51.7664 10.8557 51.68 10.6319 51.68 10.3998H51.677V2.50008C51.677 2.36671 51.7055 2.23487 51.7605 2.11336C51.8155 1.99186 51.8958 1.88349 51.996 1.7955C52.0962 1.7075 52.2141 1.6419 52.3417 1.60309C52.4693 1.56427 52.6037 1.55312 52.7359 1.57039H52.7364ZM60.6689 5.35008C58.3951 4.40833 55.9991 3.79398 53.5527 3.52539V9.57352C56.881 10.0523 60.0357 11.3598 62.7269 13.3759L67.0042 9.09868C65.0796 7.55687 62.9468 6.29485 60.6689 5.35008ZM48.6983 11.3368C45.1684 11.7104 41.8238 13.1041 39.0733 15.3477C38.8939 15.4935 38.6668 15.5676 38.4359 15.5557C38.2051 15.5438 37.9868 15.4469 37.8233 15.2835L37.8213 15.2854L32.2359 9.70024C32.14 9.6049 32.0658 9.48987 32.0186 9.3631C31.9714 9.23632 31.9522 9.10081 31.9625 8.96591C31.9727 8.83102 32.0121 8.69995 32.078 8.58176C32.1438 8.46357 32.2345 8.36107 32.3438 8.28133C36.9023 4.35194 42.6064 1.99734 48.6094 1.56711C48.7375 1.55827 48.8661 1.57585 48.9871 1.61877C49.1082 1.66168 49.2191 1.72901 49.3131 1.81657C49.4071 1.90414 49.482 2.01008 49.5333 2.12782C49.5846 2.24556 49.6112 2.37258 49.6114 2.50102H49.6128V10.3995C49.6129 10.6441 49.5174 10.879 49.3466 11.0542C49.1759 11.2293 48.9434 11.3308 48.6989 11.337L48.6983 11.3368ZM42.917 10.8957C44.4624 10.2556 46.0818 9.81129 47.7375 9.57321V3.52633C42.8151 4.06768 38.149 6.00074 34.2859 9.09899L38.5625 13.3759C39.905 12.3713 41.3676 11.5381 42.9164 10.8957H42.917ZM36.3781 18.0541C36.5463 17.8769 36.6386 17.641 36.6353 17.3967C36.6321 17.1524 36.5337 16.919 36.3609 16.7462L30.7752 11.1607L30.7733 11.1626C30.6823 11.0721 30.5737 11.0014 30.4542 10.9546C30.3347 10.9078 30.2069 10.8861 30.0787 10.8907C29.9504 10.8953 29.8245 10.9262 29.7087 10.9815C29.5929 11.0368 29.4897 11.1152 29.4055 11.212C25.9194 15.235 23.6529 20.1688 22.8719 25.4345C22.8425 25.5711 22.8441 25.7126 22.8766 25.8485C22.9091 25.9845 22.9716 26.1114 23.0596 26.22C23.1475 26.3286 23.2587 26.4162 23.3849 26.4762C23.5111 26.5362 23.6491 26.5672 23.7889 26.567H31.7788V26.5646C31.9937 26.5646 32.2021 26.4905 32.3688 26.3548C32.5356 26.2192 32.6505 26.0302 32.6942 25.8198C33.2892 22.9759 34.5518 20.3141 36.3778 18.0541H36.3781ZM32.3953 20.8865C32.967 19.6887 33.6556 18.5502 34.4511 17.4877L30.1737 13.2106C27.4981 16.5463 25.6847 20.4895 24.8938 24.692H31.0334C31.3578 23.3808 31.8139 22.1058 32.395 20.8865H32.3953ZM71.9331 11.269C71.8532 11.16 71.7506 11.0697 71.6324 11.0041C71.5143 10.9385 71.3833 10.8992 71.2486 10.8889C71.1138 10.8787 70.9785 10.8976 70.8517 10.9446C70.725 10.9915 70.6099 11.0653 70.5144 11.1609L64.9292 16.746L64.9313 16.7481C64.7678 16.9116 64.6708 17.1298 64.659 17.3607C64.6471 17.5916 64.7212 17.8187 64.867 17.9981C66.7027 20.2525 67.9762 22.911 68.5822 25.7545C68.6124 25.9794 68.7233 26.1857 68.8941 26.3352C69.065 26.4846 69.2843 26.5669 69.5113 26.567H77.5V26.5652C77.6338 26.5644 77.7659 26.5351 77.8874 26.4792C78.0089 26.4233 78.1172 26.3421 78.2049 26.2411C78.2925 26.14 78.3577 26.0215 78.3959 25.8932C78.4341 25.765 78.4445 25.6301 78.4264 25.4976C77.6571 20.2343 75.4049 15.299 71.9331 11.269ZM74.4833 18.6727C73.5887 16.7211 72.4578 14.8867 71.1158 13.2109L66.8389 17.4876C68.4495 19.6357 69.6117 22.0857 70.2567 24.692H76.3952C76.005 22.6153 75.363 20.5939 74.4833 18.6727ZM45.0198 73.8337V75.547C45.0182 76.3131 44.7131 77.0473 44.1713 77.5891C43.6296 78.1308 42.8953 78.4359 42.1292 78.4376H4.45312C3.687 78.4359 2.95274 78.1308 2.41101 77.5891C1.86928 77.0473 1.56419 76.3131 1.5625 75.547V37.8495C1.56415 37.0833 1.86923 36.349 2.41097 35.8073C2.95271 35.2656 3.68699 34.9605 4.45312 34.9588H42.1291C42.8952 34.9605 43.6295 35.2656 44.1712 35.8073C44.713 36.349 45.018 37.0833 45.0197 37.8495V39.5626C45.2056 39.656 45.3753 39.7787 45.5223 39.9259L47.6497 42.0532C49.2213 41.0793 50.9405 40.367 52.7403 39.9438V36.9363C52.7421 36.4123 52.9512 35.9102 53.3218 35.5397C53.6925 35.1692 54.1947 34.9604 54.7188 34.9588H58.6781C58.9376 34.9591 59.1945 35.0106 59.434 35.1105C59.6736 35.2104 59.891 35.3567 60.0737 35.5409L60.0755 35.539C60.2594 35.7222 60.4054 35.94 60.505 36.1798C60.6045 36.4196 60.6558 36.6767 60.6558 36.9363V39.944C62.4552 40.3679 64.1743 41.0802 65.7461 42.0534L67.8734 39.926C68.2456 39.5573 68.7478 39.3496 69.2717 39.3479V39.3515C69.5311 39.3505 69.7881 39.4007 70.028 39.4993C70.268 39.5979 70.4861 39.7428 70.6698 39.9259L73.4702 42.7262C73.8389 43.0983 74.0465 43.6006 74.0483 44.1245H74.0445C74.0455 44.3838 73.9953 44.6408 73.8967 44.8807C73.7982 45.1207 73.6533 45.3388 73.4703 45.5226L71.3438 47.6501C72.3177 49.2216 73.0301 50.9409 73.4531 52.7407H76.4609C76.9851 52.7419 77.4873 52.9507 77.8578 53.3215C78.2283 53.6923 78.4367 54.1947 78.4375 54.7188V58.679C78.4365 59.2031 78.2278 59.7055 77.8572 60.0761C77.4866 60.4468 76.9841 60.6554 76.46 60.6563H73.4522C73.0291 62.4561 72.3167 64.1753 71.3428 65.7468L73.4702 67.8741C73.6536 68.0577 73.7991 68.2757 73.8982 68.5155C73.9974 68.7553 74.0484 69.0123 74.0482 69.2718C74.0481 69.5314 73.9968 69.7883 73.8973 70.028C73.7978 70.2677 73.6521 70.4855 73.4684 70.6688L73.4702 70.6705L70.67 73.4707C70.2979 73.8395 69.7956 74.0471 69.2717 74.0488V74.0452C69.0123 74.0462 68.7553 73.9959 68.5154 73.8974C68.2755 73.7988 68.0574 73.6539 67.8736 73.4709L65.7461 71.3438C64.1746 72.3177 62.4555 73.0301 60.6558 73.4532V76.461C60.6537 76.9848 60.4447 77.4865 60.0742 77.8568C59.7037 78.227 59.2019 78.4358 58.6781 78.4376H54.7188C54.4592 78.4374 54.2023 78.3859 53.9628 78.286C53.7233 78.1861 53.5059 78.0398 53.3231 77.8555L53.3213 77.8574C53.1373 77.6742 52.9914 77.4564 52.8918 77.2166C52.7923 76.9768 52.741 76.7197 52.7411 76.4601V73.4532C50.9416 73.0292 49.2226 72.3168 47.6506 71.3438L45.5233 73.4712L45.0205 73.8346L45.0198 73.8337ZM43.1448 39.6084L42.7264 39.9262L39.9261 42.7265C39.743 42.9102 39.5981 43.1284 39.4995 43.3683C39.4009 43.6082 39.3507 43.8652 39.3517 44.1246H39.348C39.3498 44.6485 39.5574 45.1507 39.9261 45.5229L42.0536 47.6502C41.0805 49.2222 40.3682 50.9412 39.9442 52.7407H36.9362C36.4119 52.7416 35.9094 52.9503 35.5387 53.3211C35.168 53.6919 34.9594 54.1945 34.9586 54.7188V58.679C34.9596 59.2032 35.1683 59.7056 35.5389 60.0762C35.9096 60.4468 36.4121 60.6554 36.9362 60.6563H39.9439C40.367 62.4561 41.0794 64.1753 42.0533 65.7468L39.9259 67.8741L39.9278 67.8759C39.7441 68.0592 39.5984 68.277 39.4989 68.5167C39.3994 68.7563 39.3481 69.0133 39.3479 69.2728C39.3478 69.5323 39.3987 69.7894 39.4979 70.0292C39.5971 70.269 39.7425 70.4869 39.9259 70.6705L42.7264 73.4709C42.8508 73.5954 42.9915 73.7025 43.1447 73.7891V75.547C43.1433 75.8159 43.0358 76.0734 42.8456 76.2635C42.6555 76.4537 42.398 76.5611 42.1291 76.5626H4.45312C4.18421 76.5611 3.92671 76.4537 3.73656 76.2635C3.5464 76.0734 3.43894 75.8159 3.4375 75.547V37.8495C3.43894 37.5805 3.5464 37.323 3.73656 37.1329C3.92671 36.9427 4.18421 36.8353 4.45312 36.8338H15.973V51.4977H15.9748C15.9752 51.6656 16.0206 51.8302 16.1063 51.9745C16.1921 52.1188 16.315 52.2373 16.4623 52.3178C16.6096 52.3983 16.7758 52.4377 16.9435 52.4319C17.1113 52.4262 17.2744 52.3755 17.4158 52.2851L23.2908 48.4951L29.1136 52.2513C29.2531 52.3546 29.4186 52.4171 29.5916 52.4318C29.7645 52.4466 29.9382 52.413 30.0932 52.3349C30.2482 52.2568 30.3785 52.1371 30.4695 51.9893C30.5605 51.8415 30.6087 51.6713 30.6087 51.4977V36.8338H42.1287C42.3977 36.8352 42.6552 36.9427 42.8454 37.1328C43.0355 37.323 43.143 37.5805 43.1444 37.8495V39.6084H43.1448ZM56.698 47.2345C58.5696 47.2345 60.3993 47.7895 61.9555 48.8294C63.5117 49.8693 64.7247 51.3472 65.4409 53.0764C66.1572 54.8056 66.3446 56.7084 65.9794 58.5441C65.6143 60.3798 64.713 62.066 63.3895 63.3895C62.0661 64.713 60.3799 65.6143 58.5442 65.9795C56.7085 66.3446 54.8057 66.1573 53.0765 65.441C51.3473 64.7248 49.8693 63.5119 48.8294 61.9557C47.7895 60.3995 47.2344 58.5699 47.2344 56.6982C47.2343 55.4554 47.4791 54.2248 47.9546 53.0765C48.4302 51.9283 49.1273 50.885 50.0061 50.0062C50.8848 49.1274 51.9281 48.4303 53.0763 47.9548C54.2245 47.4792 55.4552 47.2344 56.698 47.2345ZM56.698 45.3595C58.9405 45.3595 61.1326 46.0245 62.9972 47.2704C64.8618 48.5163 66.315 50.2871 67.1732 52.3589C68.0313 54.4307 68.2559 56.7105 67.8184 58.9099C67.3809 61.1093 66.301 63.1296 64.7154 64.7153C63.1297 66.301 61.1094 67.3809 58.91 67.8184C56.7105 68.256 54.4308 68.0315 52.359 67.1733C50.2871 66.3152 48.5163 64.862 47.2704 62.9974C46.0245 61.1329 45.3594 58.9407 45.3594 56.6982C45.3594 53.691 46.554 50.807 48.6804 48.6806C50.8068 46.5542 53.6908 45.3595 56.698 45.3595ZM28.7344 36.8338H17.8484V49.7796L22.7703 46.6048C22.9218 46.5031 23.0998 46.448 23.2822 46.4462C23.4647 46.4443 23.6437 46.4959 23.7972 46.5945L28.7347 49.7796L28.7344 36.8338Z" fill="white"/>
</g>
<defs>
<clipPath id="clip0_292_216">
<rect width="80" height="80" fill="white"/>
</clipPath>
</defs>
</svg>
