<svg width="80" height="80" viewBox="0 0 80 80" fill="none" xmlns="http://www.w3.org/2000/svg">
<g clip-path="url(#clip0_292_222)">
<path d="M45.1852 30.4281C44.668 30.4281 44.2477 30.8484 44.2477 31.3656V49.4766C44.2477 49.9937 44.668 50.4141 45.1852 50.4141H53.868C54.3852 50.4141 54.8055 49.9937 54.8055 49.4766V31.3656C54.8055 30.8484 54.3852 30.4281 53.868 30.4281H45.1852ZM52.9289 48.5391H46.1211V32.3031H52.9289V48.5391ZM58.543 21.4078V49.4766C58.543 49.9937 58.9633 50.4141 59.4805 50.4141H68.1617C68.6789 50.4141 69.0992 49.9937 69.0992 49.4766V21.4078C69.0992 20.8906 68.6789 20.4703 68.1617 20.4703H59.4805C58.9617 20.4703 58.543 20.8891 58.543 21.4078ZM60.418 22.3453H67.2242V48.5391H60.418V22.3453ZM74.3242 2.34375C73.807 2.34375 73.3867 2.76406 73.3867 3.28125V55.3562L40.6227 55.2422C41.168 53.3859 41.3039 51.3797 40.9352 49.3484C40.8305 48.7734 40.6852 48.2156 40.5086 47.6734V25.8891C40.5086 25.3719 40.0883 24.9516 39.5711 24.9516H30.8898C30.3727 24.9516 29.9523 25.3719 29.9523 25.8891V38.9266C28.7367 38.7703 27.4805 38.7875 26.2133 38.9984V34.6031C26.2133 34.0859 25.793 33.6656 25.2758 33.6656H16.5945C16.0773 33.6656 15.657 34.0859 15.657 34.6031V49.5563C15.4211 50.9906 15.432 52.4703 15.6992 53.9422C15.7742 54.3547 15.8695 54.7594 15.982 55.1562L5.67891 55.1203C5.67735 55.1203 5.67735 55.1203 5.67579 55.1203C5.16016 55.1203 4.73985 55.5375 4.73829 56.0547C4.73672 56.5719 5.15547 56.9937 5.67266 56.9953L16.6758 57.0328C17.1211 58 17.6867 58.9047 18.357 59.7281L9.66797 70.3813C8.97891 71.225 8.68829 72.3125 8.84766 73.4438C9.0336 74.7531 9.81016 75.9969 10.9273 76.7703C11.7602 77.3469 12.7711 77.6547 13.7664 77.6547C14.1055 77.6547 14.4445 77.6188 14.7727 77.5453C15.8867 77.2969 16.8023 76.6406 17.3492 75.6984L24.2586 63.8141C25.5555 64.2484 26.9133 64.4719 28.2883 64.4719C29.0602 64.4719 29.8367 64.4016 30.6117 64.2609C34.8352 63.4922 38.1961 60.7234 39.907 57.1125L74.3195 57.2312H74.3227C74.5711 57.2312 74.8086 57.1328 74.9852 56.9578C75.1617 56.7812 75.2602 56.5422 75.2602 56.2937V3.28125C75.2617 2.76406 74.8414 2.34375 74.3242 2.34375ZM31.8273 26.8266H38.6336V44.0312C36.9492 41.7562 34.5477 40.0922 31.8273 39.3125V26.8266ZM17.532 35.5391H24.3383V39.4531C21.6805 40.3141 19.3883 42.0094 17.7711 44.3469C17.6883 44.4672 17.6102 44.5891 17.532 44.7109V35.5391ZM15.7289 74.7578C15.368 75.3797 14.7883 75.6219 14.3648 75.7172C13.5758 75.8937 12.6898 75.7109 11.9945 75.2313C11.2992 74.75 10.818 73.9844 10.7039 73.1844C10.643 72.7563 10.6664 72.1281 11.1211 71.5703L16.9055 64.4781L20.3289 66.8484L15.7289 74.7578ZM21.2742 65.2187L18.0945 63.0172L19.657 61.1016C20.0836 61.4906 20.5367 61.8547 21.0195 62.1891C21.5023 62.5234 22.0023 62.8188 22.518 63.0813L21.2742 65.2187ZM30.2773 62.4188C27.3992 62.9422 24.4898 62.3141 22.0852 60.65C20.2961 59.4125 18.9477 57.7109 18.157 55.7375C17.8852 55.0578 17.6773 54.3453 17.543 53.6062C16.4617 47.6656 20.4148 41.9531 26.3555 40.8719C27.0164 40.7516 27.6727 40.6938 28.3211 40.6938C33.507 40.6938 38.1289 44.4047 39.0898 49.6844C40.1711 55.625 36.218 61.3375 30.2773 62.4188ZM26.7352 42.9531C21.943 43.825 18.7539 48.4344 19.6258 53.2266C20.0492 55.5484 21.3492 57.5656 23.2898 58.9094C24.7836 59.9437 26.5195 60.4812 28.2992 60.4812C28.8305 60.4812 29.3664 60.4328 29.8992 60.3359C32.2211 59.9141 34.2383 58.6125 35.582 56.6719C36.9242 54.7313 37.432 52.3844 37.0086 50.0625C36.1367 45.2703 31.5289 42.0812 26.7352 42.9531ZM34.0398 55.6063C32.982 57.1344 31.393 58.1594 29.5633 58.4922C27.7336 58.825 25.8852 58.425 24.357 57.3672C22.8289 56.3094 21.8039 54.7187 21.4711 52.8906C20.7836 49.1156 23.2961 45.4844 27.0711 44.7984C30.8477 44.1109 34.4773 46.6234 35.1633 50.4C35.4961 52.2281 35.0977 54.0766 34.0398 55.6063ZM21.0023 29.9047C23.2102 29.9047 25.007 28.1078 25.007 25.9C25.007 25.6797 24.9883 25.4641 24.9539 25.2531L32.3273 20.2422C33.0617 21.0938 34.1492 21.6344 35.3586 21.6344C36.8289 21.6344 38.1148 20.8375 38.8117 19.6531L45.2148 22.0781C45.7586 23.6438 47.2492 24.7719 48.9977 24.7719C51.032 24.7719 52.7164 23.2453 52.968 21.2781L60.8008 15.7922C61.4867 16.3437 62.3586 16.6766 63.307 16.6766C65.5148 16.6766 67.3117 14.8797 67.3117 12.6719C67.3117 10.4641 65.5148 8.66719 63.307 8.66719C61.0992 8.66719 59.3023 10.4641 59.3023 12.6719C59.3023 13.2547 59.4289 13.8078 59.6539 14.3078L52.6789 19.1922C52.0664 17.7641 50.6461 16.7625 48.9977 16.7625C47.0461 16.7625 45.4164 18.1656 45.0648 20.0172L39.3555 17.8547C39.3602 17.7797 39.3617 17.7047 39.3617 17.6297C39.3617 15.4219 37.5648 13.625 35.357 13.625C33.1492 13.625 31.3523 15.4219 31.3523 17.6297C31.3523 17.95 31.3914 18.2625 31.4633 18.5609L24.2008 23.4969C23.4695 22.525 22.307 21.8953 20.9992 21.8953C18.7914 21.8953 16.9945 23.6922 16.9945 25.9C16.9945 28.1078 18.793 29.9047 21.0023 29.9047ZM63.3086 10.5438C64.4836 10.5438 65.4383 11.4984 65.4383 12.6734C65.4383 13.8484 64.4836 14.8031 63.3086 14.8031C62.1336 14.8031 61.1789 13.8484 61.1789 12.6734C61.1789 11.4984 62.1352 10.5438 63.3086 10.5438ZM48.9992 18.6375C50.1742 18.6375 51.1289 19.5922 51.1289 20.7672C51.1289 21.9422 50.1742 22.8969 48.9992 22.8969C47.8242 22.8969 46.8695 21.9422 46.8695 20.7672C46.8695 19.5922 47.8242 18.6375 48.9992 18.6375ZM35.3586 15.5C36.5336 15.5 37.4883 16.4547 37.4883 17.6297C37.4883 18.8047 36.5336 19.7594 35.3586 19.7594C34.1836 19.7594 33.2289 18.8047 33.2289 17.6297C33.2289 16.4547 34.1852 15.5 35.3586 15.5ZM21.0023 23.7703C22.1773 23.7703 23.132 24.725 23.132 25.9C23.132 27.075 22.1758 28.0297 21.0023 28.0297C19.8289 28.0297 18.8727 27.075 18.8727 25.9C18.8727 24.7266 19.8273 23.7703 21.0023 23.7703Z" fill="white"/>
</g>
<defs>
<clipPath id="clip0_292_222">
<rect width="80" height="80" fill="white"/>
</clipPath>
</defs>
</svg>
