<svg width="80" height="80" viewBox="0 0 80 80" fill="none" xmlns="http://www.w3.org/2000/svg">
<g clip-path="url(#clip0_292_228)">
<g clip-path="url(#clip1_292_228)">
<path d="M74.1133 11.1433C70.7295 9.49072 66.6532 10.8915 65.0006 14.2595C63.8674 16.5731 64.135 19.3117 65.6931 21.3734L58.9727 28.6447C56.5647 25.7645 52.2995 25.3868 49.4193 27.7791C49.2305 27.9364 49.0573 28.1096 48.8842 28.2827L43.2498 23.6713C43.2498 23.6398 43.2498 23.6083 43.2498 23.5611C43.2498 19.7996 40.2122 16.762 36.4507 16.762C32.6891 16.762 29.6515 19.7996 29.6515 23.5611C29.6515 24.1749 29.7302 24.7887 29.9034 25.371L23.6551 33.1774C20.2713 31.5563 16.2107 32.9886 14.5896 36.3724C12.9686 39.7562 14.4008 43.8168 17.7846 45.4379C18.6974 45.8628 19.7047 46.0989 20.712 46.0989C24.4578 46.0989 27.5111 43.0613 27.5111 39.3155C27.5111 37.8046 27.0074 36.3566 26.0946 35.1605L31.5874 28.2984C34.2 30.9898 38.4967 31.0527 41.188 28.4401C41.6287 27.9994 42.0221 27.5115 42.3369 26.9764L47.2789 31.0212C46.1772 34.6097 48.2074 38.4184 51.7959 39.5044C55.3843 40.5903 59.193 38.5758 60.279 34.9874C60.6095 33.9171 60.6567 32.784 60.4521 31.698L68.1169 23.3722C71.5007 25.0248 75.577 23.6241 77.2296 20.256C78.8821 16.8722 77.4814 12.7958 74.1133 11.1433ZM20.712 42.9511C18.6974 42.9511 17.0606 41.3143 17.0606 39.2998C17.0606 37.2852 18.6974 35.6484 20.712 35.6484C22.7265 35.6484 24.3634 37.2852 24.3634 39.2998C24.3634 41.3143 22.7265 42.9511 20.712 42.9511ZM36.4507 27.2125C34.4361 27.2125 32.7993 25.5756 32.7993 23.5611C32.7993 21.5465 34.4361 19.9097 36.4507 19.9097C38.4652 19.9097 40.102 21.5465 40.102 23.5611C40.102 25.5756 38.4652 27.2125 36.4507 27.2125ZM53.7632 36.6557C51.7486 36.6557 50.1118 35.0189 50.1118 33.0043C50.1118 30.9898 51.7486 29.3529 53.7632 29.3529C55.7777 29.3529 57.4146 30.9898 57.4146 33.0043C57.4146 35.0189 55.7777 36.6557 53.7632 36.6557ZM71.0757 20.917C69.0612 20.917 67.4244 19.2802 67.4244 17.2656C67.4244 15.2511 69.0612 13.6143 71.0757 13.6143C73.0903 13.6143 74.7271 15.2511 74.7271 17.2656C74.7271 19.2802 73.0903 20.917 71.0757 20.917Z" fill="white"/>
<path d="M77.6868 65.3787L73.7679 59.3351L77.6868 53.2914C77.9859 52.8035 78.0173 52.1897 77.734 51.6861C77.4665 51.1667 76.9314 50.8519 76.349 50.8362H65.332V48.3495C65.3005 47.4681 64.5765 46.7599 63.6952 46.7441H47.6732C46.8076 46.7599 46.1151 47.4839 46.1308 48.3495V49.7345H11.5057V1.52693C11.49 0.677038 10.7975 0.000275309 9.94758 0.000275309C9.93184 0.000275309 9.93184 0.000275309 9.9161 0.000275309H3.62063C2.77074 -0.0154634 2.07824 0.645561 2.0625 1.47971C2.0625 1.49545 2.0625 1.51119 2.0625 1.52693V54.4561C2.0625 57.053 4.17148 59.1777 6.76836 59.1777H46.1308V78.4261C46.1308 79.2917 46.839 80 47.7047 80C48.5703 80 49.2785 79.2917 49.2785 78.4261V64.0567H55.4166V66.2286C55.4166 67.11 56.1091 67.8182 56.9905 67.834H76.3648C77.2462 67.8182 77.9544 67.11 77.9387 66.2286C77.9387 65.9296 77.8442 65.6306 77.6868 65.3787ZM46.1308 56.03H6.76836C5.90274 56.03 5.21023 55.3375 5.21023 54.4718V3.14801H8.35797V51.3084C8.35797 52.174 9.05047 52.8665 9.9161 52.8822C9.9161 52.8822 9.9161 52.8822 9.93184 52.8822H46.1308V56.03ZM49.2785 60.909V49.8919H62.1842V60.909H49.2785ZM70.573 60.2164L73.4689 64.6862H58.5643V64.0567H63.6952C64.5608 64.0567 65.332 63.3799 65.332 62.5143V53.9839H73.4689L70.573 58.4695C70.2424 58.9888 70.2582 59.6656 70.573 60.2164Z" fill="white"/>
</g>
</g>
<defs>
<clipPath id="clip0_292_228">
<rect width="80" height="80" fill="white"/>
</clipPath>
<clipPath id="clip1_292_228">
<rect width="80" height="80" fill="white"/>
</clipPath>
</defs>
</svg>
