<svg width="80" height="80" viewBox="0 0 80 80" fill="none" xmlns="http://www.w3.org/2000/svg">
<g clip-path="url(#clip0_292_219)">
<path fill-rule="evenodd" clip-rule="evenodd" d="M55.6138 53.4413C53.71 51.8363 52.5 49.4338 52.5 46.75C52.5 41.9213 56.4213 38 61.25 38C66.0788 38 70 41.9213 70 46.75C70 49.4325 68.79 51.835 66.8862 53.4413C71.5725 54.7987 75 59.1238 75 64.2488V71.75C75 72.44 74.44 73 73.75 73H48.75C48.06 73 47.5 72.44 47.5 71.75C47.5 71.75 47.5 68.17 47.5 64.2488C47.5 59.1238 50.9275 54.7987 55.6138 53.4413ZM72.5 70.5V64.2488C72.5 59.4163 68.5825 55.4988 63.75 55.4988C62.1038 55.4988 60.3962 55.4988 58.75 55.4988C53.9175 55.4988 50 59.4163 50 64.2488V70.5H72.5ZM61.25 40.5C64.7 40.5 67.5 43.3 67.5 46.75C67.5 50.2 64.7 53 61.25 53C57.8 53 55 50.2 55 46.75C55 43.3 57.8 40.5 61.25 40.5Z" fill="white"/>
<path fill-rule="evenodd" clip-rule="evenodd" d="M48.775 31.3337C47.9825 30.4487 47.5 29.28 47.5 28C47.5 25.24 49.74 23 52.5 23C55.26 23 57.5 25.24 57.5 28C57.5 30.76 55.26 33 52.5 33C51.9238 33 51.37 32.9025 50.8537 32.7225L46.225 39.6663C47.0175 40.5513 47.5 41.72 47.5 43C47.5 45.76 45.26 48 42.5 48C39.74 48 37.5 45.76 37.5 43C37.5 42.7425 37.52 42.4888 37.5575 42.2413L28.9563 38.5562C28.0413 39.7388 26.6087 40.5 25 40.5C24.4237 40.5 23.87 40.4025 23.3538 40.2225L18.725 47.1663C19.5175 48.0513 20 49.22 20 50.5C20 53.26 17.76 55.5 15 55.5C12.24 55.5 10 53.26 10 50.5C10 47.74 12.24 45.5 15 45.5C15.5763 45.5 16.13 45.5975 16.6463 45.7775L21.275 38.8337C20.4825 37.9487 20 36.78 20 35.5C20 32.74 22.24 30.5 25 30.5C27.76 30.5 30 32.74 30 35.5C30 35.7575 29.98 36.0113 29.9425 36.2588L38.5437 39.9438C39.4587 38.7613 40.8913 38 42.5 38C43.0762 38 43.63 38.0975 44.1463 38.2775L48.775 31.3337ZM15 48C16.38 48 17.5 49.12 17.5 50.5C17.5 51.88 16.38 53 15 53C13.62 53 12.5 51.88 12.5 50.5C12.5 49.12 13.62 48 15 48ZM42.5 40.5C43.88 40.5 45 41.62 45 43C45 44.38 43.88 45.5 42.5 45.5C41.12 45.5 40 44.38 40 43C40 41.62 41.12 40.5 42.5 40.5ZM25 33C26.38 33 27.5 34.12 27.5 35.5C27.5 36.88 26.38 38 25 38C23.62 38 22.5 36.88 22.5 35.5C22.5 34.12 23.62 33 25 33ZM52.5 25.5C53.88 25.5 55 26.62 55 28C55 29.38 53.88 30.5 52.5 30.5C51.12 30.5 50 29.38 50 28C50 26.62 51.12 25.5 52.5 25.5Z" fill="white"/>
<path fill-rule="evenodd" clip-rule="evenodd" d="M5 56.75V11.75C5 9.67875 6.67875 8 8.75 8H58.75C60.8213 8 62.5 9.67875 62.5 11.75V34.25C62.5 34.94 61.94 35.5 61.25 35.5C60.56 35.5 60 34.94 60 34.25V20.5012H7.5V56.75C7.5 57.44 8.06 58 8.75 58H45C45.69 58 46.25 58.56 46.25 59.25C46.25 59.94 45.69 60.5 45 60.5C32.0425 60.5 15.0588 60.5 8.75 60.5C6.67875 60.5 5 58.8213 5 56.75ZM60 18.0013V11.75C60 11.06 59.44 10.5 58.75 10.5C49.5887 10.5 17.9113 10.5 8.75 10.5C8.06 10.5 7.5 11.06 7.5 11.75V18.0013H60Z" fill="white"/>
<path fill-rule="evenodd" clip-rule="evenodd" d="M57.5 14.251C57.5 14.5825 57.3683 14.9004 57.1339 15.1349C56.8995 15.3693 56.5815 15.501 56.25 15.501C55.9185 15.501 55.6005 15.3693 55.3661 15.1349C55.1317 14.9004 55 14.5825 55 14.251C55 13.9195 55.1317 13.6015 55.3661 13.3671C55.6005 13.1327 55.9185 13.001 56.25 13.001C56.5815 13.001 56.8995 13.1327 57.1339 13.3671C57.3683 13.6015 57.5 13.9195 57.5 14.251Z" fill="white"/>
<path fill-rule="evenodd" clip-rule="evenodd" d="M52.5 14.251C52.5 14.5825 52.3683 14.9004 52.1339 15.1349C51.8995 15.3693 51.5815 15.501 51.25 15.501C50.9185 15.501 50.6005 15.3693 50.3661 15.1349C50.1317 14.9004 50 14.5825 50 14.251C50 13.9195 50.1317 13.6015 50.3661 13.3671C50.6005 13.1327 50.9185 13.001 51.25 13.001C51.5815 13.001 51.8995 13.1327 52.1339 13.3671C52.3683 13.6015 52.5 13.9195 52.5 14.251Z" fill="white"/>
<path fill-rule="evenodd" clip-rule="evenodd" d="M47.5 14.251C47.5 14.5825 47.3683 14.9004 47.1339 15.1349C46.8995 15.3693 46.5815 15.501 46.25 15.501C45.9185 15.501 45.6005 15.3693 45.3661 15.1349C45.1317 14.9004 45 14.5825 45 14.251C45 13.9195 45.1317 13.6015 45.3661 13.3671C45.6005 13.1327 45.9185 13.001 46.25 13.001C46.5815 13.001 46.8995 13.1327 47.1339 13.3671C47.3683 13.6015 47.5 13.9195 47.5 14.251Z" fill="white"/>
<path fill-rule="evenodd" clip-rule="evenodd" d="M40 54.25C40 54.5815 39.8683 54.8995 39.6339 55.1339C39.3995 55.3683 39.0815 55.5 38.75 55.5C38.4185 55.5 38.1005 55.3683 37.8661 55.1339C37.6317 54.8995 37.5 54.5815 37.5 54.25C37.5 53.9185 37.6317 53.6005 37.8661 53.3661C38.1005 53.1317 38.4185 53 38.75 53C39.0815 53 39.3995 53.1317 39.6339 53.3661C39.8683 53.6005 40 53.9185 40 54.25Z" fill="white"/>
<path fill-rule="evenodd" clip-rule="evenodd" d="M28.75 55.499H33.75C34.4398 55.499 35 54.939 35 54.249C35 53.559 34.4398 52.999 33.75 52.999H28.75C28.06 52.999 27.5 53.559 27.5 54.249C27.5 54.939 28.06 55.499 28.75 55.499Z" fill="white"/>
</g>
<defs>
<clipPath id="clip0_292_219">
<rect width="80" height="80" fill="white"/>
</clipPath>
</defs>
</svg>
