<svg width="80" height="80" viewBox="0 0 80 80" fill="none" xmlns="http://www.w3.org/2000/svg">
<g clip-path="url(#clip0_292_225)">
<path d="M42.225 72.6132C42.0975 72.6116 41.9711 72.5905 41.85 72.5507C41.6917 72.5007 41.545 72.4197 41.4184 72.3124C41.2918 72.2051 41.1878 72.0736 41.1125 71.9257C41.0076 71.721 40.8482 71.5491 40.6519 71.4291C40.4557 71.3092 40.2301 71.2457 40 71.2457C39.7699 71.2457 39.5443 71.3092 39.3481 71.4291C39.1518 71.5491 38.9924 71.721 38.8875 71.9257C38.7333 72.2158 38.4711 72.4334 38.1577 72.5317C37.8442 72.6299 37.5047 72.6008 37.2125 72.4507L10.3875 58.5257C10.2406 58.4494 10.1104 58.3446 10.0043 58.2176C9.89828 58.0905 9.81852 57.9436 9.76968 57.7854C9.72084 57.6273 9.70389 57.461 9.71983 57.2963C9.73576 57.1315 9.78426 56.9716 9.8625 56.8257C9.95365 56.6478 10.0008 56.4506 10 56.2507C10.0047 56.0638 9.96166 55.8789 9.875 55.7132C9.77369 55.5005 9.61432 55.3208 9.41528 55.1947C9.21623 55.0686 8.98561 55.0014 8.75 55.0007C8.41848 55.0007 8.10054 54.869 7.86612 54.6346C7.6317 54.4002 7.5 54.0822 7.5 53.7507V26.2507C7.5046 25.9198 7.63408 25.6028 7.8625 25.3632C7.9793 25.2474 8.11782 25.1557 8.27012 25.0935C8.42241 25.0313 8.58549 24.9998 8.75 25.0007C8.97954 25.0012 9.20477 24.9385 9.40101 24.8194C9.59725 24.7003 9.75691 24.5295 9.8625 24.3257C9.95365 24.1478 10.0008 23.9506 10 23.7507C9.99883 23.555 9.95173 23.3624 9.8625 23.1882C9.78668 23.0422 9.74044 22.8826 9.72642 22.7187C9.71241 22.5547 9.73091 22.3896 9.78084 22.2329C9.83078 22.0761 9.91118 21.9307 10.0174 21.8051C10.1237 21.6794 10.2537 21.576 10.4 21.5007L37.2 7.50072C37.5043 7.3757 37.8457 7.3757 38.15 7.50072C38.3083 7.55072 38.455 7.63173 38.5816 7.73904C38.7082 7.84635 38.8122 7.9778 38.8875 8.12572C38.9924 8.33047 39.1518 8.5023 39.3481 8.62229C39.5443 8.74228 39.7699 8.80577 40 8.80577C40.2301 8.80577 40.4557 8.74228 40.6519 8.62229C40.8482 8.5023 41.0076 8.33047 41.1125 8.12572C41.1799 7.97343 41.2771 7.83615 41.3984 7.72195C41.5196 7.60775 41.6624 7.51893 41.8185 7.46071C41.9745 7.40248 42.1406 7.37603 42.307 7.3829C42.4734 7.38977 42.6368 7.42983 42.7875 7.50072L69.6125 21.4757C69.7594 21.5521 69.8896 21.6568 69.9957 21.7839C70.1017 21.911 70.1815 22.0578 70.2303 22.216C70.2792 22.3741 70.2961 22.5404 70.2802 22.7052C70.2642 22.8699 70.2157 23.0299 70.1375 23.1757C70.0463 23.3536 69.9992 23.5508 70 23.7507C69.9953 23.9376 70.0383 24.1226 70.125 24.2882C70.2263 24.5009 70.3857 24.6807 70.5847 24.8067C70.7838 24.9328 71.0144 25.0001 71.25 25.0007C71.5815 25.0007 71.8995 25.1324 72.1339 25.3668C72.3683 25.6013 72.5 25.9192 72.5 26.2507V53.7507C72.4954 54.0817 72.3659 54.3987 72.1375 54.6382C72.0207 54.7541 71.8822 54.8457 71.7299 54.9079C71.5776 54.9701 71.4145 55.0017 71.25 55.0007C71.0157 55.0002 70.786 55.0656 70.5871 55.1894C70.3882 55.3132 70.2281 55.4903 70.125 55.7007C70.042 55.8721 69.9992 56.0603 70 56.2507C70.0012 56.4464 70.0483 56.6391 70.1375 56.8132C70.2133 56.9592 70.2596 57.1188 70.2736 57.2828C70.2876 57.4467 70.2691 57.6118 70.2192 57.7686C70.1692 57.9254 70.0888 58.0707 69.9826 58.1964C69.8763 58.322 69.7463 58.4254 69.6 58.5007L42.8 72.5007C42.62 72.5832 42.4229 72.6218 42.225 72.6132ZM40 68.7507C40.9577 68.751 41.8791 69.1178 42.575 69.7757L67.5 56.7507C67.4872 56.5843 67.4872 56.4171 67.5 56.2507C67.4996 55.4749 67.7398 54.7181 68.1876 54.0845C68.6353 53.4509 69.2686 52.9718 70 52.7132V27.2757C69.0853 26.9502 68.3325 26.2825 67.9 25.4132C67.6374 24.8984 67.5003 24.3287 67.5 23.7507C67.4876 23.5718 67.4876 23.3922 67.5 23.2132L42.5 10.2507C41.7898 10.8697 40.8796 11.2107 39.9375 11.2107C38.9954 11.2107 38.0852 10.8697 37.375 10.2507L12.5 23.2507C12.5128 23.4171 12.5128 23.5843 12.5 23.7507C12.5056 24.3673 12.3505 24.9748 12.05 25.5132C11.6231 26.3486 10.8879 26.9852 10 27.2882V52.7257C10.9147 53.0513 11.6675 53.7189 12.1 54.5882C12.3626 55.1031 12.4997 55.6728 12.5 56.2507C12.5124 56.4297 12.5124 56.6093 12.5 56.7882L37.5 69.7507C38.1808 69.1194 39.0716 68.7631 40 68.7507Z" fill="white"/>
<path d="M40 76.2503C39.0055 76.2503 38.0516 75.8552 37.3484 75.152C36.6451 74.4487 36.25 73.4949 36.25 72.5003C36.2482 71.8897 36.3986 71.2883 36.6875 70.7503C37.0045 70.1425 37.4821 69.6332 38.0683 69.2777C38.6545 68.9223 39.327 68.7344 40.0125 68.7344C40.6981 68.7344 41.3705 68.9223 41.9567 69.2777C42.5429 69.6332 43.0205 70.1425 43.3375 70.7503C43.6208 71.2894 43.7627 71.8915 43.75 72.5003C43.75 73.4949 43.3549 74.4487 42.6517 75.152C41.9484 75.8552 40.9946 76.2503 40 76.2503ZM40 71.2503C39.7705 71.2499 39.5452 71.3126 39.349 71.4317C39.1528 71.5507 38.9931 71.7215 38.8875 71.9253C38.8014 72.0934 38.7545 72.2789 38.7503 72.4677C38.7462 72.6565 38.7848 72.8438 38.8635 73.0156C38.9421 73.1873 39.0586 73.339 39.2042 73.4592C39.3499 73.5795 39.5209 73.6651 39.7044 73.7098C39.8879 73.7545 40.0792 73.757 40.2638 73.7171C40.4484 73.6773 40.6216 73.5961 40.7704 73.4797C40.9191 73.3633 41.0395 73.2147 41.1226 73.0451C41.2057 72.8755 41.2493 72.6892 41.25 72.5003C41.25 72.1688 41.1183 71.8509 40.8839 71.6165C40.6495 71.382 40.3315 71.2503 40 71.2503Z" fill="white"/>
<path d="M8.75 60C8.00832 60 7.2833 59.7801 6.66661 59.368C6.04993 58.956 5.56928 58.3703 5.28545 57.6851C5.00162 56.9998 4.92736 56.2458 5.07206 55.5184C5.21675 54.791 5.5739 54.1228 6.09835 53.5984C6.6228 53.0739 7.29098 52.7168 8.01841 52.5721C8.74584 52.4274 9.49984 52.5016 10.1851 52.7855C10.8703 53.0693 11.456 53.5499 11.868 54.1666C12.2801 54.7833 12.5 55.5083 12.5 56.25C12.5018 56.8606 12.3515 57.4621 12.0625 58C11.7443 58.603 11.2678 59.1078 10.6841 59.4602C10.1005 59.8126 9.43179 59.9993 8.75 60ZM8.75 55C8.41848 55 8.10054 55.1317 7.86612 55.3661C7.6317 55.6005 7.5 55.9185 7.5 56.25C7.5 56.5815 7.6317 56.8995 7.86612 57.1339C8.10054 57.3683 8.41848 57.5 8.75 57.5C8.97954 57.5005 9.20477 57.4377 9.40101 57.3187C9.59725 57.1996 9.75692 57.0288 9.8625 56.825C9.96131 56.6343 10.0093 56.4213 10.0019 56.2066C9.99439 55.9919 9.93174 55.7828 9.81993 55.5994C9.70812 55.416 9.55093 55.2644 9.36352 55.1595C9.17611 55.0545 8.96481 54.9996 8.75 55Z" fill="white"/>
<path d="M8.75 27.5C7.75544 27.5 6.80161 27.1049 6.09835 26.4017C5.39509 25.6984 5 24.7446 5 23.75C5 22.7554 5.39509 21.8016 6.09835 21.0983C6.80161 20.3951 7.75544 20 8.75 20C9.4412 20.0009 10.1187 20.1929 10.7077 20.5546C11.2966 20.9164 11.7742 21.4339 12.0875 22.05C12.3627 22.5741 12.5044 23.158 12.5 23.75C12.5056 24.3666 12.3505 24.9741 12.05 25.5125C11.7312 26.1113 11.2559 26.6124 10.6747 26.9624C10.0936 27.3124 9.42839 27.4982 8.75 27.5ZM8.75 22.5C8.52775 22.4982 8.30905 22.5558 8.11644 22.6667C7.92383 22.7776 7.76426 22.9378 7.65419 23.1309C7.54412 23.324 7.48751 23.5429 7.49021 23.7651C7.49291 23.9874 7.55482 24.2049 7.66955 24.3952C7.78428 24.5856 7.94769 24.7419 8.14294 24.8481C8.3382 24.9543 8.55823 25.0065 8.78037 24.9993C9.00251 24.9922 9.21872 24.9259 9.40673 24.8074C9.59474 24.6889 9.74776 24.5223 9.85 24.325C9.94549 24.1482 9.99695 23.9509 10 23.75C10 23.4185 9.8683 23.1005 9.63388 22.8661C9.39946 22.6317 9.08152 22.5 8.75 22.5Z" fill="white"/>
<path d="M71.2501 60C70.5589 59.9991 69.8814 59.8071 69.2924 59.4454C68.7035 59.0836 68.2259 58.5661 67.9126 57.95C67.6374 57.4259 67.4957 56.842 67.5001 56.25C67.5001 55.5083 67.72 54.7833 68.1321 54.1666C68.5441 53.5499 69.1298 53.0693 69.815 52.7855C70.5003 52.5016 71.2543 52.4274 71.9817 52.5721C72.7091 52.7168 73.3773 53.0739 73.9017 53.5984C74.4262 54.1228 74.7833 54.791 74.928 55.5184C75.0727 56.2458 74.9985 56.9998 74.7146 57.6851C74.4308 58.3703 73.9502 58.956 73.3335 59.368C72.7168 59.7801 71.9918 60 71.2501 60ZM71.2501 55C71.0029 55 70.7612 55.0733 70.5556 55.2107C70.3501 55.348 70.1899 55.5432 70.0953 55.7716C70.0006 56.0001 69.9759 56.2514 70.0241 56.4939C70.0723 56.7363 70.1914 56.9591 70.3662 57.1339C70.541 57.3087 70.7638 57.4278 71.0062 57.476C71.2487 57.5242 71.5 57.4995 71.7285 57.4048C71.9569 57.3102 72.1521 57.15 72.2894 56.9445C72.4268 56.7389 72.5001 56.4972 72.5001 56.25C72.5001 55.9185 72.3684 55.6005 72.134 55.3661C71.8996 55.1317 71.5816 55 71.2501 55Z" fill="white"/>
<path d="M71.25 27.5C70.2555 27.5 69.3016 27.1049 68.5984 26.4016C67.8951 25.6984 67.5 24.7446 67.5 23.75C67.4982 23.1394 67.6486 22.5379 67.9375 22C68.2476 21.4123 68.7083 20.9176 69.2724 20.5664C69.8366 20.2152 70.4839 20.0203 71.1481 20.0015C71.8123 19.9827 72.4696 20.1407 73.0527 20.4594C73.6358 20.7781 74.1237 21.2461 74.4665 21.8153C74.8093 22.3845 74.9948 23.0346 75.0038 23.699C75.0128 24.3635 74.8451 25.0184 74.5179 25.5967C74.1907 26.175 73.7157 26.656 73.1415 26.9905C72.5673 27.3249 71.9145 27.5007 71.25 27.5ZM71.25 22.5C71.0205 22.4995 70.7952 22.5623 70.599 22.6813C70.4028 22.8004 70.2431 22.9712 70.1375 23.175C70.0121 23.4171 69.9693 23.6935 70.0156 23.9621C70.0618 24.2308 70.1947 24.477 70.3938 24.6631C70.593 24.8493 70.8475 24.9653 71.1187 24.9933C71.3898 25.0214 71.6628 24.9601 71.8958 24.8187C72.1289 24.6773 72.3093 24.4635 72.4097 24.21C72.51 23.9566 72.5247 23.6772 72.4516 23.4146C72.3784 23.152 72.2214 22.9205 72.0045 22.7554C71.7876 22.5902 71.5226 22.5006 71.25 22.5Z" fill="white"/>
<path d="M40.0001 11.25C39.3089 11.2491 38.6314 11.0571 38.0424 10.6954C37.4535 10.3336 36.9759 9.8161 36.6626 9.2C36.3874 8.67587 36.2457 8.09196 36.2501 7.5C36.2501 6.50544 36.6452 5.55161 37.3484 4.84835C38.0517 4.14509 39.0055 3.75 40.0001 3.75C40.9947 3.75 41.9485 4.14509 42.6517 4.84835C43.355 5.55161 43.7501 6.50544 43.7501 7.5C43.7519 8.11062 43.6016 8.71207 43.3126 9.25C42.9944 9.853 42.5179 10.3578 41.9342 10.7102C41.3506 11.0626 40.6819 11.2492 40.0001 11.25ZM40.0001 6.25C39.787 6.25064 39.5776 6.30575 39.3918 6.41008C39.2061 6.51441 39.05 6.6645 38.9386 6.8461C38.8271 7.0277 38.7639 7.23478 38.755 7.44768C38.7461 7.66057 38.7917 7.87221 38.8876 8.0625C38.9925 8.26725 39.1519 8.43908 39.3482 8.55907C39.5444 8.67906 39.77 8.74255 40.0001 8.74255C40.2302 8.74255 40.4558 8.67906 40.652 8.55907C40.8483 8.43908 41.0077 8.26725 41.1126 8.0625C41.2085 7.87221 41.2541 7.66057 41.2452 7.44768C41.2363 7.23478 41.1731 7.0277 41.0616 6.8461C40.9502 6.6645 40.7941 6.51441 40.6083 6.41008C40.4226 6.30575 40.2132 6.25064 40.0001 6.25Z" fill="white"/>
<path d="M39.9994 62.5C35.0787 62.5008 30.2934 60.8883 26.3766 57.9098C22.4597 54.9312 19.6273 50.7507 18.3132 46.0086C16.9992 41.2666 17.2759 36.2246 19.101 31.6548C20.926 27.085 24.1989 23.2396 28.4182 20.7075C32.6374 18.1754 37.5704 17.0963 42.4615 17.6355C47.3526 18.1747 51.9321 20.3024 55.4985 23.6928C59.0649 27.0832 61.4215 31.5492 62.2073 36.4068C62.9932 41.2644 62.1649 46.2456 59.8494 50.5875C57.9307 54.1855 55.0703 57.1943 51.574 59.2925C48.0778 61.3908 44.077 62.4994 39.9994 62.5ZM39.9994 20C34.6951 20 29.608 22.1072 25.8573 25.8579C22.1066 29.6086 19.9994 34.6957 19.9994 40C19.9838 43.2846 20.7917 46.5207 22.3494 49.4125C24.0548 52.6124 26.5979 55.2885 29.7068 57.1545C32.8158 59.0205 36.3735 60.0063 39.9994 60.0063C43.6254 60.0063 47.1831 59.0205 50.292 57.1545C53.401 55.2885 55.9441 52.6124 57.6494 49.4125C59.1945 46.5157 60.0028 43.2831 60.0028 40C60.0028 36.7169 59.1945 33.4843 57.6494 30.5875C55.9433 27.3888 53.3998 24.714 50.2909 22.8491C47.182 20.9842 43.6247 19.9994 39.9994 20Z" fill="white"/>
<path d="M40 20C39.6685 20 39.3505 19.8683 39.1161 19.6339C38.8817 19.3995 38.75 19.0815 38.75 18.75V10C38.75 9.66848 38.8817 9.35054 39.1161 9.11612C39.3505 8.8817 39.6685 8.75 40 8.75C40.3315 8.75 40.6495 8.8817 40.8839 9.11612C41.1183 9.35054 41.25 9.66848 41.25 10V18.75C41.25 19.0815 41.1183 19.3995 40.8839 19.6339C40.6495 19.8683 40.3315 20 40 20Z" fill="white"/>
<path d="M40 71.25C39.6685 71.25 39.3505 71.1183 39.1161 70.8839C38.8817 70.6495 38.75 70.3315 38.75 70V61.25C38.75 60.9185 38.8817 60.6005 39.1161 60.3661C39.3505 60.1317 39.6685 60 40 60C40.3315 60 40.6495 60.1317 40.8839 60.3661C41.1183 60.6005 41.25 60.9185 41.25 61.25V70C41.25 70.3315 41.1183 70.6495 40.8839 70.8839C40.6495 71.1183 40.3315 71.25 40 71.25Z" fill="white"/>
<path d="M21.1479 31.4501C20.9484 31.4477 20.7519 31.4007 20.5729 31.3126L10.3854 26.0126C10.2368 25.937 10.1046 25.833 9.99626 25.7064C9.88791 25.5798 9.80555 25.4331 9.7539 25.2746C9.70225 25.1162 9.68231 24.9491 9.69522 24.783C9.70813 24.6168 9.75364 24.4549 9.82915 24.3063C9.90466 24.1577 10.0087 24.0255 10.1353 23.9172C10.2619 23.8088 10.4086 23.7265 10.5671 23.6748C10.7255 23.6231 10.8926 23.6032 11.0587 23.6161C11.2249 23.629 11.3868 23.6745 11.5354 23.7501L21.7229 29.0501C21.973 29.1782 22.1726 29.3868 22.2895 29.6423C22.4065 29.8977 22.434 30.1852 22.3675 30.4582C22.3011 30.7312 22.1446 30.9738 21.9233 31.147C21.702 31.3201 21.4289 31.4137 21.1479 31.4125V31.4501Z" fill="white"/>
<path d="M10.9877 56.3879C10.7568 56.3872 10.5307 56.3226 10.3343 56.2013C10.138 56.0799 9.97903 55.9066 9.87515 55.7004C9.72689 55.4052 9.70151 55.0633 9.80457 54.7495C9.90763 54.4356 10.1307 54.1753 10.4252 54.0254L20.6877 48.8879C20.8349 48.7993 20.9989 48.742 21.1693 48.7196C21.3398 48.6972 21.513 48.7103 21.6782 48.7578C21.8433 48.8054 21.9969 48.8866 22.1293 48.9962C22.2617 49.1058 22.3701 49.2416 22.4476 49.395C22.5252 49.5484 22.5703 49.7161 22.5801 49.8877C22.5899 50.0593 22.5642 50.2311 22.5046 50.3923C22.445 50.5536 22.3528 50.7008 22.2337 50.8248C22.1147 50.9488 21.9713 51.0469 21.8127 51.1129L11.5502 56.2504C11.3773 56.343 11.1838 56.3903 10.9877 56.3879Z" fill="white"/>
<path d="M69.0124 56.3879C68.8163 56.3903 68.6228 56.343 68.4499 56.2504L58.1874 51.1129C58.0288 51.0469 57.8854 50.9488 57.7664 50.8248C57.6473 50.7008 57.5551 50.5536 57.4955 50.3923C57.4359 50.2311 57.4102 50.0593 57.42 49.8877C57.4298 49.7161 57.4749 49.5484 57.5525 49.395C57.63 49.2416 57.7384 49.1058 57.8708 48.9962C58.0032 48.8866 58.1568 48.8054 58.3219 48.7578C58.4871 48.7103 58.6603 48.6972 58.8308 48.7196C59.0012 48.742 59.1652 48.7993 59.3124 48.8879L69.5749 54.0254C69.8694 54.1753 70.0925 54.4356 70.1955 54.7495C70.2986 55.0633 70.2732 55.4052 70.1249 55.7004C70.0211 55.9066 69.8621 56.0799 69.6658 56.2013C69.4694 56.3226 69.2433 56.3872 69.0124 56.3879Z" fill="white"/>
<path d="M58.7494 31.2493C58.5185 31.2486 58.2924 31.184 58.096 31.0626C57.8997 30.9413 57.7407 30.7679 57.6369 30.5618C57.4886 30.2665 57.4632 29.9246 57.5663 29.6108C57.6694 29.2969 57.8925 29.0366 58.1869 28.8868L68.4494 23.7493C68.5967 23.6606 68.7606 23.6033 68.9311 23.581C69.1015 23.5586 69.2747 23.5716 69.4399 23.6192C69.6051 23.6667 69.7586 23.7479 69.891 23.8575C70.0234 23.9671 70.1318 24.1029 70.2094 24.2563C70.2869 24.4097 70.332 24.5774 70.3418 24.749C70.3516 24.9207 70.3259 25.0924 70.2663 25.2537C70.2067 25.4149 70.1145 25.5621 69.9955 25.6861C69.8764 25.8101 69.7331 25.9082 69.5744 25.9743L59.3119 31.1118C59.139 31.2043 58.9455 31.2516 58.7494 31.2493Z" fill="white"/>
<path d="M39.9994 56.2489C37.1466 56.2493 34.3439 55.4986 31.8732 54.0723C29.4025 52.6461 27.3508 50.5945 25.9244 48.1239C25.6226 47.6006 25.3472 47.0624 25.0994 46.5114C23.4787 42.811 23.2945 38.6396 24.5826 34.8107C25.8707 30.9819 28.5388 27.7701 32.0666 25.8017C35.5943 23.8333 39.7288 23.2496 43.6636 24.1642C47.5984 25.0789 51.0515 27.4264 53.3494 30.7489C55.2471 33.4593 56.2601 36.6903 56.2494 39.9989C56.2494 44.3087 54.5373 48.4419 51.4899 51.4894C48.4424 54.5369 44.3092 56.2489 39.9994 56.2489ZM39.9994 26.2489C37.7149 26.2484 35.4662 26.817 33.4566 27.9035C31.4469 28.9901 29.7397 30.5602 28.4891 32.472C27.2386 34.3839 26.484 36.5772 26.2938 38.8538C26.1035 41.1304 26.4835 43.4185 27.3994 45.5114C28.1813 47.3287 29.3551 48.9507 30.8369 50.2614C32.4994 51.7439 34.4972 52.8003 36.6583 53.3397C38.8195 53.8791 41.0794 53.8853 43.2435 53.358C45.4076 52.8306 47.4113 51.7853 49.082 50.3121C50.7527 48.8389 52.0405 46.9819 52.8346 44.9008C53.6287 42.8197 53.9053 40.5768 53.6406 38.3651C53.376 36.1534 52.5779 34.0391 51.3152 32.2042C50.0525 30.3692 48.3629 28.8685 46.3917 27.8311C44.4205 26.7937 42.2269 26.2508 39.9994 26.2489Z" fill="white"/>
<path d="M41.25 46.25H37.5C37.1685 46.25 36.8505 46.1183 36.6161 45.8839C36.3817 45.6495 36.25 45.3315 36.25 45C36.25 44.6685 36.3817 44.3505 36.6161 44.1161C36.8505 43.8817 37.1685 43.75 37.5 43.75H41.25C41.5815 43.75 41.8995 43.6183 42.1339 43.3839C42.3683 43.1495 42.5 42.8315 42.5 42.5C42.5 42.1685 42.3683 41.8505 42.1339 41.6161C41.8995 41.3817 41.5815 41.25 41.25 41.25H38.75C37.7554 41.25 36.8016 40.8549 36.0983 40.1516C35.3951 39.4484 35 38.4946 35 37.5C35 36.5054 35.3951 35.5516 36.0983 34.8483C36.8016 34.1451 37.7554 33.75 38.75 33.75H42.5C42.8315 33.75 43.1495 33.8817 43.3839 34.1161C43.6183 34.3505 43.75 34.6685 43.75 35C43.75 35.3315 43.6183 35.6495 43.3839 35.8839C43.1495 36.1183 42.8315 36.25 42.5 36.25H38.75C38.4185 36.25 38.1005 36.3817 37.8661 36.6161C37.6317 36.8505 37.5 37.1685 37.5 37.5C37.5 37.8315 37.6317 38.1495 37.8661 38.3839C38.1005 38.6183 38.4185 38.75 38.75 38.75H41.25C42.2446 38.75 43.1984 39.1451 43.9016 39.8483C44.6049 40.5516 45 41.5054 45 42.5C45 43.4946 44.6049 44.4484 43.9016 45.1516C43.1984 45.8549 42.2446 46.25 41.25 46.25Z" fill="white"/>
<path d="M40 48.75C39.6685 48.75 39.3505 48.6183 39.1161 48.3839C38.8817 48.1495 38.75 47.8315 38.75 47.5V45C38.75 44.6685 38.8817 44.3505 39.1161 44.1161C39.3505 43.8817 39.6685 43.75 40 43.75C40.3315 43.75 40.6495 43.8817 40.8839 44.1161C41.1183 44.3505 41.25 44.6685 41.25 45V47.5C41.25 47.8315 41.1183 48.1495 40.8839 48.3839C40.6495 48.6183 40.3315 48.75 40 48.75Z" fill="white"/>
<path d="M40 36.25C39.6685 36.25 39.3505 36.1183 39.1161 35.8839C38.8817 35.6495 38.75 35.3315 38.75 35V32.5C38.75 32.1685 38.8817 31.8505 39.1161 31.6161C39.3505 31.3817 39.6685 31.25 40 31.25C40.3315 31.25 40.6495 31.3817 40.8839 31.6161C41.1183 31.8505 41.25 32.1685 41.25 32.5V35C41.25 35.3315 41.1183 35.6495 40.8839 35.8839C40.6495 36.1183 40.3315 36.25 40 36.25Z" fill="white"/>
</g>
<defs>
<clipPath id="clip0_292_225">
<rect width="80" height="80" fill="white"/>
</clipPath>
</defs>
</svg>
